<?xml version="1.0" encoding="UTF-8"?>
<svg width="80px" height="80px" viewBox="0 0 80 80" version="1.1" xmlns="http://www.w3.org/2000/svg" xmlns:xlink="http://www.w3.org/1999/xlink">
    <!-- Generator: Sketch 52.5 (67469) - http://www.bohemiancoding.com/sketch -->
    <g id="Assets/Logos/Clubs/Reverse/Adelaide" stroke="none" stroke-width="1" fill="none" fill-rule="evenodd">
        <g id="Page-1" transform="translate(2.000000, 15.000000)">
            <g id="Group-119" transform="translate(0.649007, 0.364238)">
                <path d="M29.543947,44.1276821 C29.5132185,44.1202649 29.4877881,44.1176159 29.4570596,44.1165563 C29.4247417,44.1160265 29.391894,44.1165563 29.3585166,44.1165563 L13.2816954,44.1192053 L17.1084503,38.6352318 L15.1916291,39.0230464 L16.4896424,37.6042384 L14.2814305,38.146755 L15.7235497,36.4190728 C15.7426225,36.3962914 16.477457,35.5184106 17.6509669,34.645298 C18.810702,33.7822517 20.4944106,32.8508609 22.3942781,32.8709934 C23.1312318,32.8794702 28.650702,32.8709934 30.8366623,32.8709934 L31.1646093,32.8709934 L31.4220927,31.6100662 C31.4316291,31.5629139 31.9407682,29.0866225 34.0414305,26.885298 C33.3998411,26.9631788 32.6448742,27.0739073 31.8024901,27.2307285 C29.0687152,27.741457 25.4332185,28.7417219 21.8056689,30.6950993 L19.6409007,31.8606623 C19.6409007,31.8606623 21.1503046,29.050596 21.7903046,28.0513907 C22.4281854,27.0564238 23.3659338,25.6953642 24.5659338,24.2304636 C26.5903046,21.7594702 29.3971921,18.946755 32.8144106,17.1109934 C32.1463311,16.9684768 31.3235497,16.8143046 30.3677881,16.6770861 C27.5820927,16.2760265 23.6710993,16.0153642 19.1794437,16.5769536 L17.2403709,16.8190728 L18.5341457,15.3541722 C18.560106,15.3250331 19.685404,14.0550993 21.6885828,12.6744371 C22.9611656,11.7970861 24.5982517,10.8678146 26.5405033,10.1864901 C25.0846093,9.98039735 23.2631523,9.75682119 21.2181192,9.58092715 C16.0303046,9.13430464 9.46182781,8.9992053 3.8141457,10.2007947 L3.03533775,10.3517881 L0.405933775,11.0023841 L0.346066225,10.8699338 L3.24407947,8.86834437 C3.27692715,8.84609272 11.8936159,2.89642384 23.7277881,1.04476821 C35.5926887,-0.811655629 50.6771921,1.46225166 63.5042119,17.8230464 C63.7765298,18.005298 64.560106,18.546755 65.5704371,19.4002649 C66.818649,20.4556291 68.4255364,21.9978808 69.837457,23.9369536 C72.6655364,27.8209272 74.7646093,33.3891391 71.4888477,39.767947 L70.7005033,41.3033113 L69.7193113,38.4815894 L68.0038146,44.1213245 L64.0430199,44.1223841 L63.6673907,44.6309934 C63.6642119,44.8874172 63.626596,45.2810596 63.5084503,45.8950993 C63.2112318,47.4394702 61.5031523,48.7745695 59.4819603,48.7698013 C56.7942781,48.7634437 45.7108344,48.7698013 41.8914967,48.7698013 C40.031894,48.7698013 39.066596,47.9703311 38.7958675,46.8206623 C38.661298,46.247947 38.7179868,45.6535099 38.8234172,45.1645033 C38.0207682,45.1035762 36.4006358,45.447947 36.4006358,45.447947 L37.2165298,44.9388079 C36.4334834,44.9223841 34.797457,45.2344371 34.797457,45.2344371 L36.5087152,44.1266225 L29.543947,44.1276821 Z M32.3481854,32.8683444 L32.7508344,32.8662252 L36.7566623,32.8662252 C36.8864636,32.1176159 37.143947,30.9552318 37.6234172,29.850596 C37.4909669,29.8977483 37.3537483,29.9480795 37.2112318,30.0015894 C35.8883179,30.498543 34.1712318,31.2699338 32.562755,32.3687417 L31.8284503,32.8699338 L32.3481854,32.8683444 Z M45.8597086,32.8709934 L54.6687152,32.8709934 C51.7977219,32.0201325 49.1895099,31.9660927 47.2038146,32.157351 C46.0393113,32.2691391 44.9267285,32.5292715 44.1060662,32.7618543 C43.9836821,32.7957616 43.8650066,32.8312583 43.7505695,32.8662252 L45.0591788,32.8662252 L45.8597086,32.8709934 Z M42.7238146,31.0278146 C41.5910993,31.5427815 40.2787815,32.2007947 39.3124238,32.8662252 L42.3598411,32.8662252 L42.4287152,32.1743046 C42.4324238,32.1409272 42.4816954,31.6678146 42.7238146,31.0278146 Z" id="Fill-5" fill="#FFFFFF"></path>
                <path d="M39.8289801,44.413298 C39.3320265,44.3640265 38.5744106,44.4392583 38.5744106,44.4392583 C39.2303046,44.0058808 39.4114967,43.9613775 39.4501722,43.9581987 C38.2326887,43.9756821 37.5635497,44.2268079 37.5635497,44.2268079 C37.9683179,43.8697219 38.3550728,43.5963444 38.7036821,43.3870728 L30.576,43.3881325 L30.7863311,42.9171391 C30.7863311,42.9171391 30.0536159,43.3775364 29.3585166,43.3775364 L14.6983841,43.3801854 L18.7704371,37.5444238 L17.2684503,37.8485298 L18.6803709,36.3062781 L16.2909669,36.8927682 C16.2909669,36.8927682 19.0623576,33.5740927 22.3863311,33.6101192 C23.1243444,33.6180662 28.6485828,33.6101192 30.8366623,33.6101192 C33.6912318,33.6101192 33.8289801,34.2591258 33.8342781,34.3491921 C33.8268609,33.6673377 33.0824901,33.605351 33.0824901,33.605351 L45.0570596,33.605351 L45.8575894,33.6101192 L60.2194437,33.6101192 L70.0822252,34.7491921 L67.4565298,43.3828344 L63.6700397,43.383894 L62.9129536,44.4085298 C62.9129536,44.4085298 63.0003709,44.6257483 62.7831523,45.7552848 C62.5659338,46.8848212 61.2218278,48.0350199 59.4840795,48.0307815 C56.7958675,48.0244238 45.7108344,48.0307815 41.8914967,48.0307815 C38.5940132,48.0307815 39.4787815,45.2641589 39.8289801,44.413298" id="Fill-7" fill="#002B5C"></path>
                <path d="M44.6316291,42.9273642 L44.0620927,44.5829934 C43.8851391,44.3456424 43.629245,44.1427285 43.2552053,44.1416689 C42.7614305,44.1406093 42.2178543,44.514649 42.0414305,44.9877616 C41.8623576,45.4661722 42.1526887,45.8359735 42.6464636,45.8370331 C43.0263311,45.8380927 43.3855364,45.6828609 43.7436821,45.4359735 L43.0883179,47.0619338 C42.7778543,47.1821987 42.1442119,47.2325298 41.8485828,47.232 C40.5526887,47.2288212 39.8999735,46.264053 40.3624901,45.0237881 C40.5071258,44.6380927 40.7391788,44.2751788 41.0300397,43.9578278 C40.5542781,43.9747815 39.9312318,44.0330596 39.9312318,44.0330596 C40.7577219,43.5419338 41.2223576,43.4672318 41.4003709,43.4592848 C40.1897748,43.4317351 39.5434172,43.6288212 39.5434172,43.6288212 C41.1789139,42.8394172 42.6083179,42.517298 44.0096424,42.7742517 C44.2310993,42.8039205 44.4419603,42.8553113 44.6316291,42.9273642 M41.4003709,43.4592848 L41.4846093,43.461404 C41.4846093,43.461404 41.4570596,43.4571656 41.4003709,43.4592848" id="Fill-9" fill="#FFD200"></path>
                <path d="M3.66283444,9.47745695 C3.66283444,9.47745695 37.6956821,-14.0277086 62.9963444,18.373351 C62.9963444,18.373351 77.0344901,27.3508344 70.8315762,39.4303046 L69.5261457,35.6756026 C69.5261457,35.6756026 63.8127682,35.5940132 56.5486623,32.7373245 C49.2856159,29.8811656 43.1642914,32.2477881 43.1642914,32.2477881 C43.1642914,32.2477881 43.3274702,30.6154702 44.7150199,29.3916291 C44.7150199,29.3916291 38.1857483,31.8398411 37.3698543,33.7985166 C37.3698543,33.7985166 37.6956821,30.370702 39.2469404,28.5757351 C39.2469404,28.5757351 35.4922384,29.4726887 32.1460132,31.7582517 C32.1460132,31.7582517 32.8808477,28.1672583 36.3086623,25.9638146 C36.3086623,25.9638146 28.8819073,26.0448742 21.4551523,30.0443444 C21.4551523,30.0443444 26.7595232,20.1693775 35.002702,16.9042119 C35.002702,16.9042119 28.2291921,14.7007682 19.088,15.8435497 C19.088,15.8435497 23.4138278,10.946596 30.269457,10.0485828 C30.269457,10.0485828 15.170649,7.02871523 3.66283444,9.47745695" id="Fill-11" fill="#002B5C"></path>
                <path d="M22.2501192,34.6419603 L22.5118411,34.6419603 L23.0262781,34.6446093 L25.6392583,34.6467285 L25.9581987,39.4191788 L27.2350199,35.2676556 C27.2593907,35.1330861 27.2668079,34.9868609 27.2170066,34.8782517 C27.1131656,34.6483179 26.8646887,34.634543 26.8646887,34.634543 L28.2140927,34.6477881 L30.3322384,34.6488477 C32.7142252,34.6493775 34.3179338,35.5505695 33.9793907,37.7534834 L34.7391258,35.2867285 C34.7656159,35.1495099 34.7751523,34.9948079 34.7242914,34.8824901 C34.6204503,34.6514967 34.3714437,34.6382517 34.3714437,34.6382517 L35.7219073,34.6504371 L40.2167417,34.6520265 L39.5873377,36.698649 L37.1804503,36.6970596 L36.960053,37.4122914 L39.1581987,37.413351 L38.5605828,39.3603709 L36.3619073,39.3587815 L36.1356821,40.0936159 L38.6262781,40.0952053 L37.9963444,42.1407682 L32.6315762,42.138649 L33.5391258,39.1876556 C32.6734305,41.013351 30.7936954,42.1375894 28.7375364,42.1370596 L26.1388609,42.1365298 L25.1216424,42.1365298 L23.117404,42.1349404 L23.143894,41.2014305 L20.9876026,41.2003709 L20.4715762,42.1328212 L17.4490596,42.1328212 L20.8752848,37.0371921 L20.8874702,37.0112318 C21.0114437,36.7585166 21.0787285,36.5503046 21.1009801,36.378649 C20.3401854,36.3320265 19.2540927,36.7314967 19.2540927,36.7314967 C19.775947,36.3537483 20.3295894,36.0416954 20.8980662,35.8117616 C20.2840265,35.3725563 18.5372715,36.0146755 18.5372715,36.0146755 C19.6922384,35.178649 20.9754172,34.6419603 22.2501192,34.6419603 Z M30.952106,38.4925563 C31.2763444,37.4398411 30.7783311,36.9926887 29.7362119,36.9921589 L29.5592583,36.9921589 L28.6670728,39.8917616 L28.8440265,39.8922914 C29.7934305,39.8928212 30.650649,39.4753377 30.952106,38.4925563 Z M22.0445563,39.4223576 L23.1905166,39.4228874 L23.2636291,38.1020927 C23.277404,37.7842119 23.3266755,37.4562649 23.3727682,37.1383841 L22.0445563,39.4223576 Z M45.5682649,37.1330861 L45.6270728,37.0112318 C45.7505166,36.7585166 45.8178013,36.5503046 45.8395232,36.378649 C45.0792583,36.3320265 43.9936954,36.7314967 43.9936954,36.7314967 C44.5150199,36.3537483 45.0691921,36.0416954 45.6376689,35.8117616 C45.0230993,35.3725563 43.2763444,36.0146755 43.2763444,36.0146755 C44.6146225,35.029245 45.9205828,34.6419603 47.7340927,34.6419603 C49.0087947,34.6419603 48.4021722,34.6446093 48.4021722,34.6446093 L50.397404,34.6446093 L50.8170066,41.0546755 L52.7841589,34.6573245 L55.5942252,34.6583841 L56.8758146,34.6589139 L58.9791258,34.6605033 C61.2016424,34.6605033 62.7476026,35.4467285 62.6681325,37.343947 L63.1963444,35.6263311 L63.2837616,35.3561325 C63.3197881,35.2046093 63.3399205,35.0228874 63.2816424,34.8936159 C63.1767417,34.6636821 62.9287947,34.6504371 62.9287947,34.6504371 L64.2776689,34.6626225 L68.7783311,34.6642119 L68.149457,36.7103046 L65.7430993,36.709245 L65.522702,37.423947 L67.7208477,37.4255364 L67.1232318,39.3725563 L64.9245563,39.3725563 L64.6983311,40.1058013 L67.1878675,40.1073907 L66.5595232,42.1529536 L61.1931656,42.1508344 L61.9767417,39.5929536 C61.0405828,41.186596 59.288,42.1508344 57.3833642,42.149245 L53.768,42.146596 L55.9105166,35.1807682 C55.9211126,35.0763974 55.9158146,34.9730861 55.8781987,34.8909669 C55.8209801,34.7606358 55.7155497,34.6997086 55.6344901,34.6716291 L53.3356821,42.1481854 L50.8901192,42.146596 L50.4811126,42.1460662 L47.8686623,42.1450066 L47.8951523,41.2120265 L45.7383311,41.2104371 L45.2217748,42.143947 L43.4040265,42.143947 L42.2013775,42.1434172 L38.152106,42.1407682 L40.4562119,34.6520265 L43.3107815,34.6530861 L41.7468079,39.7381192 L43.8162119,39.7391788 L45.5682649,37.1330861 Z M59.5989934,38.5047417 C59.922702,37.4520265 59.4241589,37.0038146 58.3825695,37.0048742 L58.2215099,37.0016954 L57.3139603,39.903947 L57.4903841,39.9044768 C58.4392583,39.9050066 59.2964768,39.488053 59.5989934,38.5047417 Z M46.7963444,39.4334834 L47.9417748,39.4334834 L48.0138278,38.1121589 C48.0286623,37.7953377 48.0779338,37.4668609 48.1224371,37.1489801 L46.7963444,39.4334834 Z" id="Fill-13" fill="#E31937"></path>
                <path d="M13.066543,6.72805298 C13.066543,6.72805298 42.6257483,-6.71459603 61.5613775,19.7373245 C61.5613775,19.7373245 73.1242914,27.9042119 70.7396556,35.2032848 C70.7396556,35.2032848 70.4509139,33.469245 69.8729007,31.9508344 C69.2943576,30.4334834 60.6220397,23.2064636 51.8771391,21.6885828 L53.2498543,25.8798411 L53.5391258,23.3505695 C53.5391258,23.3505695 57.8755497,29.1328212 68.2103841,33.1805033 C68.2103841,33.1805033 67.4151523,34.6247417 60.5499868,32.240106 C53.6837616,29.8554702 51.0098543,28.8435497 47.8299868,29.3495099 C47.8299868,29.3495099 50.1420397,27.4703046 53.6111788,27.9757351 C53.6111788,27.9757351 49.5645563,25.9524238 41.6138278,28.6989139 C41.6138278,28.6989139 43.7102517,26.4578543 46.2395232,26.1691126 C46.2395232,26.1691126 42.6983311,25.2297748 35.760053,28.5537483 C35.760053,28.5537483 39.6630993,24.7232848 43.2763444,24.2178543 C43.2763444,24.2178543 35.037404,22.7725563 26.4371391,26.0250066 C26.4371391,26.0250066 29.6170066,20.170702 41.1804503,16.0514967 C41.1804503,16.0514967 33.4474702,13.5937483 23.618596,14.0276556 C23.618596,14.0276556 29.9057483,10.269245 37.133298,10.7031523 C37.133298,10.7031523 29.0389934,5.64460927 13.066543,6.72805298" id="Fill-15" fill="#004B8D"></path>
                <path d="M46.543894,8.16768212 C46.7658808,8.24609272 41.4821722,4.74304636 34.4845563,4.22225166 C27.4874702,3.70145695 19.4477351,5.0413245 19.4477351,5.0413245 C19.4477351,5.0413245 33.4424371,3.55258278 46.543894,8.16768212" id="Fill-17" fill="#004B8D"></path>
                <path d="M70.1409801,30.1267815 C70.1409801,30.1267815 67.3123709,25.288106 64.1118411,22.6830728 L60.9102517,20.0780397 L61.282702,21.938702 C61.282702,21.938702 66.6421722,25.9588344 70.1409801,30.1267815" id="Fill-19" fill="#33619E"></path>
                <path d="M46.543894,8.16768212 C46.7658808,8.24609272 41.4821722,4.74304636 34.4845563,4.22225166 C27.4874702,3.70145695 19.4477351,5.0413245 19.4477351,5.0413245 C19.4477351,5.0413245 33.4424371,3.55258278 46.543894,8.16768212" id="Fill-21" fill="#33619E"></path>
                <path d="M31.0296159,12.2940927 C31.5318675,12.1054834 36.7721325,9.78919205 42.8584901,12.6872053 C42.8584901,12.6872053 37.5112053,11.5735629 31.0296159,12.2940927" id="Fill-23" fill="#33619E"></path>
                <path d="M53.1097219,14.3364768 C53.0424371,14.3592583 50.6350199,15.3478675 51.5918411,17.2609801 C52.429457,18.9362119 55.5685298,18.5017748 55.7168742,16.3317086" id="Fill-25" fill="#FFD200"></path>
                <path d="M53.8917616,14.8274437 C53.8917616,14.8274437 50.0305695,14.133404 47.6660662,14.1116821 C47.6660662,14.1116821 50.6048742,14.936053 51.3836821,16.1630728 C51.3836821,16.1630728 51.5924238,14.285457 53.8917616,14.8274437" id="Fill-27" fill="#002B5C"></path>
                <path d="M56.1695364,16.4520265 C56.1695364,16.4520265 56.6352318,17.8655364 55.6815894,18.5595762 C54.7268874,19.2541457 51.7011921,19.9010331 51.1586755,16.7995762 C51.1586755,16.7995762 52.1721854,18.9240795 54.4280795,18.0779868 C56.6839735,17.2324238 54.4927152,14.8769272 54.4927152,14.8769272 L56.1695364,16.4520265 Z" id="Fill-29" fill="#002B5C"></path>
                <path d="M54.7485563,15.4703046 L53.6322649,14.1309669 L52.7210066,15.4326887 C52.7210066,15.4326887 52.2653775,16.0175894 52.6553113,16.5389139 C53.0463046,17.0597086 53.4357086,17.3850066 54.2828609,16.994543 C55.1284238,16.6035497 54.7485563,15.4703046 54.7485563,15.4703046" id="Fill-31" fill="#002B5C"></path>
                <path d="M53.4473113,14.5592053 C53.3980397,14.5756291 51.6899603,15.2754967 52.3575099,16.6577483 C53.024,18.0410596 55.090755,17.5372185 55.3180397,15.9912583 C55.5453245,14.4458278 54.9784371,15.5584106 54.9784371,15.5584106 C54.9784371,15.5584106 54.389298,17.5006623 53.2115497,16.7748344 C52.1657219,16.1295364 53.1871788,14.7870199 54.0491656,15.0148344 C54.9116821,15.2431788 53.4473113,14.5592053 53.4473113,14.5592053" id="Fill-33" fill="#E31937"></path>
                <path d="M57.954755,19.3563974 C57.954755,19.3563974 58.4209801,13.6038146 47.4058808,11.8099073 C47.4058808,11.8099073 55.5748874,15.6011656 57.954755,19.3563974" id="Fill-35" fill="#002B5C"></path>
                <path d="M46.5777483,44.3858543 C46.4569536,44.7085033 46.1708609,44.7487682 45.9001325,44.7482384 L45.7851656,44.7482435 L46.0606623,44.0096954 L46.1872848,44.0102252 C46.4701987,44.010755 46.7027815,44.0515497 46.5777483,44.3858543 M48.2116556,44.3381722 C48.6206623,43.242543 47.9080795,42.8250596 46.8834437,42.8229404 L45.1954967,42.818702 L44.6482119,42.8128742 C44.6482119,42.8128742 44.7446358,42.8102252 44.7822517,42.9082384 C44.8071523,42.973404 44.7864901,43.0761854 44.765298,43.1503576 L43.2664901,47.1657219 L44.8813245,47.1699603 L45.4021192,45.7744636 L45.4323179,45.7744636 L45.634702,47.1710199 L47.5382781,47.1757881 L47.0778808,45.7612185 C47.0344371,45.6335364 46.9581457,45.5646623 46.8977483,45.5005563 L46.9099338,45.4661192 C47.5981457,45.2716821 47.9668874,44.9951258 48.2116556,44.3381722" id="Fill-37" fill="#FFD200"></path>
                <path d="M50.6338013,44.1933775 C51.1577748,44.1949669 51.3394967,44.5811921 51.1673113,45.0431788 C50.9818808,45.5390728 50.5055894,45.8786755 50.005457,45.8776159 C49.5053245,45.8765563 49.2828079,45.5348344 49.4677086,45.0394702 C49.6404238,44.5780132 50.1098278,44.1923179 50.6338013,44.1933775 M51.1678411,42.7639735 C49.7877086,42.7607947 48.3233377,43.6455629 47.8136689,45.0124503 C47.2923444,46.407947 48.1071788,47.2460927 49.4931391,47.2498013 C50.8790993,47.2524503 52.3180397,46.4190728 52.8388344,45.0235762 C53.3490331,43.6566887 52.5469139,42.7671523 51.1678411,42.7639735" id="Fill-39" fill="#FFD200"></path>
                <path d="M52.8362914,42.8362914 L52.8039735,47.1880795 L54.207947,47.1907285 L55.2802649,45.4815894 C55.4148344,45.2686093 55.5308609,45.0535099 55.6325828,44.8283444 L55.6866225,44.8283444 L55.3231788,47.1939073 L56.7631788,47.1965563 L59.9997351,42.84 L58.2837086,42.8315232 L57.1308609,44.6757616 C56.9782781,44.9231788 56.8490066,45.1886093 56.7303311,45.4423841 L56.6937748,45.4423841 L57.0455629,42.8368212 L55.7856954,42.8341722 L54.6249007,44.6354967 C54.455894,44.8950993 54.3165563,45.1716556 54.1872848,45.4365563 L54.1512583,45.4360265 L54.5470199,42.8341722 L52.8362914,42.8362914 Z" id="Fill-41" fill="#FFD200"></path>
                <path d="M57.7957086,46.8703576 C58.2153113,47.119894 58.8219338,47.2708874 59.394649,47.271947 C60.3769007,47.274596 61.5567682,46.7638675 61.9445828,45.725457 C62.2195497,44.9874437 61.8465695,44.629298 61.2039205,44.477245 L60.8600795,44.3956556 C60.7445828,44.3665166 60.5485563,44.3426755 60.6084238,44.1816159 C60.6757086,44.0030728 60.9056424,43.9511523 61.0502781,43.9516821 C61.405245,43.9527417 61.6712053,44.0979073 61.8857748,44.2822781 L62.7472318,43.170755 C62.3980927,42.9100927 61.9673642,42.7887682 61.4486887,42.7871788 C60.4606093,42.7845298 59.2632583,43.3588344 58.8775629,44.3908874 C58.6237881,45.0711523 59.0306755,45.4361854 59.634649,45.5469139 L59.944053,45.6057219 C60.0844503,45.6343311 60.2947815,45.6528742 60.2216689,45.8483709 C60.1485563,46.0449272 59.8656424,46.1079735 59.7029934,46.1074437 C59.3231258,46.1063841 59.0349139,45.9267815 58.821404,45.7069139 L58.7604768,45.6438675 L57.7957086,46.8703576 Z" id="Fill-43" fill="#FFD200"></path>
                <path d="M47.7723974,36.6872053 C47.7723974,36.6872053 46.3769007,39.1057483 46.2418013,39.3298543 C46.1453775,39.4903841 46.0245828,39.9820397 46.6545166,39.9820397 L48.2571656,39.9820397 L47.936106,39.5476026 L46.5543841,39.5476026 L48.0351788,37.0352848 L47.7723974,36.6872053 Z" id="Fill-45" fill="#FFD200"></path>
                <path d="M57.789457,36.6830728 L58.0877351,36.9469139 L57.1531656,40.0038675 C57.1531656,40.0038675 57.5372715,40.1230728 58.7579338,39.7988344 C58.7579338,39.7988344 56.3738278,41.0375099 56.781245,39.7432053 C57.170649,38.5087682 57.2522384,38.2443974 57.789457,36.6830728" id="Fill-47" fill="#FFD200"></path>
                <path d="M65.3112053,36.1516821 C65.3112053,36.1516821 64.9615364,37.3130066 64.9143841,37.4761854 C64.8820662,37.5879735 64.776106,37.9063841 65.2592848,37.9063841 L67.0526623,37.9063841 L66.7559735,38.9357881 L67.037298,39.2748609 L67.5586225,37.549298 L65.354649,37.549298 L65.6492185,36.5829404 L65.3112053,36.1516821 Z" id="Fill-49" fill="#FFD200"></path>
                <path d="M64.4712583,38.8601854 C64.4712583,38.8601854 64.1364238,39.9960795 64.0892715,40.1587285 C64.0564238,40.2710464 63.9509934,40.5889272 64.4341722,40.5889272 L66.5131126,40.5889272 L66.2164238,41.6188609 L66.4770861,41.957404 L66.9984106,40.2323709 L64.5290066,40.2323709 L64.8098013,39.2914437 L64.4712583,38.8601854 Z" id="Fill-51" fill="#FFD200"></path>
                <path d="M47.7850596,34.7940662 L50.2157881,34.7930066 C50.2157881,34.7930066 50.6549934,41.3683709 50.6592318,41.4112848 C50.6724768,41.5469139 50.7874437,41.671947 50.9320795,41.6862517 C50.9320795,41.6862517 50.2173775,41.8891656 50.1590993,41.1071788 C50.101351,40.3246623 49.8115497,35.1988344 49.8115497,35.1988344 L47.530755,35.2014834 L47.7850596,34.7940662 Z" id="Fill-53" fill="#FFD200"></path>
                <path d="M40.5373245,34.794596 L40.7338808,35.1983046 L42.4790464,35.1983046 C42.4790464,35.1983046 41.1005033,39.5368477 41.0358675,39.7323444 C40.9701722,39.9273113 41.1296424,40.3405563 41.5418278,40.3405563 L43.8883179,40.3405563 L43.6207682,39.9209536 L41.5132185,39.9209536 L43.0930861,34.794596 L40.5373245,34.794596 Z" id="Fill-55" fill="#FFD200"></path>
                <path d="M44.8752848,42.869404 L45.0077351,43.0622517 C45.0077351,43.0622517 46.5314437,43.0654305 47.1968742,43.0649007 C47.7722384,43.0649007 48.3518411,43.6561589 48.0090596,44.5149669 C48.0090596,44.5149669 48.405351,43.9337748 48.2008477,43.4511258 C48.0074702,42.9944371 47.5740927,42.9033113 47.2111788,42.887947 C46.7788609,42.8699338 44.8752848,42.869404 44.8752848,42.869404" id="Fill-57" fill="#FFE694"></path>
                <path d="M44.037404,44.3941192 L43.8588609,44.0603444 L44.2016424,43.1072318 C44.2016424,43.1072318 43.6077351,42.938755 42.5862781,43.0229934 C41.413298,43.1194172 40.2127682,43.4304106 40.2127682,43.4304106 C40.2127682,43.4304106 42.3955497,42.3194172 44.5211126,42.9806093 L44.037404,44.3941192 Z" id="Fill-59" fill="#FFE694"></path>
                <path d="M41.9831523,44.4469404 C41.9831523,44.4469404 41.5079205,45.1171391 41.685404,45.6241589 C41.863947,46.130649 42.6740132,46.2572715 43.2451391,45.9923709 L42.8032848,47.0408477 L43.0448742,46.9815099 L43.5810331,45.6156821 C43.5810331,45.6156821 43.1110993,45.9664106 42.5765298,45.9118411 C42.0419603,45.8567417 41.6679205,45.4196556 42.0377219,44.8029669 L41.9831523,44.4469404 Z" id="Fill-61" fill="#FFE694"></path>
                <path d="M41.0779868,43.6371921 C40.9910993,43.6371921 40.4856689,43.8687152 40.4856689,43.8687152 C40.4856689,43.8687152 41.1738808,43.762755 41.5500397,43.762755" id="Fill-63" fill="#FFE694"></path>
                <path d="M45.9716556,35.8723179 C45.8233113,35.8723179 45.0566887,36.2924503 45.0566887,36.2924503 C45.0566887,36.2924503 46.12,36.0450331 46.762649,36.0450331" id="Fill-65" fill="#FFD200"></path>
                <polygon id="Fill-67" fill="#FFE694" points="45.3525828 45.6736424 45.2423841 45.373245 44.6887417 46.872053 44.8392053 47.0823841"></polygon>
                <path d="M46.6237881,45.4164768 L47.1567682,46.9269404 L47.4571656,47.1171391 C47.4571656,47.1171391 47.0200795,45.7968742 46.9824636,45.7099868 C46.9114702,45.5468079 46.6237881,45.4164768 46.6237881,45.4164768" id="Fill-69" fill="#FFE694"></path>
                <path d="M45.8681854,43.7127417 C45.8681854,43.7127417 45.5158675,44.6059868 45.5158675,44.7559205 C45.5158675,44.9058543 45.5285828,44.9969801 45.8861987,44.9959205 C46.186596,44.9948609 46.3688477,44.7903576 46.3688477,44.7903576 C46.3688477,44.7903576 45.8761325,44.8502252 45.7060662,44.7903576 L46.0016954,43.9209536 L45.8681854,43.7127417 Z" id="Fill-71" fill="#FFE694"></path>
                <path d="M49.6621457,44.2063576 C49.6621457,44.2063576 48.9379073,44.7425166 49.0539338,45.5388079 C49.1694305,46.3356291 50.0096954,46.1904636 50.7630728,45.9006623 C50.7630728,45.9006623 50.1543311,45.944106 49.9514172,45.9298013 C49.7490331,45.9154967 49.1657219,45.8307285 49.3580397,45.0603974 C49.4014834,44.8871523 49.6261192,44.6264901 49.6261192,44.6264901 L49.6621457,44.2063576 Z" id="Fill-73" fill="#FFE694"></path>
                <path d="M49.1473377,43.4618278 C49.1473377,43.4618278 49.741245,42.9696424 50.5083974,42.8684503 C51.2760795,42.7667285 52.434755,42.751894 52.912106,43.7224901 L52.6519735,43.7807682 C52.6519735,43.7807682 52.1740927,43.0130861 50.8993907,43.0130861 C49.6246887,43.0130861 49.1473377,43.4618278 49.1473377,43.4618278" id="Fill-75" fill="#FFE694"></path>
                <path d="M52.877457,42.8725298 L52.9558675,43.0621987 L54.2326887,43.0648477 C54.2326887,43.0648477 53.8703046,45.4558411 53.8671258,45.5904106 C53.8575894,45.9326623 54.2125563,45.4870993 54.2125563,45.4870993 C54.2125563,45.4870993 54.0530861,45.6121325 54.1023576,45.3403444 C54.1214305,45.2338543 54.4848742,42.869351 54.4848742,42.869351 L52.877457,42.8725298 Z" id="Fill-77" fill="#FFE694"></path>
                <path d="M55.8102252,42.8725298 L55.8780397,43.0621987 L56.7304901,43.0648477 C56.7304901,43.0648477 56.4141987,45.4558411 56.4104901,45.5904106 C56.4014834,45.9326623 56.7559205,45.4870993 56.7559205,45.4870993 C56.7559205,45.4870993 56.5969801,45.6121325 56.6457219,45.3403444 C56.6647947,45.2338543 56.9826755,42.869351 56.9826755,42.869351 L55.8102252,42.8725298 Z" id="Fill-79" fill="#FFE694"></path>
                <polygon id="Fill-81" fill="#FFE694" points="54.1861722 47.125404 54.0648477 46.8997086 55.5032583 44.5802384 55.6118675 44.7757351"></polygon>
                <polygon id="Fill-83" fill="#FFE694" points="56.7342517 47.1104106 56.639947 46.962596 58.9027285 43.9098808 58.8757086 44.245245"></polygon>
                <path d="M58.3109934,42.8725298 L59.9274172,42.8704106 C59.9274172,42.8704106 59.3552318,43.5353113 59.4754967,43.5480265 C59.5968212,43.5623311 59.7531126,43.4876291 59.7531126,43.4876291 C59.7531126,43.4876291 59.1650331,43.8351788 59.272053,43.5263046 C59.3796026,43.2179603 59.5629139,43.0574305 59.5629139,43.0574305 L58.4275497,43.0600795 L58.3109934,42.8725298 Z" id="Fill-85" fill="#FFE694"></path>
                <path d="M59.9102517,43.3609007 C59.9102517,43.3609007 60.210649,43.034543 60.9772715,42.8861987 C61.6511788,42.7553377 62.3976689,42.9889801 62.6339603,43.1977219 L61.9007152,44.1571921 L61.8244238,43.9002384 L62.2816424,43.2930861 C62.2816424,43.2930861 61.3868079,42.7569272 59.9102517,43.3609007" id="Fill-87" fill="#FFE694"></path>
                <path d="M60.424,44.0743841 C60.424,44.0743841 60.1209536,44.3610066 60.4457219,44.5045828 C60.754596,44.6407417 61.0136689,44.7064371 61.3500927,44.7986225 C61.8788344,44.9443179 61.9365828,45.6908079 61.0915497,46.5898808 C61.0915497,46.5898808 61.7008212,46.3376954 61.9169801,45.5578278 C62.0928742,44.9236556 61.624,44.6566358 61.210755,44.5586225 C60.9315497,44.4923974 60.4457219,44.4118675 60.5315497,44.2216689 L60.424,44.0743841 Z" id="Fill-89" fill="#FFE694"></path>
                <polygon id="Fill-91" fill="#FFD200" points="52.8624106 34.7940662 55.4679735 34.7940662 53.2359205 41.9516821 52.8618808 41.6300927 54.8295629 35.197245 53.0118146 35.1940662"></polygon>
                <path d="M53.8995497,15.5461192 C53.8995497,15.5461192 53.226702,15.8168477 53.2039205,16.2263841 C53.2039205,16.2263841 52.850543,15.6695629 53.4433907,15.221351 L53.8995497,15.5461192 Z" id="Fill-93" fill="#FFFFFF"></path>
                <path d="M44.3556026,35.5437881 C44.3556026,35.5437881 45.5375894,34.7941192 47.7850066,34.7941192 L48.0901722,35.2036556 C48.0901722,35.2036556 45.5937483,35.1527947 44.3556026,35.5437881" id="Fill-95" fill="#FFD200"></path>
                <path d="M22.9646093,36.6872053 C22.9646093,36.6872053 21.5691126,39.1057483 21.4334834,39.3298543 C21.3375894,39.4903841 21.2167947,39.9820397 21.8467285,39.9820397 L23.4493775,39.9820397 L23.1283179,39.5476026 L21.746596,39.5476026 L23.2273907,37.0352848 L22.9646093,36.6872053 Z" id="Fill-97" fill="#FFD200"></path>
                <path d="M22.9772715,34.7940662 L25.4074702,34.7930066 C25.4074702,34.7930066 25.8472053,41.3683709 25.8509139,41.4112848 C25.8646887,41.5469139 25.9791258,41.671947 26.1237616,41.6862517 C26.1237616,41.6862517 25.4095894,41.8891656 25.3513113,41.1071788 C25.2935629,40.3246623 25.0037616,35.1988344 25.0037616,35.1988344 L22.7229669,35.2014834 L22.9772715,34.7940662 Z" id="Fill-99" fill="#FFD200"></path>
                <path d="M21.1638675,35.8723179 C21.0155232,35.8723179 20.2489007,36.2924503 20.2489007,36.2924503 C20.2489007,36.2924503 21.3122119,36.0450331 21.9553907,36.0450331" id="Fill-101" fill="#FFD200"></path>
                <path d="M19.5478146,35.5437881 C19.5478146,35.5437881 20.7298013,34.7941192 22.9772185,34.7941192 L23.2823841,35.2036556 C23.2823841,35.2036556 20.7859603,35.1527947 19.5478146,35.5437881" id="Fill-103" fill="#FFD200"></path>
                <path d="M63.405404,34.7914702 C63.4689801,34.8598146 63.5288477,34.9827285 63.4981192,35.194649 L68.074543,35.194649 L67.7534834,36.1954437 L68.061298,36.6129272 L68.6223576,34.7914702 L63.405404,34.7914702 Z" id="Fill-105" fill="#FFD200"></path>
                <path d="M36.7068609,36.1516821 C36.7068609,36.1516821 36.3571921,37.3130066 36.3100397,37.4761854 C36.2777219,37.5879735 36.1717616,37.9063841 36.6549404,37.9063841 L38.4483179,37.9063841 L38.1516291,38.9357881 L38.4329536,39.2748609 L38.9542781,37.549298 L36.7503046,37.549298 L37.0448742,36.5829404 L36.7068609,36.1516821 Z" id="Fill-107" fill="#FFD200"></path>
                <path d="M35.8668609,38.8601854 C35.8668609,38.8601854 35.5314967,39.9960795 35.4848742,40.1587285 C35.4520265,40.2710464 35.346596,40.5889272 35.8297748,40.5889272 L37.9087152,40.5889272 L37.6120265,41.6188609 L37.8726887,41.957404 L38.3940132,40.2323709 L35.9246093,40.2323709 L36.2048742,39.2914437 L35.8668609,38.8601854 Z" id="Fill-109" fill="#FFD200"></path>
                <path d="M34.8007947,34.7914702 C34.8649007,34.8598146 34.9242384,34.9827285 34.8940397,35.194649 L39.4699338,35.194649 L39.149404,36.1954437 L39.4566887,36.6129272 L40.0177483,34.7914702 L34.8007947,34.7914702 Z" id="Fill-111" fill="#FFD200"></path>
                <path d="M62.3020927,36.2023841 C61.7389139,35.0686093 60.3910993,34.7941722 59.2149404,34.7941722 L55.946596,34.7941722 C56.0117616,34.8598675 56.0769272,34.9822517 56.0477881,35.197351 L59.4787815,35.197351 C60.9993113,35.197351 62.5659338,36.1388079 62.2570596,38.565298 C62.2570596,38.565298 62.7434172,37.0913907 62.3020927,36.2023841" id="Fill-113" fill="#FFD200"></path>
                <path d="M29.1501987,36.6602914 L29.4484768,36.9241325 L28.5139073,39.9816159 C28.5139073,39.9816159 28.8980132,40.1002914 30.1186755,39.7765828 C30.1186755,39.7765828 27.7345695,41.0147285 28.1419868,39.7204238 C28.5313907,38.4859868 28.6129801,38.2216159 29.1501987,36.6602914" id="Fill-115" fill="#FFD200"></path>
                <path d="M33.6628344,36.1796556 C33.1001854,35.0458808 31.7518411,34.7714437 30.5756821,34.7714437 L27.3068079,34.7714437 C27.3725033,34.8376689 27.4376689,34.9595232 27.4085298,35.1751523 L30.8389934,35.1751523 C32.360053,35.1751523 33.9266755,36.1160795 33.6178013,38.5430993 C33.6178013,38.5430993 34.1041589,37.0686623 33.6628344,36.1796556" id="Fill-117" fill="#FFD200"></path>
            </g>
        </g>
    </g>
</svg>