<?xml version="1.0" encoding="UTF-8"?>
<svg width="80px" height="80px" viewBox="0 0 80 80" version="1.1" xmlns="http://www.w3.org/2000/svg" xmlns:xlink="http://www.w3.org/1999/xlink">
    <!-- Generator: Sketch 52.5 (67469) - http://www.bohemiancoding.com/sketch -->
    <title>Assets/Logos/Clubs/Reverse/Brisbane</title>
    <desc>Created with Sketch.</desc>
    <g id="Assets/Logos/Clubs/Reverse/Brisbane" stroke="none" stroke-width="1" fill="none" fill-rule="evenodd">
        <g id="Page-1" transform="translate(14.000000, 10.000000)">
            <g id="Group-62" transform="translate(0.304636, 0.066225)">
                <path d="M0.853668874,17.0928212 L0.853668874,8.55401325 C0.853668874,7.60037086 0.853668874,6.92010596 0.0949933775,6.23984106 L5.30770861,6.23984106 C4.56810596,6.92010596 4.54956291,7.60037086 4.54956291,8.55401325 L4.54956291,17.1897748 C5.26903311,17.4234172 5.94929801,17.5399735 6.66929801,17.5399735 C7.64148344,17.5399735 8.45896689,17.248053 9.33419868,16.6456689 L8.63433113,19.426596 L0.0949933775,19.426596 C0.834596026,18.7261987 0.853668874,18.0258013 0.853668874,17.0928212" id="Fill-6" fill="#FFFFFF"></path>
                <path d="M14.5630728,19.4264901 L9.35088742,19.4264901 C10.0899603,18.7266225 10.1095629,18.0256954 10.1095629,17.0927152 L10.1095629,8.55443709 C10.1095629,7.6007947 10.1095629,6.92 9.35088742,6.2397351 L14.5630728,6.2397351 C13.8245298,6.92 13.805457,7.6007947 13.805457,8.55443709 L13.805457,17.0927152 C13.805457,18.0256954 13.8245298,18.7266225 14.5630728,19.4264901" id="Fill-8" fill="#FFFFFF"></path>
                <path d="M22.2635762,17.8125033 C24.3059603,17.8125033 25.6860927,16.255947 25.6860927,13.4358146 C25.6860927,10.0901192 24.1698013,8.02866225 22.0304636,8.02866225 C20.026755,8.02866225 18.6254305,9.58521854 18.6254305,12.3852185 C18.6254305,15.7499868 20.1427815,17.8125033 22.2635762,17.8125033 M14.6969536,12.8127682 C14.6969536,11.0045563 15.5329801,9.15713907 17.0508609,7.79554967 C18.4124503,6.58972185 20.2015894,5.9274702 22.1459603,5.9274702 C26.5623841,5.9274702 29.6150993,8.78733775 29.6150993,12.8334305 C29.6150993,14.6416424 28.7790728,16.5282649 27.2622517,17.8702517 C25.9001325,19.0956821 24.1109934,19.7378013 22.1459603,19.7378013 C17.7703311,19.7378013 14.6969536,16.8397881 14.6969536,12.8127682" id="Fill-10" fill="#FFFFFF"></path>
                <path d="M30.482702,16.119894 L30.482702,9.03962914 C30.482702,8.10717881 30.4630993,7.34797351 29.432106,6.23962914 L33.4967417,6.23962914 L39.4872053,14.3111523 L39.4872053,9.70135099 L39.4872053,9.09896689 C39.4872053,8.20413245 39.4103841,7.34797351 38.5542252,6.23962914 L42.3274702,6.23962914 C41.6085298,7.4258543 41.5491921,8.30055629 41.5491921,9.15724503 L41.5491921,9.70135099 L41.5491921,19.7575099 C38.6898543,19.4263841 37.7378013,18.0647947 36.5309139,16.4896954 L32.5441589,11.2965828 L32.5441589,16.119894 L32.5441589,16.8981722 C32.5441589,17.9090331 32.6220397,18.6486358 33.4193907,19.4263841 L29.5677351,19.4263841 C30.482702,18.4340662 30.482702,17.5010861 30.482702,16.119894" id="Fill-12" fill="#FFFFFF"></path>
                <path d="M46.4313642,17.5983046 C47.6758675,17.5983046 48.4340132,16.9567152 48.434543,16.1392318 C48.434543,14.8947285 47.0734834,14.5450596 45.2250066,13.591947 C43.3966623,12.6579073 42.4440795,11.3159205 42.4440795,9.75989404 C42.4440795,7.52307285 44.253351,5.92784106 47.2869934,5.92784106 C48.4149404,5.92784106 49.4660662,6.1424106 50.5940132,6.55035762 L50.5940132,8.76757616 C49.4851391,8.20386755 48.5903046,7.87327152 47.850702,7.87327152 C46.800106,7.87327152 46.1203709,8.45658278 46.1203709,9.15698013 C46.1203709,10.2462517 47.5206358,10.6351258 49.7966623,11.8806887 C51.3140132,12.7161854 52.013351,13.8637351 52.013351,15.4584371 C52.013351,17.9294305 49.9709669,19.6401589 46.8207682,19.6401589 C45.5169272,19.6401589 44.253351,19.3874437 42.9103046,18.9402914 L42.2300397,16.1392318 C43.7664636,17.0732715 45.069245,17.5983046 46.4313642,17.5983046" id="Fill-14" fill="#FFFFFF"></path>
                <path d="M11.1855894,4.01229139 C11.5765828,4.01229139 11.8436026,3.70606623 11.8436026,3.28911258 C11.8436026,2.82023841 11.5765828,2.52725828 11.1792318,2.52725828 C11.1204238,2.52725828 11.0356556,2.54050331 10.925457,2.55321854 L10.925457,3.98633113 C11.0489007,4.00540397 11.1336689,4.01229139 11.1855894,4.01229139 M11.101351,1.92169536 C11.3810861,1.92169536 11.5569801,1.72672848 11.5569801,1.39454305 C11.5569801,1.11427815 11.3810861,0.899178808 11.1140662,0.899178808 C11.0812185,0.899178808 11.0165828,0.905536424 10.925457,0.918781457 L10.925457,1.90898013 C11.0033377,1.92169536 11.0621457,1.92169536 11.101351,1.92169536 M9.67459603,3.86871523 L9.67459603,1.00990728 C9.67459603,0.690437086 9.66823841,0.462622517 9.42135099,0.234807947 L11.0621457,0.234807947 C12.1689007,0.234807947 12.7289007,0.625271523 12.7289007,1.27692715 C12.7289007,1.66156291 12.5010861,1.96725828 12.0650596,2.15586755 C12.6573775,2.33176159 12.9699603,2.72275497 12.9699603,3.30871523 C12.9699603,3.65361589 12.8459868,3.97308609 12.618702,4.21997351 C12.2796291,4.57864901 11.8891656,4.65017219 11.3222781,4.65017219 L9.42135099,4.65017219 C9.66823841,4.416 9.67459603,4.18182781 9.67459603,3.86871523" id="Fill-16" fill="#EDC157"></path>
                <path d="M16.0976424,1.55708609 C16.0976424,1.15337748 15.8629404,0.899072848 15.4724768,0.899072848 C15.4401589,0.899072848 15.4078411,0.899072848 15.3749934,0.905960265 L15.3749934,2.41006623 C15.8502252,2.28609272 16.0976424,1.98675497 16.0976424,1.55708609 Z M13.8836026,4.65006623 C14.1310199,4.41589404 14.1379073,4.18172185 14.1379073,3.86860927 L14.1379073,1.00980132 C14.1379073,0.690860927 14.1379073,0.463046358 13.8836026,0.234701987 L15.6028079,0.234701987 C16.7424106,0.234701987 17.3156556,0.619337748 17.3156556,1.41350993 C17.3156556,1.88927152 17.0549934,2.22781457 16.5077086,2.48794702 L17.3087682,3.85589404 C17.4327417,4.06410596 17.621351,4.31152318 17.8952583,4.59178808 L17.1588344,4.66331126 C17.1005563,4.66966887 17.0417483,4.66966887 16.9834702,4.66966887 C16.4949934,4.66966887 16.2343311,4.42860927 15.9477086,3.87496689 L15.3749934,2.75549669 L15.3749934,3.86860927 C15.3749934,4.18172185 15.381351,4.41589404 15.6287682,4.65006623 L13.8836026,4.65006623 Z" id="Fill-18" fill="#EDC157"></path>
                <path d="M20.1353113,4.65022517 L18.3901457,4.65022517 C18.6375629,4.41605298 18.6439205,4.18188079 18.6439205,3.86823841 L18.6439205,1.00996026 C18.6439205,0.690490066 18.6439205,0.462675497 18.3901457,0.234860927 L20.1353113,0.234860927 C19.887894,0.462675497 19.8815364,0.690490066 19.8815364,1.00996026 L19.8815364,3.86823841 C19.8815364,4.18188079 19.887894,4.41605298 20.1353113,4.65022517" id="Fill-20" fill="#EDC157"></path>
                <path d="M22.4275497,4.03819868 C22.8445033,4.03819868 23.0982781,3.82309934 23.0982781,3.54972185 C23.0982781,3.13329801 22.642649,3.01568212 22.0238411,2.69674172 C21.4119205,2.38415894 21.0924503,1.93488742 21.0924503,1.41356291 C21.0924503,0.664953642 21.698543,0.130913907 22.7141722,0.130913907 C23.0913907,0.130913907 23.4431788,0.202437086 23.8209272,0.339125828 L23.8209272,1.08137748 C23.4500662,0.892768212 23.1501987,0.782039735 22.9027815,0.782039735 C22.5515232,0.782039735 22.3237086,0.977006623 22.3237086,1.21170861 C22.3237086,1.57674172 22.7925828,1.70654305 23.5539073,2.12349669 C24.0619868,2.40376159 24.2966887,2.78786755 24.2966887,3.32137748 C24.2966887,4.14839735 23.6127152,4.72164238 22.5584106,4.72164238 C22.1213245,4.72164238 21.698543,4.63687417 21.2492715,4.4874702 L21.0209272,3.54972185 C21.5353642,3.86230464 21.9719205,4.03819868 22.4275497,4.03819868" id="Fill-22" fill="#EDC157"></path>
                <path d="M26.8511788,4.01229139 C27.2421722,4.01229139 27.5091921,3.70606623 27.5091921,3.28911258 C27.5091921,2.82023841 27.2421722,2.52725828 26.8448212,2.52725828 C26.7860132,2.52725828 26.7017748,2.54050331 26.5910464,2.55321854 L26.5910464,3.98633113 C26.7150199,4.00540397 26.7992583,4.01229139 26.8511788,4.01229139 M26.7664106,1.92169536 C27.0466755,1.92169536 27.2225695,1.72672848 27.2225695,1.39454305 C27.2225695,1.11427815 27.0466755,0.899178808 26.7801854,0.899178808 C26.7473377,0.899178808 26.6816424,0.905536424 26.5910464,0.918781457 L26.5910464,1.90898013 C26.6689272,1.92169536 26.7277351,1.92169536 26.7664106,1.92169536 M25.3401854,3.86871523 L25.3401854,1.00990728 C25.3401854,0.690437086 25.3338278,0.462622517 25.0864106,0.234807947 L26.7277351,0.234807947 C27.8344901,0.234807947 28.3950199,0.625271523 28.3950199,1.27692715 C28.3950199,1.66156291 28.1672053,1.96725828 27.730649,2.15586755 C28.3234967,2.33176159 28.6355497,2.72275497 28.6355497,3.30871523 C28.6355497,3.65361589 28.512106,3.97308609 28.2842914,4.21997351 C27.9452185,4.57864901 27.5552848,4.65017219 26.9883974,4.65017219 L25.0864106,4.65017219 C25.3338278,4.416 25.3401854,4.18129801 25.3401854,3.86871523" id="Fill-24" fill="#EDC157"></path>
                <path d="M31.4962649,2.72275497 L31.0469934,1.36169536 L30.5913642,2.72275497 L31.4962649,2.72275497 Z M29.4189139,3.99215894 L30.4546755,1.02950993 C30.493351,0.912423841 30.5521589,0.801695364 30.5521589,0.658649007 C30.5521589,0.508715232 30.4742781,0.391629139 30.3370596,0.234807947 L31.8999735,0.234807947 L33.1508344,3.856 C33.2615629,4.16858278 33.4305695,4.44831788 33.6387815,4.65017219 L31.7246093,4.65017219 C31.8740132,4.48063576 31.9587815,4.36990728 31.9587815,4.19454305 C31.9587815,4.10341722 31.9460662,4.02500662 31.9264636,3.97308609 L31.7044768,3.34103311 L30.3762649,3.34103311 L30.168053,3.94712583 C30.1352053,4.05096689 30.109245,4.1357351 30.109245,4.21361589 C30.109245,4.36990728 30.1807682,4.51348344 30.3179868,4.65017219 L29.0220927,4.65017219 C29.1979868,4.44196026 29.3341457,4.23374834 29.4189139,3.99215894 Z" id="Fill-26" fill="#EDC157"></path>
                <path d="M34.3033642,3.54304636 L34.3033642,1.17271523 C34.3033642,0.860662252 34.2970066,0.606357616 33.9510464,0.234966887 L35.3126358,0.234966887 L37.3184636,2.93748344 L37.3184636,1.39417219 L37.3184636,1.19231788 C37.3184636,0.892980132 37.2925033,0.606357616 37.0058808,0.234966887 L38.2689272,0.234966887 C38.0283974,0.632317881 38.0087947,0.925827815 38.0087947,1.21192053 L38.0087947,1.39417219 L38.0087947,4.7610596 C37.0514437,4.65033113 36.7319735,4.19417219 36.3287947,3.66701987 L34.9931656,1.92821192 L34.9931656,3.54304636 L34.9931656,3.80370861 C34.9931656,4.14225166 35.0196556,4.38966887 35.2866755,4.65033113 L33.9976689,4.65033113 C34.3033642,4.3181457 34.3033642,4.00556291 34.3033642,3.54304636" id="Fill-28" fill="#EDC157"></path>
                <path d="M39.4544106,3.86850331 L39.4544106,1.00969536 C39.4544106,0.690754967 39.4544106,0.462940397 39.2006358,0.235125828 L41.7855364,0.235125828 L41.7855364,1.15327152 C41.5646093,0.945059603 41.4014305,0.899496689 41.1540132,0.899496689 L40.7047417,0.899496689 L40.7047417,1.99989404 L41.5513642,1.99989404 L41.5513642,2.84651656 C41.4475232,2.7029404 41.2843444,2.6250596 41.0761325,2.6250596 L40.7047417,2.6250596 L40.7047417,3.95327152 C40.8673907,3.98611921 41.0305695,4.01207947 41.1932185,4.01207947 C41.6361325,4.01207947 41.9746755,3.93419868 42.3005033,3.68625166 L42.0663311,4.65049007 L39.2006358,4.65049007 C39.448053,4.41578808 39.4544106,4.18161589 39.4544106,3.86850331" id="Fill-30" fill="#EDC157"></path>
                <path d="M24.8926623,15.4330596 C24.8926623,15.4330596 21.4367682,14.9896159 17.8754437,16.4190199 C17.8754437,16.4190199 18.3490861,16.9451126 18.2892185,17.2958411 C18.2892185,17.2958411 13.3541192,18.3829934 11.5612715,21.4569007 C11.5612715,21.4569007 12.2706755,21.5151788 12.4481589,21.9829934 C12.4481589,21.9829934 8.66431788,24.4375629 8.54617219,26.9504106 C8.54617219,26.9504106 9.96498013,27.3594172 9.19623841,28.002596 C8.42749669,28.6457748 5.94431788,29.6974305 5.82670199,31.1591523 C5.82670199,31.1591523 7.35623841,31.0680265 6.94988079,32.5027285 C6.80948344,32.9975629 6.50802649,34.2447152 6.50802649,35.9490861 C6.50802649,50.2007417 26.1006093,60.1175629 26.1006093,60.1175629 C26.1006093,60.1175629 45.7143841,50.2007417 45.7143841,35.9490861 C45.7101457,35.6057748 45.6200795,32.5663046 44.6696159,30.9244503 C44.6696159,30.9244503 44.9864371,30.709351 45.3202119,30.7490861 C45.3202119,30.7490861 45.1808742,29.2529272 43.5008742,27.4023311 C42.7485563,26.5737219 42.5186225,25.1257748 43.5459073,25.0219338 C43.5459073,25.0219338 43.429351,24.1281589 41.4378278,23.8033907 C40.9562384,23.7249801 40.8974305,23.7445828 40.6139868,23.2767682 C40.3543841,22.8492185 40.1694834,21.8637881 40.4974305,21.2396821 C40.4974305,21.2396821 39.7260397,20.9239205 39.1527947,21.2486887 C39.1527947,21.2486887 37.5157086,17.6576954 35.5056424,17.1321325 C35.5056424,17.1321325 35.4759735,17.4727947 35.1660397,17.669351 C35.1660397,17.669351 32.6229934,14.773457 30.1451126,14.6823311 C30.1451126,14.6823311 30.1673642,15.1374305 29.9369007,15.4606093 C29.9369007,15.4606093 27.2004768,14.6314702 24.8354437,14.7188874 C24.8354437,14.7188874 25.0516026,15.1374305 24.8926623,15.4330596" id="Fill-32" fill="#EDC157"></path>
                <path d="M12.1569801,28.2233113 C12.1569801,28.2233113 11.3511523,28.6259603 10.0949934,28.7123179 C10.0949934,28.7123179 10.890755,29.335894 12.3201589,29.3162914 C12.3201589,29.3162914 12.1951258,28.76 12.1569801,28.2233113" id="Fill-34" fill="#8B0042"></path>
                <path d="M45.0563709,36.8419073 C44.3708079,30.6114437 41.3562384,28.0583311 41.3562384,28.0583311 C42.6828609,27.9550199 43.7207417,29.0310464 43.7207417,29.0310464 C41.5851126,24.8842914 39.3806093,23.9852185 38.4343841,23.7929007 C39.7896159,24.6352848 40.7316026,26.7846887 39.5088212,30.6787285 C38.2484238,28.5044238 36.9906755,27.9237616 36.9906755,27.9237616 C37.6714702,27.5380662 38.7390199,28.1309139 38.7390199,28.1309139 C37.909351,26.1160795 35.8643179,26.1754172 35.8643179,26.1754172 C36.7236556,25.4050861 38.1461722,25.9380662 38.1461722,25.9380662 C36.4704106,24.3052185 33.8208742,24.9923709 33.8208742,24.9923709 C33.8208742,24.9923709 35.1644503,23.2668079 37.114649,23.373298 C37.4086887,23.3891921 37.7080265,23.4538278 37.9978278,23.5709139 C38.3183576,22.4366093 39.4494834,22.101245 39.4494834,22.101245 C37.5522649,21.538596 35.3170331,22.9902517 35.3170331,22.9902517 C36.2192848,20.9155497 35.9829934,18.901245 35.9829934,18.901245 C34.5021987,22.8525033 32.5202119,24.5886623 32.5202119,24.5886623 C34.3294834,21.040053 32.2102781,16.4943576 32.2102781,16.4943576 C32.9392848,21.2413775 30.5896159,23.7828344 30.5896159,23.7828344 C31.0018013,18.0668079 28.5085563,16.2930331 28.5085563,16.2930331 C30.3877616,19.189457 28.8248477,23.3515762 28.8248477,23.3515762 C27.7122649,17.5682649 22.9265695,16.4270728 22.9265695,16.4270728 C27.6264371,19.2943576 26.9260397,25.0299868 26.9260397,25.0299868 C26.0439205,20.3497219 22.3321325,18.4509139 22.3321325,18.4509139 C24.5763709,20.5796556 24.9122649,24.1854834 24.9122649,24.1854834 C21.4886887,17.2710464 15.4081589,19.0066755 15.4081589,19.0066755 C21.1909404,19.5343576 22.533457,24.2336954 22.533457,24.2336954 C18.9753113,19.5634967 14.1037881,20.9918411 14.1037881,20.9918411 C17.7959735,21.2223046 19.2153113,24.0037616 19.2153113,24.0037616 C14.4873642,20.3783311 10.3061722,25.0204503 10.3061722,25.0204503 C11.6439205,24.5764768 12.1567682,25.3176689 12.1567682,25.3176689 C10.7088212,25.9889272 10.0953113,27.1110464 10.0953113,27.1110464 C11.4378278,26.7078675 12.1281589,26.9764768 12.1281589,26.9764768 C12.1382252,26.6215099 12.3580927,24.0996556 14.4296159,23.4951523 C16.7151788,22.8286623 18.3618013,25.0008477 18.3618013,25.0008477 C15.3885563,24.3682649 14.0656424,25.9407152 14.0656424,25.9407152 C15.6576954,25.4135629 16.3188874,26.1902517 16.3188874,26.1902517 C14.0460397,26.2766093 13.4542517,28.1309139 13.4542517,28.1309139 C14.6722649,27.5264106 15.2068344,27.9354172 15.2068344,27.9354172 C12.056106,31.1004503 8.29504636,30.0122384 8.29504636,30.0122384 C11.1739868,31.8914437 14.7210066,30.8795232 14.7210066,30.8795232 C11.7207417,33.0903841 7.86590728,32.3968742 7.86590728,32.3968742 C11.7249801,34.6056159 13.9024636,33.693298 13.9024636,33.693298 C12.3490861,35.9248212 7.61107285,35.7902517 7.61107285,35.7902517 C10.5456424,37.6890596 13.9024636,36.6336954 13.9024636,36.6336954 C13.0150464,37.9815099 11.1400795,38.1685298 11.1400795,38.1685298 C13.0680265,39.0458808 14.3628609,38.6289272 14.3628609,38.6289272 C12.8476291,40.1197881 9.49504636,39.4792583 9.49504636,39.4792583 C12.0894834,41.592106 15.5135894,40.8154172 15.5135894,40.8154172 C12.0370331,43.2466755 8.33954967,41.0485298 8.33954967,41.0485298 C10.967894,43.8554172 15.746702,43.597404 15.746702,43.597404 C13.9167682,44.8625695 11.6725298,44.3672053 11.6725298,44.3672053 C13.5331921,45.9126358 15.0018013,45.8405828 15.0018013,45.8405828 C12.9302781,46.735947 10.384053,45.6562119 10.384053,45.6562119 C12.5551788,48.3242914 16.5615364,48.1891921 16.5615364,48.1891921 C15.264053,49.053298 12.9170331,48.5897219 12.9170331,48.5897219 C16.2664371,50.8419073 19.1835232,50.322702 19.1835232,50.322702 C16.5445828,51.3695894 14.5170331,50.722702 14.5170331,50.722702 C17.9061722,52.5393907 19.9543841,52.3672053 19.9543841,52.3672053 C18.7692185,53.2540927 17.6566358,52.9415099 17.6566358,52.9415099 C17.6566358,52.9415099 20.0211391,54.8456159 21.6545166,56.0583311 C24.4995497,58.0011126 26.1016689,58.8323709 26.1016689,58.8323709 C35.0521325,53.7685298 34.4126623,51.032106 34.4126623,51.032106 C35.0780927,51.6207152 35.2603444,52.4556821 35.2603444,52.4556821 C38.3766358,49.8686623 38.7220662,46.3195232 38.7220662,46.3195232 C39.4701457,47.7303841 38.6590199,49.8230993 38.6590199,49.8230993 C42.2606093,45.8887947 40.9906755,41.9883974 40.9906755,41.9883974 C42.0651126,42.3719735 42.218755,44.8975364 42.218755,44.8975364 C45.9210066,38.5007152 42.4529272,33.5030993 42.4529272,33.5030993 C43.6995497,33.8909139 45.0563709,36.8419073 45.0563709,36.8419073" id="Fill-36" fill="#8B0042"></path>
                <path d="M45.0563709,36.8419073 C44.3708079,30.6114437 41.3562384,28.0583311 41.3562384,28.0583311 C42.6828609,27.9550199 43.7207417,29.0310464 43.7207417,29.0310464 C41.5851126,24.8842914 39.3806093,23.9852185 38.4343841,23.7929007 C39.7896159,24.6352848 40.7316026,26.7846887 39.5088212,30.6787285 C38.2484238,28.5044238 36.9906755,27.9237616 36.9906755,27.9237616 C37.6714702,27.5380662 38.7390199,28.1309139 38.7390199,28.1309139 C37.909351,26.1160795 35.8643179,26.1754172 35.8643179,26.1754172 C36.7236556,25.4050861 38.1461722,25.9380662 38.1461722,25.9380662 C36.4704106,24.3052185 33.8208742,24.9923709 33.8208742,24.9923709 C33.3986225,25.0702517 33.2576954,25.1062781 33.2576954,25.1062781 C33.2576954,25.1062781 31.1284238,24.8090596 28.9806093,25.5380662 C26.4449801,26.3984636 26.2547815,29.192106 26.0979603,29.192106 C25.9416689,29.192106 25.7429934,26.3984636 23.2073642,25.5380662 C21.0590199,24.8090596 18.9302781,25.1062781 18.9302781,25.1062781 C18.9302781,25.1062781 20.2378278,25.3971391 20.2139868,25.840053 C20.1991523,26.1197881 19.7461722,26.1997881 19.256106,26.3052185 C19.0097483,26.3581987 18.0190199,26.6024371 17.5231258,27.117404 C17.5231258,27.117404 18.650543,26.9404503 18.7978278,27.2578013 C18.9790199,27.6445563 17.674649,28.3221722 16.1270993,28.8848212 C16.1270993,28.8848212 16.8195497,28.8440265 16.9906755,29.2302517 C17.2158411,29.7383311 16.6696159,30.397404 16.4508079,30.7073377 C14.1069669,34.0254834 14.9769007,36.7624371 16.0778278,38.6813775 C16.8237881,39.9809801 19.1024636,43.6207152 19.1024636,43.6207152 C19.1024636,43.6207152 18.6643179,44.490649 18.7618013,45.674755 C18.8894834,47.2344901 18.8894834,47.9634967 19.5988874,48.794755 C19.8494834,49.0877351 20.4624636,49.9068079 20.3856424,50.7126358 C20.2849801,51.7690596 20.6155762,52.8032318 21.7472318,53.589457 C21.7472318,53.589457 21.9003444,53.2064106 22.1885563,53.1290596 C22.1885563,53.1290596 22.4990199,53.6413775 23.6656424,54.261245 C25.1316026,55.040053 25.9835232,55.8315762 26.077298,58.8196556 C26.0931921,58.8276026 26.1016689,58.8323709 26.1016689,58.8323709 C35.0521325,53.7685298 34.4126623,51.032106 34.4126623,51.032106 C35.0780927,51.6207152 35.2603444,52.4556821 35.2603444,52.4556821 C38.3766358,49.8686623 38.7220662,46.3195232 38.7220662,46.3195232 C39.4701457,47.7303841 38.6590199,49.8230993 38.6590199,49.8230993 C42.2606093,45.8887947 40.9906755,41.9883974 40.9906755,41.9883974 C42.0651126,42.3719735 42.218755,44.8975364 42.218755,44.8975364 C45.9210066,38.5007152 42.4529272,33.5030993 42.4529272,33.5030993 C43.6995497,33.8909139 45.0563709,36.8419073 45.0563709,36.8419073" id="Fill-38" fill="#69003D"></path>
                <path d="M37.1091391,36.0492715 C37.3798675,34.5880795 37.1684768,32.5096689 35.7512583,30.7072848 C35.6013245,30.5165563 34.68,29.3970861 34.0686093,28.6696689 C33.7184106,28.2521854 33.1557616,27.7213245 33.2633113,27.4071523 C33.4439735,26.8837086 34.6646358,27.117351 34.6646358,27.117351 C34.2243709,26.6124503 33.325298,26.4206623 32.9316556,26.3051656 C32.5072848,26.1806623 31.9886093,26.1197351 31.9737748,25.84 C31.9499338,25.3970861 33.2574834,25.1062252 33.2574834,25.1062252 C33.2574834,25.1062252 31.1287417,24.8090066 28.9803974,25.5380132 C26.4447682,26.3984106 26.2545695,29.192053 26.0982781,29.192053 C25.9419868,29.192053 25.7427815,26.3984106 23.2071523,25.5380132 C21.0593377,24.8090066 18.9300662,25.1062252 18.9300662,25.1062252 C18.9300662,25.1062252 20.2376159,25.3970861 20.2137748,25.84 C20.1994702,26.1197351 19.7459603,26.1997351 19.255894,26.3051656 C19.0095364,26.3581457 18.0188079,26.6023841 17.5234437,27.117351 C17.5234437,27.117351 18.6503311,26.9403974 18.7981457,27.2577483 C18.9788079,27.6445033 17.6744371,28.322649 16.1274172,28.885298 C16.1274172,28.885298 16.8193377,28.8439735 16.9904636,29.2301987 C17.2161589,29.7382781 16.669404,30.397351 16.450596,30.7072848 C14.106755,34.0254305 14.9766887,36.7623841 16.0781457,38.6813245 C16.824106,39.9809272 19.1022517,43.6206623 19.1022517,43.6206623 C19.5917881,42.6135099 20.4739073,42.4169536 20.4739073,42.4169536 C19.885298,42.7740397 19.570596,43.3451656 19.4058278,43.9168212 C19.7496689,43.8813245 20.0988079,43.8622517 20.4516556,43.8622517 C21.4238411,43.8622517 22.3631788,43.9989404 23.253245,44.2537748 C23.3427815,44.2792053 23.4831788,44.3978808 23.4254305,44.5849007 C23.3676821,44.7740397 23.1764238,44.7761589 23.0969536,44.7501987 C22.112053,44.4270199 21.0603974,44.2521854 19.9674172,44.2521854 C18.4903311,44.2521854 17.087947,44.5711258 15.8249007,45.1433113 L15.8566887,45.2354967 C16.917351,44.7761589 18.0760265,44.4996026 19.2924503,44.4460927 C19.258543,44.6723179 19.2431788,44.8884768 19.2389404,45.0786755 C19.6357616,45.0251656 20.0405298,44.9970861 20.4516556,44.9970861 C21.2813245,44.9970861 22.0855629,45.1099338 22.8495364,45.3202649 C22.9406623,45.3456954 23.0784106,45.4606623 23.0307285,45.6402649 C22.9819868,45.8256954 22.7843709,45.8495364 22.7096689,45.8256954 C21.8450331,45.5454305 20.9237086,45.3933775 19.9674172,45.3933775 C18.6211921,45.3933775 17.3449007,45.6937748 16.2,46.2304636 L16.2307285,46.3194702 C17.162649,45.9046358 18.1798675,45.6492715 19.2495364,45.5899338 C19.258543,45.7207947 19.2993377,46.0519205 19.325298,46.2124503 C19.3237086,46.2129801 19.3221192,46.2129801 19.3210596,46.2135099 C19.6903311,46.16 20.0675497,46.1313907 20.4516556,46.1313907 C21.1388079,46.1313907 21.8058278,46.2198675 22.4415894,46.3862252 C22.5364238,46.4111258 22.6789404,46.5176159 22.6317881,46.6977483 C22.5772185,46.9059603 22.3817219,46.9101987 22.3033113,46.8858278 C21.5642384,46.6553642 20.7790728,46.5308609 19.965298,46.5329801 C18.7504636,46.5366887 17.6007947,46.8201325 16.5766887,47.3218543 L16.6074172,47.4092715 C17.4672848,47.0103311 18.4156291,46.7708609 19.4137748,46.7268874 C19.4588079,46.9716556 19.5006623,47.1915232 19.5213245,47.3149669 C19.714702,48.4556291 20.8686093,48.8360265 21.6633113,48.4588079 C21.7205298,48.4317881 24.5449007,47.0845033 24.6370861,47.042649 C25.4206623,46.6866225 25.9886093,45.9411921 26.1009272,45.0548344 C26.2137748,45.9411921 26.7811921,46.6866225 27.5647682,47.042649 C27.6574834,47.0845033 30.4818543,48.4317881 30.5390728,48.4588079 C31.3337748,48.8360265 32.4876821,48.4556291 32.6810596,47.3149669 C32.7064901,47.1618543 32.7456954,46.954702 32.7859603,46.7268874 C33.7851656,46.7708609 34.7340397,47.0103311 35.5944371,47.4092715 L35.6251656,47.3218543 C34.6010596,46.8201325 33.4513907,46.5366887 32.2365563,46.5329801 C31.4206623,46.5308609 30.6328477,46.655894 29.8921854,46.887947 C29.815894,46.9117881 29.634702,46.9006623 29.573245,46.7162914 C29.5154967,46.541457 29.658543,46.4127152 29.7496689,46.3888742 C30.3886093,46.2209272 31.0588079,46.1313907 31.7501987,46.1313907 C32.1311258,46.1313907 32.5056954,46.1594702 32.8717881,46.2119205 C32.8776159,46.1737748 32.9337748,45.8315232 32.9544371,45.5904636 C34.0230464,45.6498013 35.0402649,45.9046358 35.9711258,46.3194702 L36.0018543,46.2304636 C34.8569536,45.6937748 33.5801325,45.3933775 32.2344371,45.3933775 C31.2786755,45.3933775 30.357351,45.5449007 29.493245,45.8251656 C29.4180132,45.8495364 29.2278146,45.8309934 29.1743046,45.6498013 C29.1202649,45.4659603 29.258543,45.3462252 29.3486093,45.3213245 C30.1131126,45.1099338 30.9189404,44.9970861 31.7501987,44.9970861 C32.1645033,44.9970861 32.5729801,45.0256954 32.9729801,45.0802649 C32.9703311,44.885298 32.9549669,44.6712583 32.9194702,44.4460927 C34.1321854,44.5011921 35.2871523,44.7772185 36.3451656,45.2354967 L36.3769536,45.1433113 C35.1139073,44.5711258 33.7109934,44.2521854 32.2344371,44.2521854 C31.1388079,44.2521854 30.0845033,44.4275497 29.0974834,44.7523179 C29.0206623,44.7777483 28.8203974,44.7581457 28.7716556,44.573245 C28.7266225,44.4010596 28.8537748,44.2807947 28.9401325,44.2564238 C29.8323179,44 30.7748344,43.8622517 31.7501987,43.8622517 C32.1062252,43.8622517 32.4574834,43.8813245 32.8045033,43.9178808 C32.8034437,43.917351 32.8023841,43.917351 32.8013245,43.917351 C32.7716556,43.8166887 32.7377483,43.7154967 32.698543,43.6127152 C32.2270199,42.3819868 31.0291391,42.1086093 31.0291391,42.1086093 C31.0291391,42.1086093 31.64,41.3843709 31.162649,40.2188079 L30.525298,38.7083444 C30.525298,38.7083444 31.5997351,39.5623841 33.1091391,39.592053 C35.7072848,39.6445033 36.8500662,37.4511258 37.1091391,36.0492715" id="Fill-40" fill="#EDC157"></path>
                <path d="M25.2545695,51.941245 C25.2545695,51.941245 24.8084768,52.173298 24.5997351,52.7179338 C24.5997351,52.7179338 24.0233113,52.3380662 23.9629139,51.682702 C23.9629139,51.682702 23.3615894,51.9126358 23.1263576,52.4795232 C23.1263576,52.4795232 22.4974834,52.2278675 22.5006623,51.4930331 C22.5006623,51.4930331 22.0831788,51.7388609 21.8701987,52.2421722 C21.8701987,52.242702 21.1480795,51.3552848 21.2275497,50.4731656 C21.3335099,49.3076026 22.2537748,48.9282649 22.3878146,48.8620397 C22.5223841,48.794755 24.6500662,47.7780662 24.7554967,47.7335629 C25.1464901,47.5693245 25.597351,47.4517086 26.0884768,47.4517086 C26.5790728,47.4517086 27.0304636,47.5693245 27.421457,47.7335629 C27.5274172,47.7780662 29.6545695,48.794755 29.7886093,48.8620397 C29.9231788,48.9282649 30.8487417,49.3076026 30.949404,50.4731656 C31.0235762,51.3356821 30.3645033,52.170649 30.306755,52.2421722 C30.306755,52.2421722 30.1393377,51.7944901 29.6762914,51.4930331 C29.6762914,51.4930331 29.6005298,52.1791258 29.050596,52.4795232 C29.050596,52.4795232 28.8678146,51.9624371 28.2140397,51.682702 C28.2140397,51.682702 28.2029139,52.258596 27.5772185,52.7179338 C27.5772185,52.7179338 27.4235762,52.2252185 26.8137748,51.941245 C26.8137748,51.941245 26.7666225,52.6691921 25.9671523,53.1391258 C25.9671523,53.1391258 25.7690066,52.170649 25.2545695,51.941245" id="Fill-42" fill="#EDC157"></path>
                <path d="M34.9255099,32.9594172 C34.9048477,32.9064371 34.8661722,32.8767682 34.8142517,32.8698808 L34.7681589,32.7474967 L34.7665695,32.7474967 C34.7988874,32.7241854 34.864053,32.6606093 34.8492185,32.5292185 C34.8301457,32.3565033 34.6966358,32.2923974 34.5837881,32.2701457 C33.845245,32.1233907 33.4531921,31.8351788 33.2110728,31.6629934 C32.9689536,31.4913377 32.7983576,31.4070993 32.4979603,31.4070993 C31.5713377,31.4070993 29.8256424,32.7660397 29.2979603,32.7660397 C29.1210066,32.7660397 29.029351,32.6367682 29.0076291,32.6018013 C29.0065695,32.5980927 29.0044503,32.5954437 29.0028609,32.5912053 C28.376106,33.4696159 28.7474967,34.325245 29.0028609,34.9488212 C29.0616689,35.0923974 30.079947,37.5792848 30.1239205,37.687894 L30.1260397,37.6947815 C30.1260397,37.6947815 30.3776954,37.5411391 30.3914702,37.1967682 C30.4073642,36.7904106 30.8195497,35.8685563 31.8463046,35.8696159 C32.9535894,35.8717351 33.8595497,35.4351788 34.1869669,34.2012715 C34.2367682,34.0147815 34.3888212,33.4436556 34.853457,33.1506755 C34.9122649,33.1141192 34.9588874,33.045245 34.9255099,32.9594172" id="Fill-44" fill="#F8E3A2"></path>
                <path d="M16.2101722,34.0541987 C16.4798411,32.7710199 17.3354702,32.8764503 17.3879205,32.8700927 L17.4340132,32.7471788 L17.4350728,32.7471788 C17.402755,32.7238675 17.3375894,32.6602914 17.3524238,32.5294305 C17.3714967,32.3567152 17.5050066,32.2926093 17.6178543,32.2703576 C18.3563974,32.1230728 18.7489801,31.8353907 18.9905695,31.6626755 C19.2326887,31.4910199 19.4032848,31.4073113 19.7036821,31.4073113 C20.6308344,31.4073113 22.376,32.7657219 22.9036821,32.7657219 C23.0806358,32.7657219 23.1728212,32.6364503 23.1940132,32.6020132 C23.1956026,32.5983046 23.1971921,32.5951258 23.1982517,32.5908874 C23.8255364,33.469298 23.4541457,34.325457 23.1987815,34.9485033 C23.1405033,35.0926093 22.1222252,37.5789669 22.0777219,37.6875762 L22.0756026,37.6949934 L21.0377219,40.2189669 C20.5646093,41.3140662 21.1717616,42.1082384 21.1717616,42.1082384 C20.063947,42.1098278 18.8210331,41.0788344 17.1166623,38.2947285 C16.0946755,36.6258543 16.0252715,34.9331391 16.2101722,34.0541987" id="Fill-46" fill="#F8E3A2"></path>
                <path d="M29.0030199,32.5910464 C29.1921589,33.1208477 29.6726887,33.1277351 29.9661987,33.0408477 C30.2305695,32.9629669 31.3330861,32.6069404 31.9126887,32.3780662 C32.4912318,32.1486623 32.6432848,32.2540927 32.9415629,32.3870728 C33.8183841,32.7770066 34.7677881,32.7473377 34.7677881,32.7473377 L34.8138808,32.8697219 C34.0838146,33.1754172 33.8655364,33.4917086 33.4994437,34.0866755 C33.1503046,34.6546225 32.4567947,35.1118411 31.6281854,35.1118411 C30.9860662,35.1118411 30.7688477,34.8437616 30.4514967,34.9523709 C30.274543,35.0127682 30.0917616,35.1664106 30.029245,35.5335629 C29.8830199,36.3876026 30.5129536,37.343894 30.1261987,37.6935629 C30.1261987,37.6935629 29.0623576,35.095947 29.0030199,34.9486623 C28.7476556,34.3250861 28.3762649,33.469457 29.0030199,32.5910464" id="Fill-48" fill="#69003D"></path>
                <path d="M28.7950199,42.6516026 C28.6578013,42.4942517 28.4570066,42.394649 28.2318411,42.394649 C27.818596,42.394649 27.4837616,42.7289536 27.4837616,43.1427285 C27.4837616,43.2486887 27.5060132,43.3482914 27.5457483,43.4394172 L26.1004503,44.3512053 L24.6535629,43.4383576 C24.6922384,43.3472318 24.7139603,43.2476291 24.7139603,43.1427285 C24.7139603,42.7289536 24.3791258,42.394649 23.9658808,42.394649 C23.741245,42.394649 23.5409801,42.4937219 23.4037616,42.650543 L22.752106,42.2394172 C22.752106,42.2394172 21.893298,41.6783576 21.8535629,41.1517351 C21.8381987,40.9424636 21.9801854,40.7660397 22.2302517,41.1157086 C22.3351523,41.261404 22.4548874,41.4447152 22.7897219,41.4447152 C23.0201854,41.4447152 23.3989934,41.0897483 24.1497219,41.0897483 C25.2596556,41.0897483 25.3603179,41.5914702 26.0988609,41.5914702 C26.837404,41.5914702 26.9380662,41.0897483 28.048,41.0897483 C28.7987285,41.0897483 29.1775364,41.4447152 29.4085298,41.4447152 C29.7428344,41.4447152 29.8630993,41.261404 29.9674702,41.1157086 C30.2175364,40.7660397 30.3595232,40.9424636 30.3441589,41.1517351 C30.3049536,41.6783576 29.4456159,42.2394172 29.4456159,42.2394172 L28.7950199,42.6516026 Z" id="Fill-50" fill="#69003D"></path>
                <path d="M23.1984636,32.5910464 C23.0093245,33.1208477 22.5287947,33.1277351 22.2352848,33.0408477 C21.9714437,32.9629669 20.8689272,32.6069404 20.2893245,32.3775364 C19.7102517,32.1486623 19.5587285,32.2540927 19.2604503,32.3870728 C18.3830993,32.7770066 17.4336954,32.7473377 17.4336954,32.7473377 L17.3876026,32.8697219 C18.1181987,33.1754172 18.335947,33.4917086 18.7020397,34.0866755 C19.050649,34.6546225 19.7452185,35.1118411 20.5738278,35.1118411 C21.215947,35.1118411 21.4331656,34.8437616 21.7505166,34.9523709 C21.9269404,35.0127682 22.1102517,35.1664106 22.1727682,35.5335629 C22.3184636,36.3876026 21.2562119,38.1423046 21.7118411,38.5809801 C21.7118411,38.5809801 23.1391258,35.095947 23.1989934,34.9486623 C23.4538278,34.3250861 23.8257483,33.469457 23.1984636,32.5910464" id="Fill-52" fill="#69003D"></path>
                <path d="M31.712,33.1441589 C31.712,33.2474702 31.6282914,33.3317086 31.5244503,33.3317086 C31.4200795,33.3317086 31.3363709,33.2474702 31.3363709,33.1441589 C31.3363709,33.0403179 31.4200795,32.9560795 31.5244503,32.9560795 C31.6282914,32.9560795 31.712,33.0403179 31.712,33.1441589" id="Fill-54" fill="#FFFFFF"></path>
                <path d="M31.6328477,34.5064371 C32.4805298,34.5064371 33.1745695,33.8526623 33.2402649,33.021404 C33.1221192,32.9837881 33.0029139,32.9392848 32.8847682,32.8868344 C32.6712583,32.792 32.4037086,32.7522649 32.1509934,32.7824636 C32.2209272,32.8894834 32.2617219,33.0166358 32.2617219,33.1543841 C32.2617219,33.530543 31.9570861,33.834649 31.581457,33.834649 C31.2180132,33.834649 30.9218543,33.5501457 30.9027815,33.192 C30.5907285,33.3138543 30.3962914,33.3795497 30.1207947,33.4500132 C30.3470199,34.066702 30.9377483,34.5064371 31.6328477,34.5064371" id="Fill-56" fill="#FFFFFF"></path>
                <path d="M20.4896954,33.1441589 C20.4896954,33.2474702 20.573404,33.3317086 20.677245,33.3317086 C20.7816159,33.3317086 20.8653245,33.2474702 20.8653245,33.1441589 C20.8653245,33.0403179 20.7816159,32.9560795 20.677245,32.9560795 C20.573404,32.9560795 20.4896954,33.0403179 20.4896954,33.1441589" id="Fill-58" fill="#FFFFFF"></path>
                <path d="M20.5688477,34.5064371 C19.7206358,34.5064371 19.0271258,33.8526623 18.9614305,33.021404 C19.0795762,32.9837881 19.1987815,32.9392848 19.3163974,32.8868344 C19.5299073,32.792 19.7979868,32.7522649 20.050702,32.7824636 C19.9807682,32.8894834 19.9399735,33.0166358 19.9399735,33.1543841 C19.9399735,33.530543 20.2446093,33.834649 20.6202384,33.834649 C20.9836821,33.834649 21.2798411,33.5501457 21.2989139,33.192 C21.6114967,33.3138543 21.805404,33.3795497 22.0809007,33.4500132 C21.8546755,34.066702 21.263947,34.5064371 20.5688477,34.5064371" id="Fill-60" fill="#FFFFFF"></path>
            </g>
        </g>
        <rect id="Bounding-box" fill-opacity="0" fill="#FFFFFF" x="0" y="0" width="80" height="80"></rect>
    </g>
</svg>