<?xml version="1.0" standalone="no"?>
<!DOCTYPE svg PUBLIC "-//W3C//DTD SVG 20010904//EN"
 "http://www.w3.org/TR/2001/REC-SVG-20010904/DTD/svg10.dtd">
<svg version="1.0" xmlns="http://www.w3.org/2000/svg"
 width="220.000000pt" height="229.000000pt" viewBox="0 0 220.000000 229.000000"
 preserveAspectRatio="xMidYMid meet">

<g transform="translate(0.000000,229.000000) scale(0.100000,-0.100000)"
fill="#000000" stroke="none">
<path d="M982 2253 c-23 -8 -55 -27 -70 -43 -16 -16 -53 -35 -82 -44 -63 -19
-63 -19 -55 -6 16 26 -61 -2 -95 -35 -14 -14 -55 -42 -90 -64 -51 -31 -66 -36
-70 -24 -8 20 -55 -17 -76 -60 -18 -35 -110 -137 -117 -130 -6 5 -57 -60 -57
-72 0 -11 -81 -169 -90 -175 -14 -10 -30 -49 -30 -75 0 -15 -11 -71 -25 -127
-14 -55 -24 -107 -21 -116 4 -12 -7 -23 -37 -37 l-42 -20 1 -95 c1 -105 13
-156 50 -200 21 -25 23 -32 13 -49 -11 -16 -8 -30 14 -83 134 -315 460 -573
795 -629 98 -16 93 -13 77 -53 -21 -50 -19 -54 23 -62 20 -3 52 -13 70 -21 22
-11 36 -12 45 -5 6 5 38 15 69 21 l57 12 -15 41 c-19 56 -19 58 19 58 53 0
194 39 289 80 234 101 425 282 543 517 45 88 54 126 35 138 -6 4 -1 18 14 36
33 39 46 86 53 192 6 98 -3 120 -57 132 -25 5 -29 11 -33 53 -2 26 -12 76 -20
112 -9 36 -19 86 -22 113 -3 26 -14 55 -24 65 -19 18 -69 112 -91 170 -15 40
-49 84 -59 78 -10 -7 -101 90 -122 128 -18 34 -84 90 -73 62 3 -9 3 -16 0 -16
-8 0 -135 84 -171 114 -33 27 -93 47 -81 27 18 -29 -102 13 -139 49 -16 16
-50 36 -74 45 -55 19 -172 18 -229 -2z m128 -24 c0 -27 20 -24 21 4 1 16 2 18
6 5 6 -22 23 -24 23 -2 0 35 108 -20 135 -69 l20 -37 -20 -37 c-30 -55 -97
-86 -188 -87 -87 -1 -156 23 -192 65 -47 56 -22 123 59 160 50 23 66 24 66 4
0 -21 18 -19 23 3 4 13 5 11 6 -5 1 -32 21 -29 21 3 0 14 4 23 10 19 6 -3 10
-15 10 -26z m-370 -93 c0 -8 -43 -80 -58 -99 -14 -16 -13 -17 17 -11 20 4 48
0 78 -11 45 -17 46 -19 22 -27 -28 -11 -72 -4 -113 17 -15 8 -32 12 -37 9 -14
-8 -11 3 12 49 12 23 31 50 43 59 20 17 36 23 36 14z m762 -23 c37 -40 73
-113 48 -98 -6 4 -16 2 -23 -3 -23 -19 -101 -34 -127 -24 l-25 10 30 13 c17 7
50 13 75 13 l45 1 -32 49 c-18 26 -33 52 -33 57 0 16 16 9 42 -18z m-696 -12
c-15 -16 -45 -36 -67 -44 l-40 -16 20 32 c11 18 35 37 53 44 55 20 64 16 34
-16z m614 19 c22 -6 42 -21 52 -38 l17 -28 -33 -12 c-44 -16 -88 -15 -112 2
-18 14 -18 15 -1 22 18 6 63 2 102 -11 11 -3 3 3 -17 14 -21 12 -42 30 -48 41
-12 23 -9 24 40 10z m-556 -59 c13 -20 -71 -39 -109 -24 -15 5 -14 8 6 19 27
15 95 18 103 5z m-287 -68 c-9 -15 -32 -44 -52 -63 -38 -36 -38 -36 -20 28 6
20 74 76 83 68 2 -2 -3 -17 -11 -33z m1089 -7 c23 -23 34 -43 34 -62 l-1 -29
-38 42 c-65 73 -61 115 5 49z m-1180 -44 c-7 -35 -20 -71 -29 -80 -16 -15 -17
-14 -17 13 0 42 16 94 36 116 10 11 19 18 20 16 2 -1 -3 -31 -10 -65z m1263
-37 c4 -30 5 -55 1 -55 -14 0 -38 59 -45 110 l-7 55 22 -28 c13 -16 25 -50 29
-82z m-1127 34 c-21 -19 -43 -29 -64 -29 l-33 0 26 26 c24 24 87 47 99 37 3
-3 -10 -18 -28 -34z m1020 0 l33 -31 -39 6 c-24 3 -50 16 -65 31 l-26 25 33 0
c22 0 42 -10 64 -31z m-1016 -48 c-12 -18 -76 -41 -116 -41 -38 0 -41 2 -29
16 7 9 22 20 34 24 27 12 118 12 111 1z m1080 -14 l26 -23 -58 6 c-33 3 -70
13 -84 23 -24 17 -24 17 32 17 45 0 63 -5 84 -23z m-888 -60 c9 -74 -115 -143
-152 -85 -15 24 0 34 22 15 24 -22 39 -21 54 3 7 11 18 20 24 20 6 0 17 7 25
16 10 12 10 20 1 35 -16 26 -15 31 6 27 10 -2 18 -14 20 -31z m605 27 c3 -3 1
-14 -5 -24 -15 -23 -3 -50 22 -50 11 0 20 -6 20 -14 0 -24 41 -31 57 -10 10
14 16 15 26 5 19 -20 -20 -44 -62 -37 -40 6 -69 30 -86 71 -17 39 4 83 28 59z
m-1037 -51 c-4 -15 -20 -44 -36 -63 -27 -32 -29 -33 -30 -12 0 33 25 88 46
100 24 14 27 10 20 -25z m1456 10 c22 -21 28 -36 28 -67 l0 -41 -26 39 c-26
38 -48 96 -36 96 3 0 19 -12 34 -27z m-1544 -145 c-12 -21 -13 -19 -16 31 -2
30 3 68 10 85 13 31 13 30 16 -31 2 -38 -2 -71 -10 -85z m152 112 c-24 -34
-54 -53 -76 -48 -33 7 46 76 89 78 5 0 -1 -14 -13 -30z m817 24 c14 -4 38 -30
59 -65 51 -84 30 -104 -49 -49 -37 27 -53 31 -115 33 -44 1 -75 -2 -80 -9 -4
-6 -26 -14 -49 -18 -38 -5 -43 -4 -43 13 0 10 -7 24 -15 31 -15 13 -20 51 -8
63 8 9 270 9 300 1z m506 -8 c28 -11 67 -53 67 -70 0 -9 -54 15 -73 32 -21 18
-41 52 -32 52 3 0 20 -6 38 -14z m147 -90 c0 -50 -2 -57 -15 -46 -19 16 -29
71 -20 117 l7 38 14 -25 c7 -14 13 -51 14 -84z m-1489 0 c-20 -21 -107 -53
-117 -43 -11 11 36 48 71 56 66 15 71 13 46 -13z m1385 9 c28 -8 55 -24 62
-36 13 -20 12 -21 -20 -14 -43 9 -94 33 -109 51 -15 19 2 19 67 -1z m-626 -39
c68 -17 200 -78 221 -103 17 -20 49 -129 49 -169 0 -42 -29 -25 -69 41 -44 73
-108 119 -188 135 -144 30 -315 -45 -373 -165 -44 -90 -43 -212 2 -302 21 -42
109 -133 129 -133 5 0 9 -25 9 -55 0 -34 -4 -55 -11 -55 -29 0 -135 69 -175
114 -84 93 -119 193 -112 320 6 100 39 175 113 250 111 112 262 157 405 122z
m-572 -38 c15 -15 16 -72 1 -101 -23 -46 -87 -74 -104 -47 -10 17 5 33 20 20
23 -19 65 15 50 40 -3 4 2 10 10 14 19 7 19 55 0 62 -8 4 -15 10 -15 15 0 13
24 11 38 -3z m1012 4 c0 -4 -9 -13 -20 -20 -24 -15 -26 -35 -5 -52 8 -7 15
-20 15 -30 0 -27 25 -43 48 -31 22 12 33 5 25 -15 -8 -20 -46 -17 -76 7 -53
41 -58 149 -7 149 11 0 20 -3 20 -8z m-1385 -109 c-6 -44 -18 -55 -29 -27 -11
28 -6 64 11 97 l18 32 3 -29 c2 -17 1 -49 -3 -73z m1730 67 c18 -35 19 -59 4
-97 l-12 -28 -12 46 c-10 39 -10 109 1 109 2 0 10 -13 19 -30z m-1656 -12 c-5
-17 -21 -44 -36 -60 -32 -33 -23 -37 19 -7 34 24 45 20 28 -10 -11 -22 -90
-84 -97 -77 -2 2 2 16 8 32 14 32 15 40 17 71 2 22 47 83 62 83 5 0 5 -14 -1
-32z m1588 10 c16 -19 43 -77 43 -95 0 -12 -61 44 -66 61 -3 12 -8 29 -10 39
-7 24 9 21 33 -5z m-1703 -89 c10 -25 16 -59 14 -75 -4 -29 -4 -28 -26 16 -12
25 -22 63 -22 85 0 46 11 38 34 -26z m876 -58 c0 -97 3 -121 16 -132 14 -12
20 -9 40 16 20 25 27 28 41 19 24 -15 64 -143 52 -166 -13 -24 -42 -23 -65 3
-57 64 -85 45 -77 -52 7 -81 1 -85 -57 -33 l-40 37 2 201 3 201 35 12 c19 7
38 12 43 12 4 1 7 -52 7 -118z m926 2 l-25 -48 -1 37 c0 20 10 58 22 85 l22
48 4 -37 c2 -25 -5 -52 -22 -85z m-789 72 c43 -14 83 -29 89 -33 33 -21 68
-135 48 -155 -4 -4 -35 20 -70 53 -64 59 -118 85 -167 78 -19 -3 -22 2 -25 40
-3 39 -1 42 22 42 14 0 60 -11 103 -25z m715 -28 c17 -13 43 -67 33 -67 -3 0
-23 11 -44 25 -32 21 -61 60 -61 81 0 6 49 -21 72 -39z m-952 -41 c0 -33 -8
-72 -21 -101 -40 -90 -9 -213 68 -272 32 -25 45 -28 107 -28 70 0 106 11 168
52 25 15 29 16 43 3 24 -25 -12 -72 -82 -106 -147 -73 -318 -7 -394 151 -35
73 -38 140 -9 218 19 49 89 137 110 137 6 0 10 -24 10 -54z m-720 -90 c0 -23
-9 -45 -25 -63 l-24 -28 -1 33 c0 29 31 92 46 92 2 0 4 -15 4 -34z m1714 -10
c9 -19 16 -47 16 -63 l-1 -28 -24 30 c-17 20 -25 42 -25 68 0 44 11 42 34 -7z
m-1776 -54 c3 -63 2 -66 -13 -47 -22 28 -28 59 -20 101 10 56 28 26 33 -54z
m1838 43 c5 -34 2 -51 -11 -71 -9 -14 -14 -28 -12 -31 3 -2 15 14 28 36 27 49
43 53 34 9 -6 -29 -48 -103 -64 -112 -8 -5 -13 153 -5 187 9 41 22 33 30 -18z
m-1750 -49 c-7 -27 -62 -96 -77 -96 -19 0 5 56 39 92 39 41 48 42 38 4z m1689
-29 c8 -12 15 -33 15 -47 0 -24 0 -24 -35 10 -19 20 -39 50 -44 68 l-10 32 29
-20 c17 -12 36 -31 45 -43z m-1809 -2 c14 -24 24 -55 22 -67 -3 -21 -6 -19
-30 17 -30 43 -50 114 -30 101 7 -4 23 -27 38 -51z m419 -11 c21 -21 15 -37
-16 -44 -38 -9 -64 -97 -50 -169 22 -110 95 -190 291 -321 143 -95 200 -145
200 -176 0 -25 -24 -49 -40 -39 -15 9 -12 25 5 25 25 0 17 26 -18 57 -18 16
-89 63 -157 104 -150 91 -258 187 -297 267 -37 76 -40 194 -6 259 30 55 58 67
88 37z m1060 10 c27 -11 58 -85 62 -154 11 -149 -78 -265 -313 -410 -76 -47
-153 -98 -171 -114 -35 -30 -43 -56 -18 -56 17 0 20 -16 5 -25 -16 -10 -40 14
-40 39 0 32 58 82 206 180 144 95 233 179 266 253 40 91 21 227 -34 235 -28 4
-33 21 -13 42 18 18 25 19 50 10z m-1555 -56 l-1 -43 -19 24 c-11 13 -20 19
-20 13 0 -21 51 -70 89 -85 21 -9 63 -19 93 -22 91 -11 155 -33 177 -61 42
-54 13 -94 -39 -55 -39 28 -54 27 -151 -14 -46 -20 -92 -35 -102 -33 -29 4
-60 51 -62 93 -1 20 -5 39 -9 42 -11 11 -6 24 7 17 10 -6 10 -4 0 7 -16 16
-17 33 -2 23 6 -3 3 6 -7 22 -17 26 -17 28 -1 15 10 -8 17 -9 17 -3 0 6 -4 14
-10 17 -16 10 -11 44 10 65 11 11 22 20 25 20 3 0 5 -19 5 -42z m2066 -5 c4
-15 2 -34 -5 -45 -7 -11 -10 -23 -7 -26 3 -3 6 1 6 8 0 7 3 11 6 8 3 -4 0 -16
-6 -28 -8 -15 -8 -20 -1 -16 15 10 14 -7 -1 -23 -10 -11 -10 -13 0 -7 17 10
15 -4 -5 -27 -10 -11 -12 -17 -5 -13 18 10 15 -9 -8 -54 -28 -55 -47 -57 -143
-16 -95 41 -115 43 -158 17 -52 -32 -78 -3 -43 47 24 35 64 50 167 65 99 15
153 39 182 80 22 31 18 43 -5 16 l-19 -24 -1 43 c0 40 1 42 20 32 11 -6 23
-22 26 -37z m-688 -124 c2 -17 -9 -42 -35 -76 -74 -98 -153 -143 -265 -151
l-68 -5 0 47 0 46 59 0 c104 0 183 41 242 126 34 50 62 55 67 13z m-1115 -109
c14 -11 30 -20 36 -20 6 0 11 -3 11 -7 0 -12 -33 -43 -46 -43 -15 0 -44 50
-44 75 0 20 12 19 43 -5z m686 7 l44 -14 -2 -84 c-2 -74 0 -87 18 -103 24 -22
27 -58 7 -75 -9 -7 -41 -11 -83 -9 -66 3 -68 4 -71 31 -2 16 5 38 17 53 18 23
21 41 21 120 0 52 1 94 3 94 1 0 22 -6 46 -13z m851 -2 c0 -21 -28 -75 -39
-75 -5 0 -19 9 -32 21 -16 14 -20 22 -12 25 7 3 23 14 35 24 28 24 48 25 48 5z
m-1557 -88 c143 -279 407 -449 720 -464 262 -13 493 77 670 261 77 80 177 238
177 281 0 8 4 15 9 15 21 0 182 -82 188 -96 3 -8 -7 -44 -21 -79 -100 -233
-339 -459 -590 -556 -143 -55 -249 -72 -426 -66 -184 6 -277 28 -435 107 -216
107 -393 287 -495 502 -17 35 -30 71 -30 81 0 13 26 31 92 62 51 24 93 43 94
42 1 -1 22 -41 47 -90z m697 -723 c0 -26 -26 -84 -37 -84 -14 0 -13 11 8 68 8
20 29 32 29 16z m166 -29 c17 -42 18 -55 1 -55 -13 0 -39 75 -29 85 9 9 13 6
28 -30z m-130 9 c-3 -9 -6 -23 -6 -32 0 -24 -16 -46 -28 -38 -15 9 7 86 25 86
10 0 13 -6 9 -16z m47 -26 c6 -47 -8 -73 -31 -59 -10 6 -12 21 -7 55 9 58 30
61 38 4z m41 15 c4 -16 9 -36 12 -45 4 -12 0 -18 -10 -18 -14 0 -18 10 -31 73
-5 29 22 19 29 -10z"/>
<path d="M979 2168 c0 -2 -1 -22 -3 -44 -2 -31 1 -41 11 -37 15 6 18 83 3 83
-5 0 -10 -1 -11 -2z"/>
<path d="M1028 2163 c-12 -22 -7 -71 7 -77 30 -11 45 4 42 43 -2 28 -7 37 -24
39 -11 2 -23 0 -25 -5z m32 -13 c0 -5 -4 -10 -10 -10 -5 0 -10 5 -10 10 0 6 5
10 10 10 6 0 10 -4 10 -10z m5 -30 c3 -6 -1 -13 -10 -16 -19 -8 -30 0 -20 15
8 14 22 14 30 1z"/>
<path d="M1112 2158 c-16 -16 -15 -65 2 -71 21 -8 50 17 43 37 -4 9 -13 16
-22 16 -18 0 -20 16 -2 23 6 3 7 6 2 6 -6 1 -16 -4 -23 -11z m28 -43 c0 -8 -4
-15 -9 -15 -13 0 -22 16 -14 24 11 11 23 6 23 -9z"/>
<path d="M1190 2148 c-25 -27 -25 -38 0 -38 13 0 18 -5 14 -15 -8 -19 0 -19
19 -1 14 15 12 76 -4 76 -4 0 -17 -10 -29 -22z m16 -25 c-10 -10 -19 5 -10 18
6 11 8 11 12 0 2 -7 1 -15 -2 -18z"/>
<path d="M262 834 c-7 -8 -10 -14 -6 -14 4 0 -3 -11 -16 -25 l-23 -25 29 0 29
-1 -28 -15 c-45 -24 -22 -33 26 -10 50 24 51 36 5 36 l-31 0 21 23 c12 12 18
27 14 34 -5 8 -11 7 -20 -3z"/>
<path d="M1915 820 c-4 -6 6 -10 23 -10 33 0 57 -22 48 -45 -4 -12 -11 -13
-32 -4 -15 5 -33 17 -40 27 -8 11 -13 12 -14 5 0 -19 37 -53 58 -53 22 0 42
19 42 40 0 36 -68 67 -85 40z"/>
<path d="M200 800 c-9 -6 -10 -10 -3 -10 6 0 15 5 18 10 8 12 4 12 -15 0z"/>
<path d="M320 744 c0 -6 -16 -19 -35 -30 -41 -22 -42 -24 -15 -55 21 -24 21
-24 8 -1 -11 19 -11 24 2 32 9 6 18 6 24 0 6 -6 15 -10 20 -10 6 0 4 5 -4 10
-12 8 -13 11 -2 22 11 11 16 9 28 -6 8 -11 14 -16 14 -10 -1 13 -40 61 -40 48z"/>
<path d="M1895 730 l30 -20 -37 0 c-20 0 -39 -4 -42 -9 -9 -13 13 -17 68 -11
l50 5 -42 28 c-23 15 -45 27 -49 27 -5 0 6 -9 22 -20z"/>
<path d="M368 673 c-1 -5 -17 -20 -35 -34 -18 -15 -29 -29 -26 -32 3 -3 16 6
29 21 25 29 30 20 14 -24 -15 -39 -5 -41 35 -5 20 17 33 31 29 31 -4 0 -16 -8
-27 -17 -19 -17 -19 -17 -12 7 4 14 10 30 12 36 5 13 -13 29 -19 17z"/>
<path d="M1915 650 c3 -5 8 -10 11 -10 2 0 4 5 4 10 0 6 -5 10 -11 10 -5 0 -7
-4 -4 -10z"/>
<path d="M1815 619 c13 -24 19 -28 30 -19 8 6 23 9 35 5 37 -12 20 13 -20 29
-56 22 -63 20 -45 -15z m30 2 c3 -5 1 -12 -4 -15 -5 -3 -11 1 -15 9 -6 16 9
21 19 6z"/>
<path d="M415 590 c-4 -6 -4 -24 0 -40 5 -23 3 -30 -9 -30 -9 0 -16 8 -16 21
0 11 -5 17 -10 14 -18 -11 9 -47 33 -43 17 2 22 10 23 33 2 48 4 51 19 31 8
-11 15 -15 15 -10 0 26 -42 44 -55 24z"/>
<path d="M1741 586 c-6 -7 -8 -21 -5 -31 5 -13 15 -16 41 -12 29 5 34 3 31
-11 -2 -9 -11 -16 -21 -16 -9 1 -14 -2 -11 -7 8 -13 21 -11 38 7 25 25 3 57
-34 49 -35 -8 -50 12 -18 24 15 7 17 10 7 10 -9 1 -22 -5 -28 -13z"/>
<path d="M1642 504 l-23 -16 27 -36 c15 -21 28 -38 30 -40 6 -8 44 24 44 37 0
11 -4 9 -14 -5 -12 -15 -17 -16 -27 -7 -10 10 -9 16 2 29 12 15 12 16 -9 10
-25 -8 -31 11 -10 32 17 17 7 15 -20 -4z"/>
<path d="M516 493 c-4 -9 -2 -21 4 -27 15 -15 12 -36 -5 -36 -8 0 -15 7 -15
15 0 8 -4 15 -10 15 -14 0 -13 -13 2 -28 31 -31 73 2 50 39 -15 24 3 36 26 17
15 -12 16 -11 3 5 -17 22 -47 22 -55 0z"/>
<path d="M1563 454 l-21 -15 26 -40 c26 -40 51 -55 32 -18 -15 28 -5 36 19 15
12 -11 21 -13 25 -7 4 5 -3 15 -14 21 -12 6 -19 17 -17 25 5 12 -10 36 -22 34
-4 0 -16 -7 -28 -15z m35 -21 c-4 -22 -22 -20 -26 1 -2 10 3 16 13 16 10 0 15
-7 13 -17z"/>
<path d="M586 427 c-23 -20 -35 -36 -29 -40 6 -4 13 0 17 8 8 22 38 7 31 -15
-3 -10 -2 -21 3 -24 6 -3 13 11 16 32 4 20 9 45 12 55 8 25 -6 21 -50 -16z
m34 -2 c0 -8 -7 -15 -16 -15 -14 0 -14 3 -4 15 7 8 14 15 16 15 2 0 4 -7 4
-15z"/>
<path d="M677 410 c-3 -11 -1 -18 4 -14 5 3 9 -13 9 -35 0 -23 3 -41 8 -41 10
0 51 78 44 85 -3 3 -11 -7 -17 -22 l-12 -28 -7 38 c-8 41 -21 48 -29 17z"/>
<path d="M1472 408 c-18 -18 -15 -52 7 -72 41 -37 88 3 61 52 -17 30 -48 40
-68 20z m48 -17 c15 -28 12 -61 -5 -61 -17 0 -35 30 -35 59 0 26 26 27 40 2z"/>
<path d="M761 345 c-18 -25 -28 -45 -23 -45 6 0 12 7 16 15 8 22 39 7 33 -16
-3 -11 0 -19 8 -19 13 0 18 97 5 105 -4 2 -22 -16 -39 -40z m25 -12 c-10 -10
-19 5 -10 18 6 11 8 11 12 0 2 -7 1 -15 -2 -18z"/>
<path d="M1416 366 c3 -13 1 -27 -5 -30 -10 -6 -16 13 -12 37 1 8 -13 10 -21
1 -9 -8 22 -94 34 -94 5 0 7 8 3 19 -3 10 1 24 10 31 19 16 19 46 0 54 -12 4
-14 0 -9 -18z"/>
<path d="M652 360 c-6 -10 -8 -21 -3 -24 5 -3 11 4 14 16 8 29 4 32 -11 8z"/>
<path d="M894 309 c-6 -27 -7 -49 -3 -49 13 0 33 87 21 94 -5 3 -13 -17 -18
-45z"/>
<path d="M1294 354 c-16 -7 5 -94 23 -94 11 0 11 5 3 20 -12 23 2 27 20 5 19
-23 32 -18 18 8 -6 12 -11 32 -9 45 2 17 -2 22 -21 21 -13 0 -28 -3 -34 -5z
m40 -13 c3 -5 -1 -14 -9 -21 -8 -7 -15 -10 -15 -7 0 3 -3 12 -6 21 -7 17 20
23 30 7z"/>
<path d="M965 299 c15 -30 28 -55 30 -57 1 -1 7 20 12 48 6 27 6 50 2 50 -5 0
-9 -15 -9 -32 l-1 -33 -17 34 c-9 19 -23 36 -30 39 -8 3 -3 -16 13 -49z"/>
<path d="M1234 329 c30 -43 14 -96 -20 -68 -10 8 -14 24 -12 46 4 30 2 32 -11
18 -18 -18 -6 -62 21 -79 14 -8 22 -6 39 11 26 26 20 66 -12 84 -21 11 -21 10
-5 -12z"/>
<path d="M1101 326 c-19 -23 -10 -80 13 -84 18 -4 19 -3 3 13 -21 20 -21 35
-3 60 12 17 16 18 32 5 15 -13 17 -13 12 0 -6 20 -42 24 -57 6z"/>
<path d="M938 275 c-3 -14 -1 -25 3 -25 5 0 9 11 9 25 0 14 -2 25 -4 25 -2 0
-6 -11 -8 -25z"/>
</g>
</svg>
