<?xml version="1.0" encoding="UTF-8"?>
<svg width="80px" height="80px" viewBox="0 0 80 80" version="1.1" xmlns="http://www.w3.org/2000/svg" xmlns:xlink="http://www.w3.org/1999/xlink">
    <!-- Generator: Sketch 52.5 (67469) - http://www.bohemiancoding.com/sketch -->
    <title>Assets/Logos/Clubs/Reverse/Collingwood</title>
    <desc>Created with Sketch.</desc>
    <g id="Assets/Logos/Clubs/Reverse/Collingwood" stroke="none" stroke-width="1" fill="none" fill-rule="evenodd">
        <g id="Collingwood_REV" transform="translate(16.000000, 10.000000)">
            <g id="Group-105" transform="translate(0.479401, 0.786517)">
                <path d="M46.6062921,27.884824 C46.3848689,27.638432 46.0860424,27.487221 45.7689388,27.4459725 C46.0489888,26.8913658 46.2748065,26.2217029 46.4070412,25.4102172 C46.4902372,24.8997553 46.2769039,24.3861973 45.8564295,24.0849738 C45.7862172,24.0347366 45.7114107,23.9945868 45.6348065,23.9590312 C45.7331835,23.5679201 45.7973034,23.1509413 45.8241698,22.7060974 C45.855231,22.1896429 45.5909613,21.6999551 45.1419226,21.4426767 C45.1279401,21.4347865 45.1131586,21.4294931 45.0990762,21.4221024 C45.1758801,21.0493683 45.2156305,20.6522647 45.2134332,20.2280949 C45.2106367,19.7107416 44.9149064,19.2397303 44.4501873,19.0125144 C44.3380275,18.957583 44.2203745,18.92003 44.1011236,18.8978577 C44.0905368,18.6868215 44.0667665,18.4699925 44.0294132,18.2472709 C43.94402,17.7371086 43.5766792,17.3195306 43.0816979,17.1697179 C43.0094881,17.1479451 42.9364794,17.1341623 42.863171,17.1245743 C42.8391011,16.7259725 42.757603,16.3117903 42.6148814,15.8815281 C42.4600749,15.415211 42.0659675,15.073638 41.5880649,14.9784569 L41.5880649,14.29601 C40.8051436,13.5931885 33.92804,7.69805743 23.5550062,7.69805743 C13.1076654,7.69805743 6.35610487,13.5334632 5.51985019,14.2945119 L5.51985019,14.9642747 C5.01158552,15.0390811 4.58821473,15.3934382 4.4263171,15.8815281 C4.28359551,16.3117903 4.20209738,16.7259725 4.17792759,17.1245743 C4.1047191,17.1341623 4.03171036,17.1479451 3.9596005,17.1697179 C3.46441948,17.3195306 3.09717853,17.7371086 3.01178527,18.2472709 C2.97443196,18.4699925 2.95066167,18.6868215 2.94007491,18.8979576 C2.82072409,18.9201298 2.70317104,18.9576829 2.59091136,19.0125144 C2.12629213,19.2397303 1.83046192,19.7107416 1.82776529,20.2280949 C1.82556804,20.6522647 1.86531835,21.0493683 1.94212235,21.4221024 C1.92803995,21.4294931 1.91315855,21.4347865 1.89937578,21.4426767 C1.4502372,21.6999551 1.18596754,22.1896429 1.21702871,22.7060974 C1.24389513,23.1509413 1.30801498,23.5679201 1.40639201,23.9590312 C1.32978777,23.9944869 1.2548814,24.0346367 1.18476904,24.0849738 C0.764294632,24.3861973 0.550961298,24.8997553 0.634157303,25.4102172 C0.76639201,26.2217029 0.992209738,26.8913658 1.27225968,27.4459725 C0.95505618,27.487221 0.656329588,27.638432 0.434906367,27.884824 C0.0891385768,28.2696429 -0.008639201,28.8172584 0.182721598,29.2978577 C0.399350811,29.8421773 0.645443196,30.3090936 0.909912609,30.7121898 C0.749013733,30.8040749 0.605593009,30.9290187 0.491235955,31.0833258 C0.183220974,31.4991061 0.137578027,32.0534132 0.373283396,32.5139376 C0.711660424,33.1750112 1.08249688,33.7180325 1.46881398,34.1676704 C1.35585518,34.2565593 1.25458177,34.3619276 1.17298377,34.4858727 C0.888539326,34.9180325 0.873757803,35.4741373 1.13473159,35.920779 C1.57018727,36.6662472 2.03860175,37.259206 2.518402,37.7325144 C2.41912609,37.835186 2.33333333,37.9524395 2.26911361,38.0851735 C2.04409488,38.551191 2.1027216,39.1042996 2.42022472,39.5128889 C3.13642946,40.4338377 3.87410737,41.0895181 4.59590512,41.5538377 C4.37378277,41.737608 4.20928839,41.9885943 4.13877653,42.2795306 C4.01672909,42.782402 4.19041199,43.3107416 4.58661673,43.643226 C5.37423221,44.304 6.13538077,44.7665218 6.8576779,45.0841248 C6.55825218,45.3213283 6.36679151,45.6774831 6.34382022,46.0701923 C6.31325843,46.5864469 6.57822722,47.0755356 7.02766542,47.332015 C8.22057428,48.0132634 9.30891386,48.3713159 10.2867915,48.5228265 C10.0596754,48.8050737 9.94861423,49.1705169 9.99425718,49.5416529 C10.057578,50.055211 10.4065418,50.4884694 10.8947316,50.6596554 C12.0988265,51.0820275 13.1627965,51.249618 14.0966292,51.249618 C14.8498876,51.2495181 15.5156554,51.1383571 16.1046192,50.9661723 C16.1046192,50.9661723 16.1045194,50.9661723 16.1045194,50.9660724 C16.2136829,51.116784 16.3332335,51.2335381 16.4659675,51.3063471 L16.4694632,51.3082447 C18.577628,52.3937878 20.8277154,52.8996554 23.5564045,52.9004544 C26.2794007,52.8996554 28.5294881,52.3937878 30.6414482,51.3063471 C30.7693883,51.2362347 30.8850437,51.1252734 30.9911111,50.9828514 L30.9910112,50.9829513 C31.5664919,51.1458477 32.2146816,51.249618 32.9445693,51.249618 C33.8783021,51.2494182 34.9426717,51.0820275 36.1464669,50.6596554 C36.6346567,50.4884694 36.9836205,50.055211 37.0469413,49.5416529 C37.0925843,49.1705169 36.9815231,48.8049738 36.7543071,48.5227266 C37.7322846,48.3711161 38.8209238,48.0131635 40.0135331,47.332015 C40.4628714,47.0755356 40.7279401,46.5864469 40.6974782,46.0701923 C40.6743071,45.6773833 40.4828464,45.3213283 40.1834207,45.084025 C40.9058177,44.766422 41.6670662,44.304 42.4546816,43.643226 C42.8507865,43.3107416 43.0245693,42.782402 42.902422,42.2795306 C42.8319101,41.9885943 42.6674157,41.737608 42.4451935,41.5537378 C43.1669913,41.0895181 43.904769,40.4338377 44.6209738,39.5128889 C44.9384769,39.1042996 44.9971036,38.551191 44.7720849,38.0851735 C44.7078652,37.9523396 44.6220724,37.8350861 44.5226966,37.7325144 C45.0024969,37.259206 45.4711111,36.6662472 45.9064669,35.920779 C46.1674407,35.4741373 46.1526592,34.9180325 45.8682147,34.4858727 C45.7866167,34.3619276 45.6852434,34.2564594 45.5722846,34.1675705 C45.9588015,33.7178327 46.3295381,33.1748115 46.6678152,32.5139376 C46.9037203,32.0534132 46.8580774,31.4991061 46.5499625,31.0833258 C46.4356055,30.9291186 46.2921848,30.8040749 46.1312859,30.7121898 C46.3957553,30.3090936 46.6418477,29.8421773 46.8584769,29.2978577 C47.0498377,28.8172584 46.9521598,28.2696429 46.6062921,27.884824" id="Fill-1" fill="#FFFFFF"></path>
                <path d="M31.4308315,49.9674207 C31.4486315,49.8997054 31.4658315,49.8304919 31.4820315,49.7581823 C31.4658315,49.830392 31.4486315,49.8999051 31.4308315,49.9674207 M31.3280599,50.3107915 C31.3537599,50.2364844 31.3785599,50.159181 31.4018599,50.0773833 C31.3784599,50.1588814 31.3538599,50.236784 31.3280599,50.3107915 M31.2413683,50.5335104 C31.2520683,50.5082104 31.2625683,50.4821104 31.2730683,50.4557104 C31.2625683,50.4820104 31.2520683,50.5083104 31.2413683,50.5335104 M31.1712559,50.6861265 C31.1718559,50.6851265 31.1725559,50.6840265 31.1731559,50.6828265 C31.1725559,50.6840265 31.1718559,50.6850265 31.1712559,50.6861265 M31.5049388,49.6533134 C31.5275388,49.5445493 31.5492388,49.4326891 31.5685388,49.3138377 C31.5492388,49.4326891 31.5276388,49.5446492 31.5049388,49.6533134 M31.5685332,46.2847241 C31.5505332,46.174362 31.5302332,46.071191 31.5094332,45.9694182 C31.5304332,46.0704919 31.5505332,46.174362 31.5685332,46.2847241 M31.4808007,45.8356854 C31.4728007,45.7999301 31.4639007,45.7666717 31.4554007,45.7321149 C31.4640007,45.766372 31.4727007,45.8002297 31.4808007,45.8356854 M15.7049888,50.0745868 C15.7275888,50.1541873 15.7517888,50.2289938 15.7766888,50.301603 C15.7516888,50.2292934 15.7276888,50.1538876 15.7049888,50.0745868 M15.6252884,49.7565843 C15.6414884,49.828794 15.6586884,49.8980075 15.6763884,49.9655231 C15.6586884,49.8982072 15.6415884,49.8286941 15.6252884,49.7565843 M15.8335281,50.4530137 C15.8422281,50.4754137 15.8512281,50.4972137 15.8603281,50.5187137 C15.8512281,50.4972137 15.8423281,50.4752137 15.8335281,50.4530137 M15.6025959,49.6517154 C15.5799959,49.5435506 15.5584959,49.4321898 15.5392959,49.3138377 C15.5584959,49.4321898 15.5799959,49.5433508 15.6025959,49.6517154 M15.6528861,45.7291186 C15.6442861,45.7644744 15.6352861,45.798432 15.6270861,45.8348864 C15.6353861,45.7987316 15.6442861,45.7641748 15.6528861,45.7291186 M15.5983959,45.9689189 C15.5775959,46.0707915 15.5571959,46.1742622 15.5392959,46.2847241 C15.5571959,46.1742622 15.5773959,46.0701923 15.5983959,45.9689189" id="Fill-3" fill="#FFFFFF"></path>
                <path d="M15.4042347,47.800799 C15.4045343,47.7683396 15.4126242,47.0651186 15.5392659,46.2846941 C15.5939975,45.9479151 15.6635106,45.6557803 15.7444095,45.399201 C10.8607141,41.948015 5.51989014,36.6650187 5.51989014,30.0584769 L5.51989014,15.2909363 C5.15244944,15.3625468 4.84922846,15.6244195 4.73027715,15.9824719 C4.56068914,16.4935331 4.48388514,16.9801248 4.49497129,17.4421473 C4.34925343,17.4221723 4.19854182,17.4322597 4.05242447,17.4762047 C3.67389763,17.5908614 3.39294881,17.9101623 3.32763046,18.3001748 C3.27529588,18.6121848 3.25172534,18.9116105 3.25572035,19.1985518 C3.07834207,19.1870662 2.89766792,19.2191261 2.73167541,19.3002247 C2.37641948,19.4740075 2.15010237,19.8342572 2.14800499,20.2297628 C2.14520849,20.7594007 2.20862921,21.217628 2.31499625,21.6171286 C2.22650687,21.64 2.14011486,21.6739576 2.05851685,21.720799 C1.71504619,21.9173533 1.51299875,22.2917853 1.53676904,22.6867915 C1.57082647,23.2499875 1.66540824,23.7380774 1.79804245,24.1678402 C1.64693134,24.1943071 1.50081398,24.2526342 1.37147566,24.3453184 C1.04977778,24.5757303 0.886681648,24.9684395 0.950302122,25.3587516 C1.12378527,26.4234207 1.4665568,27.2303121 1.88013983,27.8455431 C1.83180025,27.825568 1.78156305,27.8070911 1.72703121,27.7919101 C1.34650687,27.6861423 0.937717853,27.8043945 0.673148564,28.0989263 C0.408679151,28.3932584 0.333972534,28.8119351 0.480189763,29.1794757 C0.751450687,29.8610237 1.07075156,30.4153308 1.4147216,30.8694632 C1.15294881,30.9130087 0.911950062,31.0535331 0.748554307,31.2740574 C0.513048689,31.59196 0.47819226,32.0157303 0.658367041,32.3680899 C1.0609638,33.1545069 1.51090137,33.7687391 1.97801748,34.2490387 C1.76168789,34.3219476 1.57072659,34.4640699 1.44058926,34.6620225 C1.22306117,34.9925094 1.21167541,35.4177778 1.41122597,35.7593508 C1.91309863,36.618377 2.46021473,37.2654682 3.01681898,37.7550562 C2.82076404,37.856829 2.65726841,38.0181273 2.55749313,38.2244694 C2.38530836,38.5809238 2.43025218,39.003995 2.67304869,39.3163046 C3.46016479,40.3284395 4.33467166,41.0804994 5.28178777,41.5768789 C5.26520849,41.579975 5.24912859,41.5813733 5.23224969,41.5851685 C4.84633208,41.6722597 4.54311111,41.9704869 4.45002747,42.3551061 C4.35664419,42.7395256 4.48947815,43.1436205 4.79249938,43.3978027 C5.75090137,44.2019975 6.73676904,44.7616979 7.73901623,45.0745069 C7.58580774,45.0985768 7.44178777,45.1299376 7.29597004,45.1918602 C6.93182522,45.3462672 6.68673159,45.6939326 6.6633608,46.088839 C6.64018976,46.4837453 6.84293633,46.8577778 7.18640699,47.0538327 C8.73327341,47.9371286 10.0977678,48.2601248 11.2612135,48.2849938 C11.0860325,48.3434207 10.9268315,48.4043446 10.7727241,48.5060175 C10.4422372,48.7235456 10.2637603,49.1097628 10.3120999,49.5024719 C10.3605393,49.8952809 10.6273059,50.2264669 11.0007391,50.3575031 C12.1613883,50.7646941 13.1860075,50.9259925 14.0852834,50.9258926 C14.7737228,50.9258926 15.3871561,50.8302122 15.9322747,50.6787016 C15.7642846,50.3394257 15.6321498,49.8858926 15.5392659,49.3138077 C15.4126242,48.533583 15.4045343,47.830362 15.4042347,47.800799" id="Fill-5" fill="#000000"></path>
                <path d="M46.36802,28.0989064 C46.1037503,27.8045743 45.6950612,27.6858227 45.3141373,27.7918901 C45.2597054,27.807171 45.2093683,27.8255481 45.1610287,27.8454232 C45.5747116,27.2302921 45.9173833,26.4234007 46.0909663,25.3587316 C46.1544869,24.9684195 45.9913908,24.5757104 45.6697928,24.3452984 C45.5404544,24.2526142 45.3942372,24.1942871 45.2431261,24.1678202 C45.3757603,23.7380574 45.4704419,23.2499675 45.5044994,22.6868714 C45.5282697,22.2917653 45.3261223,21.9173333 44.9827516,21.720779 C44.9010537,21.6739376 44.8146617,21.6400799 44.7262722,21.6171086 C44.8325393,21.217608 44.8960599,20.7593808 44.8931635,20.2297428 C44.891166,19.8342372 44.6648489,19.4740874 44.309593,19.3002047 C44.1437004,19.2191061 43.9629263,19.1871461 43.7854482,19.1985318 C43.7895431,18.9115905 43.7658727,18.6121648 43.713638,18.3001548 C43.6483196,17.9101423 43.3672709,17.5908414 42.9888439,17.4762846 C42.8427266,17.4318402 42.692015,17.4216529 42.5461973,17.441628 C42.5572834,16.9798052 42.4803795,16.4933134 42.3108914,15.9824519 C42.199231,15.6462722 41.9252734,15.3939875 41.5880949,15.3050986 L41.5880949,30.0585568 C41.5880949,36.6722896 36.2480699,41.9548864 31.3646742,45.4040749 C31.4450737,45.6596554 31.5139875,45.9500924 31.5684195,46.2846742 C31.695161,47.0650986 31.7033508,47.7683196 31.7036504,47.7978826 C31.7033508,47.8303421 31.695161,48.533563 31.5684195,49.3138876 C31.4738377,49.8957603 31.3386067,50.3544869 31.166422,50.6955605 C31.6968589,50.837583 32.2919151,50.9258727 32.9558851,50.9258727 C33.8550612,50.9258727 34.8801798,50.7644744 36.0405293,50.3574831 C36.4138627,50.2264469 36.6806292,49.8952609 36.7290687,49.5024519 C36.7774082,49.1098427 36.5989313,48.7235256 36.2684444,48.5059975 C36.1143371,48.4043246 35.9551361,48.3433009 35.7799551,48.2849738 C36.9433009,48.2601049 38.3082946,47.9370087 39.8548614,47.0539126 C40.1983321,46.8577578 40.4010787,46.4838252 40.3778077,46.0889189 C40.354437,45.6939126 40.1094432,45.3462472 39.7451985,45.1918402 C39.5964844,45.1287191 39.4498677,45.0972584 39.2932634,45.0729888 C40.2076205,44.7906417 41.2040749,44.2742871 42.248769,43.3977828 C42.5516904,43.1436005 42.6845243,42.7395056 42.5912409,42.3550861 C42.4980574,41.9704669 42.1948365,41.6722397 41.8090187,41.5851486 C41.7924395,41.5813533 41.7766592,41.5800549 41.7604794,41.5770587 C42.614412,41.1311161 43.5069963,40.4237004 44.3682197,39.3162846 C44.6110162,39.003975 44.6557603,38.5809039 44.4837753,38.2244494 C44.384,38.0181074 44.2204045,37.856809 44.0244494,37.7551361 C44.5808539,37.2654482 45.1281698,36.6183571 45.6299426,35.7593308 C45.8294931,35.4177578 45.8182072,34.9924894 45.6005793,34.6620025 C45.4703421,34.4638502 45.279181,34.3218277 45.0625518,34.2491186 C45.5299675,33.7689189 45.9801049,33.1547865 46.3828015,32.3681698 C46.5629763,32.0157104 46.5282197,31.5919401 46.2927141,31.2741373 C46.1292185,31.0535131 45.8883196,30.9129888 45.6265468,30.8694432 C45.9705169,30.4153109 46.2898177,29.8610037 46.5609788,29.1794557 C46.707196,28.8119151 46.6324894,28.3932385 46.36802,28.0989064" id="Fill-7" fill="#000000"></path>
                <path d="M12.2124245,43.7061074 C12.6163196,43.5355206 12.9629863,43.481588 13.2270562,43.4710012 C12.6728489,43.0085793 12.125633,42.5233858 11.5937978,42.0164195 C10.4238602,41.7476554 9.27150062,42.1841099 8.18955306,42.4031361 C6.44633208,42.7560949 5.73572035,42.5386667 5.46156305,42.6004894 C8.74515855,45.3554457 11.3159451,44.0847341 12.2124245,43.7061074" id="Fill-9" fill="#AB9767"></path>
                <path d="M9.57162547,41.0630312 C10.0202647,40.9777378 10.3820125,41.0069014 10.6349963,41.058437 C10.0827865,40.4804594 9.55444694,39.8781124 9.0617628,39.2507965 C8.09567041,38.9059276 7.04198752,39.0519451 6.07959051,39.0404594 C4.38241199,39.0200849 3.76298627,38.6746167 3.49492135,38.6773134 C6.00588265,41.9062772 8.65936579,41.2364145 9.57162547,41.0630312" id="Fill-11" fill="#AB9767"></path>
                <path d="M7.5854382,38.1599201 C7.86698627,38.1443396 8.10269164,38.1724045 8.29844694,38.2148514 C7.88336579,37.6147016 7.50324095,36.9946767 7.16596255,36.3553758 C6.36356554,36.0043146 5.45380275,36.0010187 4.63332834,35.8817678 C3.08116854,35.6563496 2.55602497,35.2644395 2.31003246,35.2341773 C4.21654931,38.4978976 6.72870911,38.2076604 7.5854382,38.1599201" id="Fill-13" fill="#AB9767"></path>
                <path d="M6.39157054,34.9202197 C6.43002247,34.9202197 6.46338077,34.9244145 6.50013483,34.9259126 C6.26193258,34.3374482 6.06178277,33.7347016 5.9060774,33.1176729 C5.21414232,32.8224419 4.43711361,32.7662122 3.73529089,32.62399 C2.28790012,32.3308564 1.81459176,31.9348514 1.58497878,31.893603 C3.20655181,35.0617428 5.58358052,34.9202197 6.39157054,34.9202197" id="Fill-15" fill="#AB9767"></path>
                <path d="M5.49259426,31.9103121 C5.5547166,31.9162047 5.61044694,31.9264919 5.66707615,31.9360799 C5.59236954,31.4512859 5.54502871,30.9587016 5.52874906,30.4581273 C4.87426717,29.9732335 4.03981024,29.8514856 3.3099226,29.630362 C2.03941074,29.2453433 1.64949813,28.8509363 1.44745069,28.7946067 C2.63027216,31.7670911 4.76949813,31.8417978 5.49259426,31.9103121" id="Fill-17" fill="#AB9767"></path>
                <path d="M5.03745318,28.8442647 C5.23510612,28.9078851 5.39181024,28.9882846 5.51985019,29.0691835 L5.51985019,27.7323546 C5.02926342,27.0160499 4.196804,26.7147266 3.50696629,26.3275106 C2.42651685,25.7211685 2.15046192,25.2833159 1.9776779,25.1913308 C2.45787765,28.1381473 4.39225968,28.6364245 5.03745318,28.8442647" id="Fill-19" fill="#AB9767"></path>
                <path d="M4.96898876,26.1515406 C5.22586767,26.264 5.40184769,26.4021273 5.51990012,26.5189813 L5.51990012,25.2475705 C5.15475655,24.5381573 4.42476904,24.1884944 3.83410737,23.7734132 C2.92734082,23.1362097 2.7211985,22.7215281 2.57578027,22.6240499 C2.7368789,25.2901174 4.41348315,25.9083446 4.96898876,26.1515406" id="Fill-21" fill="#AB9767"></path>
                <path d="M4.94650687,23.2318502 C5.3809638,23.4570687 5.51719351,23.760789 5.51989014,23.7666816 L5.51989014,22.7474557 C5.32043945,22.0043845 4.6625618,21.6495281 4.1508015,21.2372434 C3.44748065,20.6705518 3.30196255,20.3222871 3.18890387,20.2352959 C3.17741823,22.411975 4.50785518,23.0043346 4.94650687,23.2318502" id="Fill-23" fill="#AB9767"></path>
                <path d="M5.46172285,21.331975 C5.48309613,21.3479551 5.50047441,21.364035 5.51985019,21.380015 L5.51985019,19.9784669 C5.36514357,19.8062821 5.19805243,19.6458826 5.05053683,19.4814881 C4.51790262,18.8882297 4.44029963,18.5643346 4.35410737,18.4724494 C4.03630462,20.3673808 5.11166042,21.0717004 5.46172285,21.331975" id="Fill-25" fill="#AB9767"></path>
                <path d="M38.8517253,42.4031461 C37.7986417,42.1899126 36.6789413,41.7713358 35.5412634,41.9969538 C35.0018377,42.5122097 34.4467316,43.0051935 33.884035,43.4746067 C34.1388165,43.491985 34.4598152,43.5503121 34.8288539,43.7061174 C35.7251336,44.0847441 38.2961199,45.3554557 41.5795156,42.6004994 C41.3054582,42.5385768 40.5948464,42.7561049 38.8517253,42.4031461" id="Fill-27" fill="#AB9767"></path>
                <path d="M38.076035,39.2185568 C37.5805543,39.8522647 37.0491186,40.4609039 36.4927141,41.0443745 C36.7397054,41.0034257 37.0675955,40.9865468 37.469593,41.0630512 C38.3819526,41.2364345 41.0353358,41.9062971 43.5462971,38.6773333 C43.2781323,38.6746367 42.6588065,39.0201049 40.961628,39.0404794 C40.0310911,39.0515655 39.0154607,38.9161348 38.076035,39.2185568" id="Fill-29" fill="#AB9767"></path>
                <path d="M39.9644944,36.3184719 C39.6259176,36.9649638 39.2433958,37.5916804 38.8254182,38.1981223 C39.0046941,38.1657628 39.2130337,38.1464869 39.4557303,38.1598702 C40.3124594,38.2076105 42.8247191,38.4978477 44.731236,35.2342272 C44.4852434,35.2643895 43.96,35.6562996 42.4079401,35.8818177 C41.6177278,35.9965743 40.7447191,36.0043645 39.9644944,36.3184719" id="Fill-31" fill="#AB9767"></path>
                <path d="M41.2098177,33.0877403 C41.0537129,33.7139576 40.8520649,34.3254931 40.611166,34.9222472 C40.6245493,34.9220474 40.636035,34.9202497 40.6497179,34.9202497 C41.457608,34.9202497 43.8345368,35.0617728 45.4563096,31.893633 C45.2265968,31.9348814 44.7532884,32.3308864 43.3058976,32.6239201 C42.6291436,32.7610487 41.8826767,32.8192759 41.2098177,33.0877403" id="Fill-33" fill="#AB9767"></path>
                <path d="M45.5937878,28.7946267 C45.3918402,28.8509563 45.0017278,29.2453633 43.7313159,29.630382 C43.0265968,29.8439151 42.2239001,29.9641648 41.5802047,30.4087091 C41.5655231,30.9226667 41.5187815,31.4285343 41.4426767,31.9260125 C41.478432,31.9209189 41.5108914,31.9139276 41.5486442,31.9103321 C42.2716404,31.8418177 44.4108664,31.7671111 45.5937878,28.7946267" id="Fill-35" fill="#AB9767"></path>
                <path d="M45.0634906,25.1913608 C44.8908065,25.2833458 44.6146517,25.7211985 43.5342022,26.3275406 C42.8747266,26.6976779 42.0850137,26.9894132 41.588035,27.6399001 L41.588035,29.0267665 C41.7030911,28.9606492 41.8407191,28.8967291 42.0037154,28.8442946 C42.6489089,28.6364544 44.5832909,28.1381773 45.0634906,25.1913608" id="Fill-37" fill="#AB9767"></path>
                <path d="M44.4655081,22.62401 C44.31999,22.7214881 44.1138477,23.1361698 43.2069813,23.7733733 C42.6509763,24.1641848 41.9706267,24.4962697 41.588005,25.125583 L41.588005,26.4554207 C41.7032609,26.3542472 41.8610637,26.2440849 42.0721998,26.1515006 C42.6277054,25.9083046 44.3043096,25.2900774 44.4655081,22.62401" id="Fill-39" fill="#AB9767"></path>
                <path d="M42.0946517,23.2318502 C42.5334032,23.0043346 43.8638402,22.411975 43.8523546,20.2352959 C43.7392959,20.3222871 43.5937778,20.6705518 42.8904569,21.2372434 C42.4260375,21.6113758 41.8416679,21.9384669 41.5880849,22.5506017 L41.5880849,23.6565194 C41.6664869,23.5461573 41.8217928,23.3733733 42.0946517,23.2318502" id="Fill-41" fill="#AB9767"></path>
                <path d="M42.6870712,18.4724195 C42.6008789,18.5643046 42.5232759,18.8882996 41.9906417,19.4815581 C41.8641998,19.622382 41.723176,19.7602097 41.5880449,19.9051286 L41.5880449,21.3256529 C41.9458976,21.0608839 43.0025768,20.353568 42.6870712,18.4724195" id="Fill-43" fill="#AB9767"></path>
                <path d="M33.0534132,48.1541673 C32.5974831,47.868025 32.1484444,47.5248539 31.6761348,47.2179376 C31.700804,47.552819 31.7034007,47.7813333 31.7036005,47.7979126 C31.7033009,47.830372 31.6951111,48.533593 31.5684694,49.3138177 C31.5460974,49.4514457 31.5213283,49.5820824 31.4946617,49.706427 C32.5666217,49.9797853 33.9452984,49.9893733 35.6958102,49.3752409 C35.4461223,49.2106467 34.656809,49.1603096 33.0534132,48.1541673" id="Fill-45" fill="#AB9767"></path>
                <path d="M36.519191,45.425638 C35.3419625,44.956824 34.1267815,44.2082597 32.7238352,44.4036155 C32.2694032,44.7531785 31.8152709,45.0837653 31.3641348,45.4024669 C31.3949963,45.5005443 31.42396,45.6045144 31.4511261,45.714377 C31.6385918,45.7870861 31.8423371,45.8851635 32.0589663,46.0267865 C32.9257828,46.5932784 35.3770187,48.4119051 39.3385668,46.1499326 C39.0633109,46.0331785 38.2776929,46.1260624 36.519191,45.425638" id="Fill-47" fill="#AB9767"></path>
                <path d="M15.5392659,49.3138477 C15.4126242,48.533623 15.4045343,47.8303021 15.4042347,47.800839 C15.4043346,47.7817628 15.4074307,47.5323745 15.435196,47.1731236 C14.9369189,47.491226 14.4662072,47.8539725 13.9878052,48.1541973 C12.3845094,49.1603396 11.5950961,49.2106767 11.3454082,49.375171 C13.1308764,50.001588 14.5284295,49.9783171 15.6093783,49.6888789 C15.5841099,49.5698277 15.5605393,49.4450836 15.5392659,49.3138477" id="Fill-49" fill="#AB9767"></path>
                <path d="M15.744819,45.3978427 C15.301573,45.0845343 14.855231,44.7598402 14.408789,44.416769 C12.9668914,44.1746717 11.7248439,44.9465069 10.5220474,45.425608 C8.76344569,46.1260325 7.97792759,46.0331486 7.70267166,46.1499026 C11.6642197,48.411975 14.1153558,46.5933483 14.9822722,46.0267566 C15.2276654,45.8662572 15.4564794,45.7614881 15.6631211,45.6872809 C15.6886891,45.585608 15.7159551,45.4893283 15.744819,45.3978427" id="Fill-51" fill="#AB9767"></path>
                <path d="M21.3617778,42.8250787 L21.3617778,12.2792609 C19.7698677,12.4397603 18.3100924,12.7651536 16.9954357,13.1765393 L16.9954357,41.5584619 C17.827196,42.1660025 18.6507665,42.7069263 19.4221024,43.1801348 C20.0453233,43.0227316 20.6897179,42.9037803 21.3617778,42.8250787" id="Fill-53" fill="#000000"></path>
                <path d="M34.4967191,37.5894432 C36.6509263,35.0696929 37.7412634,32.4611536 37.7412634,29.7982821 L37.7412634,17.3304669 C37.4038851,17.0334382 36.2742971,16.0901174 34.4967191,15.0898677 L34.4967191,37.5894432 Z" id="Fill-55" fill="#000000"></path>
                <path d="M9.3665618,17.3286292 L9.3665618,29.7983421 C9.3665618,32.4579176 10.456799,35.0647591 12.6111061,37.5843096 L12.6111061,15.0736479 C10.8269363,16.079191 9.70114357,17.0302022 9.3665618,17.3286292" id="Fill-57" fill="#000000"></path>
                <path d="M27.6892185,43.1811835 C28.4597553,42.7088739 29.2820275,42.1691486 30.1124894,41.5631061 L30.1124894,13.1873758 C28.795236,12.7721948 27.3345618,12.4436055 25.7460474,12.2811086 L25.7460474,42.8253283 C26.4198052,42.9043296 27.0652984,43.0234806 27.6892185,43.1811835" id="Fill-59" fill="#000000"></path>
                <path d="M23.5549763,8.11202996 C13.312779,8.11202996 6.69365293,13.8328789 5.87387765,14.5789463 L5.87387765,30.0335281 C5.87387765,36.4976479 11.0901573,41.6708814 15.8704819,45.0549513 C16.0315805,44.6799201 16.2297328,44.4220424 16.4659376,44.2924045 C17.281618,43.8723296 18.119171,43.5411436 18.9956754,43.2902572 C17.9994207,42.6684345 16.9260624,41.9367491 15.8696829,41.1033908 C11.3435406,37.5331536 9.04870911,33.7295081 9.04870911,29.7983221 L9.04870911,17.1875855 L9.10064419,17.1403446 C9.69540075,16.5990212 15.1541773,11.8512559 23.5547765,11.8512559 C31.8762747,11.8512559 37.4035655,16.5994207 38.006412,17.1408439 L38.0591461,17.1881848 L38.0591461,29.7983221 C38.0591461,33.7325044 35.7663121,37.5361498 31.2443645,41.1035905 C30.182392,41.9413433 29.1125293,42.6727291 28.1210687,43.2925543 C28.993578,43.5429413 29.8266367,43.8729288 30.6378227,44.2906067 C30.8771236,44.4217428 31.0766742,44.6817179 31.2385718,45.0593458 C36.0185968,41.6773733 41.2339775,36.5049388 41.2339775,30.0335281 L41.2339775,14.5805443 C40.466437,13.8914057 33.7243645,8.11202996 23.5549763,8.11202996" id="Fill-61" fill="#000000"></path>
                <path d="M43.4294032,46.2759451 C43.3198402,45.5250836 43.0030362,44.7668315 42.7058077,44.1225368 C42.6965194,44.1058577 42.6817378,44.0793908 42.6725493,44.0627116 L42.4112759,43.6649089 C42.0713009,43.1305768 41.6798901,42.5411136 41.0604644,42.2432859 C40.9925493,42.1145468 40.5493034,41.2763945 40.5493034,41.2763945 C40.5405144,41.2593159 40.5298277,41.2430362 40.5176429,41.2279551 C39.8523745,40.3954956 39.0847341,39.6329488 38.342362,38.8955705 C38.342362,38.8955705 38.1298277,38.6839351 38.0455331,38.6001398 C37.9619376,38.126432 37.6802896,37.7810637 37.420015,37.4790412 C37.2503271,37.282387 37.0901273,37.0969189 36.9853583,36.8828864 C36.9578926,36.8268564 36.9141473,36.7819126 36.8594157,36.7516504 C36.3642347,36.4772934 35.8027366,35.6853833 35.5047091,35.0451835 C35.4986167,35.0332984 35.2379426,34.5905518 35.0150212,34.212025 C35.1678302,34.2777428 35.3223371,34.3516504 35.4691536,34.4240599 L35.7940474,34.580764 C37.1082047,35.1214881 38.2289039,35.7162447 39.526382,36.4043845 L39.9179925,36.6116255 C39.9149963,36.6100275 40.2828365,36.8422372 40.2828365,36.8422372 C40.501563,36.9917503 40.7082047,37.1328739 41.0353958,37.2146717 C41.2945718,37.2897778 41.7747715,37.2099775 41.9422622,36.7877054 C41.9482547,36.7651336 41.9542472,36.7418627 41.9602397,36.7192909 C42.0411386,36.1506017 41.6398402,35.5590412 41.3176429,35.0841348 L41.2186667,34.9370187 C41.2139725,34.9303271 40.8357453,34.3875056 40.8357453,34.3875056 C40.0686042,33.2810886 39.2752959,32.1374182 38.18396,31.2149713 C38.1802647,31.2096779 37.5570437,30.5796654 37.5570437,30.5796654 C37.5448589,30.5674806 37.5315755,30.5563945 37.5177928,30.546407 C35.7896529,29.3012634 34.5627865,27.7466067 33.2651086,26.1004644 C32.1670811,24.7087041 31.0317004,23.269603 29.5710262,22.0475306 C29.563236,22.041638 29.5554457,22.0357453 29.5477553,22.0298527 C27.7582921,20.8044844 26.1782672,19.1268814 24.6507765,17.5045094 L22.7947965,15.5747216 C21.9615381,14.8578177 21.2147715,14.2394906 20.3778177,13.771975 C20.3265818,13.7231361 19.7683795,13.1917004 19.7683795,13.1917004 C18.7377678,12.2315006 17.7549963,11.3156454 17.7549963,10.0994657 C17.7549963,9.85736829 17.7940474,9.60338577 17.8792409,9.3347216 C17.8786417,9.33661923 17.9121998,9.23294881 17.9121998,9.23294881 C18.2844345,8.08248689 18.6689538,6.89307366 19.721638,6.15669413 C19.7458077,6.13981523 19.7674806,6.11954057 19.7859576,6.09656929 C19.7859576,6.09656929 20.8129738,4.81297378 20.862412,4.75105119 C22.1777678,3.77906617 23.9461573,2.60423471 25.9990911,2.0900774 C26.0060824,2.08837953 26.0123745,2.08458427 26.0172684,2.07919101 L26.2534732,1.81701873 C26.3033109,1.64233708 26.2155206,1.50301124 26.1724744,1.43649438 L26.1569938,1.41152559 C26.1359201,1.37746816 26.0982672,1.33022722 26.0657079,1.30645693 C25.3635855,0.79529588 24.5154457,0.661463171 23.7753708,0.575970037 C22.3023121,0.39219975 20.8065818,0.391400749 19.3311261,0.570077403 C18.3122996,0.2637603 15.0820375,-0.536739076 12.6076305,0.729977528 C11.7287291,1.19709363 11.4191161,2.03364794 11.1701273,2.70590762 C11.0400899,3.05806742 10.9168439,3.39055181 10.7421623,3.58520849 C8.75854182,5.45287391 7.93257428,7.60078901 7.05776779,9.87494632 C7.05776779,9.87494632 6.6665568,10.8811885 6.66635705,10.8819875 C6.66585768,10.8820874 6.5057578,11.2349463 6.5057578,11.2349463 C6.01177528,12.328779 5.35219975,13.8171186 4.59384769,14.7645343 C4.57736829,14.7850087 4.51394757,14.8992659 4.50366042,14.9234357 C4.38670662,15.1973933 4.08778027,16.0162697 4.04773034,16.3762197 C3.95954057,17.1697278 4.10965293,17.9509513 4.35414732,18.4723995 C4.63429713,19.0701523 5.13077653,19.5729238 5.39854182,19.962437 C6.13082647,21.1092035 6.75195006,21.8887291 7.42151311,23.0601648 C8.71979026,25.3322247 10.0024869,27.6406392 11.7764694,29.7699775 C11.7835605,29.7777678 11.7907516,29.7856579 11.7979426,29.7934482 C13.3895531,31.3694782 15.3006642,32.4114757 17.4741473,32.9044594 C18.3532484,33.8308015 18.9597903,35.2629114 19.6386417,36.3090037 C19.6386417,36.3090037 20.364834,37.5526492 20.3956954,37.5984919 C20.4786916,37.7428115 20.4645094,37.8844345 20.4645094,38.0381423 C20.4645094,38.2361948 20.5209388,38.4551211 20.4470312,38.7274806 C20.3717253,39.004834 20.2938227,39.2914757 20.2938227,39.6008889 C20.2938227,39.6067815 20.2939226,39.6125743 20.2939226,39.6184669 C20.3003146,39.7285293 20.3036105,39.8362946 20.3036105,39.9428614 C20.3036105,40.6132235 20.5564944,41.2245593 20.2663571,41.9846092 C20.1446092,42.3042097 19.9755206,42.6860325 19.7863571,43.086432 C20.361638,42.9572934 20.9557953,42.8614132 21.5733233,42.7971935 L22.0821873,41.812025 C22.3186916,41.3385169 22.6633608,40.9524994 22.9674806,40.6116255 C23.3414132,40.1929488 23.6642097,39.8314007 23.7104519,39.4028365 C23.7410137,38.7105019 23.8121248,37.8446841 24.0673059,37.0514757 C24.1845593,36.974372 24.3130986,36.8844844 24.445633,36.7084045 C24.5433109,36.5782672 24.5754707,36.4363446 24.5754707,36.2957203 C24.5754707,36.1436105 24.5379176,35.9929988 24.5046592,35.8588664 C24.4669064,35.7082547 24.451226,35.6234607 24.451226,35.5734232 C24.451226,35.5232859 24.4693034,35.5091036 24.4944719,35.4966192 C24.9130487,35.3618876 25.4074307,35.4174182 25.7450087,35.6329488 C25.9429613,35.8445843 26.0691036,36.0970687 26.1988414,36.366432 C26.3170936,36.6121248 26.4474307,36.8635106 26.6330986,37.1014132 C26.7216879,37.4453833 26.7490537,37.820015 26.7753208,38.217618 C26.8237603,38.9586916 26.8859825,39.7207391 27.3699775,40.342362 C27.4161199,40.4810886 27.4381923,40.6239101 27.4381923,40.7677303 C27.4381923,41.2411386 27.2263571,41.7269313 27.0474806,42.1370187 L26.9454082,42.3756205 C26.9452085,42.3761199 26.9453084,42.3758202 26.9454082,42.3753208 C26.8717004,42.5537978 26.7773184,42.7534482 26.6734482,42.9617878 C27.1886042,43.0533733 27.6906767,43.1652335 28.1773683,43.3070562 C28.4934732,42.7518502 28.800789,42.1816629 29.0728489,41.5790162 C29.2230612,41.1914007 29.2641099,40.7893034 29.2938727,40.393598 C29.3872559,40.5478052 29.48004,40.7023121 29.5742222,40.8638102 C29.9002147,41.4219126 30.2412884,41.9974931 30.7025119,42.5218377 C31.1180924,43.2352459 31.6505268,44.2869313 31.9037104,45.1084045 C31.9169938,45.1516504 31.9385668,45.1913009 31.9700275,45.22396 C32.4096779,45.6827865 33.0972185,45.8987166 33.9038102,45.8316005 C35.1659326,45.6477303 35.4277054,45.8778427 35.6011885,46.0297528 C35.6916754,46.1094532 35.8045343,46.2081298 35.9803146,46.2362946 L38.8702022,46.2757453 C39.7395156,46.2291036 40.6382921,46.1816629 41.5544469,46.2798402 C41.5994906,46.290427 43.0554707,46.621613 43.0554707,46.621613 C43.1547466,46.6440849 43.2580175,46.6164195 43.333623,46.5470062 C43.3972434,46.4882797 43.4325993,46.4058826 43.4325993,46.3202896 C43.4325993,46.3057079 43.4316005,46.2907266 43.4294032,46.2759451" id="Fill-63" fill="#FFFFFF"></path>
                <path d="M37.1223471,39.2777628 C36.5797253,39.1556155 36.2269663,38.5813333 35.7762297,38.2368639 C35.5379276,37.9609089 35.3543571,37.6630811 35.1322347,37.3798352 C35.0068914,37.3191111 34.922397,37.3829313 34.9180025,37.5330437 C34.6885893,38.3185618 36.2033958,39.7296979 36.7550062,40.8693733 C36.8622722,41.1681998 37.0620225,41.5051785 36.9397753,41.8190861 C36.6404494,41.9953658 35.730387,41.7842297 35.4966792,41.6989363 C34.9649438,41.3803346 34.657628,40.0425069 33.9686891,39.185578 C33.8308614,39.1174632 33.8391511,38.9106217 33.6633708,38.9413833 C33.4409488,39.1405343 33.6855431,39.3699476 33.6926342,39.5848789 C33.885593,40.0658777 34.3126592,40.4870512 34.2751061,41.0234806 L33.9998502,40.9922197 C33.4166792,40.1965144 32.9122097,39.3394856 32.2513358,38.604005 C31.9753808,38.8114457 32.2513358,39.0944919 32.2513358,39.3394856 C32.4898377,39.9515206 32.934382,40.47197 33.0186767,41.1455281 C33.0186767,41.3598602 32.7348315,41.2523945 32.6200749,41.2374132 C31.5165543,40.211995 31.1800749,38.757613 30.2620225,37.5938677 C30.1237953,37.5864769 30.0774532,37.7167141 30.0165293,37.8085993 C30.2000999,38.8417079 30.9123096,39.6609838 30.812834,40.8086492 C30.7585019,40.839211 30.7362297,40.9310961 30.6594257,40.9010337 C29.9708864,39.8976879 28.8909363,38.7804844 29.5868664,37.4717203 C29.9398252,36.3540175 29.022372,35.3053283 29.5573034,34.226377 C29.9018727,33.8665268 30.4066417,33.9197603 30.8737578,33.9813833 C31.1110612,33.6595855 30.9894132,33.1696979 31.4557303,32.9710462 C31.853633,32.7022821 32.4745568,32.817638 32.8654682,33.0321698 C34.3742821,34.8999351 35.6221223,36.8744669 37.0920849,38.757613 C37.0996754,38.9338926 37.3442697,39.1481248 37.1223471,39.2777628 M28.7915605,28.7760899 C28.4773533,28.5159151 28.1955056,28.1713458 27.8116854,28.0721698 C27.64799,28.0909463 27.6692634,28.2136929 27.6692634,28.2825069 C27.8599251,28.5579625 28.5838202,28.6647291 28.3629963,28.9906217 C27.8652185,29.2967391 27.429563,28.7301473 26.9855181,28.5308964 C25.6147316,27.4745169 24.299176,26.2344669 23.0050936,25.0713208 C22.6715106,24.7523196 22.4164295,24.3268514 22.5149064,24.2445543 C22.5890137,24.1421823 23.0973783,24.4547915 23.2673658,24.5396854 C23.4374532,24.6248789 23.4338577,24.4283246 23.4338577,24.4283246 C22.284794,23.1725943 20.09603,22.2923945 20.2184769,20.3255531 C20.2492385,20.1644544 20.3787765,20.0114457 20.5246941,19.9271511 C20.9711361,19.5854782 24.6286642,20.71197 26.1588514,21.6113458 C27.8116854,22.499236 29.2817478,23.9766891 30.3530087,25.5607091 C30.3692884,25.6374132 30.3915605,25.7143171 30.3843695,25.8058027 C30.2843945,25.964804 30.0506866,25.8155905 29.8331586,25.652794 C29.5656929,25.4692235 29.3272909,25.2239301 29.0366542,25.1018826 L28.9454682,25.1934682 C29.5656929,26.0049538 30.8873408,26.517613 30.8802497,27.665578 L30.688789,27.6867516 C30.1410737,27.3245044 29.6111361,26.8318202 29.0366542,26.6325693 C28.8909363,26.7014831 29.0366542,26.8164395 29.0973783,26.8778627 C29.6672659,27.2827566 30.2635206,27.6867516 30.812834,28.1636554 C30.9356804,28.3321448 30.9651436,28.5690487 30.9042197,28.7760899 L30.7208489,28.7760899 C30.2620225,28.4471011 29.8803995,28.1547665 29.2817478,27.9190612 C29.1601998,28.1636554 29.4338577,28.2825069 29.7105119,28.4697728 C30.1355805,28.7077753 31.0920849,28.9844295 30.689588,29.4801099 C29.9398252,30.0693733 29.3070162,29.1749913 28.7915605,28.7760899 M20.426417,15.6954407 L20.3339326,15.3590612 C21.2370037,15.8414582 22.0986267,16.5020325 22.8460924,17.2876504 C23.650387,18.0117453 24.5650437,19.2027566 24.5606492,19.3393858 C24.4164295,19.4580375 23.8024969,18.7805843 23.3041199,18.7882747 C22.9911111,18.8624819 23.3956055,19.3090237 23.1509114,19.4003096 C22.8210237,19.5214582 21.2297129,18.7805843 20.6409488,17.9612085 C20.7251436,17.9233558 20.9068165,17.9268514 20.8854432,17.8082996 C20.9651436,17.674367 20.2697129,17.4379625 20.365593,17.1957653 C20.365593,17.1957653 20.5246941,17.331196 20.6409488,17.2876504 C20.9317853,17.0123945 20.1149064,16.7179625 20.579226,16.4919451 C20.6032959,16.2162896 20.2902871,16.0126442 20.1836205,15.8214831 C20.2510362,15.7801348 20.3575031,15.7643546 20.426417,15.6954407 M16.3002747,2.26043446 C16.0493883,2.28700125 15.5259426,1.88530337 15.3193009,2.3217578 C15.2277154,2.57454182 15.4113858,3.02587765 15.0437453,3.087201 C14.8295131,3.11007241 14.5337828,3.09608989 14.5237953,2.87256929 C14.4699625,2.57454182 14.4564794,2.23656429 14.6464419,1.98497878 C14.836005,1.57918602 15.3665418,1.30153308 15.9492135,1.40270662 C16.2005993,1.45334332 16.4539825,1.6299226 16.5754307,1.95411735 C16.6283645,2.14537828 16.4801498,2.21129588 16.3002747,2.26043446 M11.2477903,6.08775031 C11.545618,6.53159551 10.2141823,6.7535181 11.1257428,6.94507865 C11.29603,7.63551561 10.0610737,7.82497878 9.5937578,8.32275655 C9.61013733,8.40685144 9.57308365,8.54957303 9.74786517,8.50652684 C10.1754307,8.46837453 10.8073408,7.7412834 10.9110112,8.10862422 C11.0022971,8.60620225 10.4287141,8.65953558 10.1449688,8.84340574 C9.79240949,9.01169538 9.37193508,9.21074657 9.19655431,9.60864919 C9.12764045,9.80400499 9.43365793,9.73908614 9.53323346,9.70063421 C9.90007491,9.59336829 10.4036454,8.97524095 10.5433708,9.17998502 C10.6040949,9.37134582 10.4592759,9.55521598 10.3285393,9.70063421 C9.82387016,10.0832559 9.00509363,10.0067516 8.76689139,10.711171 C8.74481898,10.8887491 9.06581773,10.9866267 9.25747815,10.8951411 C9.57857678,10.7493233 9.99905119,10.0807591 10.1754307,10.3436305 C10.2521348,10.5731436 10.0682647,10.8026567 9.86961298,10.9254032 C8.99690387,11.7061273 8.07765293,12.3717953 7.02267166,12.7010836 C6.89143571,12.5172135 6.99860175,12.2725194 7.05233458,12.0892484 C7.82556804,9.78472909 8.84409488,7.58038452 10.1754307,5.5060774 C10.4592759,5.17688889 11.0714107,4.94727591 11.3702372,5.35266916 C11.3540574,5.79681398 10.7268414,5.68954806 10.6651186,6.08775031 C10.8421973,6.22547815 11.0567291,6.08775031 11.2477903,6.08775031 M17.5848689,4.8934432 C18.2492385,3.45014732 18.3749813,3.6777628 19.3612484,3.79142072 C19.7910112,3.728 20.0421973,3.45444195 20.2795006,3.14862422 L20.2184769,3.05633958 C19.6601748,3.18627715 19.1090637,3.61514107 18.5050187,3.36235705 C18.2667166,3.18627715 18.2131835,2.89554057 18.2902871,2.62757553 C18.8102372,1.99996005 19.9976529,2.54977278 20.6250687,2.05978527 C20.828015,1.807201 20.3101623,1.70962297 20.1881149,1.61733833 C20.0736579,1.55621473 19.8519351,1.63261923 19.8519351,1.43396754 C20.0810487,1.25768789 20.4327091,1.34747566 20.7019725,1.32650187 C21.1404245,1.32200749 21.7372784,1.09918602 21.7498627,1.46412984 C21.7498627,2.11491635 20.6499376,2.33773783 20.7700874,2.78048439 C20.9299875,3.07901124 21.2323096,2.94457928 21.4740075,2.84210737 C22.0700624,2.58163296 22.5603496,2.06108365 23.1885643,1.86223221 C23.3183021,1.83157054 23.3956055,1.90078402 23.4034956,2.01574032 L23.4034956,2.10712609 C21.7124095,2.98762547 20.1496629,4.20490387 18.5657428,5.35266916 C18.2741074,5.52345568 17.9913608,5.69723845 17.6467915,5.59756305 C17.3945069,5.44465418 17.6092385,5.13074657 17.5848689,4.8934432 M17.7076155,1.70962297 C17.906367,1.5028814 18.2211735,1.4723196 18.4736579,1.49499126 L18.4736579,1.64770037 C18.3491136,1.807201 18.0753558,2.02313109 17.7999001,1.89249438 C17.7533583,1.83916105 17.6781523,1.79341823 17.7076155,1.70962297 M42.4205243,44.2403596 C41.9989513,43.6437054 41.5923596,42.7613084 40.8274157,42.4626816 L40.2765044,41.420784 C39.5178527,40.47197 38.6391511,39.6295231 37.7661423,38.757613 C37.70402,38.0229313 37.0224719,37.6568889 36.7096629,37.0214831 C36.1350811,36.7028814 35.5398252,35.8520449 35.2251186,35.1753908 C34.9796255,34.7388365 34.6249688,34.1512709 34.3689888,33.7257029 C34.8586767,33.7257029 35.4545318,34.0866517 35.9217478,34.299985 C37.368839,34.8950412 38.5804245,35.5545169 40.0624719,36.3388365 C40.4947316,36.5755406 40.6824969,36.8080499 41.1102622,36.915216 C41.258377,36.9580624 41.5577029,36.915216 41.6545818,36.6758152 C41.7267915,36.1712459 41.258377,35.5545169 40.9614482,35.1078752 C40.0506866,33.814392 39.2177278,32.4926442 37.9843695,31.4507466 L37.337578,30.7969638 C34.0537828,28.4311211 32.4745568,24.8795605 29.3734332,22.2845044 C26.84799,20.555166 24.8110362,18.0211336 22.5766292,15.7933184 C21.8106866,15.1352409 21.0374532,14.4852534 20.1881149,14.0173383 C18.8413983,12.678412 16.91201,11.3615581 17.5848689,9.24140824 C17.9706866,8.05159551 18.3732834,6.72315605 19.5447191,5.9036804 L20.6473408,4.52570287 C22.2697129,3.32440449 23.9618976,2.29069663 25.8842946,1.80080899 C26.0282147,1.73199501 25.9290387,1.64080899 25.8842946,1.55621473 C25.2638702,1.10457928 24.5185019,0.972644195 23.7401748,0.882756554 C22.2625218,0.698486891 20.7770787,0.698486891 19.3006242,0.882756554 C17.3022222,0.270022472 14.6613233,0.0255280899 12.7483146,1.00470412 C11.5241448,1.65539076 11.5501124,3.14742572 10.9719351,3.79142072 C8.7294382,5.90467915 7.98596754,8.39426717 6.95315855,10.9962147 C6.45817728,12.0800599 5.69323346,13.8734182 4.81782772,14.9670512 C4.45737828,15.8229813 3.9905618,16.8417079 4.76639201,18.4724694 C4.998402,18.9601598 5.29782772,19.2450037 5.54222222,19.6003596 C8.203196,23.2785618 9.34147316,26.3651036 12.0138327,29.5722946 C13.6278152,31.1717953 15.5341323,32.1748414 17.6467915,32.6338677 C19.3612484,34.01604 19.5699875,35.8409588 20.7254432,37.4412584 C21.1459176,38.1680499 20.5954057,38.8721698 20.6026966,39.6154407 C20.6564295,40.5484744 20.8600749,41.2947416 20.5549563,42.0945418 C20.4524844,42.3635056 20.3150562,42.6797104 20.1605493,43.0142921 C20.5012235,42.9470762 20.8489888,42.8909463 21.2040449,42.8459026 C21.4702122,42.3320449 21.6927341,41.9000849 21.8060924,41.6737678 C22.3386267,40.6082996 23.3353808,40.0022572 23.4034956,39.3699476 C23.4411486,38.4970387 23.5330337,37.6403096 23.8008989,36.8595855 C23.9385268,36.7669014 24.065568,36.6997853 24.199201,36.5227066 C24.465568,36.1670512 23.8168789,35.4581373 24.3825718,35.2058527 C24.8881398,35.0376629 25.5155556,35.0985868 25.9449189,35.3893233 C26.4111361,35.8642297 26.5034207,36.4912459 26.9237953,36.9820325 C27.2146317,38.0455031 26.908814,39.3547665 27.6595755,40.2270762 C27.9422222,41.0458527 27.4636205,41.9270512 27.2309114,42.4930437 C27.1632959,42.6567391 27.08,42.836015 26.9887141,43.0225818 C27.2866417,43.0822072 27.5797753,43.1503221 27.868015,43.227226 C28.1956055,42.6553408 28.5115106,42.0721698 28.7915605,41.4517453 C29.022372,40.8541923 28.9749313,40.1428814 29.0671161,39.4918951 C29.7493633,40.4033558 30.168839,41.4707216 30.9651436,42.3586117 C31.4114856,43.1244544 31.9426217,44.1868265 32.198402,45.0163895 C32.6514357,45.4835056 33.3280899,45.5694981 33.8783021,45.5236554 C35.7525593,45.2498976 35.693633,45.878412 36.0283146,45.9309463 C37.8414482,46.1972135 39.6433958,45.7605593 41.5996504,45.9733933 L43.1237453,46.3203596 C43.0188764,45.6013583 42.7032709,44.8534931 42.4205243,44.2403596" id="Fill-65" fill="#000000"></path>
                <path d="M31.5684494,46.2847241 C31.392769,45.2038752 31.0809588,44.5335131 30.6379126,44.2906167 C28.5297478,43.2051735 26.2796604,42.6991061 23.5507715,42.6982072 C20.8272759,42.6991061 18.5772884,43.2051735 16.4659276,44.2924145 C16.0265768,44.5335131 15.7147665,45.2038752 15.5392859,46.2847241 C15.4126442,47.0650487 15.4045543,47.7682697 15.4042547,47.800829 C15.4045543,47.830392 15.4126442,48.533613 15.5392859,49.3138377 C15.7147665,50.3946866 16.0265768,51.0650487 16.4659276,51.3063471 L16.4695231,51.3082447 C18.577588,52.3937878 20.8276754,52.8996554 23.5564644,52.9004544 C26.2793608,52.8996554 28.5294482,52.3937878 30.6415081,51.3063471 C31.0809588,51.0650487 31.392769,50.3946866 31.5684494,49.3138377 C31.695191,48.533613 31.7033808,47.830392 31.7036804,47.7978327 C31.7033808,47.7682697 31.695191,47.0650487 31.5684494,46.2847241" id="Fill-67" fill="#FFFFFF"></path>
                <path d="M22.4425069,47.9933283 L22.3372385,47.9933283 C22.2096979,47.9933283 22.071171,48.0876105 22.071171,48.3481848 L22.071171,48.8968989 C22.071171,49.1574732 22.2096979,49.2516554 22.3372385,49.2516554 L22.4425069,49.2516554 C22.5700474,49.2516554 22.7086742,49.1574732 22.7086742,48.8968989 L22.7086742,48.3481848 C22.7086742,48.0876105 22.5700474,47.9933283 22.4425069,47.9933283" id="Fill-69" fill="#000000"></path>
                <path d="M22.4425069,46.3470462 L22.3372385,46.3470462 C22.2096979,46.3470462 22.071171,46.4413283 22.071171,46.7018027 L22.071171,47.117583 C22.071171,47.3781573 22.2096979,47.4723396 22.3372385,47.4723396 L22.4425069,47.4723396 C22.5700474,47.4723396 22.7086742,47.3781573 22.7086742,47.117583 L22.7086742,46.7018027 C22.7086742,46.4413283 22.5700474,46.3470462 22.4425069,46.3470462" id="Fill-71" fill="#000000"></path>
                <path d="M24.7040799,46.3470462 C24.5156155,46.3470462 24.4047541,46.4134632 24.4047541,46.6797303 L24.4047541,47.4225019 C24.4047541,47.6885693 24.5156155,47.7549863 24.7040799,47.7549863 C24.870372,47.7549863 25.0035056,47.6773833 25.0035056,47.4225019 L25.0035056,46.6797303 C25.0035056,46.4134632 24.8926442,46.3470462 24.7040799,46.3470462" id="Fill-73" fill="#000000"></path>
                <path d="M29.8293134,50.3938477 L29.8052434,50.411226 C27.9420724,51.3665318 25.9608489,51.8077803 23.5561548,51.8082797 C21.1434707,51.8077803 19.1599501,51.3655331 17.3091635,50.4162197 L17.2836954,50.4001398 C16.9188514,50.1028115 16.7142072,48.7017628 16.7031211,47.801588 C16.7139076,46.9068065 16.9195506,45.5094532 17.2777029,45.204834 L17.3045693,45.1862572 C19.1642447,44.2327491 21.1454682,43.791201 23.5514607,43.7902022 C25.9623471,43.791201 27.9472659,44.2336479 29.7984519,45.1824619 L29.8238202,45.1985418 C30.1912609,45.4974682 30.395206,46.8980175 30.4046941,47.796794 C30.3939076,48.6916754 30.187965,50.0894282 29.8293134,50.3938477 M30.4949813,44.5592409 C28.4351561,43.4987665 26.2293134,43.0033858 23.5564544,43.0024869 C20.8777029,43.0033858 18.6717603,43.4987665 16.608839,44.5610387 C15.8931336,44.9538477 15.7160549,47.0330487 15.7084644,47.800789 C15.7160549,48.5650337 15.892834,50.6415381 16.6107366,51.0386417 C18.6735581,52.1005144 20.8788015,52.5955955 23.5508614,52.5961948 C26.2289139,52.5955955 28.4348564,52.1002147 30.4985768,51.0377428 C31.2144819,50.644834 31.3918602,48.565633 31.3993508,47.7978926 C31.3918602,47.0330487 31.2144819,44.9538477 30.4949813,44.5592409" id="Fill-75" fill="#000000"></path>
                <path d="M27.9302272,47.0676255 C27.9302272,47.5555156 27.6087291,47.7660524 27.2428864,48.120809 C26.9212884,48.4313208 26.7107516,48.6419576 26.7107516,48.8525943 L26.7107516,49.2073508 L27.9302272,49.2073508 L27.9302272,49.7395855 L26.0898277,49.7395855 L26.0898277,48.8415081 C26.0898277,48.3481248 26.4945218,48.0321199 26.8825368,47.660784 C27.1763695,47.3781373 27.3094032,47.261583 27.3094032,47.0565393 L27.3094032,46.6797104 C27.3094032,46.4134432 27.1819625,46.3470262 27.0044844,46.3470262 C26.8271061,46.3470262 26.7107516,46.4134432 26.7107516,46.6797104 L26.7107516,47.2450037 L26.1010137,47.2450037 L26.1010137,46.6130936 C26.1010137,46.0367141 26.422412,45.8147915 27.0100774,45.8147915 L27.0210637,45.8147915 C27.6087291,45.8147915 27.9302272,46.0367141 27.9302272,46.6130936 L27.9302272,47.0676255 Z M25.6243096,48.9857278 C25.6243096,49.5622072 25.3138976,49.7837303 24.7263321,49.7837303 L24.7152459,49.7837303 C24.1275805,49.7837303 23.8171685,49.5622072 23.8171685,48.9857278 L23.8171685,48.6197853 L24.4379925,48.6197853 L24.4379925,48.9191111 C24.4379925,49.1851785 24.5322747,49.2515955 24.7206392,49.2515955 C24.9092035,49.2515955 25.0034856,49.1851785 25.0034856,48.9191111 L25.0034856,48.120809 C24.9148964,48.215191 24.8094282,48.292794 24.5489538,48.292794 C24.1055081,48.292794 23.7838102,48.0709713 23.7838102,47.4944919 L23.7838102,46.6130936 C23.7838102,46.0367141 24.1110012,45.8147915 24.6986667,45.8147915 L24.7096529,45.8147915 C25.2973184,45.8147915 25.6243096,46.0367141 25.6243096,46.6130936 L25.6243096,48.9857278 Z M23.3294782,47.1120699 C23.3294782,47.355965 23.2740474,47.67197 22.9524494,47.7218077 C23.2906267,47.7883246 23.3294782,48.1818327 23.3294782,48.3925693 L23.3294782,48.9634557 C23.3294782,49.5067765 23.0411386,49.7837303 22.4758452,49.7837303 L22.30396,49.7837303 C21.7384669,49.7837303 21.4503271,49.5067765 21.4503271,48.9634557 L21.4503271,48.3925693 C21.4503271,48.1818327 21.4890787,47.7883246 21.8273558,47.7218077 C21.5056579,47.67197 21.4503271,47.355965 21.4503271,47.1120699 L21.4503271,46.6352659 C21.4503271,46.0919451 21.7384669,45.8147915 22.30396,45.8147915 L22.4758452,45.8147915 C23.0411386,45.8147915 23.3294782,46.0919451 23.3294782,46.6352659 L23.3294782,47.1120699 Z M21.0068814,49.7395855 L19.1776679,49.7395855 L19.1776679,49.1962647 L19.809578,49.1962647 L19.809578,46.5189114 L19.1776679,46.7128689 L19.1776679,46.1364894 L19.9758702,45.859236 L20.430402,45.859236 L20.430402,49.1962647 L21.0068814,49.1962647 L21.0068814,49.7395855 Z M29.5435106,45.4679251 C27.7711261,44.5604594 25.8668065,44.1373883 23.5513009,44.1365893 C21.2416879,44.1373883 19.3411635,44.5592609 17.5713758,45.4641298 C17.3703271,45.6506966 17.12004,46.7235556 17.1070562,47.8001099 C17.1199401,48.8550911 17.3677303,49.955216 17.5641848,50.1308964 C19.3362697,51.0384619 21.2388914,51.4613333 23.5511011,51.4620325 L23.5560949,51.4620325 C25.8654082,51.4613333 27.7658327,51.0395605 29.53602,50.1345918 C29.7374682,49.948025 29.9878552,48.875166 30.0007391,47.7979126 C29.9895531,46.7443296 29.7412634,45.6444045 29.5435106,45.4679251 Z" id="Fill-77" fill="#000000"></path>
                <path d="M4.24981773,50.0994856 L2.47413733,48.6069513 C2.42609738,48.5665019 2.41980524,48.4949913 2.46025468,48.4468514 L2.48152809,48.4214831 C2.52197753,48.3735431 2.59358801,48.3672509 2.64162797,48.4077004 L4.41730836,49.9002347 C4.46534831,49.9405843 4.47164045,50.0122946 4.43119101,50.0602347 L4.4099176,50.085603 C4.36946816,50.1337428 4.29785768,50.1398352 4.24981773,50.0994856" id="Fill-79" fill="#AB9767"></path>
                <path d="M6.72557303,53.1020824 C6.39698377,53.6173383 5.94125343,53.595166 5.43548564,53.272769 L5.4259975,53.2667765 C4.92002996,52.9443795 4.70469913,52.5451785 5.03628464,52.0252285 L6.31408739,50.0209338 C6.63049189,49.5247541 7.09820724,49.5277503 7.60417478,49.8501473 L7.61366292,49.8563396 C8.11963046,50.1787366 8.3196804,50.601608 8.00337578,51.0979875 L7.61396255,51.7087241 L7.06035456,51.3558652 L7.39493633,50.8309213 C7.54404994,50.5970137 7.47513608,50.4524944 7.29845693,50.340035 C7.12197753,50.2273758 6.96177778,50.2259775 6.81276404,50.4596854 L5.64452434,52.2920949 C5.49551061,52.5258027 5.56432459,52.6705218 5.74090387,52.783181 C5.91758302,52.8955406 6.0776829,52.8971386 6.2267965,52.663231 L6.61321348,52.0571885 L7.16662172,52.4101473 L6.72557303,53.1020824 Z" id="Fill-81" fill="#FFFFFF"></path>
                <path d="M9.10337079,54.6489788 C9.29722846,54.7418627 9.4643196,54.7339725 9.58636704,54.4785918 L10.5243945,52.5183421 C10.6464419,52.2630612 10.5478652,52.1281298 10.3539076,52.0352459 C10.1600499,51.942362 9.9929588,51.9504519 9.87091136,52.205633 L8.93298377,54.1658826 C8.81093633,54.4212634 8.90941323,54.5560949 9.10337079,54.6489788 M10.5826217,51.5049089 L10.6236704,51.5242846 C11.1646941,51.7832609 11.4194757,52.1686792 11.1605993,52.7099026 L10.1346816,54.8537228 C9.87570537,55.3949463 9.4156804,55.4382921 8.87465668,55.1794157 L8.83380774,55.1599401 C8.29268414,54.9009638 8.0380025,54.5155456 8.29677903,53.9745218 L9.3227965,51.830402 C9.58397004,51.2842846 10.0416979,51.2459326 10.5826217,51.5049089" id="Fill-83" fill="#FFFFFF"></path>
                <polygon id="Fill-85" fill="#FFFFFF" points="13.1512809 56.8321798 11.5739526 56.2840649 12.8745268 52.5415431 13.4947516 52.7570737 12.3875356 55.9436904 13.3444395 56.2761748"></polygon>
                <polygon id="Fill-87" fill="#FFFFFF" points="16.4220025 57.6824869 14.7974332 57.2988664 15.7075955 53.443985 16.346397 53.5946966 15.5713658 56.8769938 16.5572335 57.1098027"></polygon>
                <polygon id="Fill-89" fill="#FFFFFF" points="18.0967591 57.9728439 18.6648489 54.0521448 19.3145368 54.146427 18.7463471 58.0669263"></polygon>
                <polygon id="Fill-91" fill="#FFFFFF" points="20.6674757 58.2861223 20.8626317 54.3293683 21.5183121 54.3617278 22.2285243 56.8503171 22.3491735 54.4027765 22.9484245 54.4322397 22.7532684 58.3890936 22.1314457 58.3585318 21.393568 55.7439001 21.2666267 58.3156854"></polygon>
                <path d="M26.6527241,57.467226 C26.688779,58.077563 26.3066567,58.3268514 25.7078052,58.3621074 L25.662362,58.364804 C25.0636105,58.4001598 24.655221,58.2031061 24.6189663,57.5872759 L24.4790412,55.2140424 C24.4442846,54.6265768 24.8251086,54.3546167 25.42396,54.3193608 L25.4691036,54.3166642 C26.0681548,54.2814082 26.4784419,54.5066267 26.5128989,55.0941923 L26.5463571,55.659186 L25.8906767,55.6979376 L25.8636105,55.2346167 C25.8468315,54.9520699 25.695221,54.8816579 25.4804894,54.8943421 C25.2660574,54.9069263 25.1235356,54.9947166 25.1403146,55.2772634 L25.2682547,57.4468514 C25.2850337,57.7293983 25.4365443,57.7998102 25.6510762,57.7871261 C25.8657079,57.7745418 26.0082297,57.6867516 25.9914507,57.4042047 L25.9566941,56.8166392 L25.572774,56.8393109 L25.5398152,56.2855031 L26.5795156,56.2242797 L26.6527241,57.467226 Z" id="Fill-93" fill="#FFFFFF"></path>
                <polygon id="Fill-95" fill="#FFFFFF" points="31.2570187 57.5595006 30.6509763 57.6740574 29.6460325 55.0992759 29.6498277 57.8633208 29.0213134 57.9819725 27.6740974 54.2046941 28.308005 54.0849438 29.1562447 56.8046442 29.1309763 53.9293383 29.7095531 53.8201748 30.7355705 56.5060175 30.5325243 53.6645693 31.1332734 53.5510112"></polygon>
                <path d="M34.3058477,56.1468065 C34.5098926,56.079191 34.6248489,55.9577428 34.5361598,55.6891785 L33.8540125,53.6257578 C33.7649238,53.3568939 33.6004295,53.3278302 33.3963845,53.3954457 C33.19204,53.4628614 33.0769838,53.5843096 33.1660724,53.8530737 L33.8482197,55.9165943 C33.9370087,56.1852584 34.1015031,56.2143221 34.3058477,56.1468065 M33.1935381,52.8543221 L33.2364844,52.8401398 C33.8062722,52.6518752 34.2569089,52.7532484 34.4451735,53.3228365 L35.1913408,55.5798152 C35.3796055,56.1493034 35.0779825,56.4994657 34.5082946,56.6878302 L34.4653483,56.7021124 C33.89596,56.8901773 33.4449238,56.7889039 33.2567591,56.2193159 L32.510392,53.9623371 C32.3206292,53.3874557 32.6238502,53.0426866 33.1935381,52.8543221" id="Fill-97" fill="#FFFFFF"></path>
                <path d="M37.9105218,54.7113009 C38.1053783,54.620015 38.2048539,54.4857828 38.0849039,54.229603 L37.1620574,52.2617628 C37.0418077,52.0053833 36.8750162,51.9961948 36.6801598,52.0874806 C36.485603,52.1788664 36.3857278,52.3129988 36.5060774,52.5693783 L37.4289238,54.5371186 C37.5489738,54.7933983 37.7160649,54.8025868 37.9105218,54.7113009 M36.4144919,51.5745218 L36.4556404,51.5551461 C36.9987615,51.3005643 37.458387,51.3474057 37.7131685,51.8906267 L38.7225069,54.0431361 C38.9773883,54.5862572 38.7194107,54.9696779 38.1760899,55.2243596 L38.1351411,55.2436355 C37.5919201,55.4983171 37.1323945,55.4513758 36.8775131,54.9082547 L35.8681748,52.7558452 C35.611196,52.2076305 35.8713708,51.8292035 36.4144919,51.5745218" id="Fill-99" fill="#FFFFFF"></path>
                <path d="M39.8035655,50.4390012 L39.5205194,50.6160799 L41.0099576,52.995206 L41.2929039,52.8180275 C41.4750762,52.7040699 41.5578727,52.5587516 41.4075605,52.3188514 L40.3025418,50.5537578 C40.1525293,50.3139576 39.9857378,50.3249438 39.8035655,50.4390012 M40.8049139,50.119201 L42.0179975,52.0568789 C42.3362996,52.5653433 42.1266617,52.9770287 41.6181973,53.295231 L40.7597703,53.8326592 L38.6576979,50.4752559 L39.5164245,49.9377278 C40.0249888,49.6194257 40.4866117,49.6107366 40.8049139,50.119201" id="Fill-101" fill="#FFFFFF"></path>
                <path d="M44.632779,48.6967491 L42.8462122,50.1740025 C42.7974732,50.2142522 42.7252634,50.2074607 42.6850137,50.1587216 L42.6650387,50.1345518 C42.624789,50.0857129 42.6316804,50.0137029 42.6803196,49.9733533 L44.4667865,48.496 C44.5154257,48.4557503 44.5876355,48.4625418 44.6278851,48.5112809 L44.64796,48.5354507 C44.6883096,48.5841898 44.6815181,48.6563995 44.632779,48.6967491" id="Fill-103" fill="#AB9767"></path>
            </g>
        </g>
        <rect id="Bounding-box" fill-opacity="0" fill="#FFFFFF" x="0" y="0" width="80" height="80"></rect>
    </g>
</svg>