<?xml version="1.0" encoding="UTF-8"?>
<svg width="80px" height="80px" viewBox="0 0 80 80" version="1.1" xmlns="http://www.w3.org/2000/svg" xmlns:xlink="http://www.w3.org/1999/xlink">
    <!-- Generator: Sketch 52.5 (67469) - http://www.bohemiancoding.com/sketch -->
    <title>Assets/Logos/Clubs/Reverse/Essendon</title>
    <desc>Created with Sketch.</desc>
    <g id="Assets/Logos/Clubs/Reverse/Essendon" stroke="none" stroke-width="1" fill="none" fill-rule="evenodd">
        <g id="Page-1" transform="translate(10.000000, 16.000000)">
            <g id="Group-85" transform="translate(0.066225, 0.953642)">
                <path d="M48.293404,11.272 C48.293404,11.272 48.9365828,9.49504636 48.9365828,7.57345695 C48.9365828,5.65133775 48.2531391,4.05186755 48.2531391,4.05186755 L47.1771126,4.05186755 C47.1771126,4.05186755 46.4941987,5.53849007 46.4941987,7.46113907 C46.4941987,9.38325828 47.1368477,11.1098808 47.1368477,11.1098808 L48.293404,11.272 Z" id="Fill-7" fill="#000000"></path>
                <path d="M39.445351,4.05086093 L39.445351,10.9070199 L40.1383311,10.9070199 C40.1383311,10.9070199 41.0172715,8.35761589 41.2683974,6.6007947 C41.5195232,4.84397351 41.4580662,4.05086093 41.4580662,4.05086093 L39.445351,4.05086093 Z" id="Fill-9" fill="#000000"></path>
                <path d="M52.327947,13.8617748 L52.327947,2.06733775 L54.0217219,2.06733775 L56.2823841,9.02839735 L56.2823841,2.12402649 L57.914702,2.12402649 L57.914702,14.722702 L55.9056954,14.413298 L53.9592053,6.82760265 L53.9592053,14.0864106 L52.327947,13.8617748 Z M44.6082119,7.45064901 C44.6082119,4.4472053 45.6757616,2.12402649 45.6757616,2.12402649 L49.754702,2.12402649 C49.754702,2.12402649 50.8217219,4.78468874 50.8217219,7.78813245 C50.8217219,10.7915762 49.5687417,13.4946225 49.5687417,13.4946225 L45.6492715,12.8731656 C45.6492715,12.8731656 44.6082119,10.4540927 44.6082119,7.45064901 Z M37.6270199,12.8339603 L37.6270199,2.12402649 L43.4649007,2.12402649 C43.4649007,2.12402649 43.5290066,4.4472053 42.9637086,7.33780132 C42.3321854,10.5669404 41.2068874,12.8339603 41.2068874,12.8339603 L37.6270199,12.8339603 Z M30.0466225,10.3136954 L30.0466225,2.06733775 L31.6164238,2.06733775 L34.0519205,8.01647682 L34.0519205,2.12402649 L35.6842384,2.12402649 L35.6842384,12.890649 L33.5496689,12.890649 L31.5533775,6.82760265 L31.5533775,11.3219073 L30.0466225,10.3136954 Z M27.9708609,6.37409272 L27.9708609,8.30045033 L25.024106,8.30045033 L25.024106,10.9674702 L28.335894,10.9637616 L25.7870199,12.8673377 L23.205298,12.8673377 L23.205298,2.12402649 L28.1594702,2.12402649 L28.1594702,3.99422517 L25.024106,3.99422517 L25.024106,6.37409272 L27.9708609,6.37409272 Z M19.4966887,11.4220397 L19.4966887,9.43422517 L16.2945695,6.65753642 L16.2945695,2.12402649 L21.1290066,2.12402649 L21.1290066,6.37409272 L19.4966887,5.01409272 L19.4966887,4.05091391 L17.8643709,4.05091391 L17.8643709,5.63766887 L21.0664901,8.41382781 L21.0664901,12.8954172 L16.2945695,12.8954172 L16.2945695,8.92402649 L17.8013245,10.2840265 L17.8013245,11.4056159 L19.4966887,11.4220397 Z M12.5901987,11.2811126 L12.5901987,9.71713907 L9.01086093,6.60084768 L9.01086093,2.12402649 L14.2225166,2.12402649 L14.2225166,6.65753642 L12.5901987,5.29753642 L12.5901987,4.05091391 L10.6437086,4.05091391 L10.6437086,5.69382781 L14.2850331,8.69727152 L14.2850331,12.8117086 L8.94834437,13.6615099 L8.94834437,8.98071523 L10.6437086,10.397404 L10.6437086,11.7346225 L12.5901987,11.2811126 Z M14.2119205,14.7131656 L26.0609272,14.7131656 L26.064106,14.7110464 L26.0630464,14.7089272 L29.84,11.9433642 L33.7430464,14.7131656 L45.4527152,14.7131656 L45.5369536,14.7131656 L58.1234437,16.6458808 L29.8760265,46.9351523 L1.80715232,16.7555497 L14.2119205,14.7131656 Z M6.65642384,6.43078146 L6.65642384,8.35766887 L3.83417219,8.35766887 L3.83417219,12.6421722 L6.97059603,12.2458808 L6.97059603,14.002702 L2.01006623,14.8525033 L2.01006623,2.12402649 L7.03311258,2.12402649 L7.03311258,4.05091391 L3.83417219,4.05091391 L3.83417219,6.43078146 L6.65642384,6.43078146 Z M0.0720529801,0.126675497 L0.0720529801,17.5248212 L29.8929801,49.5783311 L31.1978808,48.1399205 L59.6789404,17.2911788 L59.8182781,17.1396556 L59.8182781,0.126675497 L0.0720529801,0.126675497 Z" id="Fill-11" fill="#000000"></path>
                <path d="M29.839894,43.4923444 C29.839894,43.4923444 27.8202914,40.2949934 26.3898278,37.6020132 C24.9593642,34.9090331 23.9495629,32.8894305 23.9495629,32.8894305 L22.0141987,32.1323444 L19.994596,32.7214834 L18.8163179,31.6269139 L19.1532715,30.1964503 L17.8065166,30.4491656 L6.56678146,18.3988344 L11.5315497,17.4806887 L23.3604238,23.2968477 L24.3702252,22.5392318 L26.3055894,23.3805563 L27.1469139,21.7816159 L16.8809536,17.3222781 L27.9045298,17.3222781 L29.839894,15.7233377 L29.8568477,15.7233377 L31.7922119,17.3222781 L42.8157881,17.3222781 L32.549298,21.7816159 L33.3911523,23.3805563 L35.3265166,22.5392318 L36.3363179,23.2968477 L47.7349934,17.4653245 L53.0414834,18.3421457 L41.8902252,30.4491656 L40.544,30.1964503 L40.879894,31.6269139 L39.7021457,32.7214834 L37.682543,32.1323444 L35.7471788,32.8894305 C35.7471788,32.8894305 34.7373775,34.9090331 33.3069139,37.6020132 C31.8759205,40.2949934 29.8568477,43.4923444 29.8568477,43.4923444 L29.839894,43.4923444 Z M55.4467815,17.4780397 L45.4526093,15.978702 L45.4526093,15.9797616 L45.4303576,15.9755232 L32.7204238,15.9755232 L29.839894,13.9559205 L26.959894,15.9755232 L14.3357881,15.9755232 L14.2118146,15.9977748 L14.2118146,16.0020132 L4.44439735,17.7259868 L29.839894,45.0430728 L29.8642649,45.0695629 L55.4467815,17.4780397 Z" id="Fill-13" fill="#C90527"></path>
                <polygon id="Fill-15" fill="#9C9E9F" points="14.335947 15.9755232 26.960053 15.9755232 29.840053 13.9559205 26.9849536 15.9077086 26.0641589 14.7108874 26.0609801 14.7135364 14.2119735 14.7135364 14.2119735 15.9977748"></polygon>
                <polygon id="Fill-17" fill="#9C9E9F" points="32.7201589 15.9755232 32.666649 15.829298 33.6001589 14.6621457 33.618702 14.7135364 33.7432053 14.7135364 29.8396291 11.9437351 29.8396291 13.9559205"></polygon>
                <polygon id="Fill-19" fill="#9C9E9F" points="55.4470464 17.4782517 29.864 45.069245 29.8401589 45.042755 29.8401589 46.896 1.80731126 16.7556026 29.8761854 46.9352053 58.1236026 16.6459338 45.5365828 14.7132185 45.4528742 14.7132185 45.4528742 15.9789139"></polygon>
                <path d="M31.5107815,39.6202384 C31.2061457,39.3722914 30.6424371,39.0326887 29.8397881,39.0326887 C29.0509139,39.0326887 28.4522384,39.3336159 28.1417748,39.533351 C27.663894,38.5897748 27.1754172,37.5291126 26.8103841,36.5081854 C25.5483974,32.9738808 25.3799205,30.6178543 25.3799205,30.6178543 L24.538596,31.7113642 L21.9298543,31.0385166 L20.5836291,31.3749404 L19.9102517,30.7858013 C19.9102517,30.7858013 20.4993907,28.7661987 21.7619073,26.9993113 C23.023894,25.231894 24.4543576,23.7171921 24.4543576,23.7171921 L26.8946225,24.9797086 C26.8946225,24.9797086 27.3995232,23.8856689 27.9044238,22.960106 C28.4093245,22.034543 28.8299868,21.1926887 28.8299868,21.1926887 L21.0042914,18.2035497 L27.6522384,18.2035497 L28.1571391,19.0046093 L29.8397881,17.391894 L29.8567417,17.391894 L31.5388609,19.0019603 L31.5383311,19.0035497 L31.5399205,19.0046093 L32.0448212,18.2035497 L38.6922384,18.2035497 L30.866543,21.1926887 C30.866543,21.1926887 31.2872053,22.034543 31.792106,22.960106 C32.2970066,23.8856689 32.8019073,24.9797086 32.8019073,24.9797086 L35.2421722,23.7171921 C35.2421722,23.7171921 36.6726358,25.231894 37.9351523,26.9993113 C39.1642914,28.720106 39.7550199,30.6798411 39.7846887,30.7805033 C39.7857483,30.7842119 39.7862781,30.7858013 39.7862781,30.7858013 L39.1129007,31.3749404 L37.7666755,31.0385166 L35.1579338,31.7113642 L34.3166093,30.6178543 C34.3166093,30.6178543 34.1486623,32.9738808 32.8861457,36.5081854 C32.5099868,37.5603709 32.0029669,38.6554702 31.5107815,39.6202384 Z M29.8397881,42.5669934 C29.8397881,42.5669934 29.2034967,41.5540132 28.4644238,40.1563974 C28.6885298,39.9910993 29.1076026,39.7950728 29.8397881,39.7950728 C30.5046887,39.7950728 30.9603179,39.9683179 31.2448212,40.1330861 C30.5004503,41.5428874 29.8567417,42.5669934 29.8567417,42.5669934 L29.8397881,42.5669934 Z M21.5097219,25.7018278 C21.4901192,25.7272583 21.4710464,25.7521589 21.4514437,25.7775894 C21.4710464,25.7521589 21.4901192,25.7272583 21.5097219,25.7018278 Z M18.4797881,29.1026225 L8.38177483,18.8366623 L9.76031788,18.6030199 L9.75554967,18.5998411 L11.5796556,18.2952053 L22.9364768,23.9635497 C22.8755497,24.0340132 22.8103841,24.109245 22.7430993,24.1871258 C22.7023046,24.2348079 22.6588609,24.2861987 22.6154172,24.3365298 C22.5883974,24.3683179 22.5624371,24.3990464 22.5348874,24.4313642 C22.4829669,24.4928212 22.429457,24.5563974 22.375947,24.6210331 C22.3552848,24.645404 22.3351523,24.6697748 22.3144901,24.6946755 C22.2562119,24.7651391 22.1958146,24.8382517 22.1354172,24.911894 C22.1184636,24.9330861 22.1015099,24.9537483 22.0845563,24.9749404 C22.0209801,25.053351 21.9563444,25.1328212 21.8911788,25.2144106 C21.8763444,25.2329536 21.8615099,25.2514967 21.8466755,25.2705695 C21.8334305,25.2869934 21.8201854,25.3044768 21.8074702,25.3209007 L11.0609801,19.4703046 L11.0434967,19.461298 L21.1399205,26.191894 C21.0668079,26.2920265 20.9931656,26.3921589 20.920053,26.4944106 C20.3441589,27.3002384 19.9102517,28.1569272 19.6066755,28.8525563 L18.4797881,29.1026225 Z M47.9801854,18.3126887 L51.3158146,18.8366623 L41.2178013,29.1026225 L40.0909139,28.8525563 C39.8493245,28.2978543 39.5224371,27.6414305 39.1086623,26.9887152 C39.0588609,26.9097748 39.0069404,26.8303046 38.9544901,26.7513642 C38.8967417,26.6655364 38.8384636,26.5797086 38.7775364,26.4944106 C38.7044238,26.3921589 38.6307815,26.2920265 38.5571391,26.1913642 L48.6530331,19.461298 L37.890649,25.3198411 C37.4715762,24.7921589 37.074755,24.3232848 36.7611126,23.9635497 L47.9801854,18.3126887 Z M35.7470728,32.8896424 L37.6824371,32.1320265 L39.7020397,32.7216954 L40.8803179,31.6271258 L40.543894,30.1966623 L41.8901192,30.4488477 L53.0419073,18.3418278 L47.7354172,17.4650066 L36.3362119,23.2965298 L35.3264106,22.5394437 L33.3910464,23.3807682 L32.5491921,21.7818278 L42.8156821,17.3219603 L31.792106,17.3219603 L29.8567417,15.7235497 L29.8397881,15.7235497 L27.9044238,17.3219603 L16.8808477,17.3219603 L27.1473377,21.7818278 L26.3054834,23.3807682 L24.3701192,22.5394437 L23.3603179,23.2965298 L11.5319735,17.4803709 L6.5666755,18.3990464 L17.8064106,30.4488477 L19.1531656,30.1966623 L18.8167417,31.6271258 L19.9944901,32.7216954 L22.0140927,32.1320265 L23.949457,32.8896424 C23.949457,32.8896424 24.9592583,34.9087152 26.3897219,37.6016954 C27.8201854,40.2946755 29.8397881,43.4925563 29.8397881,43.4925563 L29.8567417,43.4925563 C29.8567417,43.4925563 31.8758146,40.2946755 33.3068079,37.6016954 C34.7372715,34.9087152 35.7470728,32.8896424 35.7470728,32.8896424 Z" id="Fill-21" fill="#000000"></path>
                <path d="M29.5938543,34.5540132 C28.3165033,34.3685828 27.6394172,32.7881854 27.5090861,32.4517616 L27.7098808,31.5887152 C28.016106,32.048053 28.6375629,32.7569272 29.5938543,32.863947 L29.5938543,34.5540132 Z M30.098755,32.8628874 C30.9501457,32.7659338 31.6362384,32.2144106 32.0606093,31.7709669 L32.2974305,32.7881854 C31.9249801,33.3720265 31.1339868,34.3987815 30.098755,34.5513642 L30.098755,32.8628874 Z M31.7755762,34.4046093 C32.4484238,33.6469934 32.9533245,32.6371921 32.9533245,32.6371921 L32.4484238,30.365404 L33.5424636,30.7860662 L33.7109404,28.6822252 L35.141404,30.533351 L37.4974305,29.9442119 L38.759947,30.365404 L39.4184901,29.7614305 C39.6500132,30.3352053 39.7702781,30.7330861 39.7845828,30.7807682 C39.7549139,30.680106 39.1641854,28.7198411 37.9350464,26.9990464 C36.6725298,25.2316291 35.242596,23.717457 35.242596,23.717457 C35.242596,23.717457 35.4937219,23.9844768 35.8767682,24.4210331 L32.5633907,26.1619603 L31.6070993,24.7267285 L29.8396821,27.1860662 L29.8396821,17.3921589 L28.1570331,19.0048742 L27.6521325,18.2038146 L21.0047152,18.2038146 L28.8304106,21.1929536 C28.8304106,21.1929536 28.4092185,22.0342781 27.9048477,22.9598411 C27.3994172,23.885404 26.8945166,24.9799735 26.8945166,24.9799735 L24.4542517,23.717457 C24.4542517,23.717457 23.0237881,25.2316291 21.7618013,26.9990464 C20.4992848,28.7659338 19.9106755,30.7860662 19.9106755,30.7860662 L20.5835232,31.3746755 L21.9297483,31.0382517 L24.5384901,31.7116291 L25.3798146,30.6175894 C25.3798146,30.6175894 25.5482914,32.9741457 26.8108079,36.5079205 C27.1753113,37.5288477 27.6637881,38.5895099 28.1416689,39.5330861 C28.4521325,39.333351 29.0508079,39.0324238 29.8396821,39.0324238 L29.8396821,35.4583841 C30.3837881,35.2819603 31.3151788,34.9216954 31.7755762,34.4046093 Z" id="Fill-23" fill="#D1D1D1"></path>
                <path d="M29.839894,41.9774305 L29.818702,40.1056424 C29.818702,40.1056424 29.826649,40.1045828 29.839894,40.104053 L29.839894,39.7951788 C29.1077086,39.7951788 28.6886358,39.9912053 28.464,40.1559735 C29.2030728,41.5541192 29.839894,42.5665695 29.839894,42.5665695 L29.839894,41.9774305 Z" id="Fill-25" fill="#D1D1D1"></path>
                <polygon id="Fill-27" fill="#D1D1D1" points="38.6922914 18.2036556 32.0448742 18.2036556 31.5399735 19.0047152 31.5383841 19.0036556 30.866596 21.1927947"></polygon>
                <path d="M27.7097748,31.5888742 L27.5089801,32.4519205 C27.6393113,32.7883444 28.3163974,34.3687417 29.5937483,34.5541722 L29.5937483,32.8635762 C28.637457,32.7570861 28.016,32.0476821 27.7097748,31.5888742" id="Fill-29" fill="#000000"></path>
                <path d="M32.2971656,32.7881854 L32.0608742,31.7709669 C31.6365033,32.2144106 30.9498808,32.7659338 30.0990199,32.8628874 L30.0990199,34.5513642 C31.1337219,34.3987815 31.925245,33.3720265 32.2971656,32.7881854" id="Fill-31" fill="#000000"></path>
                <path d="M31.6069934,24.7268344 L32.5638146,26.1620662 L35.8766623,24.4211391 C35.4936159,23.9845828 35.2424901,23.7175629 35.2424901,23.7175629 L32.8016954,24.9800795 C32.8016954,24.9800795 32.2967947,23.8855099 31.7924238,22.959947 C31.2869934,22.0343841 30.8663311,21.1930596 30.8663311,21.1930596 L31.5381192,19.0033907 L31.538649,19.0018013 L29.8565298,17.3922649 L29.840106,17.3922649 L29.840106,27.1861722 L31.6069934,24.7268344 Z" id="Fill-33" fill="#9C9E9F"></path>
                <path d="M29.839894,39.7951258 L29.839894,40.104 C29.8902252,40.101351 30.0401589,40.1018808 30.3241325,40.1686358 C30.6865166,40.2539338 30.8078411,40.3577748 30.8078411,40.3577748 C30.8078411,40.3577748 30.7024106,40.568106 30.5551258,40.8420132 C30.4083709,41.1143311 29.8414834,41.9747285 29.839894,41.9773775 L29.839894,42.5665166 L29.8568477,42.5665166 C29.8568477,42.5665166 30.5005563,41.5429404 31.2449272,40.1331391 C30.9604238,39.9683709 30.5047947,39.7951258 29.839894,39.7951258" id="Fill-35" fill="#9C9E9F"></path>
                <path d="M35.1580397,31.7115232 L37.7667815,31.0381457 L39.1130066,31.3745695 L39.7858543,30.7859603 C39.7858543,30.7859603 39.7858543,30.7843709 39.7847947,30.7806623 C39.7704901,30.7329801 39.6502252,30.3350993 39.418702,29.7613245 L38.7596291,30.365298 L37.4976424,29.944106 L35.1410861,30.533245 L33.7106225,28.6821192 L33.5426755,30.7859603 L32.4486358,30.365298 L32.9535364,32.6370861 C32.9535364,32.6370861 32.4486358,33.6468874 31.7752583,34.4045033 C31.3153907,34.9221192 30.384,35.2818543 29.839894,35.4582781 L29.839894,39.0323179 C30.642543,39.0323179 31.2062517,39.3724503 31.5108874,39.6203974 C32.002543,38.6550993 32.5100927,37.5605298 32.8857219,36.5083444 C34.1482384,32.9740397 34.3167152,30.6180132 34.3167152,30.6180132 L35.1580397,31.7115232 Z" id="Fill-37" fill="#9C9E9F"></path>
                <path d="M29.839894,41.9774305 C29.8414834,41.9747815 30.4083709,41.1143841 30.5551258,40.8415364 C30.7024106,40.5681589 30.8078411,40.357298 30.8078411,40.357298 C30.8078411,40.357298 30.6865166,40.2539868 30.3241325,40.1686887 C30.0401589,40.1019338 29.8902252,40.101404 29.839894,40.104053 C29.826649,40.1045828 29.818702,40.1056424 29.818702,40.1056424 L29.839894,41.9774305 Z" id="Fill-39" fill="#000000"></path>
                <path d="M22.1355232,24.912053 C22.1185695,24.933245 22.1016159,24.9539073 22.0841325,24.9750993 C22.1016159,24.9539073 22.1185695,24.933245 22.1355232,24.912053" id="Fill-41" fill="#D1D1D1"></path>
                <path d="M22.3758411,24.621298 C22.3551788,24.6456689 22.3350464,24.6695099 22.3143841,24.6949404 C22.3350464,24.6700397 22.3551788,24.6456689 22.3758411,24.621298" id="Fill-43" fill="#D1D1D1"></path>
                <path d="M22.6153642,24.3366887 C22.5883444,24.3690066 22.5623841,24.3986755 22.5348344,24.4315232 C22.5623841,24.3986755 22.5883444,24.3684768 22.6153642,24.3366887" id="Fill-45" fill="#D1D1D1"></path>
                <path d="M21.8912848,25.2141987 C21.8764503,25.2332715 21.8616159,25.2512848 21.8467815,25.2703576 C21.8616159,25.2512848 21.8764503,25.2327417 21.8912848,25.2141987" id="Fill-47" fill="#D1D1D1"></path>
                <path d="M22.9364238,23.9636556 C22.8749669,24.0341192 22.8103311,24.1082914 22.7430464,24.1872318 C22.8103311,24.1088212 22.8754967,24.0341192 22.9364238,23.9636556" id="Fill-49" fill="#D1D1D1"></path>
                <path d="M21.1400795,26.192053 L11.0436556,19.4609272 L11.0611391,19.4704636 L9.76047682,18.6031788 L8.38193377,18.8368212 L18.479947,29.1027815 L19.6063046,28.8521854 C19.9104106,28.1570861 20.3443179,27.3003974 20.9202119,26.4940397 C20.9933245,26.3923179 21.0664371,26.2916556 21.1400795,26.192053" id="Fill-51" fill="#D1D1D1"></path>
                <path d="M48.6529801,19.4611391 L39.1107285,26.9922649 C39.1101987,26.9912053 39.1091391,26.9901457 39.1086093,26.9885563 C39.5223841,27.6412715 39.8492715,28.2976954 40.0908609,28.8523974 L41.2177483,29.1029934 L51.3157616,18.8365033 L47.9801325,18.3125298 L36.7610596,23.9639205 C37.074702,24.3231258 37.4715232,24.792 37.890596,25.3196821 L48.6529801,19.4611391 Z" id="Fill-53" fill="#D1D1D1"></path>
                <path d="M38.954649,26.7513642 C38.8974305,26.6655364 38.8386225,26.5797086 38.7776954,26.4944106 C38.8386225,26.5797086 38.8969007,26.6655364 38.954649,26.7513642" id="Fill-55" fill="#D1D1D1"></path>
                <path d="M21.4514967,25.7776424 C21.4710993,25.7522119 21.4901722,25.7273113 21.5097748,25.7018808 C21.4901722,25.7273113 21.4710993,25.7522119 21.4514967,25.7776424" id="Fill-57" fill="#9C9E9F"></path>
                <path d="M21.8072053,25.3207947 C21.8204503,25.3043709 21.8336954,25.2874172 21.8464106,25.2704636 C21.8617748,25.2513907 21.8766093,25.2333775 21.8914437,25.2143046 C21.9566093,25.133245 22.0207152,25.053245 22.0842914,24.9753642 C22.1017748,24.9541722 22.1181987,24.9335099 22.1356821,24.9123179 C22.1960795,24.8381457 22.255947,24.7650331 22.314755,24.6945695 C22.3354172,24.6696689 22.3550199,24.6458278 22.3756821,24.621457 C22.4297219,24.5568212 22.482702,24.493245 22.5346225,24.4312583 C22.5621722,24.3989404 22.5886623,24.3687417 22.6151523,24.3369536 C22.658596,24.2860927 22.7020397,24.234702 22.7433642,24.1870199 C22.810649,24.1086093 22.8752848,24.0339073 22.9362119,23.9634437 L11.5793907,18.2950993 L9.75528477,18.5997351 L9.76005298,18.6029139 L11.0607152,19.4707285 L21.8072053,25.3207947 Z" id="Fill-59" fill="#9C9E9F"></path>
                <path d="M48.6529801,19.4611391 L38.5570861,26.1917351 C38.6307285,26.2918675 38.7043709,26.3925298 38.7774834,26.4942517 C38.8384106,26.5795497 38.8972185,26.6653775 38.9544371,26.7512053 C39.0068874,26.8306755 39.0588079,26.9096159 39.1086093,26.9885563 C39.1091391,26.9901457 39.1101987,26.9912053 39.1107285,26.9922649 L48.6529801,19.4611391 Z" id="Fill-61" fill="#9C9E9F"></path>
                <polygon id="Fill-63" fill="#D1D1D1" points="29.839894 13.9559205 29.839894 11.9437351 26.0629404 14.7087682 26.0645298 14.7108874 26.9847947 15.9077086"></polygon>
                <polygon id="Fill-65" fill="#D1D1D1" points="33.6002119 14.6624106 32.666702 15.8295629 32.7202119 15.9757881 45.4301457 15.9757881 45.4529272 15.9794967 45.4529272 15.9789669 45.4529272 14.7132715 33.7432583 14.7132715 33.618755 14.7132715"></polygon>
                <polygon id="Fill-67" fill="#D1D1D1" points="29.839894 46.8962119 29.839894 45.0429669 4.44439735 17.7258808 14.2118146 16.0019073 14.2118146 15.9976689 14.2118146 14.7134305 1.80704636 16.7558146"></polygon>
                <polygon id="Fill-69" fill="#C90527" points="7.0333245 4.05086093 7.0333245 2.12397351 2.01027815 2.12397351 2.01027815 14.8524503 6.97027815 14.002649 6.97027815 12.2458278 3.8338543 12.6421192 3.8338543 8.35761589 6.65663576 8.35761589 6.65663576 6.43072848 3.8338543 6.43072848 3.8338543 4.05086093"></polygon>
                <polygon id="Fill-71" fill="#C90527" points="8.94813245 8.98076821 8.94813245 13.6610331 14.285351 12.8112318 14.285351 8.6973245 10.6434967 5.69388079 10.6434967 4.05096689 12.5899868 4.05096689 12.5899868 5.2975894 14.2228344 6.6575894 14.2228344 2.12407947 9.01117881 2.12407947 9.01117881 6.60090066 12.5899868 9.71719205 12.5899868 11.2811656 10.6434967 11.7346755 10.6434967 10.397457"></polygon>
                <polygon id="Fill-73" fill="#C90527" points="16.2945166 8.92407947 16.2945166 12.8954702 21.0664371 12.8954702 21.0664371 8.41388079 17.8643179 5.63719205 17.8643179 4.05096689 19.4966358 4.05096689 19.4966358 5.0141457 21.1289536 6.3741457 21.1289536 2.12407947 16.2945166 2.12407947 16.2945166 6.6575894 19.4966358 9.43374834 19.4966358 11.4220927 17.8012715 11.4056689 17.8012715 10.2840795"></polygon>
                <polygon id="Fill-75" fill="#C90527" points="28.1594172 3.99422517 28.1594172 2.12402649 23.205245 2.12402649 23.205245 12.8673377 25.7869669 12.8673377 28.3358411 10.9637616 25.024053 10.9674702 25.024053 8.30045033 27.9713377 8.30045033 27.9713377 6.37409272 25.024053 6.37409272 25.024053 3.99422517"></polygon>
                <polygon id="Fill-77" fill="#C90527" points="33.5495099 12.890649 35.6846093 12.890649 35.6846093 2.12402649 34.0517616 2.12402649 34.0517616 8.01647682 31.6162649 2.06733775 30.0464636 2.06733775 30.0464636 10.3136954 31.5532185 11.3219073 31.5532185 6.82760265"></polygon>
                <polygon id="Fill-79" fill="#C90527" points="55.9059603 14.413298 57.9149669 14.7221722 57.9149669 2.12402649 56.2821192 2.12402649 56.2821192 9.02839735 54.0219868 2.06733775 52.3282119 2.06733775 52.3282119 13.8617748 53.9594702 14.0864106 53.9594702 6.82760265"></polygon>
                <path d="M41.2683444,6.6007947 C41.0172185,8.35761589 40.1382781,10.9070199 40.1382781,10.9070199 L39.445298,10.9070199 L39.445298,4.05086093 L41.4580132,4.05086093 C41.4580132,4.05086093 41.5194702,4.84397351 41.2683444,6.6007947 M43.4649007,2.12397351 L37.6270199,2.12397351 L37.6270199,12.8339073 L41.2068874,12.8339073 C41.2068874,12.8339073 42.3321854,10.5668874 42.9637086,7.33774834 C43.5290066,4.44768212 43.4649007,2.12397351 43.4649007,2.12397351" id="Fill-81" fill="#C90527"></path>
                <path d="M47.1771656,4.05165563 L48.2531921,4.05165563 C48.2531921,4.05165563 48.9366358,5.65112583 48.9366358,7.57324503 C48.9366358,9.49536424 48.293457,11.2717881 48.293457,11.2717881 L47.1369007,11.1096689 C47.1369007,11.1096689 46.4937219,9.38304636 46.4937219,7.46092715 C46.4937219,5.53880795 47.1771656,4.05165563 47.1771656,4.05165563 Z M49.5686887,13.4948344 C49.5686887,13.4948344 50.8216689,10.7912583 50.8216689,7.78781457 C50.8216689,4.78490066 49.754649,2.12423841 49.754649,2.12423841 L45.6757086,2.12423841 C45.6757086,2.12423841 44.6081589,4.44741722 44.6081589,7.45086093 C44.6081589,10.4537748 45.6492185,12.8728477 45.6492185,12.8728477 L49.5686887,13.4948344 Z" id="Fill-83" fill="#C90527"></path>
            </g>
        </g>
        <rect id="Bounding-box" fill-opacity="0" fill="#FFFFFF" x="0" y="0" width="80" height="80"></rect>
    </g>
</svg>