<?xml version="1.0" encoding="UTF-8"?>
<svg width="80px" height="80px" viewBox="0 0 80 80" version="1.1" xmlns="http://www.w3.org/2000/svg" xmlns:xlink="http://www.w3.org/1999/xlink">
    <!-- Generator: Sketch 52.5 (67469) - http://www.bohemiancoding.com/sketch -->
    <title>Assets/Logos/Clubs/Reverse/Fremantle</title>
    <desc>Created with Sketch.</desc>
    <g id="Assets/Logos/Clubs/Reverse/Fremantle" stroke="none" stroke-width="1" fill="none" fill-rule="evenodd">
        <g id="Page-1" transform="translate(13.000000, 10.000000)">
            <g id="Group-63" transform="translate(0.774834, 0.066225)">
                <path d="M26.2432848,0.30007947 C16.9023576,0.30007947 10.6750728,1.85663576 10.6750728,1.85663576 L10.6750728,7.02590728 L10.6750728,29.0253775 C10.6750728,31.4608742 10.970702,33.3575629 13.7887152,35.2002119 C15.208053,36.1284238 26.2432848,43.330543 26.2432848,43.330543 C26.2432848,43.330543 37.2785166,36.1284238 38.6978543,35.2002119 C41.5158675,33.3575629 41.8114967,31.4608742 41.8114967,29.0253775 L41.8114967,7.02590728 L41.8114967,1.85663576 C41.8114967,1.85663576 35.5842119,0.30007947 26.2432848,0.30007947" id="Fill-5" fill="#A5ACAF"></path>
                <path d="M40.877245,29.0254834 C40.877245,30.1878675 40.8046623,31.1340927 40.450755,31.9717086 C40.0661192,32.8829669 39.346649,33.6601854 38.1869139,34.4183311 C36.9593642,35.2209801 28.4327417,40.7860132 26.2430728,42.2148874 C24.0539338,40.7860132 15.5273113,35.2209801 14.3002914,34.4183311 C13.1400265,33.6601854 12.4205563,32.8829669 12.0359205,31.9717086 C11.6814834,31.1340927 11.6094305,30.1878675 11.6094305,29.0254834 L11.6094305,6.82839735 C13.6761854,6.42150993 19.031947,5.53144371 26.2430728,5.53144371 C33.4552583,5.53144371 38.8099603,6.42150993 40.877245,6.82839735 L40.877245,29.0254834 Z" id="Fill-7" fill="#331C54"></path>
                <polygon id="Fill-9" fill="#FFFFFF" points="20.3272583 28.4028609 20.3272583 30.2709404 29.3905695 30.2709404 32.1593113 27.8984901 32.1593113 21.1233907 29.3905695 18.7509404 27.800106 18.7509404 27.800106 20.6190199 28.7002384 20.6190199 30.2912318 21.9827285 30.2912318 27.0391523 28.7002384 28.4028609 23.7524238 28.4028609 23.7524238 20.6190199 24.6864636 20.6190199 24.6864636 18.7509404 20.3272583 18.7509404 20.3272583 20.6190199 21.8838146 20.6190199 21.8838146 28.4028609"></polygon>
                <path d="M26.2432848,10.6097483 C26.8763974,10.6097483 27.3913642,11.1247152 27.3913642,11.7578278 C27.3913642,12.3904106 26.8763974,12.9053775 26.2432848,12.9053775 C25.6101722,12.9053775 25.0952053,12.3904106 25.0952053,11.7578278 C25.0952053,11.1247152 25.6101722,10.6097483 26.2432848,10.6097483 Z M25.309245,27.7800795 L27.1773245,27.7800795 L27.1773245,17.1941192 L34.0271258,17.1941192 L34.0271258,15.3255099 L27.1773245,15.3255099 L27.1773245,14.5938543 C28.3688477,14.2012715 29.2287152,13.0802119 29.2287152,11.7578278 C29.2287152,10.1090861 27.8920265,8.77292715 26.2432848,8.77292715 C24.594543,8.77292715 23.2583841,10.1090861 23.2583841,11.7578278 C23.2583841,13.0802119 24.1182517,14.2012715 25.309245,14.5938543 L25.309245,15.3255099 L18.4594437,15.3255099 L18.4594437,17.1941192 L25.309245,17.1941192 L25.309245,27.7800795 Z" id="Fill-11" fill="#FFFFFF"></path>
                <path d="M34.9612185,25.8940397 L34.9612185,28.4471523 C34.9612185,29.3372185 34.7312848,29.7282119 33.9016159,30.2680795 C33.3590993,30.6219868 29.0984371,33.3684768 27.1773775,34.6066225 L27.1773775,30.8943046 L25.309298,30.8943046 L25.309298,34.6066225 C23.3882384,33.3684768 19.1275762,30.6219868 18.5845298,30.2680795 C17.7548609,29.7282119 17.5249272,29.3372185 17.5249272,28.4471523 L17.5249272,25.8940397 L15.6568477,25.8940397 L15.6568477,29.0384106 C15.6568477,29.8924503 15.7983046,30.6887417 17.0051921,31.4680795 C18.2131391,32.2463576 26.2433377,37.432053 26.2433377,37.432053 C26.2433377,37.432053 34.2740662,32.2463576 35.4809536,31.4680795 C36.6883709,30.6887417 36.829298,29.8924503 36.829298,29.0384106 L36.829298,25.8940397 L34.9612185,25.8940397 Z" id="Fill-13" fill="#FFFFFF"></path>
                <path d="M16.2815364,4.43994702 L16.2815364,2.59464901 C16.8367682,2.52418543 17.392,2.46007947 17.9477616,2.40180132 L17.9477616,2.80074172 C17.570543,2.83994702 17.1943841,2.88286093 16.8171656,2.92789404 L16.8171656,3.2738543 C17.0863046,3.24206623 17.3554437,3.21133775 17.624053,3.18166887 L17.624053,3.49213245 C17.3554437,3.52180132 17.0863046,3.5525298 16.8171656,3.58431788 L16.8171656,3.9530596 C17.1943841,3.90802649 17.570543,3.86564238 17.9477616,3.82590728 L17.9477616,4.24762914 C17.392,4.30590728 16.8367682,4.37001325 16.2815364,4.43994702" id="Fill-15" fill="#331C54"></path>
                <path d="M20.0556291,4.11554967 C19.6566887,4.14680795 19.3186755,4.05674172 19.0474172,3.90945695 C19.1194702,3.79501987 19.1915232,3.68058278 19.2630464,3.5661457 C19.5210596,3.69806623 19.8087417,3.7690596 20.066755,3.74892715 C20.3438411,3.7272053 20.4545695,3.62548344 20.4545695,3.51740397 C20.4545695,3.2064106 19.138543,3.49674172 19.1390728,2.82601325 C19.1390728,2.49329801 19.509404,2.19078146 20.0577483,2.14786755 C20.4545695,2.11660927 20.7459603,2.22415894 20.9753642,2.38309934 C20.8937748,2.48482119 20.810596,2.58654305 20.7290066,2.6882649 C20.5345695,2.5690596 20.2797351,2.49594702 20.0445033,2.51449007 C19.7976159,2.53409272 19.6535099,2.62945695 19.6535099,2.74018543 C19.6535099,3.03581457 20.9811921,2.77886093 20.9811921,3.43581457 C20.9811921,3.79607947 20.5817219,4.07422517 20.0556291,4.11554967" id="Fill-17" fill="#331C54"></path>
                <path d="M23.1418278,2.44074172 L23.1418278,3.8733245 C22.9611656,3.88021192 22.7810331,3.88815894 22.6009007,3.89663576 L22.6009007,2.46352318 C22.3730861,2.47411921 22.1458013,2.48577483 21.9179868,2.49796026 L21.9179868,2.08524503 C22.5526887,2.05027815 23.1868609,2.02325828 23.8215629,2.00418543 L23.8215629,2.41690066 C23.5948079,2.42378808 23.3685828,2.4317351 23.1418278,2.44074172" id="Fill-19" fill="#331C54"></path>
                <path d="M24.4572715,3.8327947 L24.4572715,3.43597351 C24.5886623,3.4338543 24.720053,3.4306755 24.8514437,3.42855629 L24.8514437,3.82484768 C24.720053,3.82696689 24.5886623,3.82961589 24.4572715,3.8327947" id="Fill-21" fill="#331C54"></path>
                <path d="M27.2946225,3.81907285 L27.2946225,2.2005298 C27.4641589,2.20317881 27.5415099,2.09880795 27.5415099,1.97695364 C27.6252185,1.97801325 27.7083974,1.97960265 27.7915762,1.98119205 L27.7915762,3.82701987 C27.6257483,3.82384106 27.4604503,3.82119205 27.2946225,3.81907285" id="Fill-23" fill="#331C54"></path>
                <path d="M30.266702,2.74082119 C30.266702,2.55009272 30.122596,2.38161589 29.856106,2.36943046 C29.6171656,2.35883444 29.4783576,2.46161589 29.4783576,2.62744371 L29.4783576,2.66082119 C29.4783576,2.8245298 29.6033907,2.94002649 29.8444503,2.95062252 C30.0304106,2.95909934 30.1607417,2.90188079 30.266702,2.81552318 L30.266702,2.74082119 Z M29.8338543,3.95353642 C29.4979603,3.93870199 29.239947,3.83433113 29.0206093,3.6632053 C29.0931921,3.56784106 29.1647152,3.47247682 29.237298,3.37764238 C29.4036556,3.50002649 29.6086887,3.57790728 29.8031258,3.58638411 C30.1247152,3.60068874 30.2688212,3.42002649 30.2688212,3.15406623 L30.2688212,3.04863576 C30.130543,3.16360265 29.9668344,3.23300662 29.7390199,3.2229404 C29.2865695,3.20386755 29.0206093,2.96810596 29.0206093,2.64916556 L29.0206093,2.61313907 C29.0206093,2.25552318 29.3506755,1.96413245 29.861404,1.98691391 C30.3943841,2.01128477 30.752,2.37101987 30.752,2.88863576 L30.752,3.1021457 C30.752,3.6234702 30.3996821,3.97896689 29.8338543,3.95353642 Z" id="Fill-25" fill="#331C54"></path>
                <path d="M33.1363709,2.93769536 C33.1363709,2.74643709 32.9922649,2.57266225 32.7263046,2.5514702 C32.487894,2.53133775 32.3496159,2.62935099 32.3496159,2.79570861 L32.3496159,2.82908609 C32.3496159,2.9927947 32.4741192,3.1130596 32.7151788,3.13213245 C32.9011391,3.14749669 33.0309404,3.09451656 33.1363709,3.01239735 L33.1363709,2.93769536 Z M32.704053,4.13451656 C32.3686887,4.10749669 32.1106755,3.99411921 31.8918675,3.81504636 C31.9644503,3.72180132 32.0359735,3.62961589 32.1085563,3.53690066 C32.2749139,3.66564238 32.4794172,3.7504106 32.6733245,3.76577483 C32.9943841,3.7922649 33.1384901,3.61690066 33.1384901,3.3509404 L33.1384901,3.24550993 C33.0007417,3.35570861 32.8370331,3.41875497 32.6097483,3.40074172 C32.1583576,3.36471523 31.8918675,3.11994702 31.8918675,2.80100662 L31.8918675,2.76445033 C31.8918675,2.40736424 32.2224636,2.12762914 32.7321325,2.16895364 C33.2635232,2.21239735 33.6206093,2.58484768 33.6206093,3.10299338 L33.6206093,3.31650331 C33.6206093,3.83782781 33.2688212,4.18060927 32.704053,4.13451656 Z" id="Fill-27" fill="#331C54"></path>
                <path d="M35.4648477,2.99666225 C35.2910728,3.16672848 35.1167682,3.3373245 34.9424636,3.50845033 C35.1167682,3.52752318 35.2910728,3.54712583 35.4648477,3.56778808 L35.4648477,2.99666225 Z M35.9453775,3.9767947 L35.9453775,4.40381457 C35.7853775,4.38421192 35.6253775,4.36513907 35.4648477,4.34606623 L35.4648477,3.91957616 C35.1321325,3.88090066 34.7994172,3.84381457 34.466702,3.80990728 L34.466702,3.49096689 C34.8094834,3.15984106 35.1512053,2.83083444 35.4929272,2.50341722 C35.6433907,2.52143046 35.7943841,2.53944371 35.9453775,2.55798675 L35.9453775,3.62500662 C36.0428609,3.63666225 36.1403444,3.64884768 36.2383576,3.66103311 L36.2383576,4.01335099 C36.1403444,4.00116556 36.0428609,3.98898013 35.9453775,3.9767947 Z" id="Fill-29" fill="#331C54"></path>
                <polygon id="Fill-31" fill="#A5ACAF" points="10.6765033 47.3753113 12.709351 47.3753113 12.709351 48.0428609 11.4145166 48.0428609 11.4145166 48.4349139 12.6738543 48.4349139 12.6738543 49.0913377 11.4145166 49.0913377 11.4145166 50.0184901 10.6765033 50.0184901"></polygon>
                <path d="M15.3663046,48.613404 C15.6523974,48.613404 15.752,48.5567152 15.752,48.3140662 C15.752,48.0608212 15.658755,48.0036026 15.3631258,48.0036026 L14.7708079,48.0036026 L14.7708079,48.613404 L15.3663046,48.613404 Z M15.2486887,49.2263841 L14.7708079,49.2263841 L14.7708079,50.0184371 L14.0502781,50.0184371 L14.0502781,47.3752583 L15.3917351,47.3752583 C16.3369007,47.3752583 16.4974305,47.7890331 16.4974305,48.285457 C16.4974305,48.613404 16.4153113,48.962543 15.9872318,49.1310199 L16.4688212,50.0184371 L15.6767682,50.0184371 L15.2486887,49.2263841 Z" id="Fill-33" fill="#A5ACAF"></path>
                <polygon id="Fill-35" fill="#A5ACAF" points="17.7847947 47.3753113 19.8896954 47.3753113 19.8896954 48.0428609 18.5233377 48.0428609 18.5233377 48.3633907 19.8536689 48.3633907 19.8536689 49.0092185 18.5233377 49.0092185 18.5233377 49.3800795 19.9034702 49.3800795 19.9034702 50.0184901 17.7847947 50.0184901"></polygon>
                <polygon id="Fill-37" fill="#A5ACAF" points="21.3837351 47.3753113 22.3506225 47.3753113 22.9424106 48.9488212 23.5379073 47.3753113 24.5016159 47.3753113 24.5016159 50.0184901 23.7805563 50.0184901 23.7805563 48.485245 23.1887682 50.0184901 22.6356556 50.0184901 22.050755 48.4958411 22.050755 50.0184901 21.3837351 50.0184901"></polygon>
                <path d="M27.3365298,49.0697219 L27.0085828,48.2278675 L26.6806358,49.0697219 L27.3365298,49.0697219 Z M26.6520265,47.3579338 L27.4048742,47.3579338 L28.4713642,50.018596 L27.7047417,50.018596 L27.5717616,49.6768742 L26.4448742,49.6768742 L26.3129536,50.018596 L25.5924238,50.018596 L26.6520265,47.3579338 Z" id="Fill-39" fill="#A5ACAF"></path>
                <polygon id="Fill-41" fill="#A5ACAF" points="29.4875232 47.3753113 30.2795762 47.3753113 31.3100397 48.7739868 31.3100397 47.3753113 32.0167947 47.3753113 32.0167947 50.0184901 31.3349404 50.0184901 30.1937483 48.4741192 30.1937483 50.0184901 29.4875232 50.0184901"></polygon>
                <polygon id="Fill-43" fill="#A5ACAF" points="33.9851656 48.042755 33.1078146 48.042755 33.1078146 47.3752053 35.6047682 47.3752053 35.6047682 48.042755 34.7268874 48.042755 34.7268874 50.0183841 33.9851656 50.0183841"></polygon>
                <polygon id="Fill-45" fill="#A5ACAF" points="36.6926093 47.3753113 37.4311523 47.3753113 37.4311523 49.3800795 38.6756556 49.3800795 38.6756556 50.0184901 36.6926093 50.0184901"></polygon>
                <polygon id="Fill-47" fill="#A5ACAF" points="39.6923974 47.3753113 41.7967682 47.3753113 41.7967682 48.0428609 40.4309404 48.0428609 40.4309404 48.3633907 41.7612715 48.3633907 41.7612715 49.0092185 40.4309404 49.0092185 40.4309404 49.3800795 41.8116026 49.3800795 41.8116026 50.0184901 39.6923974 50.0184901"></polygon>
                <path d="M43.341245,53.9900397 L43.6151523,54.2644768 L43.6151523,55.533351 L43.2432318,55.8438146 L40.8352848,55.8438146 L40.8352848,53.9900397 L43.341245,53.9900397 Z M43.7809801,57.1190464 L44.9391258,56.1537483 L44.9391258,53.7156026 L43.8890596,52.6660662 L38.5841589,52.6660662 L38.5841589,53.9900397 L39.5113113,53.9900397 L39.5113113,55.8438146 L39.5113113,57.9619603 L38.5841589,57.9619603 L38.5841589,59.285404 L40.8352848,59.285404 L40.8352848,57.1677881 L42.2074702,57.1677881 L43.663894,59.285404 L45.3364768,59.285404 L45.3364768,57.9619603 L44.3605828,57.9619603 L43.7809801,57.1190464 Z" id="Fill-49" fill="#FFFFFF"></path>
                <path d="M5.69690066,57.1579868 L4.89372185,57.9622252 L2.65213245,57.9622252 L2.65213245,53.9903046 L4.89372185,53.9903046 L5.69690066,54.7940132 L5.69690066,57.1579868 Z M0.401536424,52.6658013 L0.401536424,53.9903046 L1.32815894,53.9903046 L1.32815894,57.9622252 L0.401536424,57.9622252 L0.401536424,59.2856689 L5.44259603,59.2856689 L7.02087417,57.7063311 L7.02087417,54.2456689 L5.44259603,52.6658013 L0.401536424,52.6658013 Z" id="Fill-51" fill="#FFFFFF"></path>
                <path d="M13.2175894,57.1585166 L12.4138808,57.9622252 L10.5781192,57.9622252 L9.7749404,57.1585166 L9.7749404,54.7934834 L10.5781192,53.9903046 L12.4138808,53.9903046 L13.2175894,54.7940132 L13.2175894,57.1585166 Z M10.0287152,52.6663311 L8.45096689,54.2461987 L8.45096689,57.7063311 L10.0287152,59.2856689 L12.9622252,59.2856689 L14.5415629,57.7063311 L14.5415629,54.2456689 L12.9622252,52.6663311 L10.0287152,52.6663311 Z" id="Fill-53" fill="#FFFFFF"></path>
                <polygon id="Fill-55" fill="#FFFFFF" points="52.087894 54.7842649 52.087894 53.7156556 51.0383576 52.6661192 47.5776954 52.6661192 46.5276291 53.7156556 46.5276291 55.5885033 47.5776954 56.6380397 50.490543 56.6380397 50.7639205 56.9124768 50.7639205 57.6875762 50.490543 57.9620132 48.1260397 57.9620132 47.8516026 57.6875762 47.8516026 57.1678411 46.5276291 57.1678411 46.5276291 58.2364503 47.5776954 59.285457 51.0383576 59.285457 52.087894 58.2364503 52.087894 56.3636026 51.0383576 55.3140662 48.1260397 55.3140662 47.8516026 55.0396291 47.8516026 54.2645298 48.1260397 53.9900927 50.490543 53.9900927 50.7639205 54.2645298 50.7639205 54.7842649"></polygon>
                <polygon id="Fill-57" fill="#FFFFFF" points="17.4691921 52.6660662 15.8914437 54.2459338 15.8914437 57.706596 17.4691921 59.285404 20.402702 59.285404 21.9820397 57.706596 21.9820397 56.7704371 20.6580662 56.7704371 20.6580662 57.1582517 19.8543576 57.9619603 18.018596 57.9619603 17.2154172 57.1582517 17.2154172 54.7937483 18.018596 53.9900397 19.8543576 53.9900397 20.6580662 54.7942781 20.6580662 55.1820927 21.9820397 55.1820927 21.9820397 54.245404 20.402702 52.6660662"></polygon>
                <polygon id="Fill-59" fill="#FFFFFF" points="29.8463576 53.9900397 29.8463576 52.6660662 28.5319205 52.6660662 25.4776159 55.4157351 25.4776159 52.6660662 23.2270199 52.6660662 23.2270199 53.9900397 24.1536424 53.9900397 24.1536424 57.9619603 23.2519205 57.9619603 23.2519205 59.285404 25.4776159 59.285404 25.4776159 57.197457 26.338543 56.4228874 28.4513907 59.285404 29.8463576 59.285404 29.8463576 57.9619603 29.1194702 57.9619603 27.3271523 55.5322914 29.04 53.9900397"></polygon>
                <polygon id="Fill-61" fill="#FFFFFF" points="31.1703311 53.9900397 32.2299338 53.9900397 32.2299338 57.9619603 31.1703311 57.9619603 31.1703311 59.285404 37.127947 59.285404 37.127947 57.3002384 35.8045033 57.3002384 35.8045033 57.9619603 33.5533775 57.9619603 33.5533775 56.6379868 35.6715232 56.6379868 35.6715232 55.3140132 33.5533775 55.3140132 33.5533775 53.9900397 35.8045033 53.9900397 35.8045033 54.6522914 37.127947 54.6522914 37.127947 52.6660662 31.1703311 52.6660662"></polygon>
            </g>
        </g>
        <rect id="Bounding-box" fill-opacity="0" fill="#FFFFFF" x="0" y="0" width="80" height="80"></rect>
    </g>
</svg>