<?xml version="1.0" encoding="UTF-8"?>
<svg width="80px" height="80px" viewBox="0 0 80 80" version="1.1" xmlns="http://www.w3.org/2000/svg" xmlns:xlink="http://www.w3.org/1999/xlink">
    <!-- Generator: Sketch 52.5 (67469) - http://www.bohemiancoding.com/sketch -->
    <title>Assets/Logos/Clubs/Reverse/Geelong</title>
    <desc>Created with Sketch.</desc>
    <g id="Assets/Logos/Clubs/Reverse/Geelong" stroke="none" stroke-width="1" fill="none" fill-rule="evenodd">
        <g id="Page-1" transform="translate(13.000000, 11.000000)">
            <g id="Group-35" transform="translate(0.774834, 0.125828)">
                <path d="M18.8928212,49.0583841 L15.4395762,49.0583841 L15.4395762,46.9577219 C15.4395762,46.3468609 15.4024901,45.965404 15.3283179,45.8144106 C15.2546755,45.6628874 15.0925563,45.586596 14.8414305,45.586596 C14.5569272,45.586596 14.3767947,45.6793113 14.3005033,45.8636821 C14.2236821,46.0475232 14.1855364,46.4459338 14.1855364,47.0578543 L14.1855364,52.6732185 C14.1855364,53.2607682 14.2236821,53.6443444 14.3005033,53.8228874 C14.3767947,54.0024901 14.5489801,54.0925563 14.8170596,54.0925563 C15.0740132,54.0925563 15.2414305,54.0019603 15.3209007,53.8218278 C15.3998411,53.6422252 15.4395762,53.2205033 15.4395762,52.5571921 L15.4395762,51.0356026 L18.8928212,51.0356026 L18.8928212,51.5071258 C18.8928212,52.7569272 18.7953377,53.6443444 18.6014305,54.1677881 C18.4075232,54.6901722 17.9783841,55.1479205 17.3134834,55.5420927 C16.6501722,55.9352053 15.8305695,56.1322914 14.8583841,56.1322914 C13.8464636,56.1322914 13.0125563,55.9659338 12.3566623,55.6316291 C11.7002384,55.2989139 11.2658013,54.837457 11.0517616,54.2493775 C10.8382517,53.6591788 10.7322914,52.773351 10.7322914,51.5887152 L10.7322914,48.0597086 C10.7322914,47.1897748 10.7646093,46.5375894 10.8308344,46.1015629 C10.896,45.6671258 11.0914967,45.248053 11.4167947,44.8448742 C11.7420927,44.4416954 12.1934834,44.1248742 12.7704371,43.8938808 C13.3473907,43.6623576 14.0096424,43.5463311 14.7593113,43.5463311 C15.776,43.5463311 16.6152053,43.7259338 17.2769272,44.0835497 C17.9381192,44.4406358 18.3730861,44.8856689 18.5807682,45.4202384 C18.7889801,45.9537483 18.8928212,46.783947 18.8928212,47.9103046 L18.8928212,49.0583841 Z" id="Fill-3" fill="#FFFFFF"></path>
                <path d="M24.1085563,51.5661457 C23.9369007,50.1992583 23.762596,48.5086623 23.5845828,46.4948874 C23.2365033,48.808 23.0171656,50.4975364 22.9270993,51.5661457 L24.1085563,51.5661457 Z M25.9347815,43.8029669 L27.9162384,55.8755497 L24.3861722,55.8755497 L24.2002119,53.7033642 L22.9636556,53.7033642 L22.7655099,55.8755497 L19.1856424,55.8755497 L20.941404,43.8029669 L25.9347815,43.8029669 Z" id="Fill-5" fill="#FFFFFF"></path>
                <polygon id="Fill-7" fill="#FFFFFF" points="34.394649 43.802755 34.394649 46.4602384 32.3369007 46.4602384 32.3369007 55.8753377 28.8831258 55.8753377 28.8831258 46.4602384 26.8433907 46.4602384 26.8433907 43.802755"></polygon>
                <path d="M41.5175099,47.4591258 L38.3127417,47.4591258 L38.3127417,46.560053 C38.3127417,46.1415099 38.2708874,45.8744901 38.189298,45.7595232 C38.1077086,45.6440265 37.9699603,45.5868079 37.7781722,45.5868079 C37.5699603,45.5868079 37.4126093,45.6641589 37.3061192,45.8188609 C37.2001589,45.9730331 37.146649,46.2087947 37.146649,46.5224371 C37.146649,46.9272053 37.205457,47.2313113 37.3251921,47.4363444 C37.4375099,47.6408477 37.7622781,47.8872053 38.2984371,48.1743576 C39.8364503,49.0013775 40.8033377,49.6811126 41.2022781,50.2135629 C41.6017483,50.7454834 41.8009536,51.6048212 41.8009536,52.7889272 C41.8009536,53.6493245 41.6896954,54.2840265 41.4687682,54.6914437 C41.2473113,55.1009801 40.8192318,55.4421722 40.1855894,55.7181987 C39.551947,55.994755 38.8128742,56.1325033 37.9715497,56.1325033 C37.0470464,56.1325033 36.2592318,55.9735629 35.6059868,55.6546225 C34.9532715,55.3356821 34.5251921,54.9303841 34.3233377,54.4381987 C34.1209536,53.9449536 34.0208212,53.2461457 34.0208212,52.3391258 L34.0208212,51.5486623 L37.2255894,51.5486623 L37.2255894,53.0220397 C37.2255894,53.4766093 37.2706225,53.7669404 37.3617483,53.8983311 C37.4512848,54.0281325 37.6112848,54.0927682 37.8417483,54.0927682 C38.0727417,54.0927682 38.2428079,54.0095894 38.3556556,53.8458808 C38.4674437,53.6805828 38.5241325,53.4368742 38.5241325,53.112106 C38.5241325,52.400053 38.4171126,51.9338278 38.2051921,51.7150199 C37.9874437,51.4951523 37.4486358,51.130649 36.589298,50.6199205 C35.7304901,50.1028344 35.1604238,49.7287947 34.8817483,49.4951523 C34.6030728,49.2609801 34.3715497,48.9372715 34.1887682,48.5250861 C34.0049272,48.1118411 33.9138013,47.5841589 33.9138013,46.9425695 C33.9138013,46.0164768 34.0436026,45.3404503 34.3032053,44.9129007 C34.5633377,44.4848212 34.9829404,44.1499868 35.5630728,43.9089272 C36.1421457,43.6678675 36.842543,43.5460132 37.6632053,43.5460132 C38.5596291,43.5460132 39.3236026,43.6784636 39.9556556,43.9428344 C40.5871788,44.2061457 41.0051921,44.5378013 41.2102252,44.9388609 C41.4147285,45.3399205 41.5175099,46.021245 41.5175099,46.9823046 L41.5175099,47.4591258 Z" id="Fill-9" fill="#FFFFFF"></path>
                <path d="M2.78691391,4.73509934 L2.01075497,5.02807947 L2.58717881,5.62463576 C3.65525828,6.73033113 4.24333775,8.18463576 4.24333775,9.7194702 C4.24333775,12.0749669 2.84519205,14.2005298 0.681483444,15.1345695 L0.274066225,15.3104636 L0.363072848,15.7454305 C3.24360265,29.8418543 12.8096954,41.8143046 25.9535364,47.7735099 L26.178702,47.8757616 L26.4043974,47.7735099 C39.5477086,41.8143046 49.1132715,29.8418543 51.9943311,15.7454305 L52.0828079,15.3104636 L51.6759205,15.1345695 C49.5122119,14.2005298 48.1135364,12.0749669 48.1135364,9.7194702 C48.1135364,8.18569536 48.7016159,6.73245033 49.768106,5.62675497 L50.344,5.03019868 L49.5683709,4.73721854 C42.0992318,1.91708609 34.2290331,0.487152318 26.1755232,0.487152318 C18.1241325,0.487152318 10.2549934,1.91602649 2.78691391,4.73509934" id="Fill-11" fill="#FFFFFF"></path>
                <path d="M47.5683179,9.71957616 C47.5683179,7.98235762 48.2570596,6.40672848 49.376,5.24805298 C49.0830199,5.1373245 48.7884503,5.02924503 48.493351,4.92275497 C47.376,6.20699338 46.6978543,7.88381457 46.6978543,9.71957616 C46.6978543,12.448053 48.1934834,14.8252715 50.408053,16.0819603 C47.4819603,29.2220927 38.3158675,40.0093775 26.178649,45.170702 C14.0414305,40.0093775 4.87533775,29.2220927 1.94924503,16.0819603 C4.16381457,14.8252715 5.65891391,12.448053 5.65891391,9.71957616 C5.65891391,7.88275497 4.98076821,6.20487417 3.86182781,4.92063576 C3.56672848,5.02712583 3.27215894,5.1352053 2.97917881,5.24593377 C4.09917881,6.40460927 4.78898013,7.98129801 4.78898013,9.71957616 C4.78898013,12.3712318 3.18633113,14.6477881 0.897589404,15.6358675 C3.78553642,29.7693775 13.3632848,41.4663311 26.178649,47.2766623 C38.9934834,41.4663311 48.5717616,29.7693775 51.4591788,15.6358675 C49.1704371,14.6477881 47.5683179,12.3712318 47.5683179,9.71957616" id="Fill-13" fill="#002244"></path>
                <path d="M9.0229404,13.2810066 C8.76439735,13.1035232 8.31353642,12.879947 8.35698013,12.7358411 C8.45817219,12.3983576 10.8703576,12.3898808 11.3175099,14.1435232 C11.6846623,15.5845828 12.0677086,17.4150464 12.8957881,17.7133245 C13.7678411,18.0264371 14.288106,17.7133245 14.6647947,17.4521325 C14.6647947,17.4521325 16.0073113,16.3236556 17.1490331,16.301404 C18.154596,16.2823311 18.8703576,16.5917351 19.7402914,17.0558411 C19.7402914,17.0558411 21.4171126,18.0995497 22.5969801,18.061404 C23.7763179,18.0221987 24.4528742,17.3456424 25.0139338,16.9784901 C25.5744636,16.6108079 27.1045298,15.6751788 28.0878411,16.1472318 C28.5710199,16.378755 28.1842649,17.0945166 27.9908874,17.4420662 C27.8605563,17.6778278 27.3477086,18.7496159 28.2229404,19.1247152 C29.4144636,19.6349139 32.6891656,16.301404 35.3964503,16.301404 C36.538702,16.301404 37.8806887,17.4521325 37.8806887,17.4521325 C38.2579073,17.7133245 38.7797616,18.0322649 39.6496954,17.7133245 C40.474596,17.4108079 40.9164503,15.5284238 41.2168477,14.1896159 C41.6226755,12.3792848 44.0115497,12.4200795 44.0375099,12.7395497 C44.050755,12.8953113 43.6915497,13.0855099 43.4250596,13.2460397 C43.1400265,13.416106 43.1236026,13.4902781 43.682543,13.6672318 C44.9349934,14.0645828 46.1524768,14.5117351 47.2947285,14.967894 C46.1593642,13.519947 45.4806887,11.6984901 45.4806887,9.71968212 C45.4806887,7.752 46.1524768,5.94007947 47.2756556,4.49531126 C40.6531391,2.25001325 33.5569801,1.0330596 26.1757881,1.0330596 C18.7967152,1.0330596 11.7016159,2.24948344 5.08015894,4.49266225 C6.20439735,5.93796026 6.87671523,7.7509404 6.87671523,9.71968212 C6.87671523,11.6931921 6.20174834,13.5109404 5.07168212,14.957298 C6.22823841,14.490543 7.45684768,14.0407417 8.68704636,13.6672318 C9.27141722,13.4902781 9.21101987,13.4108079 9.0229404,13.2810066" id="Fill-15" fill="#002244"></path>
                <path d="M31.8227285,33.4674967 C31.4179603,33.9342517 29.9043179,36.2584901 29.2357086,37.0526623 C28.5554437,37.8595497 27.477298,38.6394172 26.173457,38.6394172 C24.8696159,38.6394172 23.7914702,37.8595497 23.1112053,37.0526623 C22.4420662,36.2584901 20.9284238,33.9342517 20.5236556,33.4674967 C19.7135894,32.533457 18.4823311,32.5673642 16.341404,33.0913377 C15.0725298,33.4018013 13.853457,33.8150464 12.7509404,34.2510728 C16.4897483,38.3194172 21.0529272,41.6190199 26.1808742,43.8765033 C31.3061722,41.6200795 35.8682914,38.3220662 39.6060397,34.2547815 C38.5008742,33.8176954 37.2780927,33.4028609 36.0060397,33.0913377 C33.8645828,32.5673642 32.6333245,32.533457 31.8227285,33.4674967" id="Fill-17" fill="#002244"></path>
                <path d="M27.3507285,27.1688477 C26.9719205,27.4687152 26.5295364,27.8438146 26.1533775,27.8438146 C25.7766887,27.8438146 25.3343046,27.4687152 24.9554967,27.1688477 C24.8166887,27.053351 24.842649,26.8938808 25.1870199,26.8409007 C25.4211921,26.8048742 25.727947,26.7810331 26.1533775,26.7810331 C26.5782781,26.7810331 26.8850331,26.8048742 27.1197351,26.8403709 C27.4630464,26.8938808 27.4890066,27.053351 27.3507285,27.1688477 Z M27.3623841,34.5336159 L27.7639735,34.9399735 C27.7639735,34.9399735 28.0686093,34.4514967 28.0829139,33.6536159 C28.0829139,33.6536159 28.4225166,34.3651391 28.3340397,34.983947 C28.3197351,35.0846093 28.2868874,35.3357351 28.034702,35.4141457 C27.7835762,35.4936159 27.1743046,35.7161325 26.1883444,35.7161325 C25.2023841,35.7161325 24.5925828,35.4936159 24.341457,35.4141457 C24.0898013,35.3357351 24.0564238,35.0846093 24.0421192,34.983947 C23.9536424,34.3651391 24.293245,33.6536159 24.293245,33.6536159 C24.3075497,34.4514967 24.6127152,34.9399735 24.6127152,34.9399735 L25.0137748,34.5336159 L25.3666225,35.0464636 L25.8301987,34.6014305 L26.1883444,35.1031523 L26.5454305,34.6014305 L27.0095364,35.0464636 L27.3623841,34.5336159 Z M39.5891391,19.6202384 C38.527947,19.3230199 37.8715232,19.1322914 37.0741722,19.0009007 C36.4209272,18.8938808 35.8863576,19.2896424 35.7454305,19.8814305 C35.5398675,20.7423576 34.9475497,22.0022252 33.3761589,22.263947 C31.1377483,22.6369272 30.5968212,20.7868609 30.0389404,20.9643444 C30.0389404,20.9643444 30.8378808,20.2236821 32.0850331,19.4946755 C32.0087417,19.6869934 31.954702,19.9020927 31.954702,20.1293775 C31.954702,20.9521589 32.6450331,21.6181192 32.6450331,21.6181192 C32.6450331,21.6181192 33.3353642,20.9521589 33.3353642,20.1293775 C33.3353642,19.6917616 33.1398675,19.2991788 32.9565563,19.0263311 C34.3123179,18.2851391 35.6569536,18.1288477 35.6569536,18.1288477 C35.6569536,18.1288477 34.1793377,17.303947 31.6172185,18.6724238 C30.9221192,19.0443444 30.0882119,19.5121589 28.9788079,20.4843444 C28.7154967,20.7158675 27.794702,21.4194437 27.9324503,22.4255364 C28.0124503,23.0093775 28.7017219,23.4152053 28.3536424,23.8464636 C28.0484768,24.2242119 27.4778808,23.6308344 26.1735099,23.6308344 C24.8691391,23.6308344 24.2980132,24.2242119 23.9933775,23.8464636 C23.6447682,23.4152053 24.3345695,23.0093775 24.4140397,22.4255364 C24.5523179,21.4194437 23.6309934,20.7158675 23.3676821,20.4843444 C22.2582781,19.5121589 21.4249007,19.0443444 20.7298013,18.6724238 C18.1676821,17.303947 16.6895364,18.1288477 16.6895364,18.1288477 C16.6895364,18.1288477 18.034702,18.2851391 19.3904636,19.0263311 C19.2071523,19.2991788 19.0116556,19.6917616 19.0116556,20.1293775 C19.0116556,20.9521589 19.701457,21.6181192 19.701457,21.6181192 C19.701457,21.6181192 20.3923179,20.9521589 20.3923179,20.1293775 C20.3923179,19.9020927 20.3377483,19.6869934 20.2619868,19.4946755 C21.5086093,20.2236821 22.3080795,20.9643444 22.3080795,20.9643444 C21.7496689,20.7868609 21.2087417,22.6369272 18.9708609,22.263947 C17.3989404,22.0022252 16.8071523,20.7423576 16.6015894,19.8814305 C16.4601325,19.2896424 15.9260927,18.8938808 15.2723179,19.0009007 C14.4749669,19.1322914 13.818543,19.3230199 12.757351,19.6202384 C9.77456954,20.4567947 7.17059603,21.4872583 5.17960265,22.3836821 C6.14384106,24.717457 7.3210596,26.9399735 8.68741722,29.0284503 C9.24264901,28.7699073 9.76450331,28.5431523 10.1936424,28.3852715 C11.4508609,27.922755 12.8988079,27.2695099 15.2633113,28.3630199 C17.7703311,29.5222252 19.7777483,31.7738808 19.7777483,31.7738808 C19.9192053,31.685404 19.8768212,31.365404 19.7390728,31.1005033 C19.4964238,30.6342781 18.9512583,30.0954702 18.6519205,29.7961325 C17.1176159,28.261298 18.5237086,28.0965298 19.0789404,28.1018278 C20.0516556,28.1097748 21.0561589,28.4642119 21.0561589,28.4642119 C19.5568212,26.9622252 15.1833113,26.8981192 15.1833113,26.8981192 C18.2900662,26.0477881 22.1083444,27.8771921 22.1083444,27.8771921 C19.0291391,25.1391788 12.298543,25.7956026 12.298543,25.7956026 C17.317351,24.4122914 21.8678146,26.7312318 21.8678146,26.7312318 C19.5213245,24.6464636 15.5112583,24.5060662 15.5112583,24.5060662 C19.8206623,24.0250066 22.8633113,26.1532185 23.813245,27.3844768 C24.5639735,28.3577219 24.7541722,28.6861987 24.8203974,28.810702 C24.8935099,28.9484503 25.2066225,29.5259338 24.8580132,29.9322914 C24.5109934,30.3375894 23.7369536,30.2607682 23.7369536,30.2607682 C23.7369536,30.2607682 23.5054305,31.2085828 23.5637086,31.5752053 C23.5637086,31.5752053 23.1181457,31.2859338 23.0407947,30.2607682 C23.0407947,30.2607682 22.4225166,30.1643444 21.9202649,29.8544106 C21.4169536,29.5460662 20.6238411,29.042755 20.2376159,29.4104371 C19.8508609,29.7775894 20.295894,30.3582517 20.4887417,30.6475232 C20.682649,30.9373245 23.1562914,35.2064636 23.5531126,35.7823576 C24.0219868,36.4631523 24.8288742,37.210702 26.1735099,37.210702 C27.5176159,37.210702 28.3245033,36.4631523 28.7939073,35.7823576 C29.1901987,35.2064636 31.6643709,30.9373245 31.8572185,30.6475232 C32.0511258,30.3582517 32.4956291,29.7775894 32.1088742,29.4104371 C31.722649,29.042755 30.9295364,29.5460662 30.426755,29.8544106 C29.9239735,30.1643444 29.3056954,30.2607682 29.3056954,30.2607682 C29.2283444,31.2859338 28.7833113,31.5752053 28.7833113,31.5752053 C28.8415894,31.2085828 28.6095364,30.2607682 28.6095364,30.2607682 C28.6095364,30.2607682 27.8360265,30.3375894 27.4884768,29.9322914 C27.1403974,29.5259338 27.4529801,28.9484503 27.5266225,28.810702 C27.5923179,28.6861987 27.7830464,28.3577219 28.533245,27.3844768 C29.4837086,26.1532185 32.5263576,24.0250066 36.8352318,24.5060662 C36.8352318,24.5060662 32.8251656,24.6464636 30.4786755,26.7312318 C30.4786755,26.7312318 35.0296689,24.4122914 40.047947,25.7956026 C40.047947,25.7956026 33.3178808,25.1391788 30.2381457,27.8771921 C30.2381457,27.8771921 34.0564238,26.0477881 37.1637086,26.8981192 C37.1637086,26.8981192 32.7907285,26.9622252 31.2903311,28.4642119 C31.2903311,28.4642119 32.2953642,28.1097748 33.2680795,28.1018278 C33.8233113,28.0965298 35.229404,28.261298 33.6950993,29.7961325 C33.3952318,30.0954702 32.8500662,30.6342781 32.6074172,31.1005033 C32.4701987,31.365404 32.4272848,31.685404 32.5692715,31.7738808 C32.5692715,31.7738808 34.5761589,29.5222252 37.0831788,28.3630199 C39.4476821,27.2695099 40.8956291,27.922755 42.1533775,28.3852715 C42.5851656,28.5442119 43.1112583,28.7730861 43.6707285,29.0342781 C45.0370861,26.9452715 46.2148344,24.722755 47.1790728,22.3889801 C45.1864901,21.4914967 42.5782781,20.4583841 39.5891391,19.6202384 Z" id="Fill-19" fill="#002244"></path>
                <path d="M13.032106,9.5935894 C12.7062781,9.67729801 12.1701192,10.1408742 11.2074702,10.3872318 C9.56455629,10.807894 8.45886093,10.1927947 8.09011921,8.7527947 C7.7272053,7.33557616 8.45939073,6.13027815 10.2686623,5.66723179 C10.9054834,5.50405298 11.3992583,5.50511258 11.6811126,5.4325298 C11.768,5.41027815 11.9089272,5.35835762 12.0964768,5.27835762 L12.0832318,6.49001325 C11.5163444,6.32524503 10.957404,6.30935099 10.4366093,6.44286093 C9.38707285,6.712 8.94468874,7.45266225 9.21382781,8.50484768 C9.46230464,9.47438411 10.0768742,9.85796026 11.0034967,9.62060927 C11.8066755,9.41504636 12.1589934,9.01451656 12.0254834,8.49213245 L11.9221722,8.08948344 L10.9378013,8.34166887 C10.728,8.39517881 10.578596,8.4730596 10.426543,8.66325828 L10.4318411,8.04974834 C10.4381987,7.71438411 10.5044238,7.64180132 10.8662781,7.54908609 L12.8779338,7.0335894 C12.7873377,7.192 12.8180662,7.3117351 12.8615099,7.48339073 L13.3950199,9.56445033 C13.2191258,9.56974834 13.0972715,9.57716556 13.032106,9.5935894" id="Fill-21" fill="#FFFFFF"></path>
                <path d="M14.1980397,8.75851656 L13.7164503,5.78633113 C13.6496954,5.3757351 13.5002914,5.15056954 13.2221457,5.07056954 L17.8234702,4.32513907 C17.7832053,4.40196026 17.7704901,4.46606623 17.7789669,4.51957616 C17.7938013,4.61070199 17.9622781,4.90368212 18.210755,5.4562649 C17.6661192,5.22474172 17.1379073,5.23215894 16.5402914,5.32858278 L14.7930066,5.61202649 L14.9641325,6.66845033 L16.8963179,6.35533775 C17.1543311,6.31348344 17.3286358,6.22288742 17.4658543,6.13864901 L17.2009536,6.83692715 C17.1320795,7.01917881 16.9847947,7.1367947 16.7855894,7.16911258 L15.0896954,7.44407947 L15.274596,8.58368212 L17.1177748,8.28540397 C17.8478411,8.16725828 18.3993642,7.88275497 18.7416159,7.46845033 C18.6022781,8.15401325 18.4904901,8.53864901 18.5090331,8.65308609 C18.5190993,8.71401325 18.5583046,8.76964238 18.6224106,8.83745695 L13.9548609,9.59348344 C14.1943311,9.43772185 14.2642649,9.16858278 14.1980397,8.75851656" id="Fill-23" fill="#FFFFFF"></path>
                <path d="M19.4634702,7.95427815 L19.2409536,4.95189404 C19.2102252,4.5370596 19.0804238,4.29970861 18.810755,4.19586755 L23.4592318,3.85149669 C23.4120795,3.92513907 23.3940662,3.98818543 23.3983046,4.04169536 C23.4046623,4.13388079 23.5471788,4.43957616 23.7469139,5.01176159 C23.2245298,4.7341457 22.6973775,4.696 22.0939338,4.74050331 L20.3286358,4.87136424 L20.408106,5.93838411 L22.3593642,5.79427815 C22.6200265,5.7752053 22.8017483,5.69997351 22.9463841,5.62686093 L22.6216159,6.29970861 C22.5373775,6.47560265 22.3800265,6.57997351 22.178702,6.59533775 L20.4658543,6.72196026 L20.5511523,7.87374834 L22.4128742,7.736 C23.1503576,7.68143046 23.7251921,7.44619868 24.101351,7.06262252 C23.9032053,7.73388079 23.7585695,8.10739073 23.7675762,8.22288742 C23.7718146,8.28434437 23.8062517,8.34315232 23.864,8.4162649 L19.1487682,8.76540397 C19.4009536,8.63083444 19.4941987,8.36911258 19.4634702,7.95427815" id="Fill-25" fill="#FFFFFF"></path>
                <path d="M24.3967152,3.79941722 L26.2563179,3.82961589 C25.9930066,3.94087417 25.8536689,4.20789404 25.8478411,4.60842384 L25.7985695,7.61875497 L27.0610861,7.63994702 C27.7704901,7.65107285 28.3257219,7.5138543 28.8099603,7.12127152 C28.5530066,7.77133775 28.3675762,8.13054305 28.3659868,8.24603974 C28.3649272,8.30749669 28.4014834,8.37001325 28.4523444,8.44789404 L24.3220132,8.38060927 C24.5853245,8.26193377 24.7018808,8.00974834 24.7087682,7.60127152 L24.7575099,4.5909404 C24.7638675,4.17504636 24.6557881,3.92709934 24.3967152,3.79941722" id="Fill-27" fill="#FFFFFF"></path>
                <path d="M32.3367417,6.34103311 C32.4077351,5.38898013 31.9335629,4.81308609 31.0546225,4.74792053 C30.0861457,4.67586755 29.498596,5.22633113 29.4207152,6.27109934 C29.3513113,7.20778808 29.8249536,7.78368212 30.703894,7.84884768 C31.6649536,7.92037086 32.2604503,7.37043709 32.3367417,6.34103311 M30.701245,8.69811921 C29.0397881,8.5746755 28.1693245,7.59083444 28.274755,6.16249007 C28.3833642,4.71136424 29.4408477,3.78580132 31.0572715,3.90606623 C32.7187285,4.03003974 33.5981987,4.99109934 33.4858808,6.4962649 C33.3836291,7.87851656 32.3171391,8.81838411 30.701245,8.69811921" id="Fill-29" fill="#FFFFFF"></path>
                <path d="M34.9117881,8.22124503 C34.8508609,8.64084768 34.893245,8.8893245 35.1586755,9.07316556 L33.4262252,8.78972185 C33.7112583,8.71184106 33.855894,8.47766887 33.9242384,8.05965563 L34.4047682,5.11872848 C34.4731126,4.70071523 34.4111258,4.43316556 34.1658278,4.26786755 L36.3109934,4.61859603 C36.2728477,4.66733775 36.2516556,4.70283444 36.247947,4.72561589 C36.242649,4.75581457 36.2548344,4.82045033 36.2797351,4.90256954 L37.4315232,8.59422517 L37.8919205,5.6887947 C37.9602649,5.27078146 37.8770861,4.99210596 37.6381457,4.83581457 L39.3260927,5.11184106 C38.9504636,5.22998675 38.9011921,5.4869404 38.8455629,5.82919205 C38.8439735,5.83660927 38.8418543,5.85197351 38.8392053,5.86733775 L38.2956291,9.18813245 C38.2701987,9.34760265 38.2649007,9.47157616 38.335894,9.59237086 L36.5743046,9.30468874 C36.6209272,9.2495894 36.6431788,9.2066755 36.6474172,9.17647682 C36.653245,9.14574834 36.6384106,9.09647682 36.6140397,9.01488742 L35.3313907,5.19237086 L34.9117881,8.22124503 Z" id="Fill-31" fill="#FFFFFF"></path>
                <path d="M43.1645563,10.583894 C42.8387285,10.501245 42.1452185,10.6501192 41.1830993,10.405351 C39.5396556,9.98733775 38.8636291,8.91713907 39.2302517,7.47713907 C39.5910464,6.05886093 40.8117086,5.35263576 42.6215099,5.81303311 C43.2583311,5.97515232 43.6911788,6.21250331 43.9730331,6.28402649 C44.0599205,6.30627815 44.2087947,6.3285298 44.4117086,6.34813245 L43.8193907,7.40508609 C43.4013775,6.98866225 42.9176689,6.70733775 42.3968742,6.57435762 C41.3468079,6.30733775 40.6034967,6.74548344 40.335947,7.79819868 C40.0885298,8.7682649 40.4445563,9.39925828 41.3711788,9.63501987 C42.1748874,9.83952318 42.6760795,9.65674172 42.8090596,9.13488742 L42.9113113,8.73170861 L41.9264106,8.48111258 C41.7166093,8.42760265 41.5481325,8.42442384 41.3240265,8.51872848 L41.6217748,7.98256954 C41.7886623,7.69117881 41.8819073,7.65886093 42.2437616,7.75104636 L44.2564768,8.26336424 C44.1007152,8.35872848 44.0699868,8.47846358 44.026543,8.65011921 L43.4967417,10.7322384 C43.3399205,10.6522384 43.2297219,10.6003179 43.1645563,10.583894" id="Fill-33" fill="#FFFFFF"></path>
            </g>
        </g>
        <rect id="Bounding-box" fill-opacity="0" fill="#FFFFFF" x="0" y="0" width="80" height="80"></rect>
    </g>
</svg>