<?xml version="1.0" encoding="UTF-8"?>
<svg width="80px" height="80px" viewBox="0 0 80 80" version="1.1" xmlns="http://www.w3.org/2000/svg" xmlns:xlink="http://www.w3.org/1999/xlink">
    <!-- Generator: Sketch 52.5 (67469) - http://www.bohemiancoding.com/sketch -->
    <title>Assets/Logos/Clubs/Reverse/Greater Western Sydney</title>
    <desc>Created with Sketch.</desc>
    <g id="Assets/Logos/Clubs/Reverse/Greater-Western-Sydney" stroke="none" stroke-width="1" fill="none" fill-rule="evenodd">
        <g id="Page-1" transform="translate(9.000000, 13.000000)" fill="#FFFFFF">
            <g id="Group-11" transform="translate(0.067039, 0.933947)">
                <path d="M30.3619416,17.9924197 L29.5731092,19.0868647 C29.1309577,19.7194241 28.4023944,20.0986396 27.6279625,20.0986396 L20.5044697,20.0986396 L24.1883545,14.9522947 C24.6363729,14.3400029 25.3537357,13.9762546 26.1089668,13.9762546 L42.9725934,13.9762546 L52.7745964,0.280224854 L27.4690227,0.280224854 C17.7043545,0.280224854 9.78882911,8.19521693 9.78882911,17.9588183 C9.78882911,27.7240198 17.7043545,35.6390119 27.4690227,35.6390119 L40.1010087,17.9886862 L30.3619416,17.9924197 Z" id="Fill-7"></path>
                <path d="M5.03615372,48.1925947 L7.06930397,48.1925947 L7.06930397,50.2476125 C7.06930397,50.3777512 6.98290042,50.4636214 6.85329509,50.4636214 L3.65156346,50.4636214 C3.52195813,50.4636214 3.43555458,50.3777512 3.43555458,50.2476125 L3.43555458,41.9843394 C3.43555458,41.8542008 3.52195813,41.7677972 3.65156346,41.7677972 L6.83089417,41.7677972 C6.96103286,41.7677972 7.04743641,41.8542008 7.04743641,41.9843394 L7.04743641,43.4553332 L10.1190294,43.4553332 L10.1190294,41.2920443 C10.1190294,39.9730567 9.05925245,38.9132798 7.73973154,38.9132798 L2.67819011,38.9132798 C1.35866919,38.9132798 0.298892288,39.9730567 0.298892288,41.2920443 L0.298892288,50.9393743 C0.298892288,52.2588952 1.35866919,53.3192054 2.67819011,53.3192054 L7.7615991,53.3192054 C9.08058666,53.3192054 10.1408969,52.2588952 10.1408969,50.9393743 L10.1408969,45.4671493 L5.03615372,45.4671493 L5.03615372,48.1925947 Z M11.8113656,53.3197388 L14.9474945,53.3197388 L14.9474945,38.9132798 L11.8113656,38.9132798 L11.8113656,53.3197388 Z M23.6134508,38.9132798 L20.4554543,38.9132798 L15.7400605,53.3192054 L18.9407254,53.3192054 L19.806361,50.4636214 L24.2406766,50.4636214 L25.149514,53.3192054 L28.3507122,53.3192054 L23.6134508,38.9132798 Z M22.0341859,42.8926434 L23.3323726,47.6949742 L20.7365325,47.6949742 L22.0341859,42.8926434 Z M39.9970577,38.9132798 L36.9686666,38.9132798 L36.9686666,47.3488267 L32.1663358,38.9132798 L29.1374113,38.9132798 L29.1374113,53.3192054 L32.1663358,53.3192054 L32.1663358,44.9263271 L36.9686666,53.3192054 L39.9970577,53.3192054 L39.9970577,38.9132798 Z M41.0957696,41.7677972 L44.8164559,41.7677972 L44.8164559,53.3192054 L47.9531182,53.3192054 L47.9531182,41.7677972 L51.6738045,41.7677972 L51.6738045,38.9132798 L41.0957696,38.9132798 L41.0957696,41.7677972 Z M62.0976997,47.5867031 C62.0976997,46.2677155 61.383537,45.6836915 60.1514863,45.3370106 C57.2959023,44.5369777 56.0627849,44.1902968 55.8462427,44.1257608 C55.7166373,44.082559 55.6088996,44.0174897 55.6088996,43.8452159 L55.6088996,41.9843394 C55.6088996,41.8542008 55.6947698,41.7677972 55.8254418,41.7677972 L58.7236943,41.7677972 C58.8527663,41.7677972 58.9397032,41.8542008 58.9397032,41.9843394 L58.9397032,43.1955892 L62.0107628,43.1955892 L62.0107628,41.2920443 C62.0107628,39.9730567 60.9515192,38.9132798 59.6319983,38.9132798 L54.8728693,38.9132798 C53.5533484,38.9132798 52.4941049,39.9730567 52.4941049,41.2920443 L52.4941049,44.5151101 C52.4941049,45.8346311 53.228535,46.3973209 54.5053875,46.7648026 C57.1876312,47.5221671 58.3338116,47.8464471 58.7018267,47.9552516 C58.8746338,47.99792 58.982905,48.0843236 58.982905,48.2357965 L58.982905,50.2476125 C58.982905,50.3777512 58.8970348,50.4636214 58.7663627,50.4636214 L55.7385049,50.4636214 C55.6088996,50.4636214 55.5219627,50.3777512 55.5219627,50.2476125 L55.5219627,49.0144951 L52.4503697,49.0144951 L52.4503697,50.9393743 C52.4503697,52.2588952 53.51068,53.3192054 54.8296675,53.3192054 L59.7184019,53.3192054 C61.0384561,53.3192054 62.0976997,52.2588952 62.0976997,50.9393743 L62.0976997,47.5867031 Z" id="Fill-9"></path>
            </g>
        </g>
        <rect id="Bounding-box" fill-opacity="0" fill="#FFFFFF" x="0" y="0" width="80" height="80"></rect>
    </g>
</svg>