<?xml version="1.0" standalone="no"?>
<!DOCTYPE svg PUBLIC "-//W3C//DTD SVG 20010904//EN"
 "http://www.w3.org/TR/2001/REC-SVG-20010904/DTD/svg10.dtd">
<svg version="1.0" xmlns="http://www.w3.org/2000/svg"
 width="512.000000pt" height="512.000000pt" viewBox="0 0 512.000000 512.000000"
 preserveAspectRatio="xMidYMid meet">

<g transform="translate(0.000000,512.000000) scale(0.100000,-0.100000)"
fill="#000000" stroke="none">
<path d="M310 5109 c-150 -30 -271 -154 -300 -309 -7 -37 -9 -795 -8 -2275 l3
-2220 22 -53 c42 -103 119 -179 223 -224 l55 -23 2210 -3 c1573 -2 2229 0
2274 8 89 15 162 54 221 116 56 59 84 115 99 200 8 40 11 741 11 2238 0 2368
2 2265 -54 2361 -37 62 -127 140 -194 167 l-57 23 -2230 1 c-1250 1 -2250 -2
-2275 -7z m3629 -656 c0 -5 -139 -201 -308 -438 l-308 -430 -569 -5 c-406 -4
-575 -8 -589 -17 -33 -19 -67 -61 -184 -226 -77 -109 -107 -159 -97 -163 7 -3
118 -4 247 -2 268 3 270 4 333 85 l41 52 308 0 c183 1 307 -3 305 -8 -1 -5
-181 -259 -398 -565 l-395 -555 -70 0 c-145 -1 -362 63 -506 149 -283 171
-473 436 -540 755 -25 118 -27 337 -4 450 61 296 234 561 474 724 137 93 338
170 496 190 86 10 1765 14 1764 4z m-3225 -2509 c16 -16 22 -54 8 -54 -4 0
-12 10 -17 23 -7 16 -20 23 -48 25 -58 5 -67 -8 -67 -98 0 -106 2 -110 60
-110 51 0 60 9 60 56 0 20 -5 24 -30 24 -16 0 -30 5 -30 10 0 6 18 10 40 10
l40 0 0 -41 c0 -67 -12 -79 -80 -79 -75 0 -80 9 -80 129 0 68 4 93 16 105 21
21 107 21 128 0z m190 10 c23 -9 23 -119 0 -132 -14 -8 -13 -15 10 -60 19 -37
23 -52 13 -52 -7 0 -24 24 -38 53 -22 48 -27 52 -59 52 l-35 0 -3 -52 c-2 -29
-7 -53 -13 -53 -5 0 -9 53 -9 125 l0 125 59 0 c33 0 66 -3 75 -6z m206 -4 c0
-5 -25 -10 -55 -10 l-55 0 0 -45 0 -45 50 0 c28 0 50 -4 50 -10 0 -5 -22 -10
-50 -10 l-50 0 0 -50 0 -50 55 0 c30 0 55 -4 55 -10 0 -6 -30 -10 -70 -10
l-70 0 0 125 0 125 70 0 c40 0 70 -4 70 -10z m179 -110 c45 -133 45 -130 32
-130 -5 0 -14 14 -20 30 -9 28 -13 30 -65 30 -52 0 -55 -1 -61 -30 -4 -16 -13
-30 -20 -30 -10 0 -3 30 26 113 22 61 42 118 44 125 10 29 25 5 64 -108z m201
111 c0 -6 -17 -11 -37 -13 l-38 -3 -3 -112 c-4 -150 -22 -148 -22 2 l0 115
-35 0 c-19 0 -35 5 -35 10 0 6 35 10 85 10 47 0 85 -4 85 -9z m170 -1 c0 -5
-26 -10 -57 -12 l-58 -3 -3 -42 -3 -43 55 0 c31 0 56 -4 56 -10 0 -5 -25 -10
-55 -10 l-55 0 0 -50 0 -50 60 0 c33 0 60 -4 60 -10 0 -6 -30 -10 -70 -10
l-70 0 0 125 0 125 70 0 c39 0 70 -4 70 -10z m178 -2 c19 -19 15 -115 -4 -126
-15 -8 -14 -14 5 -57 24 -54 24 -55 13 -55 -4 0 -20 25 -35 55 -25 51 -29 55
-62 55 l-35 0 0 -55 c0 -30 -4 -55 -10 -55 -6 0 -10 48 -10 125 l0 125 63 0
c36 0 68 -5 75 -12z m141 -25 c6 -21 11 -43 11 -50 0 -32 23 -114 30 -106 4 4
18 50 30 101 14 56 27 91 34 89 6 -2 22 -47 36 -100 13 -53 27 -97 31 -97 3 0
14 45 24 100 11 59 23 100 30 100 15 0 -36 -242 -52 -247 -7 -3 -17 15 -23 39
-49 184 -47 183 -81 46 -12 -51 -26 -88 -34 -88 -7 0 -21 43 -35 113 -13 61
-25 118 -28 125 -2 6 1 12 6 12 6 0 16 -17 21 -37z m411 27 c0 -5 -26 -10 -57
-12 l-58 -3 -3 -42 -3 -43 55 0 c31 0 56 -4 56 -10 0 -5 -25 -10 -55 -10 l-55
0 0 -50 0 -50 60 0 c33 0 60 -4 60 -10 0 -6 -30 -10 -70 -10 l-70 0 0 125 0
125 70 0 c39 0 70 -4 70 -10z m168 -2 c13 -13 17 -58 4 -58 -4 0 -12 10 -17
23 -7 15 -20 23 -43 25 -39 4 -62 -12 -62 -43 0 -27 14 -40 55 -49 55 -13 75
-33 75 -74 0 -50 -14 -62 -75 -62 -56 0 -75 12 -75 47 0 30 18 30 22 1 3 -20
9 -23 53 -23 47 0 50 1 53 28 4 36 -10 53 -50 61 -56 11 -78 32 -78 74 0 50
14 62 75 62 28 0 56 -5 63 -12z m202 2 c0 -5 -16 -10 -35 -10 l-35 0 0 -115
c0 -150 -18 -152 -22 -2 l-3 112 -37 3 c-72 6 -38 22 47 22 50 0 85 -4 85 -10z
m170 0 c0 -5 -25 -10 -55 -10 l-55 0 0 -45 0 -45 50 0 c28 0 50 -4 50 -10 0
-5 -22 -10 -50 -10 l-50 0 0 -50 0 -50 55 0 c30 0 55 -4 55 -10 0 -6 -28 -10
-65 -10 l-65 0 0 125 0 125 65 0 c37 0 65 -4 65 -10z m178 -2 c19 -19 15 -115
-4 -126 -14 -8 -13 -15 10 -60 18 -36 22 -52 13 -52 -7 0 -25 25 -40 55 -25
51 -29 55 -62 55 l-35 0 0 -55 c0 -30 -4 -55 -10 -55 -6 0 -10 48 -10 125 l0
125 63 0 c36 0 68 -5 75 -12z m141 -83 c29 -52 56 -97 62 -100 5 -4 9 34 9 94
0 61 4 101 10 101 6 0 10 -48 10 -125 0 -93 -3 -125 -12 -125 -7 0 -38 43 -68
95 -30 52 -58 95 -62 95 -4 0 -8 -43 -8 -95 0 -57 -4 -95 -10 -95 -6 0 -10 48
-10 125 0 97 3 125 13 125 8 0 37 -43 66 -95z m329 83 c14 -14 16 -58 3 -58
-5 0 -11 10 -13 23 -3 19 -9 22 -48 22 -45 0 -45 0 -48 -37 l-3 -37 56 -16
c66 -20 84 -45 69 -97 -9 -32 -11 -33 -72 -36 -59 -3 -63 -2 -72 23 -14 36
-13 45 5 45 9 0 15 -9 15 -25 0 -23 3 -25 50 -25 l50 0 0 39 c0 39 0 40 -57
58 -58 18 -58 18 -61 61 -2 24 2 50 9 58 14 17 100 19 117 2z m82 -48 c17 -33
32 -60 35 -60 3 0 18 27 35 60 17 33 35 60 40 60 15 0 13 -4 -25 -80 -26 -52
-35 -82 -35 -120 0 -38 -4 -50 -15 -50 -11 0 -15 12 -15 50 0 38 -9 68 -35
120 -38 76 -40 80 -25 80 5 0 23 -27 40 -60z m281 50 c17 -10 19 -22 19 -113
0 -67 -4 -107 -12 -115 -7 -7 -39 -12 -75 -12 l-63 0 0 125 0 125 56 0 c30 0
64 -5 75 -10z m138 -94 l56 -97 3 100 c4 147 22 127 22 -24 0 -72 -4 -125 -9
-125 -6 0 -36 44 -68 98 l-58 97 -3 -97 c-4 -145 -22 -122 -22 28 0 90 3 125
12 122 6 -2 36 -48 67 -102z m261 94 c0 -5 -26 -10 -57 -12 l-58 -3 -3 -42 -3
-43 55 0 c31 0 56 -4 56 -10 0 -5 -25 -10 -55 -10 l-55 0 0 -50 0 -50 60 0
c33 0 60 -4 60 -10 0 -6 -30 -10 -70 -10 l-70 0 0 125 0 125 70 0 c39 0 70 -4
70 -10z m80 -50 c17 -33 34 -60 38 -60 5 0 21 27 37 60 16 33 35 60 43 60 9 0
1 -23 -27 -75 -33 -59 -41 -84 -41 -125 0 -27 -4 -50 -10 -50 -5 0 -10 21 -10
46 0 36 -10 64 -40 119 -43 78 -45 85 -30 85 5 0 23 -27 40 -60z m-3300 -290
c59 -30 80 -79 80 -185 l0 -85 -94 0 -95 0 -3 53 -3 52 -118 3 -117 3 2 -283
3 -283 115 0 115 0 3 73 3 72 -66 0 -65 0 0 90 0 90 160 0 160 0 0 -198 c0
-229 -6 -250 -81 -290 -43 -22 -50 -23 -246 -20 -221 3 -227 5 -277 72 -20 26
-21 42 -24 364 -2 185 0 351 3 369 7 40 49 91 90 109 21 9 85 13 223 14 174 0
197 -2 232 -20z m390 -445 l0 -465 -100 0 -100 0 0 465 0 465 100 0 100 0 0
-465z m710 6 c82 -252 150 -461 150 -465 0 -3 -44 -6 -99 -6 l-98 0 -30 93
-29 92 -142 3 c-163 3 -144 15 -183 -115 l-21 -73 -99 0 c-54 0 -99 3 -99 6 0
5 151 471 295 912 3 8 33 12 104 12 l100 0 151 -459z m555 188 l150 -266 3
268 2 269 95 0 95 0 0 -465 0 -465 -93 0 -93 0 -154 271 -155 271 -3 -271 -2
-271 -95 0 -95 0 0 465 0 466 97 -3 97 -3 151 -266z m1105 181 l0 -90 -120 0
-120 0 0 -375 0 -375 -100 0 -100 0 0 375 0 375 -120 0 -120 0 0 90 0 90 340
0 340 0 0 -90z m580 71 c60 -32 75 -61 78 -162 l4 -89 -95 0 -96 0 -3 43 -3
42 -108 3 -108 3 3 -78 3 -77 160 -46 c88 -25 174 -53 190 -62 53 -28 60 -54
60 -229 0 -172 -4 -185 -69 -233 -26 -20 -41 -21 -236 -21 -195 0 -210 1 -236
21 -57 42 -69 69 -72 165 l-4 89 95 0 96 0 3 -47 3 -48 110 0 110 0 0 80 0 80
-165 48 c-91 26 -175 55 -187 63 -47 30 -58 61 -62 181 -4 145 4 195 37 234
44 53 68 58 272 59 162 0 190 -2 220 -19z"/>
<path d="M797 1934 c-4 -4 -7 -27 -7 -51 l0 -43 56 0 55 0 -3 48 -3 47 -45 3
c-25 2 -49 0 -53 -4z"/>
<path d="M1217 1867 c-24 -74 -23 -77 23 -77 22 0 40 4 40 8 0 13 -32 106 -39
115 -4 4 -15 -17 -24 -46z"/>
<path d="M1720 1890 l0 -50 55 0 55 0 0 44 c0 49 -8 56 -71 56 l-39 0 0 -50z"/>
<path d="M2997 1934 c-4 -4 -7 -27 -7 -51 l0 -43 56 0 55 0 -3 48 -3 47 -45 3
c-25 2 -49 0 -53 -4z"/>
<path d="M3837 1933 c-4 -3 -7 -51 -7 -105 l0 -99 53 3 52 3 3 88 c2 57 -1 94
-9 103 -12 14 -80 20 -92 7z"/>
<path d="M1927 1227 c-20 -78 -37 -148 -37 -154 0 -9 23 -13 80 -13 55 0 80 4
80 12 0 19 -71 282 -78 290 -4 4 -24 -57 -45 -135z"/>
</g>
</svg>
