<?xml version="1.0" encoding="UTF-8"?>
<svg width="80px" height="80px" viewBox="0 0 80 80" version="1.1" xmlns="http://www.w3.org/2000/svg" xmlns:xlink="http://www.w3.org/1999/xlink">
    <!-- Generator: Sketch 52.5 (67469) - http://www.bohemiancoding.com/sketch -->
    <title>Assets/Logos/Clubs/Reverse/Hawthorn</title>
    <desc>Created with Sketch.</desc>
    <g id="Assets/Logos/Clubs/Reverse/Hawthorn" stroke="none" stroke-width="1" fill="none" fill-rule="evenodd">
        <g id="Group">
            <g id="Page-1" transform="translate(11.000000, 13.000000)">
                <g id="Group-33" transform="translate(0.655629, 0.774834)">
                    <path d="M15.7284768,9.5858543 L16.6270199,6.01499338 C16.8415894,5.18161589 16.8998675,4.40174834 16.8998675,4.40174834 L16.9390728,4.40174834 C16.9390728,4.40174834 16.9984106,5.20121854 17.1753642,6.03406623 L17.965298,9.5858543 L15.7284768,9.5858543 Z M19.5647682,0.459496689 L14.5708609,0.459496689 L11.554702,10.5755232 L11.554702,0.459496689 L6.8797351,0.459496689 L6.8797351,5.5429404 L5.07364238,5.5429404 L5.07364238,0.459496689 L0.398145695,0.459496689 L0.398145695,13.6075762 L5.07364238,13.6075762 L5.07364238,8.42876821 L6.8797351,8.42876821 L6.8797351,13.6075762 L14.7499338,13.6075762 L15.152053,11.9906225 L18.509404,11.9906225 L18.7255629,12.9903576 C20.1851656,12.754596 21.655894,12.5686358 23.1345695,12.4324768 L19.5647682,0.459496689 Z" id="Fill-5" fill="#FFC400"></path>
                    <path d="M55.2571656,5.37096689 C54.1535894,4.83586755 53.7917351,4.51109934 53.7917351,3.95692715 C53.7917351,3.45997351 54.1731921,3.23056954 54.8550464,3.23056954 C55.6184901,3.23056954 56.3204768,3.49811921 56.8020662,3.76566887 L57.7451126,1.07109934 C57.0023311,0.650966887 55.8192848,0.268980132 54.1133245,0.268980132 C51.1231258,0.268980132 49.2375629,2.2562649 49.2375629,4.68328477 C49.2375629,5.96381457 49.7991523,7.4541457 51.8055099,8.42845033 C52.8889536,8.94447682 53.2301457,9.28884768 53.2301457,9.78527152 C53.2301457,10.205404 52.8492185,10.4925563 52.1472318,10.4925563 C51.344053,10.4925563 50.4810066,10.1291126 50.1207417,9.86209272 L49.6327947,11.346596 L47.3112053,6.44116556 L50.4015364,0.459708609 L45.6863046,0.459708609 L43.1978278,6.23083444 L43.1575629,6.23083444 L43.1575629,0.459708609 L34.624053,0.459708609 L33.4664371,6.49202649 C33.3265695,7.23904636 33.287894,7.95851656 33.287894,7.95851656 L33.2481589,7.95851656 C33.2481589,7.95851656 33.2274967,7.23904636 33.0860397,6.49202649 L31.8722649,0.459708609 L28.1223311,0.459708609 L26.8518675,6.49202649 C26.7088212,7.23904636 26.6664371,7.95851656 26.6664371,7.95851656 L26.626702,7.95851656 C26.626702,7.95851656 26.5901457,7.23904636 26.4518675,6.49202649 L25.3504106,0.459708609 L20.6033907,0.459708609 L23.9708079,12.3606358 C25.6523974,12.226596 27.3445828,12.1566623 29.0457748,12.1503046 L29.7684238,9.26129801 C29.9241854,8.62977483 29.9633907,7.99189404 29.9633907,7.99189404 L30.0031258,7.99189404 C30.0031258,7.99189404 30.0619338,8.64884768 30.218755,9.26129801 L30.9843179,12.1714967 C32.6553113,12.2138808 34.317298,12.3177219 35.9676291,12.4840795 L38.4820662,3.55162914 L38.4820662,12.7855364 C40.0449801,13.0038146 41.5957086,13.2777219 43.1331921,13.6072583 L43.1575629,13.6072583 L43.1575629,7.3778543 L43.1978278,7.3778543 L45.5257748,13.6072583 L50.7019338,13.6072583 L50.6897483,13.5818278 C51.3610066,13.7243444 52.162596,13.7985166 53.1098808,13.7985166 C56.1398146,13.7985166 58.2060397,11.8875232 58.2060397,9.44143046 C58.2060397,7.91242384 57.8457748,6.61335099 55.2571656,5.37096689" id="Fill-7" fill="#FFC400"></path>
                    <path d="M7.81303311,16.8041325 L7.81250331,16.8041325 C8.17382781,33.1522119 16.000053,43.2390993 29.285351,53.8573775 C42.5701192,43.2390993 50.397404,33.1522119 50.7587285,16.8046623 L50.7587285,16.8041325 C43.8999205,14.3824106 36.6755497,13.1543311 29.2837616,13.1543311 C21.8940927,13.1543311 14.6702517,14.3824106 7.81303311,16.8041325" id="Fill-9" fill="#FFC400"></path>
                    <polygon id="Fill-11" fill="#FFC400" points="46.1578808 38.9621192 46.1578808 38.9621192 46.157351 38.962649"></polygon>
                    <path d="M52.6965828,23.1938013 C53.1050596,20.8139338 53.088106,19.3908874 53.088106,19.3908874 C27.3932715,9.3824106 21.0605563,20.8271788 21.0605563,20.8271788 C15.3069139,22.0600265 10.7236026,25.616053 12.4645298,31.1763179 C12.9900927,32.8541987 14.2006887,34.410755 15.8197616,35.6017483 C15.4330066,34.9437351 15.3016159,34.2226755 15.4843974,33.4369801 C15.9241325,31.541351 18.469298,30.2751258 22.290755,30.4430728 C28.2404238,30.7032053 29.9956556,31.776053 29.9956556,31.776053 C29.9956556,31.776053 20.0449272,29.5757881 17.2994967,31.8539338 C17.981351,31.6859868 18.6859868,31.5985695 19.4065166,31.5985695 C25.3699603,31.5985695 30.2033377,35.6176424 30.2033377,45.0179073 C30.2033377,48.4335364 29.5643974,51.136053 28.4661192,53.1964503 C28.4549934,53.1874437 28.4449272,53.1794967 28.4343311,53.1704901 C28.4470464,53.2314172 28.4539338,53.2647947 28.4539338,53.2647947 C28.2287682,53.717245 27.9845298,54.1500927 27.7228079,54.5596291 C28.6997616,55.285457 29.2793642,55.6685033 29.2793642,55.6685033 C29.2793642,55.6685033 31.1352583,54.4478411 32.2801589,53.6059868 C34.2971126,47.4555232 33.7365828,40.6094305 30.5275762,34.8059868 C34.3553907,39.9736689 35.439894,46.496053 33.8541987,52.4255894 C35.3471788,51.2690331 36.7251921,50.0949934 37.9956556,48.9140662 C38.2849272,43.3871788 36.6308874,37.8475762 33.2343311,33.3649272 C37.1294305,37.2086358 39.2232053,42.418702 39.2449272,47.7161854 C40.4279735,46.5474437 41.509298,45.3744636 42.4984371,44.2057219 C41.5935364,39.2568477 39.1527417,34.6523444 35.4769801,31.1243974 C39.5236026,34.0377748 42.3204238,38.3016159 43.4674437,43.0269139 C44.4597616,41.7818808 45.3487682,40.5458543 46.1471788,39.3294305 C44.1461192,34.9781722 41.0202914,31.2594967 37.0271788,28.5156556 C41.2459868,30.6338013 44.6695629,33.9662517 46.9053245,38.1357881 C47.6571126,36.9124768 48.3183046,35.7135364 48.8984371,34.5506225 C45.9649272,30.6004238 42.1556556,27.5095629 37.7826755,25.4783046 C42.3416159,26.9299603 46.3723444,29.6478411 49.4594967,33.3850596 C50.0851921,32.034596 50.6043974,30.7402914 51.031947,29.5217483 C47.1400265,25.9879735 42.5063841,23.4851921 37.4658543,22.1983046 C42.6218808,22.8536689 47.4335364,24.9559205 51.4494305,28.2767152 C51.893404,26.8759205 52.2176424,25.5953907 52.4528742,24.4690331 C47.6910199,21.3977748 42.2541987,19.5810861 36.5540662,19.1789669 C42.2716821,18.9802914 47.8250596,20.3757881 52.6965828,23.1938013" id="Fill-13" fill="#562500"></path>
                    <path d="M16.7213245,25.0090596 C16.6037086,25.8615099 16.7631788,27.2352848 18.8675497,28.4760795 C20.5343046,29.4593907 23.1377483,29.6151523 24.8717881,29.8514437 C26.9925828,30.1317086 29.2792053,30.6821722 29.9960265,31.7762119 C29.2792053,29.8466755 25.3698013,29.6517086 22.8744371,28.8978013 C20.1417219,28.0723709 20.261457,25.4032318 20.7154967,23.9870728 C20.9708609,23.1929007 21.4683444,22.2964768 21.0010596,21.7899868 C20.6196026,21.3767417 19.8651656,21.6448212 19.8651656,21.6448212 C18.4696689,22.048 17.2256954,22.5889272 16.1803974,23.2395232 C16.7064901,23.4996556 16.8278146,24.2392583 16.7213245,25.0090596" id="Fill-15" fill="#FFC400"></path>
                    <path d="M19.9063311,24.7203709 C19.8634172,24.4501722 19.5688477,24.2658013 19.2520265,24.3230199 C18.4244768,24.4708344 17.7924238,25.114543 17.7924238,25.114543 C17.6885828,25.2109669 17.6525563,25.3450066 17.7140132,25.434543 C17.7791788,25.5299073 17.9317616,25.5389139 18.0663311,25.4620927 L18.0673907,25.4631523 C18.0673907,25.4631523 18.2856689,25.336 18.5209007,25.2734834 C18.8260662,25.1924238 19.1508344,25.2936159 19.1508344,25.2936159 L19.1508344,25.2914967 C19.231894,25.3100397 19.3182517,25.3158675 19.4077881,25.3015629 C19.7261987,25.250702 19.949245,24.9905695 19.9063311,24.7203709" id="Fill-17" fill="#562500"></path>
                    <path d="M30.5949669,21.2838675 C30.5949669,21.2838675 32.0969536,20.3418808 33.6042384,20.0155232 C34.0699338,20.6359205 34.3449007,21.4073113 34.3449007,22.2428079 C34.3449007,24.2963179 32.6807947,25.9604238 30.6278146,25.9604238 C28.7025166,25.9604238 27.1189404,24.4981722 26.9287417,22.6237351 C27.6646358,22.522543 28.3825166,22.3397616 28.9017219,22.1347285 C29.5268874,21.8878411 30.098543,21.5969801 30.5949669,21.2838675" id="Fill-19" fill="#212121"></path>
                    <path d="M32.7343576,20.2651656 C31.9730331,20.5316556 31.2954172,20.8834437 30.9155497,21.0964238 C31.6058808,21.2309934 32.1272053,21.8381457 32.1272053,22.5676821 C32.1272053,23.3962914 31.455947,24.0675497 30.6273377,24.0675497 C29.7992583,24.0675497 29.1274702,23.3962914 29.1274702,22.5676821 C29.1274702,22.3642384 29.1687947,22.1703311 29.2419073,21.9928477 C29.1301192,22.0415894 29.0167417,22.0892715 28.9017748,22.1348344 C28.5791258,22.2619868 28.1796556,22.3806623 27.7473377,22.4770861 C27.866543,23.9637086 29.1099868,25.1329801 30.6273377,25.1329801 C32.2236291,25.1329801 33.5179338,23.8392053 33.5179338,22.2423841 C33.5179338,21.477351 33.2201854,20.7822517 32.7343576,20.2651656" id="Fill-21" fill="#FFC400"></path>
                    <path d="M30.826755,21.2331656 C30.826755,21.5907815 31.1170861,21.8811126 31.4752318,21.8811126 C31.8328477,21.8811126 32.1231788,21.5907815 32.1231788,21.2331656 C32.1231788,20.9825695 31.9811921,20.7658808 31.7729801,20.6578013 C31.3724503,20.8442914 31.0423841,21.0233642 30.834702,21.1425695 C30.8304636,21.1722384 30.826755,21.2019073 30.826755,21.2331656" id="Fill-23" fill="#FFFFFF"></path>
                    <path d="M24.0930331,22.3101457 C27.7020397,20.5135894 31.661245,19.4555762 35.7820397,19.2150464 C35.6268079,19.397298 35.1658808,19.7400795 33.8355497,19.9700132 C32.2540927,20.2423311 30.594755,21.2839205 30.594755,21.2839205 C30.0988609,21.5970331 29.5272053,21.887894 28.9015099,22.1347815 C27.5966093,22.6502781 25.0329007,23.0274967 24.0930331,22.3101457" id="Fill-25" fill="#212121"></path>
                    <path d="M24.8716821,29.8514967 C26.9924768,30.1317616 29.2790993,30.6822252 29.9959205,31.7762649 C29.9959205,31.7762649 28.2401589,30.6991788 22.2910199,30.442755 C18.4695629,30.2785166 15.9238675,31.5410331 15.4841325,33.4371921 C15.3018808,34.2228874 15.4332715,34.9434172 15.8194967,35.6019603 C14.2004238,34.4104371 12.9898278,32.8544106 12.4647947,31.1765298 C11.4767152,28.0189139 12.5267815,25.5076556 14.6730066,23.7015629 C14.6730066,23.7015629 15.5127417,22.9805033 16.104,23.2046093 C16.6952583,23.429245 16.8330066,24.2032848 16.7212185,25.0091126 C16.6041325,25.8615629 16.7630728,27.2353377 18.8674437,28.4761325 C20.5341987,29.4594437 23.1381722,29.6152053 24.8716821,29.8514967" id="Fill-27" fill="#212121"></path>
                    <path d="M18.0411656,22.7310199 C16.0009007,23.6115497 14.2758675,25.5124768 14.3903046,25.6502252 C14.4750728,25.7514172 15.3365298,24.4830728 18.2991788,23.3275762 C18.4671258,23.2624106 18.5397086,23.0653245 18.4687152,22.9000265 C18.3977219,22.7357881 18.2064636,22.6600265 18.0411656,22.7310199" id="Fill-29" fill="#FFFFFF"></path>
                    <path d="M28.4540397,53.2646887 C28.2288742,53.7171391 27.9846358,54.1499868 27.7229139,54.5595232 C22.5059603,50.6808477 5.93695364,36.9891921 5.61059603,19.3388609 C6.3592053,19.0368742 7.11523179,18.7491921 7.87761589,18.474755 C8.70251656,33.5057483 16.1176159,43.1666755 28.4344371,53.1703841 C28.4466225,53.2318411 28.4540397,53.2646887 28.4540397,53.2646887" id="Fill-31" fill="#000000"></path>
                </g>
            </g>
            <rect id="Bounding-box" fill-opacity="0" fill="#FFFFFF" x="0" y="0" width="80" height="80"></rect>
        </g>
    </g>
</svg>