<?xml version="1.0" encoding="UTF-8"?>
<svg width="80px" height="80px" viewBox="0 0 80 80" version="1.1" xmlns="http://www.w3.org/2000/svg" xmlns:xlink="http://www.w3.org/1999/xlink">
    <!-- Generator: Sketch 52.5 (67469) - http://www.bohemiancoding.com/sketch -->
    <title>Assets/Logos/Clubs/Reverse/Melbourne</title>
    <desc>Created with Sketch.</desc>
    <g id="Assets/Logos/Clubs/Reverse/Melbourne" stroke="none" stroke-width="1" fill="none" fill-rule="evenodd">
        <g id="Page-1" transform="translate(13.000000, 12.000000)">
            <g id="Group-48" transform="translate(0.245033, 0.185430)">
                <path d="M51.8967417,4.10649007 L51.8967417,6.3205298 C52.6607152,6.56264901 53.4167417,6.81430464 54.1483974,7.06966887 L54.8175364,7.30331126 L54.8175364,24.0503311 L51.2387285,28.1239735 C50.4599205,33.1422517 48.9801854,37.7695364 46.8387285,41.8797351 C45.0188609,45.373245 42.7184636,48.5054305 40.0021722,51.189404 C35.1417748,55.9925828 30.2225695,58.0990728 28.3004503,58.5419868 C28.0429669,58.6013245 27.7155497,58.6606623 27.7129007,58.6611921 L27.5364768,58.6924503 L27.3595232,58.6611921 C27.3563444,58.6606623 27.032106,58.6018543 26.7740927,58.5425166 C24.8456159,58.098543 19.912106,55.9851656 15.0411126,51.1602649 C12.3179338,48.4635762 10.0143576,45.3154967 8.19501987,41.8050331 C6.05515232,37.6762914 4.58071523,33.0278146 3.81250331,27.9862252 L0.254887417,24.0588079 L0.254887417,7.30331126 L0.92402649,7.06966887 C1.65462252,6.81430464 2.41117881,6.56317881 3.17515232,6.3205298 L3.17515232,4.10649007 L3.75316556,3.8384106 C3.83846358,3.7986755 5.89727152,2.85298013 9.87925828,1.90622517 C13.5136954,1.04211921 19.5264106,0.0121854305 27.5364768,0.0121854305 C31.9571391,0.0121854305 39.9539603,0.420662252 45.1931656,1.90622517 C49.8538278,3.12529801 51.8967417,4.10649007 51.8967417,4.10649007" id="Fill-6" fill="#DE0316"></path>
                <path d="M53.8607152,7.97027815 C52.8911788,7.6317351 51.917404,7.3133245 50.9404503,7.01292715 L50.9404503,4.70193377 C50.9404503,4.70193377 42.8964768,0.968423841 27.5778013,0.968423841 C12.2591258,0.968423841 4.21462252,4.70193377 4.21462252,4.70193377 L4.21462252,7.01239735 C3.23766887,7.3127947 2.26389404,7.6312053 1.29382781,7.97027815 C1.29435762,13.1909404 1.29435762,18.4116026 1.29382781,23.6322649 L4.79634437,27.498755 C7.99846358,49.3737219 23.4813775,56.7098808 27.0389934,57.5284238 C27.2715762,57.5824636 27.5778013,57.6370331 27.5778013,57.6370331 C27.5778013,57.6370331 27.8840265,57.5824636 28.1176689,57.527894 C31.6710464,56.7088212 47.0893245,49.4023311 50.3375364,27.6428609 L53.8607152,23.6322649 L53.8607152,7.97027815 Z" id="Fill-8" fill="#061A33"></path>
                <path d="M48.1881325,22.3538543 C48.1770066,22.3506755 48.1658808,22.3480265 48.1552848,22.3448477 C47.280053,46.3612715 31.466543,54.1249801 28.0546225,54.9323974 C27.848,54.9811391 27.5778013,55.0309404 27.5778013,55.0309404 C27.5778013,55.0309404 27.3081325,54.9811391 27.1025695,54.9329272 C23.693298,54.1276291 7.86972185,46.3628609 6.99978808,22.3326623 C6.98866225,22.3353113 6.97806623,22.3384901 6.9664106,22.3416689 C7.27104636,47.4489536 23.6291921,55.4923974 27.1025695,56.3125298 C27.3081325,56.3612715 27.5778013,56.4110728 27.5778013,56.4110728 C27.5778013,56.4110728 27.848,56.3612715 28.0546225,56.312 C31.5311788,55.4897483 47.8787285,47.4473642 48.1881325,22.3538543" id="Fill-10" fill="#DE0316"></path>
                <polygon id="Fill-12" fill="#DE0316" points="22.6764503 31.0792583 26.2796291 41.3330331 26.2817483 36.1902517 24.0703576 29.6890596 24.069298 29.6895894 22.9773775 26.4763444 22.6764503 25.5910464 20.0608212 25.5910464 20.8761854 26.743894 20.8756556 45.8167417 20.1106225 46.9563444 23.4340662 46.9563444 22.6769801 45.8156821"></polygon>
                <path d="M19.5188344,39.9410331 C19.0706225,39.4785166 18.6785695,38.9587815 18.376053,38.3897748 C18.0629404,37.8016954 17.8441325,37.1585166 17.7577748,36.4967947 C17.648106,35.6591788 17.7371126,34.8056689 18.0157881,34.0083179 C18.2234702,33.4154702 18.5302252,32.8591788 18.9058543,32.3558675 C19.3047947,31.821298 19.7800265,31.3450066 20.301351,30.9285828 C20.3601589,30.8814305 20.4200265,30.8353377 20.479894,30.7903046 L20.479894,28.3632848 C20.456053,28.3765298 20.4311523,28.3887152 20.4067815,28.4019603 L20.4067815,28.4014305 C20.1975099,28.5264636 19.9818808,28.6414305 19.7726093,28.7659338 C19.5824106,28.8793113 19.4028079,29.005404 19.2274437,29.1399735 C18.9005563,29.3895099 18.5879735,29.6581192 18.293404,29.9452715 C17.7402914,30.4856689 17.253404,31.0928212 16.845457,31.7508344 C16.4555232,32.3797086 16.1286358,33.0562649 15.8817483,33.7534834 C15.7551258,34.1089801 15.6359205,34.466596 15.5130066,34.8231523 C15.4091656,35.1230199 15.3042649,35.4228874 15.1951258,35.7206358 C15.1877086,35.7391788 15.1696954,35.7693775 15.1696954,35.7895099 C15.1696954,35.813351 15.1914172,35.8483179 15.1993642,35.8700397 C15.2385695,35.9770596 15.2777748,36.0835497 15.3164503,36.1905695 C15.3508874,36.282755 15.3821457,36.376 15.4144636,36.469245 C15.5569801,36.8835497 15.7000265,37.2989139 15.8430728,37.7137483 C16.0375099,38.2785166 16.2822781,38.8279205 16.5683709,39.3524238 C16.936053,40.0247417 17.3805563,40.6552053 17.8965828,41.2226225 C18.1651921,41.5182517 18.4523444,41.7963974 18.7553907,42.0565298 C19.0796291,42.3357351 19.418702,42.602755 19.7869139,42.8215629 C19.991947,42.9428874 20.2028079,43.0552053 20.4067815,43.1775894 L20.4067815,43.1765298 C20.4316821,43.1903046 20.456053,43.2030199 20.479894,43.2162649 L20.479894,40.7897748 C20.1392318,40.530702 19.8165828,40.2483179 19.5188344,39.9410331" id="Fill-14" fill="#DE0316"></path>
                <path d="M30.5277351,42.7260927 C29.6360795,42.9221192 28.725351,43.0243709 27.8130331,43.0381457 C26.960053,43.0513907 26.1044238,42.9878146 25.2630993,42.8431788 C24.5181987,42.7149669 23.783894,42.5221192 23.0739603,42.2630464 L23.0739603,44.3207947 C23.941245,44.5703311 24.8313113,44.744106 25.7282649,44.8437086 C26.7613775,44.9586755 27.8050861,44.9772185 28.8413775,44.9009272 C29.8421722,44.8283444 30.8366093,44.6651656 31.8061457,44.4082119 C31.9020397,44.3827815 31.9968742,44.3562914 32.0922384,44.3287417 L32.0922384,42.2741722 C31.5815099,42.4590728 31.0580662,42.6095364 30.5277351,42.7260927" id="Fill-16" fill="#DE0316"></path>
                <path d="M26.2815364,28.6010066 L26.2815364,26.682596 C26.2142517,26.6884238 26.1474967,26.6937219 26.0807417,26.6995497 C25.2489536,26.7742517 24.4224636,26.9114702 23.6123974,27.1133245 L24.2386225,28.9554437 C24.9082914,28.7837881 25.5922649,28.6661722 26.2815364,28.6010066" id="Fill-18" fill="#DE0316"></path>
                <polygon id="Fill-20" fill="#DE0316" points="34.2901722 26.7438411 35.1055364 25.5909934 32.4899073 25.5909934 32.1884503 26.4762914 32.1889801 26.4762914 31.0975894 29.6895364 31.096 29.6890066 28.8851391 36.1907285 28.8867285 41.3335099 32.4899073 31.0792053 32.4899073 45.8161589 31.7322914 46.9562914 35.0557351 46.9562914 34.2912318 45.8166887"></polygon>
                <path d="M36.1460132,31.9846887 C36.4299868,32.3163444 36.6885298,32.6723709 36.9004503,33.0554172 C37.1277351,32.8461457 37.3550199,32.6363444 37.5823046,32.4276026 C37.8917086,32.1430993 38.2005828,31.8591258 38.5099868,31.5746225 C38.6005828,31.4909139 38.6917086,31.4072053 38.7823046,31.3240265 C38.3123709,30.9330331 37.8540927,30.5277351 37.3868079,30.1325033 C37.1192583,29.9052185 36.8564768,29.6736954 36.5772715,29.4591258 C36.3001854,29.2456159 36.0130331,29.045351 35.717404,28.8572715 C35.5457483,28.7481325 35.3709139,28.6432318 35.1955497,28.5399205 C35.0503841,28.4546225 34.9030993,28.3693245 34.7489272,28.2988609 L34.7489272,28.2993907 C34.7287947,28.2887947 34.7081325,28.2781987 34.6874702,28.2676026 L34.6874702,30.655947 C35.2225695,31.0416424 35.7168742,31.4834967 36.1460132,31.9846887" id="Fill-22" fill="#DE0316"></path>
                <path d="M37.1528477,38.7557086 C37.0686093,38.6783576 36.9843709,38.6010066 36.9001325,38.5236556 C36.4434437,39.3512053 35.7806623,40.0637881 35.0458278,40.6513377 C34.9287417,40.7451126 34.8090066,40.8357086 34.6876821,40.9231258 L34.6876821,43.3104106 C34.7078146,43.2998146 34.7290066,43.2902781 34.7491391,43.2791523 L34.7491391,43.2796821 C35.0447682,43.1445828 35.3245033,42.9665695 35.5994702,42.7954437 C35.8972185,42.610543 36.1864901,42.4139868 36.466755,42.2041854 C36.7491391,41.9917351 37.0140397,41.7607417 37.2842384,41.5329272 C37.5449007,41.3130596 37.8039735,41.0910728 38.0625166,40.8685563 C38.301457,40.6635232 38.5398675,40.4569007 38.7819868,40.2550464 C38.5811921,40.0696159 38.3798675,39.885245 38.1790728,39.7003444 C37.8368212,39.3851126 37.4950993,39.0709404 37.1528477,38.7557086" id="Fill-24" fill="#DE0316"></path>
                <polygon id="Fill-26" fill="#DE0316" points="27.5771126 46.9562384 29.0912848 45.3429934 26.0629404 45.3429934"></polygon>
                <path d="M28.4840795,42.6370861 L28.4835497,28.6005298 C28.4835497,28.6005298 29.6618278,28.6498013 30.9222252,28.9740397 L31.5563974,27.1070199 C30.781298,26.914702 29.991894,26.7827815 29.1977219,26.7075497 C28.9587815,26.6847682 28.7193113,26.6672848 28.4793113,26.6545695 L28.4840795,24.3451656 C28.4840795,24.3451656 29.9256689,24.3552318 30.4734834,24.4156291 C31.0207682,24.4760265 31.9246093,24.7796026 31.9246093,24.7796026 L31.9675232,22.5772185 L25.9071258,22.5772185 L26.5958675,23.7215894 L26.6779868,24.3986755 L26.6779868,42.6296689 C27.320106,42.674702 27.722755,42.6683444 28.4840795,42.6370861" id="Fill-28" fill="#DE0316"></path>
                <path d="M3.47009272,9.69372185 C4.27856954,9.42935099 5.09340397,9.17928477 5.91088742,8.94458278 C6.09578808,10.6431258 6.28121854,12.3421987 6.4655894,14.0407417 C6.5032053,14.557298 6.52174834,14.8153113 6.55830464,15.3318675 C6.60174834,14.7930596 6.6234702,14.5233907 6.66638411,13.9845828 C6.86188079,12.1790199 7.05737748,10.3745166 7.25393377,8.56895364 C8.07671523,8.34590728 8.9058543,8.13663576 9.73605298,7.94325828 L9.73605298,19.5649801 C8.99539073,19.738755 8.6255894,19.8304106 7.88863576,20.0227285 L7.88863576,12.8550464 C7.84519205,13.5882914 7.8234702,13.9543841 7.78002649,14.6870993 C7.57870199,16.5286887 7.37737748,18.3702781 7.17658278,20.2123974 C6.65101987,20.3543841 6.38876821,20.4280265 5.8647947,20.5795497 C5.6645298,18.8555762 5.4647947,17.1321325 5.2645298,15.4081589 C5.22161589,14.693457 5.19989404,14.3358411 5.15698013,13.6211391 L5.15698013,20.7882914 C4.48042384,20.9917351 4.1434702,21.0966358 3.47009272,21.3154437 L3.47009272,9.69372185 Z" id="Fill-30" fill="#DE0316"></path>
                <path d="M10.5049536,7.76646358 C11.7923709,7.47984106 13.0861457,7.21970861 14.3862781,6.99931126 L14.3862781,8.8970596 C13.6069404,9.03056954 13.2180662,9.10209272 12.4419073,9.2557351 L12.4419073,12.157457 C13.1995232,12.0075232 13.5788609,11.9375894 14.3391258,11.8061987 L14.3391258,13.6726887 C13.5788609,13.8040795 13.1995232,13.8740132 12.4419073,14.023947 L12.4419073,17.1762649 C13.2180662,17.0226225 13.6069404,16.9510993 14.3862781,16.8170596 L14.3862781,18.6210331 C13.0861457,18.8419603 11.7923709,19.1020927 10.5049536,19.3887152 L10.5049536,7.76646358 Z" id="Fill-32" fill="#DE0316"></path>
                <path d="M15.1619603,6.87009272 C15.9423576,6.7445298 16.3328212,6.68678146 17.1153377,6.58082119 L17.1153377,16.3990993 C17.8157351,16.3042649 18.1659338,16.261351 18.8679205,16.1824106 L18.8679205,17.9858543 C17.6287152,18.1331391 16.3953377,18.3016159 15.1619603,18.4923444 L15.1619603,6.87009272 Z" id="Fill-34" fill="#DE0316"></path>
                <path d="M21.9536424,15.9450066 C22.4929801,15.9063311 22.5242384,15.5455364 22.5242384,14.3063311 C22.5242384,13.0671258 22.4929801,12.7534834 21.9536424,12.7926887 C21.7639735,12.8064636 21.6686093,12.813351 21.4784106,12.8281854 L21.4784106,15.9805033 C21.6686093,15.9661987 21.7639735,15.9587815 21.9536424,15.9450066 Z M21.9218543,10.9124238 C22.4288742,10.8758675 22.4611921,10.640106 22.4611921,9.38553642 C22.4611921,8.13043709 22.445298,7.86341722 21.9218543,7.90156291 C21.7443709,7.91427815 21.655894,7.92063576 21.4784106,7.9349404 L21.4784106,10.9463311 C21.655894,10.9325563 21.7443709,10.9256689 21.9218543,10.9124238 Z M19.546755,6.29096689 C20.4050331,6.20037086 21.2670199,6.12619868 22.127947,6.06739073 C24.0309934,5.86341722 24.3165563,7.34792053 24.3329801,8.87745695 C24.341457,9.67586755 24.4527152,11.0030199 23.5870199,11.4687152 C24.6535099,11.8120265 24.4119205,13.5942781 24.4124503,14.410702 C24.4140397,16.0175894 24.0378808,17.610702 22.1438411,17.688053 C21.2781457,17.7468609 20.4108609,17.8220927 19.546755,17.9126887 L19.546755,6.29096689 Z" id="Fill-36" fill="#DE0316"></path>
                <path d="M30.8578013,14.2756556 L30.8578013,5.94717881 C31.6450861,5.98055629 32.0387285,6.00227815 32.8249536,6.05525828 L32.8249536,14.4308874 C32.8249536,15.6695629 32.8562119,15.9524768 33.4109139,15.9938013 C33.9656159,16.0356556 33.997404,15.7580397 33.997404,14.5188344 L33.997404,6.1437351 C34.7640265,6.20731126 35.1470728,6.24333775 35.9126358,6.32598675 L35.9126358,14.6544636 C35.9518411,16.5575099 35.5041589,17.9445298 33.3632318,17.8099603 C31.2551523,17.6769801 30.8450861,16.1394967 30.8578013,14.2756556" id="Fill-38" fill="#DE0316"></path>
                <path d="M38.9585166,12.5807152 C39.5100397,12.6623046 39.5015629,12.1250861 39.525404,10.6278675 C39.5344106,10.0673377 39.7193113,8.75237086 38.9585166,8.54998675 C38.7757351,8.52296689 38.6846093,8.50972185 38.5018278,8.48376159 L38.5018278,12.5144901 C38.6846093,12.5404503 38.7757351,12.5536954 38.9585166,12.5807152 Z M36.6077881,6.40429139 C37.4771921,6.50389404 38.3460662,6.62045033 39.210702,6.75290066 C41.282755,7.0887947 41.4623576,9.06707285 41.458649,10.8117086 C41.456,11.8718411 41.5661987,13.4781987 40.5320265,14.162702 C40.8202384,15.6874702 41.1084503,17.2117086 41.3956026,18.7364768 C40.6363974,18.5992583 40.2554702,18.5356821 39.4941457,18.4180662 C39.2424901,17.0623046 38.9908344,15.7070728 38.7381192,14.3523709 C38.6432848,14.338596 38.5961325,14.3317086 38.5018278,14.3184636 L38.5018278,18.2707815 C37.7452715,18.1637616 37.3664636,18.1144901 36.6077881,18.0260132 L36.6077881,6.40429139 Z" id="Fill-40" fill="#DE0316"></path>
                <path d="M42.0576424,7.23692715 C42.8851921,7.39321854 43.2979073,7.47745695 44.1217483,7.6565298 C44.3924768,8.96090066 44.6626755,10.2652715 44.9328742,11.5701722 C45.0637351,12.2647417 45.1289007,12.6122914 45.2597616,13.3079205 L45.2597616,7.91242384 C45.9882384,8.08249007 46.3511523,8.17202649 47.0769801,8.35904636 L47.0769801,19.981298 C46.3453245,19.7921589 45.978702,19.7020927 45.2443974,19.5309669 C44.8963179,17.9569272 44.5482384,16.3834172 44.1996291,14.8093775 C44.0687682,14.1661987 44.0030728,13.8446093 43.8722119,13.2019603 L43.8722119,19.2242119 C43.1479735,19.0695099 42.7845298,18.9963974 42.0576424,18.858649 L42.0576424,7.23692715 Z" id="Fill-42" fill="#DE0316"></path>
                <path d="M47.8409536,8.56090066 C49.1214834,8.90792053 50.394596,9.28143046 51.6555232,9.69361589 L51.6555232,11.5913642 C50.8973775,11.3450066 50.5169801,11.2268609 49.7535364,11.000106 L49.7535364,13.9018278 C50.4984371,14.122755 50.8698278,14.2382517 51.6094305,14.4777219 L51.6094305,16.3442119 C50.8698278,16.1042119 50.4984371,15.989245 49.7535364,15.7683179 L49.7535364,18.9206358 C50.5169801,19.1468609 50.8973775,19.2655364 51.6555232,19.511894 L51.6555232,21.3153377 C50.394596,20.9036821 49.1214834,20.5296424 47.8409536,20.1831523 L47.8409536,8.56090066 Z" id="Fill-44" fill="#DE0316"></path>
                <path d="M28.2445033,11.7277881 C28.2445033,7.93229139 28.2445033,7.71295364 27.6166887,7.71295364 C27.005298,7.71295364 27.005298,7.93229139 27.005298,11.7277881 C27.005298,15.5550728 27.005298,15.7585166 27.6166887,15.7585166 C28.2445033,15.7585166 28.2445033,15.5550728 28.2445033,11.7277881 M25.7189404,16.9977219 C25.0603974,16.2136159 25.0291391,14.7232848 25.0291391,11.6806358 C25.0291391,8.76354967 25.0603974,7.27374834 25.6723179,6.4578543 C26.0484768,5.98739073 26.6757616,5.78341722 27.6166887,5.78341722 C28.5581457,5.78341722 29.2013245,5.98739073 29.5462252,6.42659603 C30.189404,7.22659603 30.2047682,8.71639735 30.2047682,11.6806358 C30.2047682,14.9277881 30.189404,16.3391788 29.5303311,17.0602384 C29.1849007,17.4528212 28.5581457,17.5937483 27.6166887,17.5937483 C26.6911258,17.5937483 26.0643709,17.4215629 25.7189404,16.9977219" id="Fill-46" fill="#DE0316"></path>
            </g>
        </g>
        <rect id="Bounding-box" fill-opacity="0" fill="#FFFFFF" x="0" y="0" width="80" height="80"></rect>
    </g>
</svg>