<?xml version="1.0" encoding="UTF-8"?>
<svg width="80px" height="80px" viewBox="0 0 80 80" version="1.1" xmlns="http://www.w3.org/2000/svg" xmlns:xlink="http://www.w3.org/1999/xlink">
    <!-- Generator: Sketch 52.5 (67469) - http://www.bohemiancoding.com/sketch -->
    <title>Assets/Logos/Clubs/Reverse/North Melbourne</title>
    <desc>Created with Sketch.</desc>
    <defs>
        <polygon id="path-1" points="0 0.0724812404 56.2359354 0.0724812404 56.2359354 69.901488 0 69.901488"></polygon>
    </defs>
    <g id="Assets/Logos/Clubs/Reverse/North-Melbourne" stroke="none" stroke-width="1" fill="none" fill-rule="evenodd">
        <rect id="Bounding-box" fill-opacity="0" fill="#FFFFFF" x="0" y="0" width="80" height="80"></rect>
        <g id="Page-1" transform="translate(12.000000, 5.000000)">
            <g id="Group-3" transform="translate(0.000000, 0.025992)">
                <mask id="mask-2" fill="white">
                    <use xlink:href="#path-1"></use>
                </mask>
                <g id="Clip-2"></g>
                <path d="M52.7486192,35.5286329 C54.0321337,32.7146526 54.6645674,27.077339 54.6645674,27.077339 L53.0316637,24.0420366 C53.0316637,24.0420366 46.9113663,21.9933305 40.9017743,20.8175077 C40.9017743,20.8175077 38.9845502,18.4199831 38.1345335,17.3120928 L39.1694517,15.4409958 C39.1694517,15.4409958 37.382856,13.6548636 36.876438,13.2425429 C37.0114828,13.0705457 37.1486868,12.8873249 37.2896202,12.6909114 C39.1050699,10.1610661 39.7250394,6.99718425 39.0351921,3.78200844 L39.0150727,3.6970436 L39.0080064,3.67282419 C38.6184768,2.31466667 37.9103748,-0.440340366 35.9239599,0.15569339 C35.0306621,0.423780591 34.2247115,1.44641069 33.5881559,2.09610127 C32.8483537,2.85084107 32.1488883,3.64506048 31.4770993,4.46084107 C30.7742971,5.31432911 30.1637493,6.24500422 29.4627137,7.09603094 C28.5840391,8.16296484 27.8541494,9.26829536 27.2881586,10.3880985 L26.1340947,10.1311364 C25.5377777,9.57763432 24.7774637,8.94409001 23.8674815,8.32915331 C22.4507869,7.37209283 20.8639123,6.24736709 19.1903774,5.81890014 C17.9377779,5.49814065 16.5713325,5.43719831 15.2851681,5.34406188 C13.6579567,5.22601688 11.9822627,5.14420253 10.3554438,5.32693108 C10.3418019,5.32840788 10.3282582,5.33008158 10.3146163,5.33165682 L9.94432269,5.36375246 C9.1734092,5.44822504 8.0591914,5.66334459 7.12977693,6.20828129 L7.0505755,6.2546526 L6.97902924,6.31234599 C6.59057913,6.62591842 6.36131702,6.98911111 6.30439406,7.37603094 C6.09201255,8.38694515 6.70992105,8.92006751 7.62873608,9.71271167 C8.074011,10.0969733 8.75237561,10.6430914 9.48795761,11.0954824 L9.716042,11.2791955 C9.9694473,11.4842729 10.2229507,11.6889564 10.4768468,11.8928523 C10.6625334,12.1519803 10.7530212,12.3148214 10.7717666,12.3555809 C11.5738895,14.125173 13.2525279,16.6944979 18.5541161,19.2013052 L18.4262357,19.9186329 L17.5130149,20.1007707 C12.5576752,21.0888439 7.45011577,22.3905879 3.50015332,23.6721491 L3.05173783,23.8176624 L1.42462457,26.8221491 C1.42462457,26.8221491 1.87343263,30.781038 3.03112779,34.442993 L3.37433396,35.5286329 L-1.96286056e-05,35.5286329 L-1.96286056e-05,62.2405738 L1.76998988,61.3815724 C3.00600318,60.7817975 4.28843812,60.218647 5.58137437,59.707775 L6.35935416,59.4004051 L6.35935416,59.3954824 L7.44962506,59.0085626 C8.65560658,58.5805879 9.90369147,58.1857918 11.1606092,57.8330352 L11.1578612,63.144962 L19.1897885,63.1433868 L26.5662185,69.8985345 L29.1910538,69.901488 L36.81608,63.1528383 L45.0178929,63.1583516 C45.0178929,63.1583516 45.0195613,57.8171842 45.0224075,57.8180703 C46.4124072,58.20627 47.7992663,58.6499972 49.1446109,59.1366498 L49.7437741,59.353443 L50.4077117,59.6117834 C51.7814197,60.146481 53.1467855,60.7420225 54.4662203,61.3817693 L56.2359354,62.2398847 L56.2359354,35.5286329 L52.7486192,35.5286329 Z" id="Fill-1" fill="#FFFFFF" mask="url(#mask-2)"></path>
            </g>
            <path d="M15.5905598,30.6890436 C14.8679327,31.1139662 12.7916188,32.3140084 11.4673749,33.0675668 C13.9797383,32.345218 16.4711972,31.6167651 18.922123,30.8975668 C18.9930804,30.2538819 19.0973083,29.5181435 19.2210667,28.7423347 C18.1226499,29.4199859 17.011082,30.103052 15.8866573,30.7896624 C15.9113893,30.0172996 15.5886951,30.6896343 15.5905598,30.6890436" id="Fill-4" fill="#C3D0E4"></path>
            <path d="M35.2747536,10.5506737 C36.6342308,8.57167229 37.0779355,6.45444304 36.5941885,4.25786076 C36.5935996,4.2573685 36.5920293,4.24949226 36.5905572,4.24141913 C36.5378544,4.0527834 36.4956529,3.97795921 36.4743558,3.94960478 C36.4062446,3.99026582 36.3162474,4.07080028 36.2189877,4.16974543 C36.2451919,4.24447117 36.3018204,4.39746695 36.3038814,4.41459775 L36.3096718,4.4468903 C36.7856655,6.66552602 36.1021975,8.74878903 34.7161235,10.6831913 C33.9034011,11.8190422 33.0256098,12.6697736 32.649035,12.9633601 C32.7170481,12.9936835 32.7867297,13.0251885 32.8595518,13.0595485 C33.0959784,12.8894219 34.2769334,12.0029522 35.2747536,10.5506737" id="Fill-6" fill="#C3D0E4"></path>
            <path d="M34.3711409,17.7851294 C35.8966762,19.7915007 37.6491181,21.6900661 39.2836902,23.7414304 C39.7968801,24.3476048 40.2191895,24.9537792 40.7388569,25.5649747 C40.7737958,25.5544402 40.807557,25.5438073 40.8389628,25.5340605 L40.9021669,25.3462124 C38.8229087,22.6009522 37.0192361,20.1625696 35.3884916,17.8913601 L35.0961235,17.4833713 C35.0961235,17.4833713 35.4113589,16.4914585 35.5634806,16.009827 C33.1942097,13.8708397 31.194153,13.4242574 31.1740336,13.4197286 C30.7836207,13.3284627 30.3531654,13.2823868 29.8933653,13.2823868 L29.8755032,13.2823868 C29.624846,13.2829775 29.4140347,13.2978439 29.2808546,13.3101505 C29.1456135,13.3222602 29.0662158,13.3339761 29.0589533,13.3356498 L29.0237199,13.3422461 L28.9438315,13.3569156 C28.2047163,13.5283221 27.2633284,13.7010084 26.5209745,13.8708397 C27.0333793,14.2019367 27.2280951,14.2506709 27.7429534,14.5801927 L27.7397147,14.588955 C27.7464865,14.5929916 27.7534547,14.5970281 27.7604228,14.6008678 C27.8831998,14.653737 27.9818335,14.7104459 28.0470005,14.770699 C28.2012813,14.865706 28.2398515,14.8842152 28.3728353,14.9809944 L28.5404636,14.9982236 C28.2058941,14.50527 27.3645139,13.6395738 29.549374,13.3203896 C29.5554588,13.3200942 29.5433872,13.3205865 29.549374,13.3203896 C30.2187094,13.167 34.0434414,14.7567187 34.6395621,16.2519226 L34.3711409,17.7851294 Z" id="Fill-8" fill="#C3D0E4"></path>
            <path d="M11.8270985,8.52970183 C13.4990632,8.68801406 18.488164,8.97067229 22.1195542,11.5261153 C22.4273307,11.7134712 24.3465176,12.9621491 25.5473957,14.1637665 C25.5624116,14.1643572 25.5781145,14.1652433 25.5942099,14.1661294 C24.0499294,12.2462982 20.1302931,8.4363685 13.3491988,8.4363685 C12.7515077,8.4363685 12.1359546,8.46698734 11.5207941,8.52645288 L11.8270985,8.52970183 Z" id="Fill-10" fill="#C3D0E4"></path>
            <path d="M22.1222433,25.1226062 C22.1708241,25.2222405 22.2420759,25.3473741 22.2950732,25.4403136 L22.347776,25.4160942 C22.3647547,25.4426765 22.3653436,25.4437595 22.3890942,25.4779226 C22.4128448,25.5129719 22.44111,25.5542236 22.4733009,25.5972475 C22.5740938,25.7427609 22.6452475,25.8236892 22.6547674,25.8343221 L22.6620299,25.8415091 C22.6641891,25.8445612 22.6718442,25.853225 22.6718442,25.853225 C23.1798326,26.4737736 24.2561671,27.5167834 25.8152673,27.6272475 C25.9730813,27.6483165 26.1273621,27.6591463 26.2776191,27.6591463 C26.637117,27.6591463 26.9750235,27.5831406 27.2860387,27.4624374 C26.0830996,27.3704824 25.6026895,24.7286962 25.4574378,23.6525077 L25.3846157,23.6329156 C25.1090301,26.5562771 22.1674872,25.7695401 22.8817722,18.5937032 C22.0352886,20.0130985 21.6079738,21.3918326 21.6136661,22.6965302 L21.6136661,22.7035204 L21.4542818,23.4269522 C21.4490803,23.4532391 21.4429954,23.4804121 21.436518,23.5086681 L21.3609478,23.5076835 C21.3978496,23.9415654 21.4841173,24.3338017 21.6120958,24.6874444 C21.6120958,24.6874444 21.97179,25.6323952 22.2961527,25.9311997 C22.219503,25.8097089 22.1861344,25.7353769 22.1861344,25.7357707 C22.1570841,25.5371913 22.1279356,25.339301 22.0990815,25.1413122 L22.1222433,25.1226062 Z" id="Fill-12" fill="#C3D0E4"></path>
            <path d="M34.4852028,6.40848523 C34.4324018,6.46834459 34.3649775,6.5370647 34.2762563,6.62193108 C33.9580766,6.88292968 33.6366581,7.16991983 33.3172026,7.47788045 C32.2233004,8.53063713 30.7342744,10.2253066 29.8074116,12.348443 C29.8322418,12.348443 29.8571701,12.3483446 29.8826873,12.3483446 C29.950406,12.3483446 30.020382,12.3493291 30.0922227,12.351692 C30.1038036,12.3518889 30.11509,12.3526765 30.1265727,12.3531688 C30.1640634,12.2885837 30.206363,12.2162208 30.2540605,12.1350956 C30.8675526,11.0911997 32.2745311,8.77529255 33.1796061,8.1420436 C33.1801949,8.15070745 31.0635442,11.3532813 30.9704065,12.4317342 C30.9723694,12.4319311 30.9744304,12.4322264 30.9762951,12.4326203 C31.116247,12.4546737 31.2434404,12.47909 31.3651378,12.507346 C31.3651378,12.507346 31.4982197,12.5359958 31.736511,12.6112138 C31.6410178,11.5988228 34.156031,6.99063713 34.4390755,6.4722827 C34.4614521,6.44363291 34.4759773,6.42315471 34.4852028,6.40848523" id="Fill-14" fill="#C3D0E4"></path>
            <path d="M38.9262631,30.9090759 C38.6715819,31.056263 38.4283835,31.1849409 38.1968641,31.2954051 C39.7184736,31.9939283 41.2583377,32.6946174 42.801735,33.3880211 L43.3597763,33.6394698 C43.3866674,33.6515795 43.4136568,33.6632954 43.4404498,33.6754051 C42.0148242,32.8115795 40.5231483,31.8975429 38.9262631,30.9090759" id="Fill-16" fill="#C3D0E4"></path>
            <path d="M20.1146197,27.6361146 C20.1446197,27.6151146 20.1736197,27.5956146 20.2038697,27.5746146 L20.1151197,27.6351146 C20.1151197,27.6351146 20.1151197,27.6356146 20.1146197,27.6361146" id="Fill-18" fill="#C3D0E4"></path>
            <path d="M35.068879,22.7808453 L35.064757,22.7832082 C34.7506993,22.3447975 34.4503816,21.9270619 34.1433902,21.4957398 C34.8116461,22.9817876 36.3912581,25.6600014 37.1045617,27.0232785 L38.0519363,27.2747271 L36.8683314,25.2856835 C36.4146162,24.6277229 35.4913847,23.4018861 35.068879,22.7808453" id="Fill-20" fill="#C3D0E4"></path>
            <path d="M42.1947007,29.8717567 L42.1672207,30.1777482 L41.8816245,30.2882124 C41.5206544,30.4284093 41.1604695,30.5686062 40.8008735,30.7095907 C40.5703355,30.5227271 40.3396994,30.3355682 40.1086707,30.147917 C40.1708934,30.1035148 40.2219277,30.0666934 40.2584369,30.0398158 C40.6951734,29.8654557 41.1325969,29.6918833 41.5714925,29.519 L41.6079036,29.5045274 L41.6110441,29.4650478 C41.7085983,28.2075091 41.8159668,26.872685 41.9379586,25.3846681 L41.9560169,25.1332194 L41.9332477,25.1062433 C39.5643694,22.2690281 37.578249,19.8438383 35.7686878,17.556384 C36.0824511,16.9982546 36.3956255,16.438353 36.7085055,15.8774669 L36.7325505,15.8341477 L36.4640312,15.581616 C35.2521611,14.4367075 34.6973585,14.1302236 33.9382222,13.7277482 C34.3384495,13.3851322 35.5011499,12.2690703 36.2423261,10.8672982 C37.4497798,8.58161603 37.6053365,6.56096906 37.0837063,4.15025176 C36.8942902,3.33673558 36.7074259,2.85165823 36.5893598,2.86554008 C36.5893598,2.86554008 36.5632538,2.85874684 36.5247817,2.89409142 C36.1413369,3.37887342 35.7566162,3.86237553 35.3689513,4.34853586 C34.9900211,4.90075809 34.6110908,5.45120816 34.2313754,5.99890155 C33.9074053,6.24168636 32.9962454,6.92839522 31.9265846,8.10274121 L32.0066693,7.59935162 L30.872234,9.36687623 C30.2089834,10.2394641 29.5780219,11.2517567 29.1152775,12.3762855 L28.7934665,12.4364402 L28.7689308,12.4413629 L28.2912687,12.5517286 L28.5669524,12.786834 C28.1823299,12.779647 27.3689205,12.7631069 27.3689205,12.7631069 L27.2208227,13.1540633 C26.8007705,13.1332897 26.0219074,12.935301 26.0219074,12.935301 L25.9223904,13.2241617 C25.293588,12.4999423 24.217646,11.3154557 22.7161558,10.3108425 C22.4229045,10.1161027 22.1244515,9.93406329 21.8216803,9.76285373 L19.2722188,8.26961885 L19.309415,8.63635584 C17.3851247,7.97573699 15.3094978,7.68096906 13.1123698,7.68096906 C12.1510589,7.68096906 11.2743472,7.6909128 10.265535,7.82766385 C10.0715062,7.85375387 9.81221236,7.88693249 9.76137427,8.07930942 C9.71122318,8.26942194 9.78365273,8.47154571 9.94107415,8.58220675 C10.6865686,9.10686217 11.4332407,9.62954852 12.1803055,10.1500689 C12.3475412,10.3652869 12.7427632,10.8940774 12.9438582,11.3275654 C13.7202677,13.0277482 15.3995931,15.8060886 22.0196348,18.3439086 C21.5570867,19.4636132 21.3733629,20.2955401 21.256769,21.2334023 C21.0897296,20.9571435 20.915722,20.6704487 20.8119848,20.4888031 C20.8276877,20.4764965 20.1857341,23.3645134 19.6268096,26.3975513 L9.87090189,33.6171997 L12.2584273,31.6383952 L18.2109983,26.7051181 C17.985073,26.8822349 18.0166751,26.8510253 18.7712968,26.2406174 L20.0176151,19.2484937 L20.0684532,19.0380014 L20.5962664,19.5869747 L20.7342555,18.7667637 C14.6646981,16.2344571 12.9178503,13.6434726 12.1316265,11.9088312 C12.0437885,11.7176357 11.8507412,11.4148931 11.6132351,11.0968903 C11.3192967,10.8611941 11.0257509,10.6243165 10.7325977,10.3868481 L10.4397389,10.1511519 C9.75234511,9.73656681 9.10469927,9.21535724 8.6812121,8.85009705 C7.7704448,8.06424613 7.69477653,7.96392264 7.77525381,7.65606048 C7.76671537,7.54667932 8.0026512,7.35627145 8.0026512,7.35627145 C8.76659654,6.90840928 9.74302152,6.73907032 10.3214765,6.67566667 L10.6832317,6.64465401 C11.6159831,6.53123629 12.5320501,6.4737398 13.4054249,6.4737398 C13.4947351,6.4737398 13.5840452,6.47433052 13.6728646,6.47561041 C15.5178554,6.49963291 17.2746156,6.774218 18.9327421,7.29247398 L18.9029066,7.01424613 C18.9029066,7.01424613 20.5236406,7.67132068 22.052709,8.62276934 C22.5048539,8.87126442 22.9485585,9.13856399 23.3815656,9.42988608 C24.6918731,10.3150759 25.670261,11.2422068 26.2764905,11.8854979 L26.6415825,12.3537398 L26.9846905,11.6117004 L28.1742822,11.8765387 L28.3892154,11.3914613 C29.0185085,10.0468903 29.8364325,8.87274121 30.6262876,7.91922504 L31.8200012,6.16499156 L31.8029244,6.62112377 C32.479228,5.93766385 33.0259828,5.48290999 33.2485712,5.30490717 C33.5333822,4.9387609 33.8180952,4.57143319 34.1025136,4.20331786 C34.7761674,3.35583544 35.4659166,2.48236146 36.1533104,1.60455556 C36.3469466,1.39849367 36.5374422,1.41591983 36.5374422,1.41591983 C36.8886961,1.41591983 37.2987376,1.74150352 37.9766115,4.10535724 L37.9833834,4.13272714 C38.5591886,6.81694655 38.1265741,9.69324754 36.447445,12.0330788 C36.0409366,12.5997736 35.6487571,13.0751041 35.2287049,13.4781702 C35.2287049,13.4781702 36.6519751,14.4565949 37.8071185,15.6844008 L37.6206468,16.0208143 L36.823431,17.4675795 C38.4369023,19.6097173 40.3633518,21.9495485 42.4693049,24.6082686 L42.645668,24.8290985 L42.1947007,29.8717567 Z" id="Fill-22" fill="#C3D0E4"></path>
            <path d="M23.1257165,33.507789 C23.6234979,32.6408129 25.9388882,28.8727257 29.4161939,28.8022335 C30.6759578,29.2845541 31.1109277,30.9500816 31.2212404,31.4961013 L31.2908239,31.4988579 C31.5343167,30.3944135 31.6327542,29.6568045 31.6726002,29.2216428 C31.6490459,29.2110098 31.6256879,29.2004754 31.6013484,29.1900394 C30.9899173,28.8466357 30.3720088,28.6794627 29.9349779,28.5985345 C29.8910098,28.5904613 29.8491028,28.5830774 29.8089623,28.5766779 C29.5141406,28.5288298 29.3282577,28.5231195 29.3282577,28.5231195 L29.3437643,28.4878734 L29.5393634,28.0444416 L28.2432865,28.3449198 L26.6064571,28.7242588 L26.7055816,28.3175499 C25.122142,28.0527117 25.0285135,28.0097862 23.998208,27.5353418 L23.9910436,27.5323882 L23.9191047,27.4945823 L23.9112533,27.4907426 C23.8624762,27.4656371 23.8159564,27.4388579 23.7691422,27.4123741 C23.5380154,29.4034852 23.2979575,31.4283657 23.0461225,33.511038 L23.1257165,33.507789 Z" id="Fill-24" fill="#C3D0E4"></path>
            <path d="M32.9092515,28.9058354 C32.9110015,28.9933354 32.9127515,29.0480854 32.9127515,29.0480854 C32.9127515,29.0480854 32.9190015,28.9958354 32.9092515,28.9058354" id="Fill-26" fill="#FDFDFD"></path>
            <path d="M28.2603836,15.0323087 C28.1468562,14.8793087 27.9745959,14.7353087 27.7603836,14.6008087 C27.929048,14.7415587 28.0970274,14.8858087 28.2603836,15.0323087" id="Fill-28" fill="#F9F9F9"></path>
            <path d="M14.8349272,57.2267131 C14.7258903,58.0646456 14.6155775,58.88909 14.5042833,59.6995541 C14.3767955,58.9143924 14.2503873,58.1439986 14.1253531,57.3885696 C13.6248236,57.5075992 13.1262571,57.6352925 12.629457,57.7725359 C12.6288682,59.1186821 12.6282793,60.4645331 12.627396,61.8102855 C12.9952361,61.8097932 13.3628799,61.8097932 13.7303274,61.8097932 C13.7257147,61.054955 13.7221815,60.3004121 13.7177651,59.5453769 C13.8425049,60.2846596 13.9682261,61.0396948 14.0952232,61.8095963 L14.9419031,61.8095963 C15.0553564,61.0042518 15.1682209,60.1857145 15.2799077,59.3533938 C15.2891331,60.1723249 15.2982604,60.9905668 15.306897,61.8093994 L16.4098283,61.8093994 C16.388335,60.1807918 16.3668417,58.5509044 16.3456428,56.9205246 C15.8405988,57.0143502 15.3367325,57.116052 14.8349272,57.2267131" id="Fill-30" fill="#003CA0"></path>
            <path d="M18.6188022,60.9549367 C18.611147,60.4551899 18.6041789,59.9555415 18.5966219,59.4551055 C18.819014,59.4410267 19.0418968,59.4274402 19.2642889,59.414346 C19.2600687,59.1244023 19.2555541,58.8344585 19.2518247,58.5446132 C19.0291382,58.5621378 18.8065498,58.5807454 18.5838633,58.6002391 C18.578171,58.2075105 18.5727731,57.8149789 18.5669827,57.4221519 C18.8123402,57.3932068 19.0580904,57.365443 19.3040368,57.3386639 C19.3000129,57.0481294 19.2957928,56.7575949 19.2915726,56.4670605 C18.6571761,56.5487764 18.024448,56.6408298 17.3940753,56.7441069 C17.4179241,58.4339522 17.441871,60.1219269 17.4660142,61.8094093 C18.1003126,61.8094093 18.7346109,61.8096062 19.3689093,61.8098031 C19.3647873,61.5194655 19.360469,61.2289311 19.3564452,60.9389873 C19.1104006,60.9437131 18.864356,60.949128 18.6188022,60.9549367" id="Fill-32" fill="#003CA0"></path>
            <path d="M22.3020413,60.8893671 C22.0530525,60.8927145 21.8040636,60.895865 21.5555654,60.8995077 C21.5357406,59.339128 21.5162101,57.7776653 21.4962871,56.2160056 C21.1086221,56.2518425 20.7209571,56.2909283 20.333881,56.3344444 C20.3592019,58.1605485 20.3844247,59.9853727 20.4097456,61.8098031 C21.0438477,61.8098031 21.6781461,61.8103938 22.3125426,61.8103938 C22.3090095,61.5035162 22.3053782,61.1964416 22.3020413,60.8893671" id="Fill-34" fill="#003CA0"></path>
            <path d="M24.7363515,60.8646653 C24.6561687,60.8651575 24.5757895,60.8657482 24.4953123,60.8666343 C24.4911903,60.3139198 24.4869701,59.76091 24.4824555,59.208294 C24.5633254,59.2063249 24.6440971,59.2047496 24.7245744,59.2027806 C24.761378,59.2463952 24.7979854,59.2903052 24.8345927,59.3338214 C24.8381259,59.8133854 24.8415609,60.2929494 24.8448977,60.7725134 C24.808683,60.8033291 24.7727626,60.833948 24.7363515,60.8646653 M24.4648879,56.9525415 C24.5458559,56.9491941 24.6269221,56.9459451 24.7079882,56.9425977 C24.74489,56.9886737 24.7820862,57.0341589 24.8188898,57.0798411 C24.8212453,57.4401786 24.823797,57.8010084 24.8263487,58.1610506 C24.7901339,58.1924571 24.7539191,58.2241589 24.7178025,58.2559592 C24.6365401,58.2580267 24.5559647,58.2601927 24.4752911,58.2627525 C24.4717579,57.8261139 24.4685192,57.3893769 24.4648879,56.9525415 M25.9919934,56.4079986 C25.8344739,56.2584487 25.6761692,56.1097848 25.5180608,55.962007 C24.7715849,55.9885893 24.0255997,56.0260014 23.2807923,56.0752278 C23.2999302,57.9874782 23.3187736,59.8996301 23.3379115,61.8110928 C24.0756527,61.8112897 24.8133938,61.8118805 25.5512331,61.8123727 C25.7060047,61.6593769 25.8602855,61.5052982 26.0150571,61.3514163 C26.0114258,60.552865 26.0078926,59.7537229 26.0038687,58.95527 C25.9176992,58.8646934 25.831137,58.773526 25.7449674,58.6830478 C25.8302537,58.5919789 25.9156382,58.5016976 26.0017096,58.4103333 C25.998569,57.7430197 25.9952322,57.0755091 25.9919934,56.4079986" id="Fill-36" fill="#003CA0"></path>
            <path d="M28.5891426,60.760827 C28.5526334,60.7915443 28.5166149,60.8226554 28.4802038,60.8533727 C28.4387875,60.8533727 28.3971748,60.8531758 28.3555622,60.8531758 C28.3166975,60.8219662 28.277931,60.7912489 28.2388701,60.7601378 C28.2392627,59.4964951 28.239459,58.2321632 28.2395571,56.9683235 C28.2790106,56.9372124 28.318366,56.9062982 28.3576232,56.8754824 C28.3995302,56.8754824 28.4416336,56.8758762 28.4832462,56.8758762 C28.5197555,56.9068889 28.5565591,56.9379015 28.5931664,56.9686188 C28.5918906,58.2330492 28.5904184,59.496692 28.5891426,60.760827 M27.5238982,55.9178312 C27.3692247,56.0737806 27.2146495,56.2298284 27.0608593,56.3858762 C27.0647851,58.0407707 27.0684164,59.6957637 27.0724402,61.3503629 C27.2256415,61.5044416 27.3787446,61.6585204 27.5319459,61.8131899 C28.1168783,61.8137806 28.7017126,61.8140759 29.2871358,61.8144698 C29.4427906,61.6602925 29.5986418,61.5060169 29.7548855,61.3525288 C29.7606759,59.6991111 29.7669571,58.0456934 29.7727475,56.3924726 C29.6162094,56.2355387 29.4592787,56.0788017 29.3025442,55.9223601 C28.7094659,55.9141885 28.1168783,55.9132039 27.5238982,55.9178312" id="Fill-38" fill="#003CA0"></path>
            <path d="M30.8438412,55.9590338 C30.8333399,57.7580633 30.8225442,59.5566006 30.8120429,61.3557286 C30.9640665,61.5088228 31.11609,61.6626062 31.2676228,61.8157004 C31.8525553,61.8161927 32.437684,61.8163896 33.0231072,61.8169803 C33.1798416,61.6662489 33.336576,61.5170928 33.4936049,61.3677398 C33.5132335,59.6124233 33.5326658,57.8566146 33.5522944,56.1005105 C33.1605074,56.0728453 32.7682297,56.0479367 32.3761483,56.0265724 C32.3617213,57.6122546 32.3473924,59.1978383 32.3329654,60.7831266 C32.2966525,60.8128594 32.259947,60.8426906 32.2233396,60.8729156 C32.1818251,60.8723249 32.1405069,60.8723249 32.0989924,60.8714388 C32.0603241,60.8407215 32.0215576,60.8101027 31.9831837,60.7794838 C31.9963348,59.1889775 32.0091916,57.5983727 32.0227353,56.0082602 C31.6301632,55.9887665 31.2371985,55.9722264 30.8438412,55.9590338" id="Fill-40" fill="#003CA0"></path>
            <path d="M36.1081057,58.4665992 C36.0712039,58.4929845 36.0346947,58.5190745 35.9977929,58.5454599 C35.9173156,58.5403404 35.8368384,58.5350239 35.7564592,58.5300028 C35.7628385,58.0853896 35.7688252,57.6410717 35.7754008,57.1968523 C35.8559762,57.2040394 35.9363554,57.2110295 36.017029,57.2182166 C36.0528512,57.2503122 36.0888696,57.2828017 36.1244956,57.3147004 C36.1188033,57.6988636 36.1136017,58.0822391 36.1081057,58.4665992 M34.6168224,56.1847567 C34.5929736,58.0630408 34.5687323,59.9410295 34.5450798,61.8180338 C34.9334318,61.8180338 35.3215875,61.818526 35.7100376,61.8187229 C35.721324,61.0225345 35.7325123,60.2260506 35.7438969,59.4288776 C35.8240798,59.4327173 35.9046552,59.4367539 35.984838,59.440692 C36.0205621,59.4710155 36.0566787,59.5016343 36.0924028,59.5319578 C36.0818034,60.2945738 36.0707132,61.0568945 36.0594267,61.8194121 C36.447975,61.819609 36.8362288,61.819609 37.2245808,61.819609 C37.2371431,60.9929001 37.2496072,60.1663882 37.2621695,59.3394824 C37.1624562,59.2467398 37.0628411,59.153308 36.9632259,59.0597778 C37.0654909,58.9818031 37.1678541,58.9043207 37.2704136,58.8279212 C37.2797372,58.1844332 37.2894533,57.5404529 37.2996602,56.8955865 C37.1463608,56.7372743 36.9933558,56.5774852 36.8395657,56.4167117 C36.1006468,56.3262335 35.359667,56.2495387 34.6168224,56.1847567" id="Fill-42" fill="#003CA0"></path>
            <path d="M39.9142101,58.9236765 C39.7514889,58.2262363 39.5889641,57.5159972 39.4271262,56.7945345 C39.0719466,56.7342813 38.7166689,56.6768833 38.3603115,56.6236203 C38.3338129,58.3570802 38.3072161,60.0892602 38.2806194,61.8204557 C38.6431597,61.8204557 39.0055038,61.8208495 39.3681423,61.8215387 C39.3784473,61.1301041 39.3884579,60.4390633 39.3990573,59.7475302 C39.5644283,60.4513699 39.7298975,61.142903 39.8962499,61.8215387 C40.2508407,61.821834 40.6056277,61.8220309 40.9602185,61.8220309 C40.9798471,60.2462925 40.9993775,58.6694712 41.018908,57.0919606 C40.6610785,57.019007 40.3023658,56.9499916 39.9433586,56.8850127 C39.9335443,57.5646329 39.9239262,58.2445485 39.9142101,58.9236765" id="Fill-44" fill="#003CA0"></path>
            <path d="M42.0164337,61.8229466 C42.6504377,61.8229466 43.2848342,61.8232419 43.9192308,61.8238326 C43.9192308,61.6041842 43.9195252,61.3857173 43.9195252,61.1662658 C43.6744621,61.1550422 43.4295952,61.1448031 43.1844339,61.1344655 C43.1863968,60.7321871 43.1884578,60.3292194 43.1902244,59.9263502 C43.4106536,59.9514557 43.6310828,59.9775457 43.8509232,60.0045218 C43.8513158,59.7838889 43.8514139,59.5640436 43.8517084,59.3435091 C43.6322606,59.3074754 43.4129109,59.2722293 43.1933649,59.2377707 C43.1949352,58.9215401 43.1965055,58.6055063 43.1975851,58.2890788 C43.4392132,58.3409634 43.6803506,58.3947187 43.9208011,58.4500492 L43.9208011,57.7924824 C43.3033833,57.621962 42.6827268,57.4656188 42.0593222,57.3238467 C42.0447971,58.8236779 42.0306645,60.3236076 42.0164337,61.8229466" id="Fill-46" fill="#003CA0"></path>
            <path d="M31.9366442,20.66973 C30.1222741,21.7736821 28.6484602,21.3579156 28.3074132,21.2357356 L28.2891586,21.2631055 C29.0762657,22.0733727 29.3049389,23.1917975 29.3638248,23.6008692 L29.4172146,23.6069733 C29.5426414,23.286903 29.9889958,22.7392096 30.4760797,22.2003769 L29.7701369,22.1970295 L31.3371866,21.2900816 C31.6216051,21.0002363 31.8515542,20.7748776 31.9477344,20.6807567 L31.9366442,20.66973 Z" id="Fill-48" fill="#003CA0"></path>
            <path d="M42.9014385,23.0945654 C46.3546991,24.1511617 48.2449338,24.9502053 51.0235592,26.10427 C50.927379,27.2071392 50.7107774,29.8752124 49.6578008,32.7716962 C50.3610938,33.3903741 51.0725326,34.0000928 51.8571861,34.6263516 C53.3434641,30.2241294 53.3565171,27.412315 53.3799733,27.0880113 C53.0432446,26.4289677 52.6918925,25.7625401 52.3082514,25.0956203 C48.9410623,24.0065345 46.4718819,23.2979691 42.2624292,22.380782 L42.9014385,23.0945654 Z" id="Fill-50" fill="#003CA0"></path>
            <path d="M36.1567944,30.8258143 C34.668848,30.8258143 33.2620658,30.3864191 33.1114163,30.2838312 C33.0583209,30.118135 33.0699999,29.7282616 33.0629336,29.4041547 C33.0704906,29.4058284 33.0781458,29.4073052 33.0857028,29.4089789 C33.086488,29.4091758 33.0873712,29.4093727 33.0879601,29.4096681 C33.3143761,29.4592883 33.5308796,29.5110745 33.7359985,29.5642391 C35.3094275,29.9720309 36.1886909,30.4657722 36.654674,30.7459691 C36.6760692,30.7586695 36.6967774,30.7712714 36.7160134,30.7830858 C36.5159979,30.8425513 36.1567944,30.8258143 36.1567944,30.8258143 Z M40.4203239,29.0872349 L40.717501,28.4810605 L40.7508696,28.4129311 L40.7931692,28.3266864 L41.0163465,27.8715387 L41.3691707,27.1254627 L41.1832878,28.9710605 L40.3211013,29.289654 L40.4203239,29.0872349 Z M32.6490645,12.9633108 C32.2717045,12.7951533 31.96805,12.6857722 31.7676419,12.6209902 C31.7566499,12.6173474 31.74713,12.6143938 31.7365306,12.6112433 C31.4982393,12.5360253 31.3651574,12.5073755 31.3651574,12.5073755 C31.24346,12.4791195 31.1162667,12.4547032 30.9763147,12.4325513 C30.9743518,12.4321575 30.972389,12.4319606 30.9704261,12.4317637 C31.0635639,11.3532124 33.1802145,8.15073699 33.1796257,8.14207314 C32.2744525,8.77532208 30.8674741,11.0911308 30.253982,12.1350267 C30.2063826,12.2162504 30.1639849,12.2886132 30.1265924,12.3531983 C30.1150115,12.352706 30.1038232,12.3519184 30.0922423,12.3516231 C30.0204016,12.3493586 29.9504256,12.3482757 29.8827069,12.3482757 C29.8571898,12.3482757 29.8322614,12.3484726 29.8074312,12.3484726 C30.734294,10.2252377 32.22332,8.53066667 33.3171241,7.47790999 C33.6366778,7.16994937 33.9580962,6.88295921 34.2762759,6.62196062 C34.3649972,6.53709423 34.4324214,6.46837412 34.4852224,6.40851477 C34.5006308,6.3908917 34.515156,6.37385935 34.528209,6.35771308 C34.9015451,5.85550492 35.274783,5.35014627 35.6470396,4.84321238 L35.7730552,4.68283263 C35.906726,4.51309986 36.0715081,4.31963994 36.2190171,4.16979466 C36.3162769,4.07075105 36.406274,3.99031505 36.4742871,3.94965401 C36.4956823,3.97800844 36.5378838,4.05273418 36.5905866,4.24146835 C36.5920588,4.24954149 36.5935309,4.25741772 36.5942179,4.25790999 C37.0779649,6.45439381 36.6341621,8.57162307 35.274783,10.5507229 C34.2769629,12.0030014 33.0960078,12.8894712 32.8594831,13.0595977 C32.7867591,13.0251392 32.7170776,12.9937328 32.6490645,12.9633108 Z M18.9488866,31.7339437 C19.0961993,31.3030155 19.3815992,30.3317778 19.6309807,29.4146892 C19.7861448,28.8491758 19.9501418,28.2306948 20.1146295,27.5988242 C20.1148258,27.5986273 20.1148258,27.5984304 20.1148258,27.5984304 C20.5344854,25.986166 20.9578744,24.2868692 21.2510276,23.1436343 C21.2682027,23.266602 21.2887146,23.3878959 21.313054,23.5070239 L21.3609478,23.5076146 L21.436518,23.5086976 C21.4429954,23.4804416 21.4490803,23.4532686 21.4542818,23.4269817 L21.6136661,22.7035499 L21.6136661,22.6965598 C21.6079738,21.3918622 22.0352886,20.0130295 22.8817722,18.5936343 C22.955772,18.469879 23.0316366,18.3456315 23.1120157,18.2211871 L23.1240873,18.2020872 L23.0421379,17.4654627 L23.0053343,17.4518762 C15.4946446,14.6717637 14.2157428,11.848135 13.7948074,10.9198228 C13.5206939,10.3276287 12.9799258,9.63333896 12.8703982,9.49570183 C12.8439977,9.4621294 12.8118068,9.43219972 12.776279,9.40738959 C12.4671285,9.19118706 12.1584687,8.97409845 11.8498088,8.7573052 C11.7400849,8.6802166 11.630361,8.6035218 11.5208334,8.52643319 C12.1359939,8.46696765 12.751547,8.4363488 13.3491399,8.4363488 C20.1302342,8.4363488 24.0499686,12.2463769 25.5942492,14.1661097 C25.6096576,14.1668973 25.6252624,14.1679803 25.6417504,14.1690633 C25.6509759,14.1697525 25.660692,14.1703432 25.6702119,14.1711308 C25.6748246,14.1714262 25.6794373,14.17182 25.6842463,14.1720169 C26.2280569,14.2134655 27.1967286,14.3657722 27.7384781,14.5919184 L27.7396558,14.5889648 L27.7429926,14.5802025 C27.2280362,14.2506807 27.0334186,14.2019466 26.5209157,13.8708495 C27.2633677,13.7010183 28.2047556,13.5283319 28.9438707,13.3569255 L29.023661,13.342256 L29.0589925,13.3356596 C29.0662551,13.3339859 29.1456528,13.32227 29.2807958,13.3101603 C29.414074,13.2978537 29.6247871,13.2829873 29.8755425,13.2823966 L29.8934045,13.2823966 C30.3531065,13.2823966 30.7836599,13.3284726 31.1739748,13.4197384 C31.1941922,13.4242672 33.1941509,13.8708495 35.5635198,16.0098368 C35.4113,16.4914684 35.0960646,17.4833812 35.0960646,17.4833812 L35.3885308,17.8913699 C37.0192754,20.1625795 38.8229479,22.600962 40.9022061,25.3462222 L40.839002,25.5339719 C40.8075963,25.5438172 40.773835,25.5544501 40.7388961,25.5649845 C40.2849846,25.7051814 39.5607872,25.9110464 39.1317059,25.9418622 C39.1243452,25.9424529 39.1176715,25.9424529 39.110507,25.9424529 C38.8716269,25.9424529 38.8632847,25.902481 38.4515747,25.6714121 C38.3084822,25.5909761 38.1603844,25.5080788 38.0227878,25.4365035 L37.6813482,25.2449142 L34.0023587,21.0926639 L34.018356,21.3198931 C34.018356,21.3198931 34.1017776,21.4371505 34.1433902,21.49573 C34.4503816,21.927052 34.7506993,22.3447876 35.064757,22.7831983 L35.068879,22.7808354 C35.4913847,23.4018762 36.4146162,24.6277131 36.8683314,25.2857722 L38.0519363,27.2747173 L39.99085,28.0203994 C39.8169405,28.542692 39.7316542,28.884225 39.5582355,29.4096681 L38.3999515,30.1461941 C38.2585274,30.2398228 38.1137664,30.3240985 37.965963,30.3985288 C37.2136967,30.7211589 37.1839594,30.6956596 37.1839594,30.6956596 C37.0653044,30.7266723 36.9971932,30.7351392 36.8752995,30.7553221 L36.8294668,30.7202729 L34.4229997,28.9330577 L33.5324499,28.2508776 L33.3555961,28.115308 C33.2383152,28.2387679 33.1295727,28.3479522 33.028878,28.4454205 C32.9910929,28.4821435 32.954093,28.5173896 32.9185652,28.5505682 C32.9083584,28.6939156 32.9080639,28.8238734 32.9091435,28.8978115 C32.9088491,28.8974177 32.9084565,28.8971224 32.9081621,28.8969255 C32.9084565,28.899879 32.9089472,28.9028326 32.9092416,28.9058847 C32.9099286,28.9402447 32.9106156,28.9619044 32.9106156,28.9619044 C31.6632178,28.1450408 29.2492918,27.0084023 29.2492918,27.0084023 C29.1406475,26.5725513 29.3469442,26.1473333 29.4318379,25.9980788 C29.415448,25.9770098 29.3981748,25.9558425 29.3828645,25.9356596 L29.3197585,25.8044219 C29.2430107,25.9162644 28.4572776,27.0087961 27.2860387,27.4624669 C26.9750235,27.5830717 26.637117,27.6590774 26.2776191,27.6590774 C26.1273621,27.6590774 25.9730813,27.648346 25.8152673,27.6272771 C24.2561671,27.5168129 23.1798326,26.4738031 22.6718442,25.8532546 C22.6718442,25.8532546 22.6641891,25.8444923 22.6620299,25.8415387 L22.6547674,25.8343516 C22.6452475,25.8237187 22.5740938,25.7427904 22.4733009,25.5972771 C22.44111,25.5542532 22.4128448,25.5130014 22.3890942,25.4779522 C22.3653436,25.4436906 22.3647547,25.442706 22.347776,25.4161238 L22.2950732,25.4403432 C22.2416834,25.3467145 22.1718055,25.221384 22.1229303,25.1211589 L22.0975112,25.139865 C22.1265616,25.3386414 22.1570841,25.5359409 22.1861344,25.7358003 C22.1861344,25.735308 22.219503,25.8096399 22.2961527,25.9312293 C22.3534683,26.0221013 22.4343381,26.1386695 22.5472026,26.2742391 C22.8918809,26.7114684 23.2475512,27.1188664 23.7690833,27.4123544 C23.8159957,27.4389367 23.8624173,27.4657159 23.9112925,27.4907229 L23.919144,27.4945626 L23.9910828,27.5323685 L23.9981491,27.5353221 C25.0284546,28.0097665 25.1220831,28.052692 26.7055227,28.3175302 L26.6063982,28.7242391 L28.2432277,28.3449001 L29.5393045,28.0444219 L29.3438036,28.4878537 L29.328297,28.5230999 C29.328297,28.5230999 29.5140817,28.5288101 29.8089034,28.5766582 C29.8490439,28.5830577 29.890951,28.5904416 29.934919,28.5985148 C30.3720481,28.679443 30.9899566,28.846616 31.6013877,29.1900197 C31.6257271,29.2004557 31.648987,29.2110886 31.6726395,29.2217215 C31.8698088,29.3102307 32.0404796,29.4049423 32.1821981,29.5060534 C32.3135135,29.9110886 32.4557227,30.3755893 32.462102,30.4003994 L32.5796774,30.9362785 L32.776356,31.03227 C32.7979474,31.0430999 34.9368766,31.7851392 36.4372872,31.7851392 C36.5309157,31.7851392 36.6207165,31.7807089 36.7053158,31.7724388 C36.8498805,31.7581632 37.0087741,31.7284304 37.1770894,31.6840281 C37.4832956,31.6035921 37.8246371,31.4731421 38.1968936,31.2954346 C38.428413,31.1849705 38.6716114,31.0562925 38.9262925,30.9091055 C40.5230796,31.897474 42.0147555,32.811609 43.4404793,33.6753361 C44.1551568,34.1084304 44.8543277,34.5295134 45.5395623,34.9396681 L45.5665517,34.9556174 L45.9101504,34.818571 L45.8252567,34.7502447 C45.0704387,34.14791 44.3031565,33.5319887 43.5438239,32.9193165 C42.6448337,32.1995274 41.7254298,31.4589648 40.8008244,30.7096399 C40.5703846,30.5226779 40.3396503,30.3356174 40.1087197,30.1478678 C40.1708443,30.1034655 40.2219768,30.0667426 40.2583879,30.0397665 C40.6951243,29.8654065 41.1325478,29.691834 41.5715416,29.5190492 L41.6079526,29.5045767 L41.6109951,29.465097 C41.7085492,28.2075584 41.8159177,26.8727342 41.9379095,25.3847173 L41.956066,25.1332686 L41.9331986,25.1062925 C39.5644185,22.2689789 37.5781999,19.843789 35.7687369,17.5564332 C36.082402,16.9982053 36.3956746,16.4384023 36.7084564,15.8775162 L36.7325014,15.8341969 L36.4640803,15.5816653 C35.252112,14.4366582 34.6974076,14.1301744 33.9382713,13.7277975 C34.3384986,13.3851814 35.5011009,12.2691195 36.242277,10.8673474 C37.4498288,8.58166526 37.6053855,6.56101828 37.0836572,4.15020253 C36.8943393,3.33668636 36.7073768,2.85170745 36.5893108,2.86558931 C36.5893108,2.86558931 36.5633029,2.85869761 36.5247327,2.89414065 C36.141386,3.37882419 35.7566653,3.86242475 35.3690004,4.34858509 C34.989972,4.90080731 34.6111399,5.45115893 34.2314245,5.99895077 C33.9073562,6.24163713 32.9962945,6.92844444 31.9265355,8.10269198 L32.0067184,7.59930239 L30.872185,9.366827 C30.2089344,10.2395134 29.578071,11.2518059 29.1153266,12.3763347 L28.7935156,12.436391 L28.7689799,12.4413136 L28.2912196,12.5517778 L28.5669034,12.7868833 C28.1822808,12.7795977 27.3688714,12.7630577 27.3688714,12.7630577 L27.2207736,13.1540141 C26.8008196,13.1332405 26.0218584,12.9353502 26.0218584,12.9353502 L25.9224395,13.2241125 C25.293539,12.4998931 24.2176951,11.3155049 22.7162049,10.3108917 C22.4958738,10.1645907 22.2717151,10.0275443 22.045888,9.89482982 L22.0484397,9.8959128 L21.8217293,9.76290295 L19.2721698,8.26966807 L19.3094641,8.63630661 C17.3850756,7.97568776 15.3094487,7.68091983 13.1123207,7.68091983 C12.1510098,7.68091983 11.2743963,7.69086357 10.2654859,7.82761463 C10.0715553,7.85380309 9.81216328,7.88688326 9.76142334,8.07935865 C9.71117411,8.26947117 9.78360366,8.47149648 9.94112322,8.58225598 C10.6866177,9.10681294 11.4332898,9.62959775 12.1802564,10.1501181 C12.3474921,10.3652377 12.7428122,10.8941266 12.9439073,11.3276146 C13.7203168,13.027699 15.3996422,15.8061378 22.0195857,18.3439578 C21.5570376,19.463564 21.3733138,20.2954909 21.2568181,21.2334515 C21.0897786,20.9570942 20.9156729,20.6703994 20.8119357,20.4887539 C20.8277367,20.4764473 20.1857832,23.3644641 19.6267605,26.3976006 L9.87085281,33.6172489 C10.0797993,33.6156737 10.2885495,33.6143938 10.4976923,33.6127201 C10.698493,33.5031421 11.045036,33.3077131 11.4674436,33.0675865 C12.7916875,32.3140281 14.8679032,31.1139859 15.5905303,30.6890633 C15.5887638,30.689654 15.9113599,30.0173193 15.8866279,30.7896821 C17.0110525,30.1030717 18.1226205,29.4200056 19.2210372,28.742256 C19.097377,29.5181632 18.993051,30.2538031 18.9221917,30.8975865 C18.8959875,31.1352518 18.8433829,31.5511167 18.8268948,31.7611167 L18.9488866,31.7339437 Z" id="Fill-52" fill="#003CA0"></path>
            <path d="M30.1658496,19.1424698 C30.091359,19.2648467 30.0054839,19.3962813 29.7652297,19.3764923 C29.9049854,19.2883769 29.8846698,19.0849733 29.927362,18.9273502 C30.1474968,19.0295443 30.1658496,19.1424698 30.1658496,19.1424698 Z M29.4180978,16.9538622 L29.6951556,17.749263 L29.2095439,17.3273924 C28.4995772,16.752526 27.6652634,16.2841857 26.7276049,15.940782 C26.4426957,15.9620478 26.1978288,15.9930605 26.0321634,16.0172799 C26.5005019,16.2334824 26.9329201,16.501865 27.3067469,16.8415274 C27.5787012,17.0889395 28.1673631,17.6927511 27.7918679,18.0269986 C27.6388629,18.1049733 27.537383,18.0637215 27.4402214,18.0142982 L27.3949775,18.0597834 C27.4384548,18.1038903 27.5606429,18.1763516 27.6092237,18.2114008 C27.875682,18.4063376 28.1688352,18.6863376 28.4009435,18.9330605 C28.3670842,18.6019634 28.5797601,18.4467032 28.8402317,18.3246217 C28.7313911,18.1031027 28.5615055,17.9637918 28.4022194,17.8093193 C28.6855583,17.9117103 29.019539,18.1904304 29.281679,18.4146076 C29.1241595,18.5067595 29.010608,18.5265485 28.9253217,18.6327792 C28.2241879,19.4997553 30.1852819,20.3422166 30.466658,19.2336371 C30.6184852,19.2760703 30.7734531,19.3158453 30.9370575,19.3432152 C30.8950523,19.4107539 30.6744268,19.4693333 30.5913977,19.4336934 C30.6719732,20.2623713 29.7212617,20.6402335 28.8718338,20.5822447 L28.8909716,20.6262532 C29.6301849,20.9454374 30.9477551,20.3416259 31.4755683,19.8123432 C31.5603639,19.7273783 31.6394671,19.5579409 31.7445783,19.5117665 C31.8098434,19.4831167 31.9959226,19.5735949 32.125177,19.6186864 C32.4286352,19.4581097 33.4095748,18.9379831 34.0566318,18.5735105 L33.7724096,18.5852264 C32.9051196,18.810782 31.8881616,18.900571 31.2532743,18.7230605 C30.5459575,18.479685 29.5793468,17.1652405 29.4290899,16.9564219 L29.4180978,16.9538622 Z" id="Fill-54" fill="#003CA0"></path>
            <path d="M7.2720745,45.4334262 C6.656914,42.630571 6.03939807,39.7408805 5.41785828,36.7504726 L1.50479761,36.7504726 L1.50479761,60.1770408 C2.79115827,59.5527511 4.08674439,58.9856624 5.38880794,58.4713446 C5.40068325,55.4816259 5.41255855,52.4910211 5.42394314,49.5014008 C6.04911423,52.3446217 6.67094846,55.0914571 7.29150682,57.7591364 C8.5728622,57.304481 9.85961544,56.8992489 11.1512758,56.5388129 C11.1969123,49.9394177 11.2424507,43.343173 11.2880872,36.7504726 L7.31800544,36.7504726 C7.30289142,39.6441997 7.28748296,42.5379269 7.2720745,45.4334262" id="Fill-56" fill="#003CA0"></path>
            <path d="M18.3120169,51.7384473 C18.1782479,51.8510774 18.0439883,51.964692 17.9106119,52.0785035 C17.7585883,52.0995724 17.6059759,52.1201491 17.454345,52.1421041 C17.3126264,52.0655077 17.1704172,51.9899944 17.0279135,51.9136934 C17.0546084,47.9569705 17.0810089,44.0004444 17.1077038,40.0453952 C17.2503056,39.9445795 17.392613,39.8436653 17.535313,39.7434402 C17.6868458,39.7394037 17.8383786,39.7348748 17.989617,39.7308383 C18.1214231,39.8240731 18.2531311,39.9156343 18.3854279,40.0075893 C18.3606958,43.9175471 18.3365526,47.8276034 18.3120169,51.7384473 Z M14.5489188,36.7504726 C13.9875406,37.2470689 13.4262607,37.7527229 12.8649807,38.2710774 C12.8260179,43.7106976 12.7870551,49.1526807 12.7480923,54.5972236 C13.3021097,54.9760703 13.8575011,55.3517665 14.4130888,55.7253952 C16.5558455,55.2534121 18.7089073,54.8975049 20.8670725,54.6502897 C21.4422888,54.1155921 22.0178976,53.5938903 22.5928195,53.0833136 C22.6131351,48.1019916 22.6334507,43.1224416 22.6537663,38.1423994 C22.0879717,37.6820338 21.5224716,37.2183207 20.9576585,36.7504726 L14.5489188,36.7504726 Z" id="Fill-58" fill="#003CA0"></path>
            <path d="M29.3847292,43.8154416 C29.0906927,43.8134726 28.7953803,43.812685 28.5012457,43.812685 C28.5012457,42.4066793 28.5008531,41.0004768 28.5008531,39.5946681 C28.794497,39.5946681 29.0882391,39.5946681 29.3816868,39.5957511 C29.5143762,39.6875091 29.6471637,39.7794641 29.7800493,39.871616 C29.7814233,41.0954838 29.7822085,42.3192532 29.7835825,43.5429241 C29.6508931,43.6338945 29.5180075,43.7247665 29.3847292,43.8154416 M34.0682127,46.2376779 C33.6962506,45.9337539 33.3238959,45.6331772 32.9528171,45.3350619 C33.3223256,45.0712082 33.6922267,44.8062714 34.0613426,44.5417286 C34.0530986,42.408353 34.0445602,40.2747806 34.0361199,38.1412082 C33.4668903,37.6739508 32.8974645,37.2105331 32.3289219,36.7504627 L24.2469417,36.7504627 C24.229276,42.6173685 24.2113158,48.4853572 24.1935519,54.3534444 C25.6286974,54.262474 27.065315,54.2178748 28.5017364,54.2195485 C28.5017364,51.6990563 28.5012457,49.1783671 28.5012457,46.6578748 C28.7966562,46.6578748 29.0913797,46.6590563 29.3867902,46.6614191 C29.5205592,46.7542602 29.6529541,46.8473966 29.7871156,46.9398439 C29.7895692,49.3710394 29.7916302,51.8018411 29.7945745,54.2338242 C31.231094,54.2626709 32.6668284,54.3382827 34.1007961,54.4607581 C34.0901967,51.7196329 34.0790084,48.9785077 34.0682127,46.2376779" id="Fill-60" fill="#003CA0"></path>
            <path d="M34.7626629,36.7504332 C34.7668831,37.7161575 34.7714958,38.681685 34.7758141,39.6476062 C35.6755894,39.6618819 36.5744814,39.6804895 37.4736678,39.7015584 C37.503994,44.7597722 37.5337313,49.8184782 37.5640575,54.8788579 C38.9941977,55.0831477 40.4217862,55.3355809 41.8445657,55.639308 C41.8067806,50.3660731 41.7696825,45.0938228 41.7320938,39.8253136 C42.6309858,39.8561294 43.5287,39.8905879 44.4271013,39.9287876 C44.4196424,38.8692377 44.4115947,37.8093924 44.4043321,36.7504332 L34.7626629,36.7504332 Z" id="Fill-62" fill="#003CA0"></path>
            <path d="M50.8757558,36.7504332 C50.8869441,39.5494487 50.8988194,42.3495471 50.9101059,45.1498425 C50.4787673,45.0846667 50.0455639,45.0220506 49.612655,44.961699 C49.5986206,42.2236259 49.5849787,39.4862419 49.5713368,36.7504332 L45.3456906,36.7504332 C45.391229,43.3452011 45.4371599,49.9438087 45.482502,56.5470436 C46.8876157,56.9395752 48.2867427,57.3858622 49.6787053,57.8893502 C49.6625117,54.7274374 49.6468088,51.5654262 49.6302226,48.4040056 C50.0630334,48.4902504 50.4937831,48.5796456 50.9252199,48.6708129 C50.9387636,51.9049902 50.9519148,55.1389705 50.9652623,58.373443 C52.3523177,58.9132602 53.7317179,59.5130352 55.1010095,60.1770014 L55.1010095,36.7504332 L50.8757558,36.7504332 Z" id="Fill-64" fill="#003CA0"></path>
            <path d="M6.64382172,32.2009747 C5.75062203,29.5393994 5.56473913,27.3970647 5.45521151,26.2094276 C5.22850112,26.1900323 5.0035573,26.1709325 4.78077262,26.1518326 C4.99452814,26.0666709 5.43028318,25.8837454 5.42989061,25.8785274 C8.90906095,24.5011716 13.2294152,23.0690759 17.5489843,21.9143221 C17.6877585,21.720173 17.8286919,21.5313404 17.9717844,21.3487103 C13.1011423,22.319948 8.07906537,23.5953066 4.14284294,24.8724374 C3.75517798,25.5395541 3.40127422,26.2063755 3.06366221,26.8661083 C3.06366221,26.8661083 3.06788236,29.6319451 4.46867779,34.0625218 C5.23615627,33.4385274 5.94052879,32.8253629 6.64382172,32.2009747" id="Fill-66" fill="#003CA0"></path>
            <path d="M14.8065638,11.4354501 C19.5338191,16.2646624 22.1535509,16.590443 23.3136015,16.3823136 C23.0203501,16.1859001 22.3207866,15.8798101 22.0276334,15.6827075 C22.3225532,15.6833966 22.6170804,15.6837904 22.9115095,15.6841842 C22.7655708,15.520654 22.6199266,15.3573207 22.4738898,15.1931997 C22.8606714,15.2968706 23.247355,15.4000492 23.6336459,15.5032278 C22.9745173,14.7316526 22.0741532,14.0858017 21.0992004,13.5510056 L18.1866097,12.5126231 L18.5281475,12.4130872 C16.7584324,11.7769831 15.294531,11.4756188 14.9245318,11.4061111 L14.8065638,11.4354501 Z" id="Fill-68" fill="#003CA0"></path>
            <path d="M28.9558344,66.9350928 L28.4159496,67.3145302 L24.1897145,63.4082152 L21.5231684,63.4067384 C24.6262547,66.4731519 27.017804,68.4243896 27.1734588,68.5439114 L28.9084313,68.545782 L34.7183023,63.4037848 L33.743055,63.4037848 L28.9558344,66.9350928 Z" id="Fill-70" fill="#003CA0"></path>
        </g>
    </g>
</svg>