<?xml version="1.0" encoding="UTF-8"?>
<svg width="500px" height="500px" viewBox="0 0 500 500" version="1.1" xmlns="http://www.w3.org/2000/svg" xmlns:xlink="http://www.w3.org/1999/xlink">
    <!-- Generator: Sketch 60.1 (88133) - https://sketch.com -->
    <title>Logo/AFL/Normal/port_adelaide_full_square</title>
    <desc>Created with Sketch.</desc>
    <g id="Logo/AFL/Normal/port_adelaide_full_square" stroke="none" stroke-width="1" fill="none" fill-rule="evenodd">
        <g transform="translate(65.000000, 0.000000)" fill-rule="nonzero">
            <path d="M-2.84217094e-14,-5.68434189e-14 L-2.84217094e-14,327.287008 C-2.84217094e-14,347.274708 9.50295648,366.410291 25.4338387,378.469598 L185.187243,499.544303 L344.940648,378.469598 C360.87153,366.391766 370.374487,347.256183 370.374487,327.287008 L370.374487,-5.68434189e-14 L-2.84217094e-14,-5.68434189e-14 Z" id="Path" fill="#008AAB"></path>
            <path d="M10.6514619,10.6514619 L10.6514619,327.287008 C10.6514619,343.958861 18.5798545,359.926792 31.8617644,369.985477 L185.187243,486.188296 L338.512722,369.985477 C351.794632,359.908268 359.723025,343.958861 359.723025,327.287008 L359.723025,10.6514619 L10.6514619,10.6514619 Z" id="Path" fill="#FFFFFF"></path>
            <rect id="Rectangle" fill="#000105" x="27.7864224" y="27.7864224" width="314.801642" height="298.759614"></rect>
            <polygon id="Path" fill="#000105" points="293.721009 382.41527 261.803672 406.607982 261.803672 340.883831 293.721009 340.883831"></polygon>
            <polygon id="Path" fill="#000105" points="247.447354 417.500259 215.511492 441.692971 215.511492 340.883831 247.447354 340.883831"></polygon>
            <polygon id="Path" fill="#000105" points="154.881519 441.692971 122.945657 417.500259 122.945657 340.883831 154.881519 340.883831"></polygon>
            <polygon id="Path" fill="#000105" points="108.589339 406.607982 76.6720017 382.41527 76.6720017 340.883831 108.589339 340.883831"></polygon>
            <path d="M30.453919,340.883831 L62.3156834,340.883831 L62.3156834,371.522992 L42.2168378,356.314557 C36.900369,352.294788 32.8805999,346.922746 30.453919,340.883831 Z" id="Path" fill="#000105"></path>
            <polygon id="Path" fill="#000105" points="185.187243 464.66308 169.237837 452.566724 169.237837 340.883831 201.155174 340.883831 201.155174 452.566724"></polygon>
            <path d="M328.157649,356.314557 L308.077328,371.541517 L308.077328,340.902355 L339.939092,340.902355 C337.512411,346.922746 333.492642,352.294788 328.157649,356.314557 Z" id="Path" fill="#000105"></path>
            <g id="Group" transform="translate(106.885105, 72.893048)" fill="#FFFFFF">
                <g transform="translate(66.687414, 183.390388)">
                    <path d="M3.61223492,5.63138162 L1.50046681,6.09448866 C1.27817543,6.1500615 1.03735977,6.00186725 1.01883549,5.77957587 L0.870641237,4.59402184 C0.852116955,4.40877903 0.889165518,4.26058477 0.981786926,4.16796337 L4.44582759,1.25965115 L6.13153722,1.25965115 C6.37235288,1.25965115 6.5575957,1.48194253 6.5575957,1.72275819 L6.5575957,17.1905334 C6.5575957,17.431349 6.37235288,17.6536404 6.13153722,17.6536404 L4.05681768,17.6536404 C3.79747773,17.6536404 3.59371064,17.431349 3.59371064,17.1905334 L3.59371064,5.63138162 L3.61223492,5.63138162 Z" id="Path"></path>
                    <path d="M12.3742201,9.22509225 L12.3742201,9.15099512 C11.3924332,8.61379096 9.89196639,7.29856696 9.89196639,5.40909024 C9.89196639,2.74159368 12.2075016,1.00031121 15.1158138,1.00031121 C18.1167474,1.00031121 20.4322826,2.74159368 20.4322826,5.40909024 C20.4322826,7.24299412 18.9318158,8.53969383 17.9500289,9.11394656 L17.9500289,9.20656797 C19.0244372,9.76229642 20.8583411,11.1516175 20.8583411,13.2263371 C20.8583411,15.8567851 18.6354273,17.8574075 15.0972895,17.8574075 C11.6517731,17.8574075 9.42885935,15.8567851 9.42885935,13.2263371 C9.44738363,11.1516175 11.6888217,9.55852932 12.3742201,9.22509225 Z M15.1713867,15.4122023 C16.5051349,15.4122023 17.6721647,14.5230368 17.6721647,13.1892885 C17.6721647,12.1148802 16.7829992,11.0034233 15.1713867,10.6329377 C13.5597742,10.984899 12.6706086,12.0963559 12.6706086,13.1892885 C12.6520844,14.5230368 13.8561627,15.4122023 15.1713867,15.4122023 Z M17.3572519,5.53876021 C17.3572519,4.39025475 16.375465,3.50108923 15.1158138,3.50108923 C13.9673083,3.50108923 12.9669971,4.39025475 12.9669971,5.53876021 C12.9669971,6.61316854 13.6338713,7.4652855 15.1528624,7.83577113 C16.6533292,7.48380978 17.3572519,6.57611998 17.3572519,5.53876021 Z" id="Shape"></path>
                    <path d="M23.3591191,16.8941448 L29.6203263,3.8345263 L23.2664977,3.8345263 C23.0256821,3.8345263 22.8033907,3.61223492 22.8033907,3.37141926 L22.8033907,1.68570963 C22.8033907,1.44489397 23.0256821,1.22260259 23.2664977,1.22260259 L33.2881341,1.22260259 C33.5289497,1.22260259 33.7512411,1.44489397 33.7512411,1.68570963 L33.7512411,1.85242816 L26.5823441,16.9497177 C26.4156256,17.3387276 26.1748099,17.5980675 25.7672757,17.5980675 L23.9889447,17.5980675 C23.6925562,17.5980675 23.3776434,17.5239704 23.3776434,17.1349605 L23.3776434,16.8941448 L23.3591191,16.8941448 Z" id="Path"></path>
                    <path d="M34.140251,9.42885935 C34.140251,4.14943908 36.3631648,1.00031121 40.2162154,1.00031121 C44.069266,1.00031121 46.2921798,4.14943908 46.2921798,9.42885935 C46.2921798,14.7082796 44.069266,17.8574075 40.2162154,17.8574075 C36.3631648,17.8574075 34.140251,14.7082796 34.140251,9.42885935 Z M43.1245276,9.42885935 C43.1245276,5.87219728 42.0686436,3.8345263 40.2162154,3.8345263 C38.3637873,3.8345263 37.3079032,5.85367299 37.3079032,9.42885935 C37.3079032,13.02257 38.3637873,15.0231924 40.2162154,15.0231924 C42.0686436,15.0231924 43.1245276,13.02257 43.1245276,9.42885935 Z" id="Shape"></path>
                </g>
                <path d="M93.4179523,1.74128247 L0.981786926,1.74128247 L0.981786926,21.6734095 L13.5597742,21.6734095 L13.5597742,135.560693 L0.981786926,135.560693 L0.981786926,155.474296 L26.0821885,155.474296 L33.4919012,135.560693 L33.4919012,135.560693 L33.4919012,107.311163 L93.8810593,107.311163 L86.4713466,87.3975607 L33.4919012,87.3975607 L33.4919012,21.6734095 L93.4179523,21.6734095 C111.5347,21.6734095 126.298552,36.4187377 126.298552,54.5540094 C126.298552,60.1112939 124.909231,65.3351413 122.464026,69.9291631 L130.651758,91.9360097 C140.247336,82.3774804 146.212155,69.1511433 146.212155,54.5540094 C146.212155,25.4338387 122.519599,1.74128247 93.4179523,1.74128247 Z" id="Path"></path>
                <polygon id="Path" points="153.862683 182.853184 99.5309652 36.8262719 80.8584893 36.8262719 65.7426755 77.4500215 86.9900265 77.4500215 90.1947272 68.8547548 117.351324 141.8219 63.0381304 141.8219 72.1706012 117.277227 50.9232502 117.277227 26.5267713 182.853184 13.7264927 182.853184 13.7264927 202.766787 60.6670223 202.766787 60.6670223 182.853184 47.7741223 182.853184 55.6284177 161.735503 124.761037 161.735503 132.615332 182.853184 119.722432 182.853184 119.722432 202.766787 166.662962 202.766787 166.662962 182.853184"></polygon>
            </g>
        </g>
    </g>
</svg>