<?xml version="1.0" encoding="UTF-8"?>
<svg width="80px" height="80px" viewBox="0 0 80 80" version="1.1" xmlns="http://www.w3.org/2000/svg" xmlns:xlink="http://www.w3.org/1999/xlink">
    <!-- Generator: Sketch 52.5 (67469) - http://www.bohemiancoding.com/sketch -->
    <title>Assets/Logos/Clubs/Reverse/Richmond</title>
    <desc>Created with Sketch.</desc>
    <g id="Assets/Logos/Clubs/Reverse/Richmond" stroke="none" stroke-width="1" fill="none" fill-rule="evenodd">
        <g id="Page-1" transform="translate(16.000000, 7.000000)">
            <g id="Group-96" transform="translate(0.423841, 0.430526)">
                <path d="M45.210596,9.87442105 L45.133245,9.55021053 L44.8339073,9.40021053 C44.6876821,9.32705263 42.3957616,8.21705263 36.8153642,7.40810526 C37.3239735,6.51021053 37.6625166,5.40968421 37.8394702,4.07494737 C37.917351,3.48178947 37.7917881,2.99442105 37.4659603,2.62389474 C37.0977483,2.20705263 36.5059603,1.99442105 35.7075497,1.99389474 C33.3192053,1.99178947 31.9019868,1.85915789 30.1886093,1.61494737 C28.8725828,0.839157895 27.4225166,0.446 25.8754967,0.446 C24.7888742,0.446 23.9459603,0.648105263 23.5597351,0.761263158 C22.7581457,0.565473684 21.9189404,0.466526316 21.0611921,0.466526316 C18.6029139,0.466526316 16.6580132,1.26968421 16.0937748,1.52968421 C16.0333775,1.53021053 15.9724503,1.53021053 15.912053,1.53021053 C14.1552318,1.53021053 12.3210596,1.42126316 11.1337748,1.24705263 C11.0468874,1.23389474 10.9637086,1.22021053 10.8847682,1.20705263 C10.5181457,1.14652632 10.2013245,1.09336842 9.84900662,1.09336842 C9.68370861,1.09336842 9.52317881,1.10547368 9.35523179,1.12915789 C9.10463576,1.166 8.6384106,1.32442105 8.34119205,1.97336842 C7.85059603,3.04810526 7.98940397,5.30021053 8.97112583,6.82336842 C9.09403974,7.03073684 9.26304636,7.26494737 9.45218543,7.50126316 C4.3210596,8.29968421 2.19496689,9.32968421 2.05403974,9.40021053 L1.75470199,9.55021053 L1.67735099,9.87442105 C-0.119205298,17.4233684 0.264370861,24.9344211 2.78622517,31.5970526 C5.16238411,37.8744211 9.35788079,43.286 14.9202649,47.2486316 C18.173245,49.6844211 20.890596,51.1523158 23.1205298,52.2670526 L23.44,52.4270526 L23.7615894,52.2702105 C26.7745695,50.8012632 29.2291391,49.2991579 31.9682119,47.2486316 C37.5300662,43.286 41.7255629,37.8744211 44.1017219,31.5970526 C46.6235762,24.9344211 47.0071523,17.4233684 45.210596,9.87442105" id="Fill-8" fill="#FFFFFF"></path>
                <path d="M31.9655629,25.7648421 C31.9666225,25.7643158 31.9682119,25.7643158 31.9655629,25.7648421" id="Fill-10" fill="#000000"></path>
                <path d="M36.4243709,30.862 C37.2736424,31.7556842 38.0969536,32.9098947 38.5716556,34.4304211 C38.6013245,34.5262105 38.6760265,34.8177895 38.7327152,35.1156842 C39.1655629,33.9604211 39.5316556,32.7846316 39.8362914,31.5935789 C39.2148344,30.7393684 38.1992053,29.8835789 37.5475497,29.2962105 C36.0349669,27.9325263 34.7623841,26.6662105 34.6813245,24.5967368 C34.6712583,24.3541053 34.6352318,23.9225263 34.624106,23.7867368 C34.9393377,23.4556842 35.1480795,23.2041053 35.3594702,22.8925263 C35.6619868,23.2546316 35.9719205,23.5367368 36.1631788,23.7267368 C37.2402649,24.7988421 37.5745695,25.8751579 38.3184106,27.1725263 C38.7078146,27.8498947 39.4781457,28.8567368 40.2680795,29.6972632 C40.3835762,29.1183158 40.4847682,28.5367368 40.5737748,27.9525263 C39.5549669,27.0009474 38.2749669,25.3604211 37.7923179,24.4330526 C38.7480795,25.2809474 39.845298,26.1998947 40.7486093,26.6562105 C40.9462252,24.9841053 41.0394702,23.2972632 41.0394702,21.6114737 C41.0394702,18.0135789 40.738543,13.6851579 39.7197351,8.64936842 C38.5647682,8.412 37.1793377,8.17568421 35.5390728,7.96726316 C36.1965563,7.23515789 36.8487417,6.06673684 37.125298,3.98147368 C37.2455629,3.07147368 36.6898013,2.71042105 35.7070199,2.70936842 C33.3001325,2.70673684 31.8537748,2.57884211 29.9411921,2.30252632 C26.7369536,0.338315789 23.581457,1.50568421 23.581457,1.50568421 C19.7181457,0.472 16.2596026,2.24357895 16.2596026,2.24357895 C14.4566887,2.25884211 12.4090066,2.15726316 11.0198675,1.95357895 C10.3862252,1.85305263 9.98940397,1.76094737 9.45960265,1.83673684 C8.57006623,1.96673684 8.50490066,4.78673684 9.58516556,6.44936842 C9.81721854,6.84726316 10.335894,7.47305263 10.8762914,8.02357895 C9.42516556,8.21778947 8.18331126,8.43357895 7.13271523,8.64936842 C6.11390728,13.6851579 5.81245033,18.0135789 5.81245033,21.6114737 C5.81245033,27.8514737 7.08980132,34.0967368 10.2103311,39.6025263 C9.96821192,37.1872632 10.0370861,34.7993684 10.2829139,32.9667368 C10.5313907,31.1093684 10.9356291,29.5588421 11.3086093,28.3588421 C11.3086093,28.3588421 10.8837086,29.022 10.5313907,29.6525263 C11.0415894,27.7867368 12.0068874,26.0314737 12.7099338,24.8014737 C13.1194702,25.4404211 13.68,26.132 14.3698013,26.6962105 C13.2503311,28.8630526 12.1207947,32.4614737 12.1700662,34.872 C12.3602649,34.1146316 12.6129801,33.5604211 12.6129801,33.5604211 C12.2988079,37.0114737 13.3774834,41.8088421 15.0606623,44.7109474 C15.8908609,46.1762105 16.8312583,47.4546316 18.0969536,48.5967368 C18.4190728,48.8062105 18.735894,49.0072632 19.0495364,49.2004211 C17.6625166,45.2277895 18.2166887,43.0588421 20.4609272,37.6651579 C18.8227815,39.292 17.5528477,39.9767368 16.7788079,42.5977895 C16.8180132,41.9535789 16.9377483,41.3483158 17.0701987,41.0330526 C16.1711258,39.9677895 15.5528477,38.692 15.2286093,36.8525263 C15.026755,37.1846316 14.8386755,37.5367368 14.6781457,38.0046316 C14.701457,37.2372632 14.818543,36.8656842 15.1247682,36.1583158 C15.1157616,36.0841053 15.1051656,36.0125263 15.0966887,35.9367368 C14.9038411,36.2567368 14.72,36.562 14.6495364,36.8251579 C13.8882119,34.602 13.5369536,31.1135789 14.2664901,28.5504211 C14.4540397,32.3551579 15.5560265,34.6993684 17.4182781,36.6762105 C17.5777483,36.4288421 17.7562914,36.2098947 17.9835762,35.9888421 C17.8087417,36.2767368 17.6831788,36.5393684 17.581457,36.7941053 C17.4325828,37.1114737 17.3541722,37.3751579 17.194702,37.9335789 C17.5528477,37.3504211 17.744106,37.0377895 17.9607947,36.722 C19.8002649,34.1735789 22.4047682,33.3330526 24.1472848,31.6025263 C24.1472848,31.6025263 23.1523179,31.992 22.333245,32.6083158 C23.5777483,31.4262105 24.9356291,31.0635789 26.0503311,29.3951579 C26.1456954,29.2530526 26.2606623,29.0841053 26.3819868,28.8893684 C26.3978808,29.112 26.3592053,29.4125263 26.2807947,29.6556842 C26.7507285,29.2667368 27.1025166,28.822 27.2386755,28.5393684 C27.218543,28.8177895 27.0543046,29.5609474 26.9425166,29.9030526 C27.4103311,29.4972632 27.6810596,28.9904211 27.8829139,28.5993684 C28.0068874,28.6925263 28.1239735,28.9246316 28.1774834,29.1251579 C28.5912583,28.9462105 28.9737748,28.6504211 29.2392053,28.2188421 C29.3488742,28.3025263 29.4972185,28.5125263 29.5369536,28.6077895 C29.8659603,28.3756842 30.1531126,27.9851579 30.2463576,27.5688421 C30.2998675,27.6498947 30.3597351,27.7477895 30.386755,27.8377895 C30.7290066,27.7509474 31.1401325,27.3656842 31.2953642,27.1862105 C31.7112583,26.7056842 31.9083444,26.0046316 31.9655629,25.7646316 C32.4821192,25.5341053 32.9907285,25.2209474 33.4611921,24.8646316 C33.3774834,25.0651579 33.3149669,25.3025263 33.2884768,25.5835789 C33.2837086,25.6341053 33.2805298,25.6825263 33.277351,25.7304211 C33.1088742,27.9209474 33.8966887,28.6104211 35.370596,29.8688421 C35.7096689,30.1588421 36.069404,30.4883158 36.4243709,30.862" id="Fill-12" fill="#000000"></path>
                <path d="M27.2785695,41.6229474 C31.4867815,37.2171579 32.4149934,33.4745263 30.7996291,29.2445263 C30.8367152,32.6997895 23.2096954,37.8113684 22.0335364,39.704 C22.4404238,39.4008421 23.8306225,38.5403158 24.119894,38.3482105 C23.0634702,39.1887368 22.4902252,39.7255789 21.7575099,40.8045263 C22.4769801,40.0966316 23.1424106,39.7355789 23.7135364,39.3471579 C20.8685033,41.8208421 20.0303576,45.8997895 20.8796291,50.2761053 C21.7304901,50.7524211 22.5596291,51.1845263 23.3792318,51.5955789 C23.0571126,47.4813684 25.0136689,43.9945263 27.2785695,41.6229474" id="Fill-14" fill="#000000"></path>
                <path d="M4.99274172,23.7328421 C4.64572185,17.9770526 5.26188079,13.2102105 6.04598675,8.88915789 C5.65446358,8.98073684 5.29525828,9.07178947 4.97154967,9.15915789 C2.24572185,21.3333684 4.03274172,32.3481053 9.75512583,40.5454737 C6.91380132,35.736 5.28784106,30.0675789 4.99274172,23.7328421" id="Fill-16" fill="#FFD300"></path>
                <path d="M9.75528477,40.5456316 C9.75846358,40.5514211 9.75157616,40.5398421 9.75528477,40.5456316 C4.03290066,32.3477368 2.24588079,21.333 4.97170861,9.15878947 C3.16296689,9.64721053 2.37780132,10.0393158 2.37780132,10.0393158 C-0.963655629,24.083 3.56137748,36.3745789 12.3131656,44.2408947 C11.3690596,43.0687895 10.5229669,41.8472105 9.75528477,40.5456316" id="Fill-18" fill="#000000"></path>
                <path d="M41.8951523,23.7328421 C42.2421722,17.9770526 41.6260132,13.2102105 40.8413775,8.88915789 C41.2334305,8.98073684 41.5926358,9.07178947 41.9163444,9.15915789 C44.6421722,21.3333684 42.8551523,32.3481053 37.1327682,40.5454737 C39.9740927,35.736 41.5995232,30.0675789 41.8951523,23.7328421" id="Fill-20" fill="#FFD300"></path>
                <path d="M37.1326623,40.5456316 C37.1294834,40.5514211 37.1358411,40.5398421 37.1326623,40.5456316 C42.8550464,32.3477368 44.6420662,21.333 41.9162384,9.15878947 C43.7249801,9.64721053 44.5101457,10.0393158 44.5101457,10.0393158 C47.8516026,24.083 43.3260397,36.3745789 34.5747815,44.2408947 C35.5183576,43.0687895 36.3649801,41.8472105 37.1326623,40.5456316" id="Fill-22" fill="#000000"></path>
                <path d="M16.2484238,61.3597895 C16.3512053,61.3597895 16.544053,61.3692632 16.6929272,61.3692632 L17.2810066,61.3692632 C17.3975629,61.3692632 17.5618013,61.3692632 17.6624636,61.354 C17.6656424,61.354 17.672,61.3597895 17.672,61.3629474 C17.6502781,61.4508421 17.6317351,61.6508421 17.6227285,61.8108421 C17.6073642,61.8229474 17.5501457,61.8261053 17.5347815,61.8203158 C17.5194172,61.7018947 17.4976954,61.6297895 17.4706755,61.5813684 C17.4431258,61.5261053 17.3975629,61.5113684 17.354649,61.5050526 C17.2841854,61.4966316 16.9859073,61.4966316 16.9371656,61.5024211 C16.9218013,61.5050526 16.9064371,61.5418947 16.9064371,61.5534737 C16.9032583,61.7508421 16.9064371,61.9687368 16.9064371,62.1745263 C16.9064371,62.1861053 16.9191523,62.1987368 16.9244503,62.1987368 C17.0044503,62.1987368 17.2354437,62.2018947 17.3302781,62.1961053 C17.3943841,62.1929474 17.4251126,62.1597895 17.4494834,62.0745263 C17.4584901,62.0450526 17.4648477,62.0171579 17.4706755,61.9776842 C17.4828609,61.9718947 17.5501457,61.9718947 17.5618013,61.9808421 C17.5591523,62.0561053 17.5464371,62.1650526 17.5464371,62.2687368 C17.5464371,62.3471579 17.5527947,62.474 17.5559735,62.5624211 C17.5437881,62.5713684 17.4765033,62.5745263 17.4648477,62.5650526 C17.4431258,62.474 17.4463046,62.4866316 17.4335894,62.4466316 C17.418755,62.4013684 17.3912053,62.3592632 17.3239205,62.3534737 C17.2725298,62.3471579 17.016106,62.3471579 16.9244503,62.3471579 C16.9159735,62.3471579 16.9064371,62.3650526 16.9064371,62.3713684 L16.9064371,62.9471579 C16.9064371,62.9924211 16.9308079,63.0376842 16.9700132,63.0466316 C17.0288212,63.0561053 17.1686887,63.0645263 17.3207417,63.0645263 C17.4860397,63.0645263 17.5220662,63.0503158 17.5803444,62.9829474 C17.6444503,62.9161053 17.7021987,62.8013684 17.7477616,62.6924211 C17.7631258,62.6892632 17.8245828,62.7082105 17.8330596,62.7197895 C17.8245828,62.7766316 17.757298,63.0592632 17.7048477,63.1587368 C17.6900132,63.1892632 17.672,63.2071579 17.5406093,63.2071579 C17.2751788,63.2071579 16.9859073,63.1913684 16.7019338,63.1913684 C16.5408742,63.1913684 16.3395497,63.2013684 16.1779603,63.2013684 C16.1716026,63.1829474 16.1716026,63.1308421 16.1779603,63.1197895 C16.2754437,63.1071579 16.3485563,63.0987368 16.3914702,63.0855789 C16.4492185,63.0676842 16.477298,63.0318947 16.477298,62.9318947 C16.4857748,62.7618947 16.4857748,62.5050526 16.4857748,62.1776842 C16.4857748,61.9471579 16.4857748,61.7050526 16.477298,61.5961053 C16.4704106,61.5113684 16.4582252,61.4866316 16.3941192,61.4655789 C16.3512053,61.454 16.2971656,61.4476842 16.245245,61.4413684 C16.2362384,61.4261053 16.2420662,61.3692632 16.2484238,61.3597895" id="Fill-24" fill="#FFFFFF"></path>
                <path d="M18.7675762,63.0677368 C18.8465166,63.1224737 18.9535364,63.1461579 19.0478411,63.1461579 C19.1977748,63.1461579 19.3074437,63.053 19.3074437,62.8956316 C19.3074437,62.7403684 19.2401589,62.6435263 18.9747285,62.4808947 C18.6886358,62.2956316 18.5053245,62.1535263 18.5053245,61.8561579 C18.5053245,61.5051053 18.7983046,61.3145789 19.1426755,61.3145789 C19.3651921,61.3145789 19.4928742,61.3540526 19.6274437,61.363 C19.6057219,61.4808947 19.5877086,61.6108947 19.5749934,61.8024737 C19.5633377,61.8108947 19.5050596,61.8140526 19.4928742,61.8056316 C19.4653245,61.6235263 19.4324768,61.5319474 19.3524768,61.4756316 C19.2830728,61.4261579 19.2131391,61.4082632 19.1177748,61.4082632 C18.9535364,61.4082632 18.8496954,61.523 18.8496954,61.6719474 C18.8496954,61.7993158 18.9111523,61.8898421 19.0324768,61.9745789 C19.1612185,62.0624737 19.2338013,62.1045789 19.3651921,62.1861579 C19.5845298,62.3287895 19.6883709,62.4651053 19.6883709,62.6745789 C19.6883709,63.0014211 19.429298,63.2466842 18.9720795,63.2466842 C18.7739338,63.2466842 18.5816159,63.1887895 18.5175099,63.1524737 C18.4873113,63.1072105 18.4353907,62.783 18.4290331,62.6835263 C18.4380397,62.6682632 18.4994967,62.653 18.5116821,62.6619474 C18.5789669,62.8772105 18.6547285,62.983 18.7675762,63.0677368" id="Fill-26" fill="#FFFFFF"></path>
                <path d="M21.5686887,63.2044737 C21.4494834,63.2044737 21.2995497,63.195 21.1082914,63.195 C20.8243179,63.195 20.6812715,63.2044737 20.5864371,63.2044737 C20.5742517,63.1892105 20.5742517,63.1307895 20.5864371,63.1223684 C20.6537219,63.1165789 20.7326623,63.1071053 20.7755762,63.0955263 C20.8492185,63.0771053 20.8735894,63.0434211 20.8820662,62.9013158 C20.8947815,62.6013158 20.8916026,61.9871053 20.8916026,61.5234211 C20.8916026,61.5176316 20.885245,61.5023684 20.8762384,61.5023684 C20.8216689,61.4965789 20.6415364,61.4965789 20.5716026,61.5023684 C20.5006093,61.5076316 20.4582252,61.5386842 20.4190199,61.605 C20.3792848,61.675 20.3369007,61.7713158 20.3061722,61.8623684 C20.2971656,61.8718421 20.224053,61.8592105 20.2176954,61.8418421 C20.2420662,61.7202632 20.2664371,61.4655263 20.2727947,61.3481579 C20.2727947,61.3418421 20.2908079,61.3265789 20.2971656,61.3292105 C20.394649,61.3628947 20.4979603,61.3692105 20.5716026,61.3692105 L21.653457,61.3692105 C21.8086887,61.3692105 21.8945166,61.3565789 21.9798146,61.3328947 C21.989351,61.3328947 21.9951788,61.3444737 21.9983576,61.3507895 C21.9676291,61.4623684 21.9400795,61.6692105 21.927894,61.8623684 C21.9188874,61.8718421 21.845245,61.875 21.8394172,61.8655263 C21.824053,61.7628947 21.8028609,61.6692105 21.7758411,61.6023684 C21.7451126,61.5318421 21.7143841,61.5113158 21.653457,61.505 C21.5713377,61.4992105 21.3551788,61.4992105 21.3212715,61.5023684 C21.3149139,61.505 21.3064371,61.5144737 21.3064371,61.5265789 C21.3064371,61.9502632 21.3064371,62.7434211 21.3149139,62.9471053 C21.3180927,63.0223684 21.333457,63.0676316 21.3975629,63.0923684 C21.4494834,63.1071053 21.4701457,63.1071053 21.5713377,63.1223684 C21.5835232,63.1307895 21.5803444,63.195 21.5686887,63.2044737" id="Fill-28" fill="#FFFFFF"></path>
                <path d="M24.5343576,63.2044737 C24.4215099,63.2044737 24.226543,63.1918421 24.0458808,63.1918421 C23.826543,63.1918421 23.7052185,63.2044737 23.6135629,63.2044737 C23.6045563,63.1918421 23.6008477,63.1281579 23.6135629,63.1197368 C23.6898543,63.1097368 23.7136954,63.1071053 23.7687947,63.0986842 C23.8578013,63.0771053 23.8662781,62.995 23.8699868,62.9013158 C23.8758146,62.7771053 23.8758146,62.5986842 23.8789934,62.3107895 C23.8789934,62.0655263 23.8789934,61.8381579 23.8699868,61.7565789 C23.8662781,61.705 23.8482649,61.6534211 23.7936954,61.6444737 C23.7534305,61.6355263 23.6962119,61.6265789 23.6527682,61.6202632 C23.6437616,61.605 23.6501192,61.5444737 23.6596556,61.5355263 C23.9060132,61.5234211 24.1317086,61.4444737 24.2625695,61.3902632 C24.272106,61.3871053 24.2996556,61.3992105 24.2996556,61.4081579 C24.2901192,61.5318421 24.2869404,61.6381579 24.2869404,61.8871053 C24.2869404,62.1323684 24.2869404,62.6413158 24.2964768,62.8892105 C24.3028344,62.9981579 24.3150199,63.0802632 24.3934305,63.0986842 C24.4580662,63.1097368 24.5036291,63.1134211 24.543894,63.1197368 C24.5491921,63.1281579 24.5491921,63.1918421 24.5343576,63.2044737" id="Fill-30" fill="#FFFFFF"></path>
                <path d="M25.5685828,61.7201053 C25.5685828,61.878 25.6538808,61.9658947 25.965404,62.1506316 C25.968053,62.1506316 25.9744106,62.1506316 25.9802384,62.1474737 C26.053351,62.0564211 26.0809007,61.9532632 26.0809007,61.8506316 C26.0809007,61.6564211 25.9770596,61.4811579 25.7916291,61.4811579 C25.6575894,61.4811579 25.5685828,61.5995789 25.5685828,61.7201053 M26.0840795,62.8953684 C26.0840795,62.7348421 25.9802384,62.6195789 25.6422252,62.4164211 C25.6390464,62.4106316 25.6295099,62.4164211 25.6263311,62.4201053 C25.5442119,62.5074737 25.4922914,62.6132632 25.4922914,62.7290526 C25.4922914,62.9227368 25.6390464,63.1285263 25.8430199,63.1285263 C25.986596,63.1285263 26.0840795,63.038 26.0840795,62.8953684 M26.3495099,61.8295789 C26.3495099,61.9416842 26.282755,62.0506316 26.0501722,62.1901053 C26.0475232,62.1958947 26.0475232,62.2016842 26.0501722,62.2048421 C26.288053,62.3558947 26.4252715,62.4806316 26.4252715,62.698 C26.4252715,62.9653684 26.1725563,63.2253684 25.7699073,63.2253684 C25.3397086,63.2253684 25.1844768,62.9774737 25.1844768,62.768 C25.1844768,62.6411579 25.2676556,62.5285263 25.5532185,62.368 C25.5569272,62.368 25.5590464,62.3595789 25.5532185,62.3558947 C25.3884503,62.2411579 25.2485828,62.1016842 25.2485828,61.8958947 C25.2485828,61.7474737 25.3185166,61.6022105 25.4340132,61.5206316 C25.5383841,61.4390526 25.6814305,61.3901053 25.8398411,61.3901053 C26.1354702,61.3901053 26.3495099,61.5627368 26.3495099,61.8295789" id="Fill-32" fill="#FFFFFF"></path>
                <path d="M27.4472053,61.7201053 C27.4472053,61.878 27.5325033,61.9658947 27.8434967,62.1506316 C27.8466755,62.1506316 27.8530331,62.1506316 27.8588609,62.1474737 C27.9314437,62.0564211 27.9595232,61.9532632 27.9595232,61.8506316 C27.9595232,61.6564211 27.8556821,61.4811579 27.6702517,61.4811579 C27.5356821,61.4811579 27.4472053,61.5995789 27.4472053,61.7201053 M27.962702,62.8953684 C27.962702,62.7348421 27.8588609,62.6195789 27.5208477,62.4164211 C27.5176689,62.4106316 27.5081325,62.4164211 27.5049536,62.4201053 C27.4228344,62.5074737 27.3709139,62.6132632 27.3709139,62.7290526 C27.3709139,62.9227368 27.5176689,63.1285263 27.7216424,63.1285263 C27.8652185,63.1285263 27.962702,63.038 27.962702,62.8953684 M28.2276026,61.8295789 C28.2276026,61.9416842 28.1613775,62.0506316 27.9287947,62.1901053 C27.9256159,62.1958947 27.9256159,62.2016842 27.9287947,62.2048421 C28.1666755,62.3558947 28.3033642,62.4806316 28.3033642,62.698 C28.3033642,62.9653684 28.0511788,63.2253684 27.6490596,63.2253684 C27.2183311,63.2253684 27.0630993,62.9774737 27.0630993,62.768 C27.0630993,62.6411579 27.1462781,62.5285263 27.4318411,62.368 C27.4355497,62.368 27.4381987,62.3595789 27.4318411,62.3558947 C27.2670728,62.2411579 27.1272053,62.1016842 27.1272053,61.8958947 C27.1272053,61.7474737 27.1971391,61.6022105 27.3126358,61.5206316 C27.4164768,61.4390526 27.560053,61.3901053 27.7184636,61.3901053 C28.0140927,61.3901053 28.2276026,61.5627368 28.2276026,61.8295789" id="Fill-34" fill="#FFFFFF"></path>
                <path d="M29.9648212,61.4112105 C29.9648212,61.4417368 29.9007152,61.6080526 29.818596,61.7054211 C29.7846887,61.7448947 29.717404,61.7775263 29.6686623,61.7775263 C29.4705166,61.7775263 29.335947,61.7564737 29.2909139,61.7564737 C29.2845563,61.7564737 29.266543,61.7627895 29.263894,61.7717368 C29.2389934,61.8259474 29.2241589,61.8596316 29.2050861,61.9138421 C29.2050861,61.9175263 29.2146225,61.9417368 29.2241589,61.9443684 C29.314755,61.987 29.6501192,62.1254211 29.7815099,62.2017368 C29.9738278,62.3043684 30.0988609,62.4317368 30.0988609,62.6712105 C30.0988609,63.0706842 29.6686623,63.3191053 29.3062781,63.3191053 C29.1261457,63.3191053 28.9883974,63.2559474 28.9131656,63.177 C28.8919735,63.1559474 28.863894,63.1164737 28.863894,63.0738421 C28.863894,63.0248947 28.9184636,62.9259474 28.9529007,62.8801579 C28.9587285,62.8738421 28.9799205,62.8654211 28.9883974,62.8617368 C29.1107815,63.0406842 29.2935629,63.1801579 29.5107815,63.1801579 C29.6660132,63.1801579 29.7603179,63.0648947 29.7603179,62.9191053 C29.7603179,62.7891053 29.7110464,62.6617368 29.5256159,62.5438421 C29.3666755,62.4380526 29.0710464,62.3175263 29.0011126,62.2748947 C28.9984636,62.2564737 28.992106,62.1959474 28.9984636,62.1743684 C29.0530331,61.9927895 29.2178013,61.5838421 29.3004503,61.4659474 C29.330649,61.4259474 29.3576689,61.4112105 29.3825695,61.4112105 C29.4307815,61.4112105 29.5801854,61.4259474 29.7417748,61.4259474 C29.8456159,61.4259474 29.8726358,61.4175263 29.9219073,61.3785789 C29.9335629,61.3785789 29.9648212,61.3964737 29.9648212,61.4112105" id="Fill-36" fill="#FFFFFF"></path>
                <path d="M13.6418543,58.1762105 C13.4108609,58.5383158 13.117351,58.9098947 12.8953642,59.0862105 C12.6283444,59.2977895 12.3708609,59.3241053 12.1488742,59.3241053 C10.6723179,59.3241053 10.1923179,57.9551579 10.1923179,56.9662105 C10.1923179,55.4467368 10.7968212,54.7314737 11.7308609,54.7314737 C12.0948344,54.7314737 12.4238411,54.7925263 12.7078146,54.9525263 C13.0643709,55.1556842 13.117351,55.4377895 13.2418543,56.0035789 C13.2598675,56.0651579 13.6418543,56.0298947 13.6863576,55.9588421 C13.6863576,55.482 13.7578808,54.7314737 13.8023841,54.422 C13.4643709,54.4135789 12.7793377,54.2630526 11.9263576,54.2630526 C11.197351,54.2630526 10.6283444,54.3956842 10.1393377,54.6256842 C9.14331126,55.0941053 8.63629139,56.0298947 8.63629139,57.0462105 C8.63629139,58.9714737 9.87231788,59.9341053 11.8903311,59.9341053 C12.5488742,59.9341053 12.9223841,59.8014737 13.2068874,59.7046316 C13.4733775,59.5541053 13.8733775,58.8298947 14.0068874,58.4409474 C13.935894,58.3262105 13.7488742,58.2025263 13.6418543,58.1762105" id="Fill-38" fill="#FFFFFF"></path>
                <path d="M3.32884768,56.9483158 C3.18633113,57.0277895 2.75083444,57.0541053 2.38633113,57.0541053 C2.34182781,57.0541053 2.32434437,57.002 2.32434437,56.9662105 C2.32434437,56.322 2.32434437,55.3404211 2.34182781,55.0672632 C2.34182781,55.0314737 2.3773245,54.9614737 2.40434437,54.9346316 C2.43931126,54.9083158 2.59931126,54.8909474 2.68831788,54.8909474 C3.32884768,54.8909474 3.77335099,55.3230526 3.77335099,56.0567368 C3.77335099,56.5951579 3.5778543,56.8246316 3.32884768,56.9483158 M8.08540397,59.2625263 C7.85388079,59.192 7.83586755,59.0156842 7.82686093,58.8567368 C7.80937748,58.512 7.81838411,57.6288421 7.81838411,56.8162105 C7.81838411,56.0567368 7.80937748,55.6056842 7.82686093,55.3146316 C7.83586755,55.1556842 7.83586755,54.9793684 8.04090066,54.9172632 C8.18341722,54.8725263 8.36990728,54.8462105 8.56540397,54.8198947 C8.60990728,54.7662105 8.60090066,54.4488421 8.56540397,54.3956842 C8.3344106,54.3956842 8.04090066,54.422 7.08937748,54.422 C6.44037086,54.422 5.99533775,54.3956842 5.69335099,54.3956842 C5.63984106,54.4577895 5.63984106,54.7577895 5.67586755,54.8198947 C5.86235762,54.8462105 6.01335099,54.8641053 6.21838411,54.9256842 C6.36937748,54.9704211 6.44037086,55.0941053 6.44937748,55.2788421 C6.46686093,55.6325263 6.46686093,55.9325263 6.46686093,56.8872632 C6.46686093,57.3193684 6.46686093,58.6351579 6.44937748,58.8472632 C6.42288742,59.1830526 6.36937748,59.2541053 6.11136424,59.3062105 C6.06633113,59.3162105 5.97361589,59.3183158 5.91427815,59.302 C5.71454305,59.2472632 5.63560265,59.1693684 5.43639735,58.9714737 C5.04487417,58.5825263 4.26606623,57.5825263 4.07586755,57.2225263 C4.06156291,57.1956842 4.05997351,57.1651579 4.08487417,57.152 C4.68037086,56.8956842 5.12540397,56.5067368 5.12540397,55.8093684 C5.12540397,55.0314737 4.48487417,54.3956842 3.34633113,54.3956842 C3.04434437,54.3956842 2.51083444,54.422 1.59533775,54.422 C1.23931126,54.422 0.48381457,54.3956842 0.261298013,54.3956842 C0.199311258,54.4309474 0.163284768,54.7404211 0.226331126,54.8198947 C0.421298013,54.8546316 0.625271523,54.8909474 0.732821192,54.9256842 C0.892291391,54.9614737 0.96381457,55.0672632 0.980768212,55.2614737 C0.999311258,55.5788421 0.999311258,56.1977895 0.999311258,57.0630526 C0.999311258,57.6114737 0.990304636,58.6088421 0.972291391,58.8914737 C0.96381457,59.1304211 0.901827815,59.2541053 0.705801325,59.2977895 C0.590304636,59.3241053 0.377324503,59.3598947 0.24381457,59.3772632 C0.172291391,59.4214737 0.207788079,59.7662105 0.252291391,59.8014737 C0.510304636,59.8014737 0.980768212,59.7746316 1.69229139,59.7746316 C2.43083444,59.7746316 2.92884768,59.8014737 3.07984106,59.8014737 C3.14182781,59.8014737 3.16037086,59.3862105 3.10686093,59.3772632 C2.86633113,59.342 2.7773245,59.3330526 2.57282119,59.2714737 C2.40434437,59.2177895 2.35030464,59.0862105 2.34182781,58.8914737 C2.33282119,58.6088421 2.32434437,58.2025263 2.32434437,57.6635789 C2.32434437,57.6462105 2.35030464,57.602 2.36884768,57.602 C2.39480795,57.602 2.5373245,57.602 2.62633113,57.6114737 C2.75083444,57.6193684 2.81282119,57.6377895 2.88434437,57.7435789 C3.1778543,58.2025263 3.4973245,58.7504211 3.87136424,59.2093684 C3.92434437,59.2977895 4.09070199,59.4798947 4.34235762,59.6077895 C4.78368212,59.8314737 5.67692715,59.8251579 6.1744106,59.7898947 C6.41070199,59.7830526 6.71215894,59.7746316 7.16037086,59.7746316 C7.94288742,59.7746316 8.3344106,59.7925263 8.60990728,59.8014737 C8.67242384,59.7572632 8.71639735,59.4483158 8.68090066,59.3772632 C8.47639735,59.342 8.19242384,59.2977895 8.08540397,59.2625263" id="Fill-40" fill="#FFFFFF"></path>
                <path d="M27.9113113,59.254 C27.6797881,59.1918947 27.6172715,58.9976842 27.6093245,58.7861053 C27.5552848,58.1761053 27.4837616,56.0208421 27.493298,55.3671579 C27.493298,55.1729474 27.5203179,55.014 27.7242914,54.9434737 C27.8487947,54.8997895 28.0623046,54.8724211 28.3197881,54.8197895 C28.3823046,54.7755789 28.3642914,54.4134737 28.3197881,54.3961053 C27.8758146,54.3961053 27.4837616,54.4218947 26.1862781,54.4218947 C26.1682649,54.5897895 26.0972715,54.7755789 26.0172715,54.9792632 C25.7592583,55.6055789 25.0392583,57.0987368 24.7902517,57.5576842 C24.7722384,57.5755789 24.7452185,57.584 24.7192583,57.5576842 C24.4522384,57.054 23.8652185,55.8182105 23.5097219,55.0318947 C23.4207152,54.8461053 23.3407152,54.6429474 23.3142252,54.4218947 C22.6472053,54.4218947 21.6872053,54.3961053 21.0021722,54.3961053 C20.9756821,54.4218947 20.9407152,54.7666316 20.9672053,54.8197895 C21.2601854,54.8724211 21.5181987,54.9255789 21.6781987,54.9792632 C21.8562119,55.0492632 21.9097219,55.2345263 21.9001854,55.3845263 C21.8736954,56.0208421 21.6872053,58.0703158 21.6072053,58.7503158 C21.5711788,59.0771579 21.4736954,59.2182105 21.2156821,59.2887368 C21.1261457,59.3166316 20.9677351,59.3376842 20.8215099,59.3592632 C20.7468079,59.3708421 20.6313113,59.3708421 20.5634967,59.3592632 C20.306543,59.3161053 20.1619073,59.2913684 20.0517086,59.2450526 C19.8917086,59.1745263 19.8646887,58.9976842 19.8562119,58.8387368 C19.8387285,58.4408421 19.8387285,57.7261053 19.8387285,57.1250526 C19.8387285,56.3918947 19.8297219,55.9587368 19.8472053,55.3845263 C19.8562119,55.1024211 19.8832318,54.9882105 20.0517086,54.9255789 C20.1497219,54.8724211 20.3542252,54.8371579 20.541245,54.8197895 C20.6032318,54.7576842 20.6032318,54.4576842 20.541245,54.3961053 C20.2122384,54.3961053 19.9536954,54.4218947 19.1717086,54.4218947 C18.442702,54.4218947 18.2111788,54.3961053 17.7581987,54.3961053 C17.6962119,54.4403158 17.6866755,54.7755789 17.7407152,54.8197895 C18.0246887,54.8550526 18.1936954,54.8724211 18.3187285,54.9345263 C18.442702,54.9792632 18.4697219,55.1376842 18.4776689,55.2518947 C18.4872053,55.7561053 18.4872053,56.2155789 18.4872053,56.6482105 C18.4872053,56.6655789 18.4517086,56.6924211 18.4252185,56.7008421 C18.3362119,56.7192632 18.1046887,56.7192632 17.4646887,56.7192632 C16.5936954,56.7192632 16.4601854,56.7192632 16.3801854,56.7008421 C16.3621722,56.6829474 16.3536954,56.6750526 16.3351523,56.6308421 C16.3351523,56.1355789 16.3351523,55.6934737 16.3441589,55.3229474 C16.3441589,55.1113684 16.3711788,54.9792632 16.5491921,54.9082105 C16.6381987,54.8724211 16.8421722,54.8371579 17.0111788,54.8197895 C17.0646887,54.7755789 17.0646887,54.4487368 17.0196556,54.3961053 C16.8246887,54.3961053 16.3711788,54.4218947 15.6151523,54.4218947 C14.770649,54.4218947 14.4861457,54.3961053 14.2551523,54.3961053 C14.210649,54.4308421 14.192106,54.7845263 14.2366093,54.8197895 C14.3966093,54.8371579 14.5746225,54.864 14.7531656,54.9171579 C14.9396556,54.9703158 14.9661457,55.0766316 14.9751523,55.3587368 C14.9841589,55.624 14.9841589,56.1355789 14.9841589,57.0103158 C14.9841589,57.8055789 14.9841589,58.6271579 14.9751523,58.7592632 C14.9571391,59.0682105 14.8951523,59.2182105 14.6551523,59.2803158 C14.5221722,59.3150526 14.4146225,59.3418947 14.210649,59.3771579 C14.1476026,59.4397895 14.1746225,59.7571579 14.210649,59.8013684 C14.3616424,59.8013684 14.8151523,59.7745263 15.5531656,59.7745263 C16.5041589,59.7745263 16.930649,59.8013684 17.0911788,59.8013684 C17.1441589,59.7571579 17.1891921,59.4482105 17.1351523,59.3771579 C16.9401854,59.3418947 16.6911788,59.2976842 16.5756821,59.254 C16.3711788,59.1829474 16.3441589,59.024 16.3441589,58.8124211 C16.3351523,58.494 16.3351523,58.0350526 16.3351523,57.4697895 C16.3351523,57.4608421 16.3441589,57.4255789 16.3536954,57.4166316 C16.3886623,57.3987368 16.4776689,57.3897895 17.4291921,57.3897895 C17.8291921,57.3897895 18.2736954,57.3897895 18.442702,57.3987368 C18.4697219,57.3987368 18.4872053,57.4345263 18.4872053,57.4518947 C18.4872053,58.0261053 18.4962119,58.494 18.4776689,58.9182105 C18.4697219,59.1124211 18.4077351,59.2361053 18.2736954,59.2803158 C18.1311788,59.324 17.9711788,59.3513684 17.7672053,59.3771579 C17.7046887,59.4482105 17.7136954,59.7482105 17.7756821,59.8013684 C17.9536954,59.8013684 18.4252185,59.7745263 19.1807152,59.7745263 C19.9722384,59.7745263 20.4167417,59.8013684 20.621245,59.8013684 L20.7001854,59.8013684 C21.0376689,59.8013684 21.4472053,59.7745263 21.8032318,59.7745263 C22.5407152,59.7745263 23.002702,59.8013684 23.2167417,59.8013684 C23.2697219,59.7482105 23.2962119,59.4213684 23.242702,59.3771579 C22.994755,59.3418947 22.8072053,59.3066316 22.6291921,59.254 C22.3452185,59.1655789 22.3181987,59.0329474 22.3181987,58.7771579 C22.3181987,58.1587368 22.3717086,56.9218947 22.4336954,56.0034737 C22.442702,55.9861053 22.4877351,55.9766316 22.4956821,55.9861053 C23.0567417,57.2482105 23.7942252,58.9534737 24.034755,59.6961053 C24.0702517,59.7134737 24.4697219,59.7224211 24.5052185,59.6961053 C24.7637616,59.0155789 25.7682649,56.8334737 26.1592583,55.9324211 C26.1682649,55.924 26.1952848,55.924 26.2037616,55.9324211 C26.1862781,56.9750526 26.2037616,58.0966316 26.1862781,58.8124211 C26.1772715,59.1476842 26.1327682,59.2182105 25.9907815,59.2713684 C25.8662781,59.3150526 25.7062781,59.3329474 25.4837616,59.3771579 C25.4482649,59.4397895 25.4392583,59.7482105 25.4837616,59.8013684 C25.9727682,59.8013684 26.3372715,59.7745263 26.8352848,59.7745263 C27.6978013,59.7745263 28.1423046,59.8013684 28.4623046,59.8013684 C28.5237616,59.7482105 28.5417748,59.4482105 28.4972715,59.3771579 C28.2572715,59.3329474 28.0352848,59.2887368 27.9113113,59.254" id="Fill-42" fill="#FFFFFF"></path>
                <path d="M32.2402649,59.1656316 C32.053245,59.333 31.813245,59.4035263 31.6002649,59.4035263 C31.2357616,59.4035263 30.9862252,59.2803684 30.7377483,59.0861579 C30.1327152,58.5740526 29.9107285,57.5840526 29.9107285,56.8335263 C29.9107285,56.0208947 30.0617219,55.2787895 30.5592053,54.9435263 C30.7282119,54.8198421 30.9687417,54.7666842 31.1907285,54.7666842 C31.5287417,54.7666842 31.7512583,54.8640526 31.9997351,55.0672105 C32.5337748,55.5172105 32.7737748,56.4003684 32.7737748,57.3282632 C32.7737748,58.0877368 32.6487417,58.7951053 32.2402649,59.1656316 M31.4662252,54.2635263 C30.6397351,54.2635263 29.9552318,54.5108947 29.4476821,54.8640526 C28.6127152,55.4556316 28.3727152,56.3656316 28.3727152,57.0987895 C28.3727152,57.7787895 28.5597351,58.5561579 29.1282119,59.1303684 C29.6172185,59.6161579 30.2662252,59.9340526 31.3507285,59.9340526 C32.2402649,59.9340526 33.1382781,59.5893158 33.7602649,58.8124737 C34.1343046,58.3261579 34.3117881,57.673 34.3117881,57.0103684 C34.3117881,55.5440526 33.3337748,54.2635263 31.4662252,54.2635263" id="Fill-44" fill="#FFFFFF"></path>
                <path d="M44.6419603,58.8125263 C44.3484503,59.1741053 44.0554702,59.3330526 43.637457,59.3330526 C43.477457,59.3330526 43.1034172,59.2714737 42.9434172,59.1125263 C42.8724238,59.0425263 42.8009007,58.9183158 42.7924238,58.8214737 C42.765404,58.5646316 42.7749404,57.9641053 42.7749404,57.1251579 C42.7749404,56.3304211 42.7749404,55.2967368 42.7834172,54.9967368 C42.7834172,54.9793684 42.8189139,54.9083158 42.8549404,54.8993684 C42.8899073,54.8814737 43.0329536,54.8641053 43.1214305,54.8641053 C43.4859338,54.8641053 43.9394437,54.9430526 44.2594437,55.182 C44.8369272,55.5877895 45.1399735,56.3304211 45.1399735,57.0898947 C45.1399735,57.9551579 44.9349404,58.432 44.6419603,58.8125263 M45.6464636,54.9525263 C45.1579868,54.5635789 44.5354702,54.3956842 43.7169272,54.3956842 C43.005404,54.3956842 42.8189139,54.4135789 42.0634172,54.422 C41.805404,54.422 40.8771921,54.3956842 40.6811656,54.3956842 C40.4676556,54.3956842 40.1704371,54.422 39.5214305,54.422 C38.8459338,54.422 38.4459338,54.3956842 38.2499073,54.3956842 C38.2234172,54.4135789 38.205404,54.7846316 38.2499073,54.8198947 C38.4544106,54.8462105 38.623947,54.8725263 38.8279205,54.9172632 C39.1304371,54.9793684 39.2189139,55.1377895 39.2369272,55.4293684 C39.2814305,56.1093684 39.2814305,56.7983158 39.2899073,57.9288421 C39.271894,57.9288421 39.2544106,57.9377895 39.2369272,57.9377895 C38.6859338,57.3283158 37.511894,55.8535789 36.7648742,54.9346316 C36.5778543,54.7051579 36.4803709,54.5635789 36.4093775,54.4046316 C36.2313642,54.4135789 35.8938808,54.422 35.6003709,54.422 C34.9068609,54.422 34.5598411,54.3956842 34.2573245,54.3956842 C34.2313642,54.4309474 34.2218278,54.7925263 34.2573245,54.8372632 C34.5243444,54.8641053 34.7113642,54.9256842 34.871894,54.9877895 C35.1023576,55.0672632 35.1738808,55.332 35.1738808,55.5267368 C35.1738808,56.4625263 35.1468609,58.2472632 35.0938808,58.7330526 C35.0758675,58.9714737 34.9958675,59.1656842 34.7913642,59.2451579 C34.5868609,59.3151579 34.4443444,59.342 34.2313642,59.3772632 C34.2043444,59.4130526 34.1868609,59.7483158 34.2313642,59.8014737 C34.613351,59.8014737 35.1288477,59.7746316 35.5023576,59.7746316 C35.9113642,59.7746316 36.3293775,59.8014737 36.7383841,59.8014737 C36.791894,59.7225263 36.8009007,59.4214737 36.7558675,59.3772632 C36.5068609,59.3330526 36.3473907,59.3062105 36.1963974,59.2714737 C35.9558675,59.2093684 35.8043444,59.0683158 35.7863311,58.6704211 C35.7693775,58.2909474 35.7513642,56.8688421 35.7598411,55.8977895 C35.7598411,55.8883158 35.7783841,55.8535789 35.8138808,55.8883158 C36.6048742,56.8598947 38.2234172,58.9888421 38.8989139,59.8541053 C39.0324238,59.8367368 39.743947,59.8193684 39.885404,59.8456842 C39.877457,59.502 39.8679205,58.9977895 39.8679205,58.592 C39.8594437,57.4256842 39.885404,56.1530526 39.9394437,55.4556842 C39.983947,55.0141053 40.1169272,54.9704211 40.3569272,54.8993684 C40.4024901,54.8856842 40.4697748,54.8751579 40.5073907,54.8656842 C40.5863311,54.8467368 40.7818278,54.8509474 40.8687152,54.8683158 C40.9609007,54.8872632 41.0721589,54.9035789 41.1209007,54.9172632 C41.3609007,54.9877895 41.3789139,55.0941053 41.4059338,55.3404211 C41.4234172,55.7556842 41.4144106,56.1709474 41.4144106,57.1425263 C41.4144106,57.8404211 41.4059338,58.7151579 41.3963974,58.8735789 C41.3789139,59.1125263 41.2724238,59.2451579 41.0583841,59.2888421 C40.8628874,59.3241053 40.7738808,59.3509474 40.5338808,59.3772632 C40.4809007,59.3862105 40.4809007,59.7135789 40.5338808,59.8014737 L40.951894,59.8014737 C41.751894,59.8104211 42.5704371,59.8367368 43.0594437,59.8367368 C43.983947,59.8367368 44.8554702,59.6962105 45.5844768,59.1214737 C46.1354702,58.6888421 46.5799735,57.9998947 46.5799735,56.9483158 C46.5799735,56.1267368 46.2244768,55.4114737 45.6464636,54.9525263" id="Fill-46" fill="#FFFFFF"></path>
                <path d="M10.1898808,20.8095789 C10.3350464,21.7658947 10.6100132,22.6627368 11.0259073,23.4232632 C11.3565033,22.7174737 11.9514702,22.1632632 12.3837881,21.8711579 C12.4049801,21.9453684 12.418755,21.9943158 12.4420662,22.0658947 C12.0627285,22.4506316 11.7549139,22.8995789 11.4725298,23.4048421 C11.8412715,22.9706316 12.1978278,22.6958947 12.5649801,22.4148421 C13.1265695,23.8458947 14.1580927,24.7537895 15.2844503,25.3674737 C15.5514702,24.0043158 16.034649,22.8258947 16.6312053,22.2485263 C16.6582252,22.2948421 16.6953113,22.3643158 16.7228609,22.4085263 C16.290543,23.0916842 16.1612715,23.4490526 15.9832583,24.1537895 C16.3451126,23.5422105 16.6312053,23.1574737 16.9723974,22.7827368 C17.2886887,23.2232632 17.5949139,23.5274737 17.877298,23.8074737 C18.8902781,22.8011579 21.0174305,22.7574737 22.1713377,22.6453684 C20.8229934,21.5706316 15.807894,22.5158947 13.7877616,19.6569474 C13.9096159,19.4248421 14.0680265,19.2158947 14.3154437,18.9548421 C13.8068344,19.258 12.930543,20.0385263 12.3986225,20.6690526 C12.5183576,20.338 12.6460397,20.0748421 12.7933245,19.8469474 C11.9663046,18.2727368 12.1003444,16.2732632 12.2677616,14.7758947 C12.5019338,14.6037895 12.7514702,14.4469474 13.0280265,14.3158947 C12.2857748,14.488 11.7400795,14.7427368 11.0465695,15.2248421 C10.7859073,13.2606316 11.6113377,11.1269474 12.2841854,9.67115789 C11.9774305,9.72694737 11.7527947,9.83431579 11.4815364,10.0064211 C11.8216689,8.38431579 12.424053,7.00747368 13.6118675,5.71642105 C12.1628609,6.96747368 11.058755,8.58378947 10.4659073,10.5995789 C10.7927947,10.4374737 10.9284238,10.3864211 11.1821987,10.3174737 C11.1578278,10.3601053 11.1143841,10.4269474 11.0894834,10.4695789 C10.6184901,10.7264211 10.336106,10.9332632 9.9127947,11.4048421 C10.3329272,11.1353684 10.5766358,11.0074737 10.8521325,10.8985263 C9.79517881,12.7774737 8.83517881,14.7743158 9.29345695,17.7064211 C9.58166887,17.3516842 10.0357086,17.0048421 10.2688212,16.8948421 C10.258755,16.9490526 10.2508079,17.0043158 10.2423311,17.0590526 C9.74484768,17.5222105 9.39835762,18.0727368 9.17319205,18.5790526 C9.45928477,18.2011579 9.75597351,17.8958947 10.1559735,17.6485263 C10.0277616,18.7064211 10.034649,19.7911579 10.1898808,20.8095789" id="Fill-48" fill="#FFFFFF"></path>
                <path d="M31.714596,18.2697368 C31.6594967,18.5713158 31.6510199,18.9055263 31.6632053,19.1471053 C32.2571126,19.3034211 32.9458543,18.3965789 33.2451921,17.0423684 C33.5138013,17.2702632 33.7670464,17.5065789 34.0520795,17.8360526 C33.8338013,17.2992105 33.6462517,17.0107895 33.3177748,16.6428947 C33.3278411,16.5781579 33.3643974,16.4876316 33.3723444,16.4207895 C33.3723444,16.4207895 33.6224106,16.5965789 33.8062517,16.8576316 C33.9514172,16.4402632 34.0647947,15.4986842 34.1341987,14.2013158 C33.9090331,14.6365789 33.5111523,14.9660526 33.1138013,15.1628947 C32.7752583,16.9365789 32.178702,17.9534211 31.714596,18.2697368" id="Fill-50" fill="#FFD300"></path>
                <path d="M34.2410066,10.3395263 C34.2410066,9.93373684 34.2129272,9.63742105 34.1101457,9.289 C34.2070993,9.31794737 34.3527947,9.38742105 34.4296159,9.42636842 C34.3639205,8.58005263 34.4269669,8.13584211 34.0916026,7.36742105 C34.079947,7.80584211 34.0624636,8.37005263 33.7869669,8.61478947 C33.5602119,8.81636842 33.3270993,8.97268421 33.0902781,9.07847368 C33.4950464,9.35584211 33.9506755,9.79163158 34.2410066,10.3395263" id="Fill-52" fill="#FFD300"></path>
                <path d="M13.7914172,17.7079474 C14.0494305,17.4847895 14.3169801,17.3521579 14.6189669,17.2532105 C14.6343311,17.2837368 14.6512848,17.3137368 14.6671788,17.3437368 C14.165457,17.6747895 13.8581722,17.9526842 13.4359205,18.5153158 C13.9773775,18.1195263 14.4224106,17.8911053 14.8785695,17.6858421 C15.8120795,19.0232105 17.8147285,20.0900526 20.042543,20.3726842 C19.7405563,19.7416316 18.5967152,18.9495263 18.1855894,18.3242632 C17.4078411,17.1421579 17.8650596,15.7453158 18.5384371,14.9016316 C16.9230728,15.6137368 16.5002914,16.1100526 16.2910199,17.2037368 C14.3445298,15.3105789 14.1045298,10.5468947 14.4451921,7.91636842 C13.3633377,9.86794737 12.4997616,11.2768947 12.4997616,14.0295263 C12.8128742,13.8953158 13.1588344,13.7647895 13.5365828,13.7158421 C13.3320795,14.7605789 13.3808212,16.4400526 13.7914172,17.7079474" id="Fill-54" fill="#FFD300"></path>
                <path d="M19.2472053,6.57926316 C19.8866755,7.11136842 20.1976689,7.49926316 21.5052185,7.77084211 C21.7287947,7.81715789 22.0381987,7.81715789 22.2919735,7.79715789 C21.770649,8.17821053 21.0596556,8.33347368 20.3195232,8.42136842 C19.3536954,8.53663158 17.8517086,7.79557895 16.7640265,7.58557895 C16.3581987,7.16347368 16.2834967,6.72873684 16.4731656,6.44294737 C16.552106,6.324 16.6580662,6.04189474 16.9187285,5.80768421 C16.9722384,5.80715789 17.0278675,5.80663158 17.0813775,5.81136842 C17.4273377,5.84189474 17.7743576,5.884 18.1134305,5.96242105 C18.506543,6.05347368 18.9420397,6.33189474 19.2472053,6.57926316" id="Fill-56" fill="#FFFFFF"></path>
                <path d="M20.2886887,10.6684737 C21.3021987,10.7279474 22.1684238,10.9879474 22.9218013,11.1705789 C23.039947,11.1979474 23.1554437,11.2300526 23.2741192,11.2621579 C24.6123974,11.6326842 25.8765033,12.039 26.9853775,12.4495263 C27.3949139,12.7200526 25.4224636,12.2242632 23.2847152,11.6463684 C23.3260397,11.8342632 23.4245828,12.0137368 23.6068344,12.1737368 C23.8055099,12.349 23.9480265,12.5147895 24.053457,12.6721579 C23.4743841,12.5105789 22.8794172,12.3721579 22.2939868,12.2805789 C21.5565033,12.1647895 20.8349139,12.1216316 20.1774305,12.1947895 C21.0182252,12.2511053 22.0725298,12.3832105 23.1602119,12.6547895 C23.1829934,12.6595263 23.205245,12.6642632 23.2274967,12.6684737 C23.2523974,12.6737368 23.2762384,12.679 23.3006093,12.6837368 C24.6706755,12.9600526 25.9755762,13.2795263 27.127894,13.6153158 C27.5109404,13.8263684 26.1064371,13.6174211 24.322596,13.2847895 C24.4661722,13.8421579 24.3872318,14.259 25.3731921,14.5600526 C26.5864371,14.9300526 28.4815364,14.7337368 29.2365033,14.4074211 C29.7382252,14.1911053 30.2643179,13.7274211 30.3575629,13.5237368 C30.3909404,13.4500526 30.4206093,13.3853158 30.4460397,13.3242632 C29.7604768,13.1047895 29.9967682,12.2963684 29.2184901,11.8174211 C28.6611391,11.4742632 28.6563709,11.1416316 28.3639205,10.5921579 C28.2569007,10.389 28.0974305,10.1563684 27.8818013,9.88215789 C27.0770331,8.93584211 26.7474967,8.79584211 25.9618013,8.87163158 C25.4394172,8.92215789 24.6092185,9.10952632 23.978755,9.89689474 C23.7853775,9.819 23.5904106,9.74426316 23.3954437,9.67268421 C22.3665695,9.29794737 21.3149139,9.02794737 20.2812715,9.009 C21.3541192,9.15321053 22.0735894,9.37531579 23.4018013,9.84636842 C24.786702,10.3053158 26.079947,10.7947895 27.199947,11.2795263 C27.5692185,11.5568947 25.7191523,11.0179474 23.6550464,10.3468947 C23.5098808,10.5726842 23.3737219,10.8337368 23.3064371,11.0995263 C23.0139868,11.0142632 22.7215364,10.9374211 22.4296159,10.8732105 C21.7043179,10.7121579 20.9843179,10.6258421 20.2886887,10.6684737" id="Fill-58" fill="#FFFFFF"></path>
                <path d="M24.3811921,6.29605263 C24.3229139,6.265 24.2630464,6.22973684 24.2047682,6.19131579 C24.1968212,6.245 24.1830464,6.30342105 24.1581457,6.37026316 C23.5499338,6.41078947 22.7451656,5.56184211 22.3663576,5.22026316 C21.7989404,4.70763158 21.1960265,4.57815789 20.3568212,4.49868421 C19.962649,4.52657895 19.8980132,4.395 20.378543,4.27289474 C20.9374834,4.19236842 21.4143046,4.22184211 21.8376159,4.32657895 C21.5419868,4.07447368 21.2278146,3.84868421 20.8458278,3.715 C20.5570861,3.61342105 20.2397351,3.49131579 19.9324503,3.47447368 C19.7459603,3.465 19.5064901,3.52078947 19.3009272,3.58394737 C18.9433113,3.69447368 18.5162914,3.88868421 18.2482119,4.03973684 C18.2577483,4.42605263 18.1141722,4.81131579 18.1671523,5.20131579 C18.1941722,5.40710526 18.1491391,5.53763158 18.3250331,5.65026316 C18.429404,5.71710526 18.5343046,5.82657895 18.6360265,5.88131579 C18.7435762,5.93973684 18.984106,5.90552632 19.1615894,5.89605263 C19.5917881,5.81973684 19.9324503,5.67131579 20.2953642,5.64763158 C21.2574834,5.58447368 22.1846358,5.72131579 22.8087417,6.16868421 C23.4217219,6.63921053 24.1803974,7.10447368 24.370596,7.20605263 C24.4384106,7.24236842 24.533245,7.32552632 24.6445033,7.31868421 C24.7149669,7.27605263 24.7849007,7.23552632 24.8548344,7.19605263 C24.8590728,7.15657895 24.8606623,7.12026316 24.8606623,7.09026316 C24.8606623,6.90342105 24.7589404,6.49026316 24.3811921,6.29605263" id="Fill-60" fill="#FFFFFF"></path>
                <path d="M32.8611391,5.53 C32.8192848,5.31789474 32.7398146,4.96947368 32.6545166,4.83157895 C32.4765033,4.54526316 32.3244503,4.33947368 32.1337219,4.14736842 C31.7877616,3.92631579 31.3453775,3.76947368 30.733457,3.60052632 C30.4494834,3.52210526 29.8677616,3.46631579 29.7607417,3.48842105 C29.5832583,3.52210526 29.4984901,3.64210526 29.4396821,3.76 C29.3490861,3.93842105 29.7284238,4.37789474 30.0023311,4.79473684 C30.2216689,4.49526316 30.5109404,4.35736842 31.0539868,4.31105263 C31.4481589,4.32368421 31.4518675,4.44210526 31.1551788,4.49157895 C30.9766358,4.51684211 30.666702,4.71578947 30.4510728,5.23578947 C30.3064371,5.58315789 30.3048477,6.12631579 29.7427285,6.27736842 C29.6929272,6.22 29.6553113,6.16263158 29.6282914,6.10631579 C29.5541192,6.22736842 29.4158411,6.45526316 29.5281589,6.68157895 L29.6680265,6.80210526 C29.7188874,6.82789474 29.7713377,6.85631579 29.8253775,6.88684211 C29.7808742,6.47052632 30.3594172,6.11421053 30.5861722,5.89421053 C31.0788874,5.41631579 31.7628609,5.58526316 32.0775629,5.69684211 C32.3064371,5.77894737 32.4908079,5.98578947 32.6990199,6.08 C32.8876291,6.12105263 32.8929272,5.90263158 32.9215364,5.81631579 C32.9522649,5.72526316 32.8786225,5.62210526 32.8611391,5.53" id="Fill-62" fill="#FFFFFF"></path>
                <path d="M24.4531391,24.1774211 C24.4356556,24.4605789 24.5596291,24.7900526 24.744,25.1063684 C24.9262517,25.4179474 25.1906225,25.6800526 25.4873113,25.7784737 C25.5477086,26.0095263 25.5683709,26.2205789 25.5477086,26.4621579 C25.9614834,26.5605789 26.2565828,26.4621579 26.6210861,26.2811053 C26.7122119,26.4621579 26.7323444,26.7032105 26.7021457,27.0253158 C27.0465166,26.9953158 27.2685033,26.9342632 27.536053,26.7405789 C27.5524768,26.8942632 27.5424106,27.1258421 27.4915497,27.3168947 C27.6637351,27.0653158 27.7442649,26.8842632 27.7855894,26.6574211 C27.8200265,26.6442632 27.8549934,26.6295263 27.8894305,26.6137368 C27.9270464,26.8842632 27.9365828,27.1158421 27.8655894,27.5579474 C28.1289007,27.0853158 28.2200265,26.8142632 28.2703576,26.3716316 C28.3021457,26.349 28.3132715,26.359 28.3455894,26.3358421 C28.4112848,26.5705789 28.4637351,26.7926842 28.4531391,27.1300526 C29.1720795,26.9895263 29.536053,26.6226842 29.7977748,26.0247895 C29.9111523,26.1342632 30.0663841,26.3211053 30.1628079,26.5021579 C30.7704901,26.2147895 31.0083709,25.4958421 31.1148609,25.0242632 C31.1726093,24.769 31.2277086,24.3084737 31.1720795,24.1305789 C31.234596,24.1563684 31.293404,24.1863684 31.3511523,24.2179474 C31.5943311,23.7153158 31.469298,23.0121579 31.7723444,22.5884737 C32.0144636,22.249 31.8311523,21.9121579 31.7209536,21.5221579 C31.6192318,23.5816316 30.8430728,22.6805789 30.6528742,22.5821579 C29.9673113,22.2258421 27.5429404,22.2553158 26.565457,22.5168947 C26.1601589,22.6258421 25.8571126,22.6868947 25.6298278,22.9053158 C24.9299603,23.5763684 24.6941987,23.3111053 24.5686358,22.709 C24.5500927,22.4668947 24.519894,22.2595263 24.4706225,22.0558421 C24.4658543,22.0158421 24.4610861,21.9753158 24.4557881,21.9342632 C24.4600265,21.9616316 24.4584371,21.9853158 24.4589669,22.0100526 C24.4695629,22.5395263 23.8851921,22.5516316 23.8518146,23.0416316 C23.8470464,23.1095263 23.8523444,23.1868947 23.8724768,23.2753158 C23.9275762,23.4811053 24.4764503,23.8763684 24.4531391,24.1774211" id="Fill-64" fill="#FFFFFF"></path>
                <path d="M22.0964238,6.61731579 C21.9078146,6.58521053 21.767947,6.47678947 21.7849007,6.37889474 C21.8023841,6.27889474 21.9703311,6.22626316 22.1589404,6.25889474 C22.3496689,6.29152632 22.4890066,6.39784211 22.472053,6.49678947 C22.4545695,6.59521053 22.2866225,6.64994737 22.0964238,6.61731579" id="Fill-66" fill="#FFFFFF"></path>
                <path d="M31.6597616,6.18942105 C31.6851921,6.27573684 31.570755,6.38573684 31.4038675,6.43468421 C31.2369801,6.48310526 31.0817483,6.45257895 31.0557881,6.36573684 C31.0303576,6.27836842 31.1432053,6.16784211 31.3100927,6.11942105 C31.4775099,6.07047368 31.6338013,6.10152632 31.6597616,6.18942105" id="Fill-68" fill="#FFFFFF"></path>
                <path d="M33.2098543,8.08110526 C33.2760795,7.86057895 33.4408477,7.61742105 33.4599205,7.40952632 C33.4789934,7.199 33.3846887,6.84321053 33.2872053,6.48163158 C33.2856159,6.48110526 33.2834967,6.48110526 33.2819073,6.48057895 C32.7902517,6.36794737 32.669457,6.50742105 32.4840265,6.73478947 C32.1290596,7.16952632 32.0644238,7.28005263 31.6607152,7.48215789 C31.3698543,7.629 31.0996556,7.62268421 30.8273377,7.56584211 C31.1711788,7.85110526 31.5881325,8.04742105 31.9923709,8.08794737 C32.4220397,8.13110526 32.8527682,8.28057895 33.2098543,8.08110526" id="Fill-70" fill="#FFFFFF"></path>
                <path d="M33.4804238,5.87252632 C33.4814834,6.11515789 33.7130066,6.38410526 33.624,6.49831579 C33.5455894,6.52621053 33.4147285,6.51042105 33.2875762,6.482 C33.3845298,6.84357895 33.4788344,7.19936842 33.4597616,7.40936842 C33.4406887,7.61726316 33.2759205,7.86042105 33.2096954,8.08094737 C33.2155232,8.07831579 33.221351,8.07621053 33.226649,8.07305263 C33.2806887,8.04094737 33.3310199,8.00147368 33.3771126,7.95305263 C33.8200265,7.47936842 34.0043974,7.23621053 33.9487682,6.70831579 C33.9095629,6.56831579 34.279894,6.742 34.5373775,7.18936842 C34.3010861,6.69252632 34.0568477,6.24357895 33.8274437,5.88568421 C33.7453245,5.75936842 33.6748609,5.65147368 33.608106,5.54884211 C33.5212185,5.46568421 33.479894,5.69094737 33.4804238,5.87252632" id="Fill-72" fill="#FFD300"></path>
                <path d="M31.8765563,6.19121053 C31.8686093,6.16489474 31.8596026,6.13963158 31.8495364,6.11489474 C31.8135099,6.11278947 31.7774834,6.11068421 31.7419868,6.11015789 C31.821457,6.46226316 31.602649,6.82278947 31.2360265,6.93015789 C30.8540397,7.04173684 30.4556291,6.837 30.3480795,6.47173684 C30.3464901,6.46594737 30.3454305,6.45963158 30.3433113,6.45331579 L30.3433113,6.45384211 C30.2633113,6.53173684 30.1933775,6.61173684 30.1509934,6.69278947 C30.1515232,6.69384211 30.1515232,6.69489474 30.1515232,6.69542105 C30.2924503,7.16857895 30.7909934,7.43805263 31.2678146,7.29910526 C31.7435762,7.15963158 32.0164238,6.66384211 31.8765563,6.19121053" id="Fill-74" fill="#7E5300"></path>
                <path d="M22.7752583,6.42842105 C22.6857219,6.89526316 22.2194967,7.20315789 21.7278411,7.11842105 C21.2330066,7.03263158 20.896053,6.57947368 20.978702,6.10526316 C20.9824106,6.08368421 20.9877086,6.06315789 20.9930066,6.04263158 C20.8780397,6.04736842 20.7720795,6.05631579 20.6793642,6.06684211 C20.658702,6.12526316 20.6412185,6.18631579 20.6300927,6.25 C20.522543,6.86421053 20.9384371,7.44894737 21.5561854,7.55578947 C22.1755232,7.66263158 22.7641325,7.24947368 22.8711523,6.63578947 C22.8790993,6.59105263 22.8833377,6.54631579 22.885457,6.50263158 C22.8483709,6.47578947 22.8112848,6.45105263 22.7752583,6.42842105" id="Fill-76" fill="#7E5300"></path>
                <path d="M26.0803179,21.7211053 C25.6437616,21.9779474 25.7619073,21.6074211 25.6607152,21.3547895 C25.4864106,20.9216316 25.1420397,20.5379474 25.0715762,19.5721579 C25.0180662,19.1547895 24.994755,18.4616316 25.4286623,18.3321579 C26.1015099,18.1300526 27.1023046,18.7853158 27.6739603,18.7853158 C28.2450861,18.7853158 28.8066755,18.1984737 29.3693245,18.3021579 C29.7534305,18.3726842 29.9028344,18.8553158 30.0257483,19.3211053 C30.1608477,19.8305789 30.112106,20.2032105 30.1645563,20.5468947 C30.1989934,20.7779474 30.2260132,20.8437368 30.3001854,20.9500526 C30.2938278,20.9579474 30.1576689,21.1332105 30.1529007,21.1416316 C30.1454834,21.1342632 30.138596,21.1284737 30.1518411,21.1437368 C30.0967417,21.0905789 30.0246887,21.0611053 29.9483974,21.0611053 C29.869457,21.0611053 29.792106,21.0926842 29.730649,21.1495263 C29.6861457,21.1905789 29.645351,21.2458421 29.6125033,21.3068947 C29.575947,21.2884737 29.5351523,21.279 29.4917086,21.279 C29.4233642,21.279 29.3544901,21.3058421 29.2993907,21.3547895 C29.2988609,21.3558421 29.2983311,21.3558421 29.2978013,21.3563684 C29.253298,21.3226842 29.1981987,21.3042632 29.1388609,21.3042632 C29.0752848,21.3042632 29.0122384,21.3268947 28.9608477,21.3684737 C28.9131656,21.3268947 28.8517086,21.3042632 28.7870728,21.3042632 C28.7287947,21.3042632 28.672106,21.3226842 28.6233642,21.3568947 C28.6217748,21.3558421 28.6207152,21.3547895 28.6191258,21.3532105 C28.5698543,21.3047895 28.5041589,21.279 28.4336954,21.279 C28.3870728,21.279 28.3415099,21.2905789 28.2991258,21.3137368 C28.2636291,21.2574211 28.2170066,21.2005789 28.1592583,21.1437368 C28.1052185,21.0905789 28.0331656,21.0611053 27.9563444,21.0611053 C27.8784636,21.0611053 27.8011126,21.0926842 27.7391258,21.1495263 C27.7163444,21.1705789 27.6940927,21.1947895 27.6744901,21.2232105 C27.5261457,20.7626842 27.4445563,20.4242632 27.3656159,20.0947895 C27.3375364,19.9811053 27.3099868,19.8695263 27.2808477,19.7532105 C27.2114437,19.4805789 27.1134305,19.2268947 26.8723709,19.2268947 C26.5883974,19.2268947 26.4829669,19.5695263 26.4204503,19.7684737 C26.2625695,20.2947895 26.1179338,21.1826842 26.0803179,21.7211053" id="Fill-78" fill="#D52B1E"></path>
                <path d="M29.882543,21.2919474 C29.9217483,21.2556316 29.9636026,21.2514211 29.9943311,21.2814211 C30.1538013,21.4377368 30.2009536,21.5993158 30.202543,21.7114211 C30.2009536,21.7724737 30.0462517,21.8235263 29.949298,21.8235263 C29.8512848,21.8235263 29.7050596,21.7677368 29.706649,21.7182632 C29.7061192,21.6208947 29.781351,21.3845789 29.882543,21.2919474 M28.2110199,21.7114211 C28.2094305,21.7724737 28.0552583,21.8235263 27.957245,21.8235263 C27.8597616,21.8235263 27.7135364,21.7677368 27.7151258,21.7182632 C27.714596,21.6208947 27.7898278,21.3845789 27.8904901,21.2919474 C27.9302252,21.2556316 27.9726093,21.2514211 28.0022781,21.2814211 C28.1622781,21.4377368 28.2089007,21.5993158 28.2110199,21.7114211 M28.5914172,21.7572105 C28.5908874,21.7956316 28.4949934,21.8272105 28.434596,21.8272105 C28.3741987,21.8272105 28.2836026,21.793 28.2851921,21.7614211 C28.2841325,21.7014211 28.330755,21.5551053 28.3932715,21.4977368 C28.4181722,21.4751053 28.4441325,21.4735263 28.4626755,21.4908947 C28.5617483,21.5882632 28.5903576,21.6877368 28.5914172,21.7572105 M28.8149934,21.5166842 C28.914596,21.6140526 28.9432053,21.7135263 28.9442649,21.7835263 C28.9432053,21.8214211 28.8478411,21.8524737 28.7874437,21.8524737 C28.7265166,21.8524737 28.6353907,21.8182632 28.6369801,21.7872105 C28.6369801,21.7266842 28.6830728,21.5808947 28.7455894,21.523 C28.7699603,21.5008947 28.7964503,21.4987895 28.8149934,21.5166842 M29.2976424,21.7835263 C29.296053,21.8214211 29.2006887,21.8524737 29.1397616,21.8524737 C29.0793642,21.8524737 28.989298,21.8182632 28.9898278,21.7872105 C28.989298,21.7266842 29.0359205,21.5808947 29.0989669,21.523 C29.1228079,21.5008947 29.149298,21.4987895 29.1678411,21.5166842 C29.2669139,21.6140526 29.296053,21.7135263 29.2976424,21.7835263 M29.6499603,21.7572105 C29.6489007,21.7956316 29.5530066,21.8272105 29.4926093,21.8272105 C29.4322119,21.8272105 29.3416159,21.793 29.3421457,21.7614211 C29.3421457,21.7014211 29.3887682,21.5551053 29.4512848,21.4977368 C29.4751258,21.4751053 29.5021457,21.4735263 29.5201589,21.4908947 C29.6197616,21.5882632 29.6489007,21.6877368 29.6499603,21.7572105 M30.1522119,15.0319474 C30.1506225,14.9956316 30.2565828,14.9556316 30.3275762,14.9556316 C30.3985695,14.9556316 30.5103576,14.993 30.5114172,15.0366842 C30.509298,15.1177368 30.4753907,15.2351053 30.3593642,15.3482632 C30.3381722,15.3698421 30.3079735,15.3672105 30.2783046,15.3408947 C30.2057219,15.2740526 30.1511523,15.1024737 30.1522119,15.0319474 M30.8616159,14.9598421 C30.976053,14.9598421 31.1556556,15.0198421 31.1577748,15.0908947 C31.154596,15.2219474 31.1005563,15.4114211 30.9135364,15.5935263 C30.8790993,15.6282632 30.829298,15.6235263 30.7826755,15.5814211 C30.6650596,15.473 30.5776424,15.1972105 30.5781722,15.083 C30.5765828,15.0245789 30.746649,14.9598421 30.8616159,14.9598421 M30.274596,21.5951053 C30.7583046,20.7708947 30.9156556,20.2835263 31.1063841,19.8051053 C31.2478411,19.4477368 31.3861192,19.3508947 31.4279735,19.9361579 C31.4608212,20.3903684 31.4767152,20.9014211 31.3008212,21.5993158 C31.2436026,21.7619474 30.9161854,21.8577368 30.7323444,21.8577368 C30.5485033,21.8577368 30.2046623,21.7414211 30.274596,21.5951053 M27.5710199,21.5951053 C27.613404,21.7756316 27.2621457,21.8708947 27.0899603,21.8708947 C26.9177748,21.8708947 26.5241325,21.8019474 26.5029404,21.6435263 C26.485457,20.7435263 26.5956556,20.2408947 26.6862517,19.8066842 C26.7900927,19.3156316 26.9405563,19.2893158 27.0703576,19.7993158 C27.2043974,20.3277368 27.2918146,20.7824737 27.5710199,21.5951053 M32.6624106,15.3687895 C32.4563179,16.1987895 32.1877086,16.8077368 31.864,17.3482632 C31.4465166,18.0451053 31.3278411,17.9293158 31.3659868,17.5040526 C31.4168477,16.933 31.5153907,16.353 31.4014834,15.3708947 C31.4014834,15.1977368 31.7882384,15.0303684 32.0330066,15.0303684 C32.2777748,15.0303684 32.6899603,15.1735263 32.6624106,15.3687895 M29.7389669,15.0024737 C29.7384371,14.9656316 29.8443974,14.9261579 29.9153907,14.9256316 C29.9858543,14.9256316 30.0965828,14.963 30.098702,15.0066842 C30.0965828,15.0877368 30.0632053,15.2056316 29.9477086,15.3182632 C29.9259868,15.3387895 29.8952583,15.3372105 29.8671788,15.3103684 C29.7935364,15.2435263 29.7389669,15.073 29.7389669,15.0024737 M29.3273113,15.0024737 C29.3257219,14.9656316 29.4316821,14.9261579 29.5021457,14.9256316 C29.5731391,14.9256316 29.6849272,14.963 29.6865166,15.0066842 C29.6843974,15.0877368 29.6504901,15.2056316 29.5349934,15.3182632 C29.5132715,15.3387895 29.4830728,15.3372105 29.4539338,15.3103684 C29.381351,15.2435263 29.3267815,15.073 29.3273113,15.0024737 M28.914596,15.0319474 C28.9135364,14.9956316 29.0194967,14.9556316 29.0899603,14.9556316 C29.1609536,14.9556316 29.2727417,14.993 29.2738013,15.0366842 C29.2727417,15.1177368 29.2383046,15.2351053 29.1228079,15.3482632 C29.1010861,15.3698421 29.0703576,15.3672105 29.0417483,15.3408947 C28.9686358,15.2740526 28.9140662,15.1024737 28.914596,15.0319474 M28.2486358,15.083 C28.2465166,15.0245789 28.4171126,14.9598421 28.5315497,14.9598421 C28.6459868,14.9598421 28.8261192,15.0198421 28.8287682,15.0908947 C28.8261192,15.2219474 28.7710199,15.4114211 28.5845298,15.5935263 C28.5495629,15.6282632 28.5008212,15.6235263 28.4536689,15.5814211 C28.3355232,15.473 28.2475762,15.1972105 28.2486358,15.083 M26.4690331,15.3256316 C26.4690331,15.1335263 26.9781722,15.0145789 27.2065166,15.0145789 C27.4359205,15.0145789 27.9010861,15.1656316 27.8777748,15.3851053 C27.6547285,16.3708947 27.6208212,16.9219474 27.5392318,17.5624737 C27.4597616,18.1803684 27.2441325,18.1482632 27.0163179,17.5535263 C26.8155232,17.0266842 26.6094305,16.4172105 26.4690331,15.3256316" id="Fill-80" fill="#FFFFFF"></path>
                <path d="M38.7329272,35.1154737 C38.6762384,34.8181053 38.6015364,34.5265263 38.5713377,34.4302105 C38.0971656,32.9107368 37.2733245,31.756 36.4245828,30.8617895 C36.0696159,30.4881053 35.7098808,30.1591579 35.3702781,29.8686316 C33.8963709,28.6107368 33.1090861,27.9212632 33.2770331,25.7302105 C33.2807417,25.6823158 33.2839205,25.6338947 33.2886887,25.5838947 C33.314649,25.3023158 33.3776954,25.0654737 33.461404,24.8649474 C32.9904106,25.2207368 32.4818013,25.5344211 31.9657748,25.7649474 C31.9122649,25.9907368 31.719947,26.6954737 31.2955762,27.1865263 C31.7644503,28.7575789 32.9395497,30.4138947 33.5557086,31.1633684 C33.2288212,30.5149474 33.136106,30.1207368 32.8786225,29.4023158 C33.8301457,30.6307368 34.9496159,32.3654737 35.0518675,34.1654737 C34.4494834,33.5333684 33.8221987,33.0017895 33.3798146,32.7854737 C34.2163709,34.6591579 34.1273642,35.8612632 33.6123974,37.6596842 C32.5845828,41.2570526 30.7954437,41.8191579 28.5596821,45.6738947 C29.0794172,45.1102105 29.5371656,44.6775789 30.0627285,44.3496842 C28.994649,45.5296842 27.9991523,47.4433684 28.0145166,49.2333684 C33.2998146,45.3644211 36.7281589,40.4681053 38.7329272,35.1154737" id="Fill-82" fill="#FFD300"></path>
                <path d="M38.3185166,27.1726842 C37.5746755,25.8753158 37.2403709,24.799 36.1632848,23.7268947 C35.9714967,23.5368947 35.6615629,23.2547895 35.3595762,22.8926842 C35.1481854,23.2042632 34.9394437,23.4558421 34.6236821,23.7863684 C34.6353377,23.9226842 34.6713642,24.3542632 34.6814305,24.5963684 C34.7624901,26.6663684 36.034543,27.9326842 37.5476556,29.2963684 C38.1987815,29.8837368 39.2144106,30.7395263 39.8363974,31.5937368 C39.997457,30.9658421 40.1405033,30.3332105 40.2676556,29.6963684 C39.4777219,28.8563684 38.7073907,27.8500526 38.3185166,27.1726842" id="Fill-84" fill="#FFD300"></path>
                <path d="M37.7923179,24.4328947 C38.2749669,25.3607895 39.5544371,27.0002632 40.573245,27.9523684 C40.6384106,27.5207895 40.6972185,27.0892105 40.7486093,26.6565789 C39.845298,26.1997368 38.7486093,25.2807895 37.7923179,24.4328947" id="Fill-86" fill="#FFD300"></path>
                <path d="M13.6377219,26.0048947 C13.2737483,25.6122632 12.962755,25.1975263 12.7095099,24.8022632 C12.0069934,26.0322632 11.0416954,27.7875263 10.5314967,29.6527895 C10.8838146,29.0217368 11.3087152,28.3591053 11.3087152,28.3591053 C10.9352053,29.5591053 10.5314967,31.1096316 10.2830199,32.9664737 C10.0371921,34.7991053 9.96831788,37.1875263 10.2099073,39.6022632 C10.9367947,40.8848947 11.7643444,42.1275263 12.6994437,43.3206842 C10.7736159,37.5143684 10.656,31.2701579 13.6377219,26.0048947" id="Fill-88" fill="#FFD300"></path>
                <path d="M23.9838411,28.3013684 C23.7554967,28.0276842 23.5568212,27.7355789 23.3957616,27.4650526 C22.8802649,27.2318947 22.4490066,26.9992632 22.1337748,26.7571579 C21.5562914,27.0613684 20.9581457,27.474 20.2280795,28.0445263 C20.7054305,27.4671579 21.2394702,26.9750526 21.8455629,26.5497895 C21.557351,26.3250526 21.3215894,26.0818947 21.1329801,25.8313684 C20.5454305,26.1071579 20.021457,26.3171579 19.3962914,26.8108421 C19.8572185,26.1429474 20.210596,25.9371579 20.9136424,25.4692632 C20.8940397,25.434 20.832053,25.3550526 20.8140397,25.3192632 C19.8397351,25.6671579 19.0455629,26.0897895 18.5152318,26.5582105 C18.2259603,26.2713684 17.88,25.8076842 17.5721854,25.3355789 C17.381457,25.7545263 17.1928477,26.2213684 17.0413245,26.7155789 C16.9327152,27.1155789 16.8511258,27.4524211 16.824106,27.6045263 C16.821457,27.6118947 16.8198675,27.6197895 16.8172185,27.6266316 C16.8045033,27.6929474 16.7933775,27.7597895 16.7827815,27.8261053 C16.4813245,27.7824211 15.9403974,27.6182105 15.495894,27.4255789 C15.3348344,28.7682105 15.5149669,30.4987368 16.1570861,32.2324211 C16.0871523,31.6229474 16.0813245,31.2950526 16.130596,30.8308421 C16.437351,32.1413684 16.7801325,32.9566316 17.4360265,33.6408421 C18.4098013,32.1982105 20.3112583,30.6708421 22.181457,29.9571579 C21.4678146,30.074 20.9337748,30.2224211 20.1952318,30.4882105 C21.1472848,29.8508421 21.8927152,29.5203158 22.7928477,29.0445263 C23.2723179,28.7908421 23.6797351,28.534 23.9838411,28.3013684" id="Fill-90" fill="#FFD300"></path>
                <path d="M35.8272848,22.0523684 C36.7237086,20.7076316 36.642649,18.2818421 36.384106,16.4092105 C36.5721854,16.5086842 36.7560265,16.6386842 36.9531126,16.8144737 C36.7592053,16.4371053 36.5970861,16.2371053 36.3168212,15.9807895 C36.306755,15.9192105 36.2972185,15.8239474 36.2834437,15.7586842 C36.4513907,15.8765789 36.575894,15.9739474 36.6908609,16.0976316 C36.8270199,14.4686842 36.7766887,13.1886842 36.2564238,11.7292105 C36.2564238,11.7292105 36.4238411,11.7034211 36.5753642,11.7639474 C36.5398675,11.6592105 36.4858278,11.5055263 36.4190728,11.3213158 C36.1849007,11.4481579 35.9396026,11.5560526 35.6656954,11.6592105 C35.7197351,11.9355263 35.7658278,12.2207895 35.8013245,12.505 C35.3372185,12.5060526 34.8301987,12.6223684 34.3099338,12.7997368 C34.312053,12.7802632 34.3152318,12.7607895 34.3152318,12.7413158 C34.3247682,12.4981579 34.3215894,12.2881579 34.3099338,12.1002632 C33.3181457,12.4097368 32.4423841,12.6302632 32.6654305,12.4271053 C33.0691391,12.2318421 33.5078146,12.0476316 33.9639735,11.8797368 C33.9952318,11.8681579 34.0254305,11.8560526 34.0561589,11.845 C34.1282119,11.8197368 34.2007947,11.7955263 34.2728477,11.7707895 C35.050596,11.5044737 35.8712583,11.2934211 36.6654305,11.1807895 C36.5642384,11.1607895 36.4598675,11.1502632 36.3544371,11.145 C36.245298,10.8460526 36.1117881,10.4913158 35.9735099,10.1355263 C35.7997351,10.2397368 35.5984106,10.3486842 35.3743046,10.4639474 C35.4421192,10.6913158 35.5088742,10.9439474 35.5708609,11.2118421 C35.1470199,11.2986842 34.7025166,11.4565789 34.2516556,11.6523684 C34.2055629,11.4244737 34.1382781,11.2318421 34.0503311,11.0492105 C33.3154967,11.3339474 32.7809272,11.4997368 32.9488742,11.3239474 C34.077351,10.6671053 35.0150993,10.1797368 36.3655629,9.82973684 C36.397351,9.82236842 36.4270199,9.81552632 36.4524503,9.80815789 C36.2823841,9.79026316 36.010596,9.80868421 35.8564238,9.83552632 C35.8103311,9.71973684 35.7647682,9.60552632 35.7197351,9.495 C35.7027815,9.45394737 35.6058278,9.21552632 35.5888742,9.17447368 L35.7197351,9.19131579 C35.122649,7.54868421 34.2172185,5.87815789 32.9541722,4.60552632 C33.3896689,5.20184211 33.522649,5.41921053 33.8278146,5.88605263 C34.4407947,6.84394737 35.1671523,8.455 35.5406623,9.90815789 C34.9875497,10.0660526 34.4572185,10.3739474 33.8807947,10.7365789 C33.8405298,10.6676316 33.7965563,10.5971053 33.7504636,10.5244737 C33.6487417,10.3644737 33.2874172,10.0528947 33.0055629,9.90289474 C33.1035762,10.1086842 33.1417219,10.4065789 33.037351,10.7507895 C32.8519205,11.3660526 32.5578808,11.7118421 32.2098013,12.1323684 C31.912053,12.4913158 31.5512583,13.3155263 30.8847682,13.3760526 C30.88,13.4439474 30.8784106,13.5065789 30.8784106,13.5434211 C30.8784106,13.9455263 31.3335099,14.4865789 31.5819868,14.605 C32.064106,14.8328947 32.1515232,14.8497368 32.7210596,14.7223684 C33.2916556,14.5928947 33.6063576,14.2165789 33.7986755,13.9792105 C33.9512583,13.7907895 34.085298,13.5707895 34.1796026,13.3376316 C33.1634437,13.5960526 32.2394702,13.775 32.4768212,13.5771053 C32.9144371,13.3902632 33.3896689,13.2192105 33.8850331,13.0723684 C33.8929801,13.0697368 33.9009272,13.0676316 33.9088742,13.065 C34.7284768,12.8228947 35.597351,12.6481579 36.4275497,12.5876316 C36.247947,12.6928947 36.0513907,12.7760526 35.8394702,12.8518421 C35.8924503,13.4123684 35.8956291,13.9513158 35.8235762,14.3918421 C36.0196026,14.5671053 36.1827815,14.7839474 36.3618543,15.1023684 C36.224106,14.9876316 36.0863576,14.8828947 35.9496689,14.7871053 C35.4701987,14.4392105 35.1274172,14.2707895 34.5880795,14.1781579 C34.8916556,14.3197368 35.1565563,14.5034211 35.4002649,14.7023684 C35.3674172,16.1323684 35.1724503,18.1755263 34.7046358,19.2023684 C34.5377483,18.9702632 34.3830464,18.8128947 34.1303311,18.6323684 C34.1250331,18.6528947 34.0884768,18.7202632 34.0831788,18.7407895 C34.4381457,19.1560526 34.6246358,19.4528947 34.8376159,20.0318421 C34.5011921,19.6460526 34.226755,19.3571053 33.9660927,19.1186842 C33.4654305,20.5334211 32.8031788,20.8276316 32.2437086,20.8681579 C32.2437086,20.8681579 32.7772185,21.9639474 32.2966887,23.0260526 C32.258543,23.1107895 32.2394702,23.2234211 32.2278146,23.3460526 C32.3703311,23.6323684 32.330596,23.805 32.4370861,24.1471053 C33.3250331,23.7781579 34.3666225,22.7060526 34.9753642,21.8513158 C35.2429139,22.095 35.5009272,22.3571053 35.8474172,22.7413158 C35.6439735,22.2192105 35.4654305,21.9302632 35.1629139,21.575 C35.1962914,21.5239474 35.2201325,21.5092105 35.2529801,21.4571053 C35.4919205,21.6313158 35.6333775,21.7613158 35.8272848,22.0523684" id="Fill-92" fill="#FFFFFF"></path>
                <path d="M26.8129272,5.22931579 C26.2036556,4.59773684 25.4412715,4.17878947 23.957298,3.93405263 C24.765245,3.79247368 25.8857748,3.97247368 26.4224636,4.29984211 C26.9988874,3.84931579 27.5965033,3.73878947 28.2963709,3.83721053 C27.6192848,4.03668421 26.6751788,4.58615789 26.8129272,5.22931579 M21.2870993,2.46773684 C22.5882914,2.21615789 24.3615364,2.39931579 25.0063046,2.89142105 C25.5133245,2.53615789 26.3986225,2.30721053 27.9021987,2.55457895 C26.6529272,2.63931579 26.3080265,2.713 26.0182252,2.933 C26.3885563,2.85036842 26.7890861,2.82931579 27.4900132,2.99352632 C26.6645828,3.05089474 25.6367682,3.28510526 25.6394172,3.74931579 C25.0868344,3.34878947 23.9011391,3.00563158 22.8298808,3.00563158 C23.3713377,2.84510526 23.7782252,2.85247368 24.1003444,2.933 C23.4327947,2.62352632 22.8526623,2.49510526 21.2870993,2.46773684 M31.2489536,10.4303684 C31.5811391,10.4482632 32.0823311,10.4351053 32.3790199,10.2882632 C32.3949139,10.5051053 31.5906755,10.8640526 31.4179603,10.8751053 C31.2288212,10.8866842 31.0200795,10.7408947 30.839947,10.6966842 C30.6031258,10.6403684 30.3583576,10.5851053 30.2100132,10.5608947 C30.0908079,10.5419474 29.9270993,10.4856316 29.9090861,10.3203684 C30.359947,10.343 30.7975629,10.4066842 31.2489536,10.4303684 M20.506702,9.99089474 C19.9922649,10.3656316 19.2039205,10.6766842 18.442596,10.5340526 C18.3424636,10.8482632 18.3848477,11.4014211 18.6237881,12.0424737 C17.3379603,11.4714211 16.5612715,10.5114211 16.4791523,9.78931579 C17.3051126,9.39563158 19.053457,9.97510526 20.506702,9.99089474 M36.2131921,4.05931579 C35.3533245,4.16194737 34.4023311,4.06878947 33.6431258,3.65773684 C34.2847152,3.67773684 34.7583576,3.563 35.9249801,3.21405263 C35.5684238,3.243 32.0335894,3.34615789 29.970543,2.82089474 C29.0677616,2.42036842 26.1421987,1.263 24.3811391,2.22247368 C21.4979603,1.283 17.8629934,2.25668421 16.8012715,3.05615789 C14.8680265,3.05615789 12.8277616,2.91773684 11.6743841,2.54457895 C12.6126623,3.19878947 13.3549139,3.30773684 13.9180927,3.42878947 C12.501404,3.48563158 11.4847152,3.27984211 9.96100662,2.94878947 C10.4680265,3.44142105 10.834649,3.64457895 11.5906755,3.86984211 C11.1429934,3.90931579 10.682596,3.88668421 10.192,3.79878947 C10.7742517,4.27563158 12.2492185,5.06721053 13.5037881,4.51668421 C13.8661722,4.35773684 15.0206093,3.74405263 15.9980927,3.63563158 C15.458755,3.92405263 14.5988874,4.69773684 14.1109404,5.25352632 C14.0939868,5.28089474 14.0770331,5.30878947 14.0606093,5.33721053 C14.5104106,5.01984211 15.0338543,4.76984211 15.5562384,4.67352632 C14.7731921,5.25194737 14.432,5.85036842 14.4002119,6.48510526 C14.6741192,6.19405263 14.8844503,5.893 15.1954437,5.79668421 C15.2696159,5.77405263 15.3300132,5.853 15.3909404,5.98721053 C15.5037881,6.14615789 15.5843179,6.51826316 15.7363709,6.85984211 C15.9016689,7.20194737 16.1310728,7.50405263 16.4929272,7.543 C16.5798146,7.55247368 16.6704106,7.56773684 16.7636556,7.58563158 C16.3583576,7.16352632 16.2836556,6.72878947 16.4727947,6.443 C16.5527947,6.32405263 16.6582252,6.04194737 16.9188874,5.80773684 C16.7562384,5.80984211 16.6020662,5.81352632 16.498755,5.67089474 C16.413457,5.55405263 16.3604768,5.40352632 16.3202119,5.26510526 C16.279947,5.12721053 16.1400795,4.87878947 16.178755,4.74878947 C16.5162384,4.75247368 16.8447152,4.85036842 17.1774305,4.75510526 C17.6918675,4.60878947 17.5588874,4.08931579 18.1755762,3.65773684 C18.2248477,3.78563158 18.2444503,3.913 18.2481589,4.03984211 C18.5162384,3.88878947 18.9432583,3.69405263 19.301404,3.58405263 C19.5064371,3.52036842 19.7459073,3.46457895 19.9323974,3.47457895 C20.2396821,3.49142105 20.5570331,3.61352632 20.8463046,3.71510526 C21.2277616,3.84878947 21.5419338,4.07457895 21.8375629,4.32668421 C22.7218013,4.54668421 23.3670993,5.10247368 24.0065695,5.71826316 C24.1527947,5.86931579 24.2333245,5.99352632 24.2047152,6.19142105 C24.2635232,6.22931579 24.3228609,6.26510526 24.3811391,6.29615789 C24.7588874,6.49036842 24.8606093,6.90352632 24.8606093,7.09036842 C24.8606093,7.12036842 24.8590199,7.15668421 24.8547815,7.19615789 C25.8221987,6.64984211 26.6322649,6.32247368 27.6182252,6.75984211 C26.7000795,6.69036842 25.802596,7.16036842 25.0566358,7.79457895 C24.5580927,8.21721053 23.5276291,9.14931579 22.752,9.18668421 C22.6757086,8.85142105 22.7980927,8.67878947 23.0465695,8.44457895 C23.3686887,8.19457895 23.6966358,7.94826316 24.0245828,7.72142105 C23.8455099,7.68352632 23.6494834,7.68668421 23.4359735,7.70668421 C23.1588874,8.08615789 22.7482914,8.30036842 22.4870993,8.42510526 C21.5800795,8.83457895 21.1175629,9.023 19.399947,8.89142105 C18.3080265,8.80826316 17.5074967,8.97931579 16.9310728,8.97931579 C16.3525298,8.97931579 16.0637881,8.84931579 15.7331921,8.56352632 C15.4036556,8.27721053 15.2542517,7.85615789 15.0889536,7.36563158 C15.0550464,8.82931579 15.4619338,12.4598421 16.9665695,13.2872105 C17.2055099,13.1193158 17.6637881,12.9951053 18.0664371,13.0003684 C17.4767682,13.2819474 16.8463046,13.8445789 16.4955762,14.533 C17.861404,13.3519474 18.8945166,13.0545789 20.5951788,13.0482632 C19.8894834,14.2519474 19.7353113,15.2845789 19.7633907,16.3072105 C19.7808742,16.9451053 19.8661722,17.4361579 20.0023311,17.8356316 C20.2709404,18.6840526 20.7239205,19.5498421 21.2870993,20.1872105 C21.1514702,19.8772105 21.0322649,19.5656316 20.9316026,19.2593158 L20.9321325,19.2593158 C21.3342517,19.6845789 21.8126623,20.1293158 22.3186225,20.8166842 C22.9612715,21.6940526 23.394649,21.8240526 23.8518675,23.0419474 C23.885245,22.5514211 24.4696159,22.5398421 24.4590199,22.0098421 C24.3716026,21.6714211 24.2274967,21.3356316 23.9843179,20.8524737 C23.5228609,19.9361579 21.9366358,16.7698421 21.8704106,14.8345789 C21.8476291,14.1640526 22.2841854,13.7819474 22.4314702,13.4887895 C22.5310728,13.2914211 22.5337219,13.1051053 22.4950464,12.9166842 C21.6812715,12.7219474 20.7594172,12.4461579 20.1776954,12.1945789 C20.8351788,12.1219474 21.5562384,12.1651053 22.2937219,12.2803684 C22.2116026,12.0182632 22.1570331,11.7303684 22.2333245,11.3882632 C22.2370331,11.3735263 22.2412715,11.3593158 22.2449801,11.3451053 C21.5345166,11.1282632 20.9077616,10.9166842 20.2889536,10.6682632 C20.9845828,10.6256316 21.704053,10.7119474 22.4298808,10.873 C22.5633907,10.6198421 22.7477616,10.3672105 22.9676291,10.1187895 C21.7443179,9.69721053 20.8367682,9.29352632 20.2815364,9.00931579 C21.3151788,9.02773684 22.3663046,9.29826316 23.3957086,9.673 C23.6261722,9.45142105 23.9032583,9.21773684 24.1935894,8.99615789 C24.4600795,8.78721053 24.7488212,8.49615789 25.0206093,8.30457895 C25.8539868,7.73194737 26.9851126,6.99984211 27.9594172,7.61405263 C27.7994172,7.62194737 27.6298808,7.63405263 27.4566358,7.65773684 C26.8818013,7.71826316 27.2229934,8.55405263 27.8735894,9.21984211 C28.2253775,9.58089474 28.5670993,10.0951053 28.9745166,10.6745789 C29.2447152,11.0572105 29.2712053,11.1756316 29.5689536,11.2656316 C30.0754437,11.4187895 30.6232583,11.6635263 30.5056424,11.973 C30.4192848,12.1972105 30.0500132,12.1024737 30.125245,12.3745789 C30.2863046,12.9556316 30.7074967,13.0687895 31.061404,13.0019474 C31.1196821,12.9845789 31.1774305,12.9687895 31.2325298,12.9535263 C31.2881589,12.933 31.3400795,12.9082632 31.386702,12.8814211 C31.5557086,12.7693158 31.6298808,12.5935263 31.8131921,12.3066842 C31.8863046,12.1287895 31.7575629,12.1393158 31.7575629,11.9877368 C31.7575629,11.8819474 31.9535894,11.6387895 32.2179603,11.4161579 C32.5453775,11.1408947 32.7509404,10.5914211 32.7509404,10.3551053 C32.7509404,10.0566842 32.7583576,9.85826316 32.6290861,9.64668421 C32.1220662,8.93510526 30.7869669,8.12668421 30.6221987,8.003 C30.1681589,7.65984211 29.7369007,7.61142105 29.2500132,7.57878947 C29.5016689,7.35036842 29.7109404,7.36773684 29.9069669,7.433 C29.7591523,7.28826316 29.6828609,7.20826316 29.5663046,7.12826316 C29.154649,6.84668421 28.687894,6.74773684 28.1045828,6.71194737 C28.7488212,6.41563158 29.1159735,6.43457895 29.6680265,6.80194737 L29.5281589,6.68142105 C29.4158411,6.45510526 29.5541192,6.22721053 29.6282914,6.10615789 C29.5456424,5.93510526 29.5604768,5.773 29.6060397,5.62984211 C29.7416689,5.26405263 29.856106,4.99405263 30.0023311,4.79457895 C29.7284238,4.37773684 29.3490861,3.93826316 29.4396821,3.75984211 C29.4984901,3.64194737 29.5832583,3.52194737 29.7607417,3.48826316 C29.8677616,3.46615789 30.4494834,3.52194737 30.733457,3.60036842 C31.3453775,3.76984211 31.7877616,3.92615789 32.1337219,4.14721053 C32.0939868,4.10773684 32.0516026,4.06826316 32.0081589,4.02931579 C31.6680265,3.75878947 31.2584901,3.48721053 30.7451126,3.20721053 C31.3686887,3.48405263 32.1167682,3.82247368 32.5427285,4.03563158 C33.3670993,4.44826316 34.0123974,5.08721053 35.4492185,5.00352632 C35.0767682,4.92615789 34.4839205,4.65089474 33.9165033,4.24615789 C34.173457,4.25510526 34.906702,4.47036842 36.2131921,4.05931579" id="Fill-94" fill="#FFD300"></path>
            </g>
        </g>
        <rect id="Bounding-box" fill-opacity="0" fill="#FFFFFF" x="0" y="0" width="80" height="80"></rect>
    </g>
</svg>