<?xml version="1.0" encoding="UTF-8"?>
<svg width="80px" height="80px" viewBox="0 0 80 80" version="1.1" xmlns="http://www.w3.org/2000/svg" xmlns:xlink="http://www.w3.org/1999/xlink">
    <!-- Generator: Sketch 52.5 (67469) - http://www.bohemiancoding.com/sketch -->
    <title>Assets/Logos/Clubs/Reverse/St Kilda</title>
    <desc>Created with Sketch.</desc>
    <defs>
        <path d="M0.147966426,0.314543046 C0.753784008,2.58554048 1.59654851,4.99757134 2.75145914,7.50182781 L38.8901639,7.50182781 C40.0460405,4.99757134 40.8900883,2.58554048 41.4976373,0.314543046 L0.147966426,0.314543046 Z" id="path-1"></path>
        <path d="M0.145550719,0.305483444 C0.752306934,2.58199139 1.59713953,5.00033011 2.75583399,7.51131126 L38.8857854,7.51131126 C40.0454475,5.00033011 40.8915666,2.58199139 41.5000599,0.305483444 L0.145550719,0.305483444 Z" id="path-3"></path>
    </defs>
    <g id="Assets/Logos/Clubs/Reverse/St-Kilda" stroke="none" stroke-width="1" fill="none" fill-rule="evenodd">
        <g id="Page-1" transform="translate(9.000000, 12.000000)">
            <g id="Group-69">
                <path d="M55.3491391,26.4695629 C55.3491391,26.4695629 55.6140397,29.6298278 55.7496689,31.7061192 C56.3181457,31.2250596 56.901457,30.7323444 56.901457,30.7323444 C60.0490066,28.0796291 60.0490066,28.0796291 60.6656954,28.501351 L61.2649007,28.911947 L61.0264901,29.5990993 C58.2635762,37.5270464 54.6121854,43.141351 52.0352318,46.4552583 C51.8439735,46.7010861 47.3348344,52.4716821 45.7549669,52.2046623 L45.0752318,52.0896954 L44.9364238,51.234596 L44.9671523,51.4443974 C44.7080795,50.7794967 41.9843709,47.4258543 41.5896689,46.9924768 L40.9713907,46.3164503 L41.6082119,45.6568477 C50.0754967,37.3379073 53.5017219,26.1702252 53.5350993,26.0584371 C53.5350993,26.0584371 53.7782781,25.3257219 53.8831788,24.7636026 C54.4484768,25.074596 55.2686093,25.229298 55.3491391,26.4695629" id="Fill-5" fill="#FFFFFF"></path>
                <polygon id="Fill-9" fill="#FFFFFF" points="48.1352583 45.4089536 40.9718146 46.3165033 44.8308874 52.7424636 52.0277086 51.5297483 48.7058543 45.4047152"></polygon>
                <path d="M6.4325298,26.4695629 C6.4325298,26.4695629 6.16762914,29.6298278 6.032,31.7061192 C5.46352318,31.2250596 4.88021192,30.7323444 4.88021192,30.7323444 C1.73319205,28.0796291 1.73319205,28.0796291 1.11650331,28.501351 L0.516238411,28.911947 L0.755708609,29.5990993 C3.51809272,37.5270464 7.17001325,43.141351 9.74696689,46.4552583 C9.93769536,46.7010861 14.4468344,52.4716821 16.0261722,52.2046623 L16.7064371,52.0896954 L16.845245,51.234596 L16.8139868,51.4443974 C17.0735894,50.7794967 19.797298,47.4258543 20.192,46.9924768 L20.8102781,46.3164503 L20.173457,45.6568477 C11.7061722,37.3379073 8.27994702,26.1702252 8.24656954,26.0584371 C8.24656954,26.0584371 8.00339073,25.3257219 7.89849007,24.7636026 C7.33319205,25.074596 6.5130596,25.229298 6.4325298,26.4695629" id="Fill-11" fill="#FFFFFF"></path>
                <polygon id="Fill-13" fill="#FFFFFF" points="13.0364503 45.9071788 9.16360265 51.0923444 16.266649 52.2674437 20.8102252 46.3161854 13.3151258 45.4499603"></polygon>
                <path d="M47.5325033,45.6370861 C40.4405828,50.8031788 33.6723709,51.2434437 31.0922384,51.1925828 C31.0922384,51.1925828 30.9634967,51.2333775 30.8919735,51.2561589 C30.8204503,51.2333775 30.6917086,51.1925828 30.6917086,51.1925828 C28.1115762,51.2434437 21.3449536,50.8031788 14.2530331,45.6370861 L13.4789934,45.0733775 L9.16376159,51.0924503 L9.71581457,51.6625166 C10.0119735,51.9687417 17.1240265,59.1517881 30.8919735,59.1517881 C44.6593907,59.1517881 51.7730331,51.9687417 52.0691921,51.6625166 L52.6207152,51.0929801 L48.3070728,45.0733775 L47.5325033,45.6370861 Z" id="Fill-15" fill="#FFFFFF"></path>
                <path d="M52.2003179,0.448 L8.86680795,0.448 L8.67025166,1.13886093 C8.59819868,1.39104636 1.8072053,26.6705166 30.3115762,48.6387285 L30.8917086,49.0864106 L31.4723709,48.6387285 C59.9778013,26.6710464 53.1868079,1.39104636 53.1152848,1.13886093 L52.9181987,0.448 L52.2003179,0.448 Z" id="Fill-17" fill="#FFFFFF"></path>
                <path d="M54.9129536,33.6487947 L54.4361325,26.3317086 C54.4361325,26.3317086 51.1619603,37.7213775 42.408053,46.3216424 C42.3985166,46.3189934 45.6048742,51.530649 45.6138808,51.522702 C46.0403709,51.1142252 54.7810331,44.6019073 60.1187815,29.2869404 C60.1436821,29.2164768 54.9129536,33.6487947 54.9129536,33.6487947" id="Fill-19" fill="#000000"></path>
                <path d="M54.3868079,26.738596 C54.4344901,27.455947 54.8472053,33.8024371 54.8472053,33.8024371 L54.9616424,33.7054834 C56.1854834,32.6686623 59.146543,30.1658808 59.9497219,29.512106 C55.4517086,42.237404 48.5356821,48.9891921 45.7542252,51.3044238 C45.7542252,51.3044238 45.6874702,51.3616424 45.6313113,51.4098543 C45.3796556,51.0172715 42.6946225,46.6607152 42.5017748,46.3322384 C50.2739603,38.6729007 53.7452185,28.738596 54.3868079,26.738596 M42.3555497,46.2676026 C42.2999205,46.3725033 45.525351,51.5491921 45.5677351,51.5825695 L45.615947,51.6196556 L45.850649,51.4204503 C48.6601854,49.0808477 55.682702,42.2437616 60.1891921,29.3107815 L60.2082649,29.2578013 L60.1611126,29.223894 C60.1462781,29.2138278 60.1245563,29.213298 60.0482649,29.2625695 L60.0472053,29.2630993 C59.7976689,29.4241589 58.8668079,30.1997881 54.978596,33.4951523 C54.9595232,33.2095894 54.5107815,26.3269404 54.5107815,26.3269404 L54.3640265,26.3110464 C54.3317086,26.4249536 50.9944901,37.7807152 42.3555497,46.2676026" id="Fill-21" fill="#000000"></path>
                <polygon id="Fill-23" fill="#FFFFFF" points="48.1419868 46.359894 50.5186755 50.7418808 45.6407947 51.2886358 42.5589404 46.3975099"></polygon>
                <path d="M48.1072848,46.4188609 C48.1396026,46.4787285 50.3462252,50.546543 50.4256954,50.6927682 C50.2593377,50.7123709 45.6357616,51.229457 45.6357616,51.229457 L45.634702,51.229457 C45.634702,51.1727682 42.9576159,46.9205828 42.6651656,46.4554172 C42.8664901,46.4543576 48.0389404,46.4188609 48.1072848,46.4188609 Z M48.1406623,46.3007152 L42.4527152,46.3399205 L45.5912583,51.3195232 C45.6474172,51.346543 50.525298,50.8008477 50.525298,50.8008477 L50.6121854,50.7907815 L48.1766887,46.3007152 L48.1406623,46.3007152 Z" id="Fill-25" fill="#000000"></path>
                <path d="M6.85833113,33.6487947 L7.33568212,26.3317086 C7.33568212,26.3317086 10.7534305,37.7340927 19.5073377,46.3348874 C19.4829669,46.330649 15.8946225,50.6437616 15.8946225,51.2344901 C15.8946225,51.8257483 6.98972185,44.6019073 1.65356291,29.2869404 C1.62919205,29.2164768 6.85833113,33.6487947 6.85833113,33.6487947" id="Fill-27" fill="#E00034"></path>
                <path d="M6.93335099,33.653457 C6.93335099,33.653457 7.34023841,27.426702 7.38580132,26.7273642 C8.04010596,28.6976954 11.6220927,38.6627285 19.4064636,46.3379603 C19.1209007,46.6674967 15.8191788,50.6224636 15.8191788,51.2349139 C15.173351,51.2131921 6.856,43.7806093 1.816,29.506702 C2.60063576,30.1451126 5.58023841,32.6643179 6.80990728,33.7059073 L6.92328477,33.8023311 L6.93335099,33.653457 Z M7.26076821,26.3268344 C7.26076821,26.3268344 6.81202649,33.2094834 6.79295364,33.4950464 C2.90262252,30.1975629 1.97335099,29.4235232 1.72434437,29.2624636 L1.72381457,29.2619338 C1.64699338,29.2131921 1.62580132,29.2137219 1.61096689,29.2243179 L1.56328477,29.256106 L1.58182781,29.3112053 C6.76275497,44.1779603 15.2877881,51.4415364 15.8806358,51.341404 L15.9431523,51.3302781 L15.9696424,51.2349139 C15.9696424,50.7215364 19.343947,46.5949139 19.5553377,46.392 L19.6120265,46.3384901 L19.560106,46.2812715 C10.9206358,37.7933245 7.44196026,26.4237881 7.40805298,26.3104106 L7.26076821,26.3268344 Z" id="Fill-29" fill="#000000"></path>
                <polygon id="Fill-31" fill="#000000" points="13.6564238 46.4238411 19.4762914 46.4238411 19.4762914 46.2744371 13.6564238 46.2744371"></polygon>
                <polygon id="Fill-33" fill="#FFFFFF" points="13.8482119 46.4018013 11.2055629 50.7419338 15.642649 50.9125298 19.3316556 46.4182252"></polygon>
                <path d="M30.8918675,52.1452715 C30.8918675,52.0859338 22.5782252,52.877457 13.6929272,46.405404 L10.3986225,51.0014305 C10.3986225,51.0014305 17.3692185,58.2014305 30.8918675,58.2014305 C44.4150464,58.2014305 51.3856424,51.0014305 51.3856424,51.0014305 L48.0918675,46.405404 C39.2070993,52.877457 30.8918675,52.0859338 30.8918675,52.1452715" id="Fill-34" fill="#FFFFFF"></path>
                <path d="M13.712106,46.5078675 C21.0323709,51.813298 28.0352848,52.2710464 30.7118411,52.218596 L30.9078675,52.2175364 L31.072106,52.218596 C33.7481325,52.2710464 40.752106,51.813298 48.0729007,46.5078675 C48.1534305,46.6207152 51.2146225,50.8914437 51.2866755,50.9931656 C50.8209801,51.4535629 43.8318411,58.1258808 30.8919735,58.1258808 C17.9526358,58.1258808 10.9634967,51.4535629 10.4978013,50.9931656 C10.5693245,50.8914437 13.6315762,46.6207152 13.712106,46.5078675 Z M48.0474702,46.3446887 C40.7404503,51.6670728 33.7444238,52.1205828 31.074755,52.0686623 C31.074755,52.0686623 30.9550199,52.0803179 30.8919735,52.0856159 C30.8289272,52.0803179 30.7086623,52.0686623 30.7086623,52.0686623 C28.040053,52.1205828 21.0445563,51.6670728 13.7375364,46.3446887 L13.6760795,46.3001854 L10.301245,51.0085298 L10.3452185,51.0535629 C10.4146225,51.1261457 17.4922384,58.2758146 30.8919735,58.2758146 C44.2922384,58.2758146 51.3698543,51.1261457 51.4392583,51.0535629 L51.4832318,51.0085298 L48.1089272,46.3001854 L48.0474702,46.3446887 Z" id="Fill-35" fill="#000000"></path>
                <path d="M39.3898808,55.4591258 C40.1639205,55.2217748 40.0775629,54.4472053 39.8873642,53.7409801 C39.6945166,53.0278675 39.3506755,52.3401854 38.4569007,52.6130331 L37.6701457,52.8540927 L38.5459073,55.7160795 L39.3898808,55.4591258 Z" id="Fill-36" fill="#000000"></path>
                <path d="M32.1817219,54.9422517 C32.2182781,55.7719205 32.3496689,56.5703311 33.2243709,56.5406623 C34.0974834,56.5099338 34.1780132,55.7035762 34.1525828,54.8739073 C34.1329801,54.1872848 33.9968212,53.3851656 33.122649,53.415894 C32.2336424,53.4466225 32.157351,54.2556291 32.1817219,54.9422517" id="Fill-37" fill="#000000"></path>
                <path d="M29.1555497,56.1069139 C29.368,55.8510199 29.4215099,55.1220132 29.429457,54.9138013 C29.4527682,54.2271788 29.373298,53.418702 28.4837616,53.3869139 C27.6095894,53.357245 27.4776689,54.1588344 27.453298,54.8449272 C27.4331656,55.6751258 27.5089272,56.479894 28.3825695,56.5111523 C28.6019073,56.5185695 28.8562119,56.4396291 28.9886623,56.3167152 L29.3139603,56.6070464 L29.4882649,56.4057219 L29.1555497,56.1069139 Z" id="Fill-38" fill="#000000"></path>
                <path d="M9.58442384,1.3989404 C9.58442384,1.3989404 2.5677351,26.0574834 30.8919735,47.8863576 C59.2167417,26.0574834 52.2005828,1.3989404 52.2005828,1.3989404 L9.58442384,1.3989404 Z" id="Fill-39" fill="#FFFFFF"></path>
                <path d="M52.1424106,1.47396026 C52.221351,1.77223841 52.8565828,4.32164238 52.8565828,8.37197351 C52.8565828,17.2525033 49.7678411,33.2191258 30.8920795,47.7886623 C12.0173775,33.2196556 8.92863576,17.2540927 8.92863576,8.37250331 C8.92863576,4.32217219 9.56386755,1.77276821 9.64280795,1.47396026 L52.1424106,1.47396026 Z M52.2001589,1.32402649 L9.52784106,1.32402649 L9.51194702,1.37806623 C9.44201325,1.62548344 2.80625166,26.3354172 30.8459868,47.9454834 L30.8920795,47.9809801 L30.9381722,47.9454834 C58.9779073,26.335947 52.3432053,1.62548344 52.2722119,1.37806623 L52.2573775,1.32402649 L52.2001589,1.32402649 Z" id="Fill-40" fill="#000000"></path>
                <path d="M30.8918675,47.789404 C13.6955762,34.5157616 9.46405298,20.2397351 8.94537748,10.5968212 L8.79544371,10.6047682 C9.31623841,20.2884768 13.5647152,34.6270199 30.8457748,47.9456954 L30.8918675,47.9806623 L30.9379603,47.9456954 C48.2015364,34.6407947 52.4669669,20.295894 53.0063046,10.605298 L52.8553113,10.5968212 C52.3196821,20.2476821 48.0706755,34.5300662 30.8918675,47.789404" id="Fill-41" fill="#000000"></path>
                <polygon id="Fill-42" fill="#000000" points="27.1749934 10.6009007 34.6282384 10.6009007 34.6282384 44.8250066 30.8920795 47.8861987 27.1749934 44.8329536"></polygon>
                <path d="M34.6283974,10.6104371 L34.6183311,44.8250066 C34.6167417,44.8223576 30.8864106,47.8782517 30.8864106,47.8782517 C30.8858808,47.8687152 27.1809801,44.8255364 27.1809801,44.8255364 C27.1809801,44.8255364 27.1846887,10.6300397 27.1846887,10.6104371 L34.6283974,10.6104371 Z M27.1650861,10.5913642 L27.1650861,44.8329536 C27.1687947,44.8403709 30.8858808,47.8936159 30.8858808,47.8936159 C30.8980662,47.8936159 34.634755,44.8324238 34.634755,44.8324238 L34.6384636,10.6009007 L27.1751523,10.5913642 L27.1650861,10.5913642 Z" id="Fill-43" fill="#000000"></path>
                <path d="M52.9143311,10.6009007 C53.2163179,4.97176159 52.2001589,1.39878146 52.2001589,1.39878146 L9.5845298,1.39878146 C9.5845298,1.39878146 8.56784106,4.97176159 8.87035762,10.6009007 L52.9143311,10.6009007 Z" id="Fill-44" fill="#E00034"></path>
                <path d="M52.1424106,1.47396026 C52.2192318,1.75793377 52.8947285,4.39422517 52.8947285,8.54098013 C52.8947285,9.1682649 52.877245,9.83369536 52.8406887,10.5256159 L8.9434702,10.5256159 C8.90797351,9.83263576 8.88996026,9.1666755 8.88996026,8.53780132 C8.88996026,4.39316556 9.56651656,1.75793377 9.64227815,1.47396026 L52.1424106,1.47396026 Z M9.5845298,1.32402649 L9.52784106,1.32402649 L9.51194702,1.37806623 C9.5024106,1.41409272 8.49578808,5.02733775 8.79565563,10.6045563 L8.79936424,10.6760795 L52.9858543,10.6760795 L52.9895629,10.6045563 C53.2883709,5.02733775 52.2833377,1.41409272 52.2722119,1.37806623 L52.2573775,1.32402649 L52.2001589,1.32402649 L9.5845298,1.32402649 Z" id="Fill-45" fill="#000000"></path>
                <path d="M15.3895099,50.8518146 C15.0197086,51.5961854 14.7473907,52.3575099 15.5272583,52.7543311 C16.3055364,53.1511523 16.7659338,52.4857219 17.1463311,51.7477086 C17.4620927,51.1373775 17.7328212,50.3702252 16.9529536,49.9728742 C16.1598411,49.5686358 15.7015629,50.2404238 15.3895099,50.8518146" id="Fill-46" fill="#000000"></path>
                <path d="M19.5353113,4.27586755 L20.3580927,4.27586755 L20.3580927,3.11825166 L17.4272318,3.11825166 L17.4272318,4.27586755 L18.2150464,4.27586755 L18.2150464,6.70924503 L19.5353113,6.70924503 L19.5353113,4.27586755 Z M31.9506755,7.41335099 C31.4489536,7.41335099 31.0404768,7.81282119 31.0404768,8.31348344 C31.0404768,8.8152053 31.4489536,9.23427815 31.9506755,9.23427815 C32.4518675,9.23427815 32.8608742,8.8152053 32.8608742,8.31348344 C32.8608742,7.81282119 32.4518675,7.41335099 31.9506755,7.41335099 Z M16.7782252,3.43878146 C16.3353113,3.02182781 15.4383576,2.75321854 14.7925298,2.75321854 C13.5670993,2.75321854 12.6701457,3.5775894 12.6701457,4.59798675 C12.6701457,5.55321854 13.3551788,5.95268874 14.2908079,6.27904636 C14.8598146,6.46765563 15.5533245,6.64725828 15.5533245,7.28354967 C15.5533245,7.75666225 15.197298,8.17308609 14.6182252,8.17308609 C14.010543,8.17308609 13.498755,7.74871523 13.3064371,7.27507285 L12.3909404,8.03427815 C12.8921325,8.74474172 13.6248477,9.23427815 14.6277616,9.23427815 C16.1127947,9.23427815 17.0198146,8.36063576 17.0198146,7.12778808 C17.0198146,5.06315232 14.136106,5.4954702 14.136106,4.45917881 C14.136106,4.05970861 14.5700132,3.76566887 15.0224636,3.76566887 C15.4966358,3.76566887 15.8436556,3.96169536 16.1127947,4.27215894 L16.7782252,3.43878146 Z M26.4428609,5.73017219 L26.4237881,3.17388079 L25.0553113,3.17388079 L25.0553113,9.23427815 L26.4237881,9.23427815 L26.4237881,6.50950993 L28.6855099,9.23427815 L30.4455099,9.23427815 L27.6343841,5.97123179 L30.296106,3.17388079 L28.6113377,3.17388079 L26.4428609,5.73017219 Z M18.8836556,7.41335099 C18.3824636,7.41335099 17.973457,7.81282119 17.973457,8.31348344 C17.973457,8.8152053 18.3824636,9.23427815 18.8836556,9.23427815 C19.3848477,9.23427815 19.7938543,8.8152053 19.7938543,8.31348344 C19.7938543,7.81282119 19.3848477,7.41335099 18.8836556,7.41335099 Z M39.6741192,7.41335099 C39.1729272,7.41335099 38.7644503,7.81282119 38.7644503,8.31348344 C38.7644503,8.8152053 39.1729272,9.23427815 39.6741192,9.23427815 C40.1753113,9.23427815 40.5837881,8.8152053 40.5837881,8.31348344 C40.5837881,7.81282119 40.1753113,7.41335099 39.6741192,7.41335099 Z M50.133457,7.41335099 C49.6327947,7.41335099 49.2227285,7.81282119 49.2227285,8.31348344 C49.2227285,8.8152053 49.6327947,9.23427815 50.133457,9.23427815 C50.6341192,9.23427815 51.0436556,8.8152053 51.0436556,8.31348344 C51.0436556,7.81282119 50.6341192,7.41335099 50.133457,7.41335099 Z M48.2468344,3.33282119 C47.8023311,3.11242384 47.2958411,2.98580132 46.7808742,2.98580132 C44.8513377,2.98580132 43.5342517,4.47348344 43.5342517,6.15719205 C43.5342517,7.79427815 44.9048477,9.23427815 46.7543841,9.23427815 C47.287894,9.23427815 47.7668344,9.08540397 48.2468344,8.88090066 L48.2468344,7.50235762 C47.8897483,7.87321854 47.3398146,8.13282119 46.7898808,8.13282119 C45.5941192,8.13282119 44.8608742,7.13308609 44.8608742,6.13335099 C44.8608742,5.11083444 45.5676291,4.08778808 46.7983576,4.08778808 C47.3477616,4.08778808 47.8897483,4.32407947 48.2468344,4.71719205 L48.2468344,3.33282119 Z M38.9885563,4.16831788 L38.9885563,3.13202649 L35.4537219,3.13202649 L35.4537219,9.23427815 L36.8428609,9.23427815 L36.8428609,6.54765563 L38.8566358,6.54765563 L38.8566358,5.51136424 L36.8428609,5.51136424 L36.8428609,4.16831788 L38.9885563,4.16831788 Z" id="Fill-47" fill="#FFFFFF"></path>
                <polygon id="Fill-48" fill="#000000" points="13.5434702 51.4788874 14.3132715 50.2942517 15.1503576 50.8367682 15.3135364 50.5856424 14.4764503 50.042596 15.0110199 49.2182252 15.9127417 49.8041854 16.0753907 49.5525298 14.8965828 48.7874967 13.2663841 51.298755"></polygon>
                <path d="M16.8371391,51.5989404 C16.4408477,52.3692715 16.1536954,52.738543 15.6625695,52.4884768 C15.1719735,52.2378808 15.3023046,51.7886093 15.6922384,51.0156291 C15.9910464,50.4196026 16.3481325,50.0005298 16.8032318,50.2325828 C17.272106,50.472053 17.1428344,51.0066225 16.8371391,51.5989404" id="Fill-49" fill="#FFFFFF"></path>
                <path d="M17.7073907,52.3532715 L18.2440795,52.5694305 C18.6059338,52.7167152 18.6218278,52.9980397 18.5095099,53.2756556 C18.4342781,53.4610861 18.3256689,53.8171126 18.3203709,54.0216159 L18.6790464,54.1667815 L18.7050066,54.1037351 C18.6297748,54.0735364 18.6578543,53.9426755 18.6673907,53.8865166 C18.7219603,53.6671788 18.7855364,53.4563179 18.8581192,53.2443974 C18.9630199,52.8565828 18.920106,52.7055894 18.5752053,52.5275762 L18.5783841,52.5196291 C18.917457,52.6059868 19.2120265,52.4528742 19.3550728,52.1318146 C19.6316291,51.4992318 19.3232848,51.1977748 18.7420927,50.962543 L18.0279205,50.6738013 L16.9058013,53.4499603 L17.2130861,53.5744636 L17.7073907,52.3532715 Z" id="Fill-50" fill="#000000"></path>
                <path d="M18.2226755,51.0758675 L18.6555232,51.250702 C18.8626755,51.3349404 19.231947,51.4965298 19.0470464,51.9775894 C18.8584371,52.4655364 18.4499603,52.3256689 18.3037351,52.2710993 L17.8189669,52.0756026 L18.2226755,51.0758675 Z" id="Fill-51" fill="#FFFFFF"></path>
                <polygon id="Fill-52" fill="#000000" points="19.8312053 51.7256689 20.5490861 52.0154702 19.5398146 54.514543 19.8465695 54.6379868 20.8569007 52.1399735 21.5742517 52.429245 21.6865695 52.1526887 19.9435232 51.4485828"></polygon>
                <polygon id="Fill-53" fill="#000000" points="21.3052715 55.1290596 22.2308344 52.2813775 21.9150728 52.1796556 20.9900397 55.0262781"></polygon>
                <path d="M22.1196291,54.6602914 C22.0083709,55.1832053 22.3018808,55.5106225 22.8332715,55.6234702 C23.3641325,55.7363179 23.7646623,55.5561854 23.8759205,55.0338013 L24.3485033,52.8123444 L24.0247947,52.7424106 L23.5771126,54.8478411 C23.5320795,55.0783046 23.4144636,55.4417483 22.8952583,55.3315497 C22.3755232,55.2208212 22.4157881,54.8414834 22.4677086,54.6120795 L22.9159205,52.5071788 L22.5911523,52.4383046 L22.1196291,54.6602914 Z" id="Fill-54" fill="#000000"></path>
                <path d="M26.3657748,54.0456159 C26.5135894,53.5009801 26.2444503,53.1544901 25.709351,53.0411126 C25.2325298,52.9388609 24.8261722,53.1841589 24.7228609,53.6673377 C24.661404,53.9571391 24.6820662,54.2061457 24.9294834,54.4058808 C25.0688212,54.5203179 25.3082914,54.6575364 25.4550464,54.7539603 C25.7284238,54.9303841 25.9069669,54.9722384 25.8126623,55.4178013 C25.7390199,55.7605828 25.4730596,55.8803179 25.1451126,55.8109139 C24.6571656,55.706543 24.6327947,55.4156821 24.741404,54.9860132 L24.4166358,54.9176689 C24.3874967,55.0734305 24.3339868,55.3076026 24.3657748,55.4649536 C24.4521325,55.8840265 24.7784901,56.0387285 25.0672318,56.1001854 C25.6288212,56.2199205 26.0457748,55.9693245 26.1644503,55.4151523 C26.2460397,55.0283974 26.1861722,54.8111788 25.6754437,54.4864106 C25.5323974,54.3942252 25.392,54.3041589 25.2484238,54.2119735 C25.0757086,54.101245 25.0126623,53.9581987 25.0550464,53.7552848 C25.1037881,53.5285298 25.2171656,53.2419073 25.6902781,53.3425695 C26.0145166,53.4119735 26.1289536,53.6768742 26.0415364,53.9767417 L26.3657748,54.0456159 Z" id="Fill-55" fill="#000000"></path>
                <path d="M28.7478146,56.1125828 C28.6249007,56.1957616 28.5162914,56.2121854 28.3849007,56.2116556 C27.8736424,56.2100662 27.7650331,55.6548344 27.792053,54.9888742 C27.8264901,54.1231788 27.9303311,53.6675497 28.4813245,53.6866225 C29.0312583,53.7051656 29.1038411,54.1676821 29.0815894,55.0339073 C29.0741722,55.3528477 28.9878146,55.7729801 28.9152318,55.8868874 L28.6439735,55.6537748 L28.4601325,55.8672848 L28.7478146,56.1125828 Z" id="Fill-56" fill="#FFFFFF"></path>
                <path d="M29.9310728,55.7891921 C29.912,56.3237616 30.2574305,56.5950199 30.8004768,56.6146225 C31.3429934,56.6336954 31.7074967,56.3868079 31.7265695,55.8511788 L31.8049801,53.5815099 L31.4743841,53.5709139 L31.3991523,55.7203179 C31.3949139,55.9560795 31.3419338,56.333298 30.8110728,56.314755 C30.2802119,56.2967417 30.2537219,55.9158146 30.2659073,55.6811126 L30.3416689,53.5301192 L30.0100132,53.5195232 L29.9310728,55.7891921 Z" id="Fill-57" fill="#000000"></path>
                <path d="M33.8093775,54.8936159 C33.8363974,55.7598411 33.7643444,56.221298 33.213351,56.2403709 C32.6628874,56.2599735 32.5595762,55.8043444 32.5256689,54.9381192 C32.4975894,54.2726887 32.6067285,53.733351 33.117457,53.7158675 C33.6440795,53.6967947 33.7913642,54.226596 33.8093775,54.8936159" id="Fill-58" fill="#FFFFFF"></path>
                <polygon id="Fill-59" fill="#000000" points="36.0201854 56.1539603 35.848 54.7515762 36.8381987 54.6297219 36.802702 54.3325033 35.8109139 54.4543576 35.6922384 53.480053 36.7581987 53.3491921 36.7211126 53.0519735 35.3261457 53.2236291 35.6917086 56.194755"></polygon>
                <polygon id="Fill-60" fill="#000000" points="37.8413775 55.8068344 37.2183311 52.8775629 36.8946225 52.9469669 37.5171391 55.8757086"></polygon>
                <path d="M38.0752318,53.0424371 L38.5822517,52.8877351 C39.0935099,52.7314437 39.3186755,53.1383311 39.5411921,53.7836291 C39.8331126,54.6302517 39.7488742,55.0360795 39.282649,55.1780662 L38.7750993,55.3338278 L38.0752318,53.0424371 Z" id="Fill-61" fill="#FFFFFF"></path>
                <polygon id="Fill-62" fill="#000000" points="42.2738013 54.5935364 42.1863841 54.3069139 41.0642649 54.6496954 40.7400265 53.5927417 41.7863841 53.2732715 41.6989669 52.9861192 40.6531391 53.3061192 40.3633377 52.359894 41.4780397 52.018702 41.3911523 51.7326093 39.9590993 52.1702252 40.8348609 55.0338013"></polygon>
                <polygon id="Fill-63" fill="#000000" points="44.181404 53.797298 44.0696159 53.5196821 42.9363709 53.9779603 41.9276291 51.4788874 41.6203444 51.6023311 42.741404 54.3790199"></polygon>
                <polygon id="Fill-64" fill="#000000" points="44.9300662 53.4656424 43.5711258 50.7975629 43.2754967 50.9485563 44.6344371 53.616106"></polygon>
                <path d="M45.2306755,52.5105695 C45.4738543,52.9868609 45.9077616,53.0567947 46.392,52.8104371 C46.8762384,52.5640795 47.0743841,52.1709669 46.8317351,51.6946755 L45.8007417,49.6708344 L45.5056424,49.821298 L46.4815364,51.7381192 C46.5922649,51.9463311 46.7294834,52.3023576 46.2569007,52.5434172 C45.7832583,52.7844768 45.5750464,52.4650066 45.4717351,52.2536159 L44.4942517,50.3362649 L44.2002119,50.4861987 L45.2306755,52.5105695 Z" id="Fill-65" fill="#000000"></path>
                <path d="M47.8812185,49.2877881 C47.6099603,48.7934834 47.1749934,48.7309669 46.7114172,49.0202384 C46.298702,49.2782517 46.1752583,49.7375894 46.4369801,50.1571921 C46.5938013,50.4072583 46.7818808,50.5725563 47.0981722,50.543947 C47.2783046,50.530702 47.5458543,50.4623576 47.7185695,50.4295099 C48.0375099,50.3675232 48.1959205,50.2726887 48.4364503,50.6589139 C48.6224106,50.9566623 48.5138013,51.2273907 48.229298,51.4048742 C47.8059868,51.6697748 47.5877086,51.4769272 47.3662517,51.0928212 L47.0843974,51.2676556 C47.1728742,51.4016954 47.2963179,51.6067285 47.4287682,51.6983841 C47.7816159,51.9394437 48.1238675,51.823947 48.3749934,51.6671258 C48.8624106,51.3630199 48.9879735,50.8930861 48.6870464,50.4125563 C48.4783046,50.0777219 48.2849272,49.962755 47.6915497,50.0846093 C47.5241325,50.1185166 47.3604238,50.1497748 47.1930066,50.1836821 C46.9927417,50.2250066 46.8470464,50.1640795 46.7373775,49.9887152 C46.6139338,49.7921589 46.4979073,49.5071258 46.9074437,49.2512318 C47.1877086,49.0758675 47.4552583,49.1871258 47.6004238,49.4631523 L47.8812185,49.2877881 Z" id="Fill-66" fill="#000000"></path>
                <polygon id="Fill-67" fill="#000000" points="14.1369007 48.3942252 14.1792848 48.5213775 15.0884238 48.2183311 15.0460397 48.0911788"></polygon>
                <polygon id="Fill-68" fill="#000000" points="46.6705166 48.2183311 47.5796556 48.5213775 47.6215099 48.3942252 46.7123709 48.0911788"></polygon>
            </g>
            <g id="Group-76" transform="translate(10.072848, 18.728477)">
                <g id="Group-72">
                    <mask id="mask-2" fill="white">
                        <use xlink:href="#path-1"></use>
                    </mask>
                    <g id="Clip-71"></g>
                    <polygon id="Fill-70" fill="#000000" mask="url(#mask-2)" points="42.7959205 0.314543046 40.514596 7.50182781 0.922543046 7.50182781 -1.65335099 0.314543046"></polygon>
                </g>
                <g id="Group-75">
                    <mask id="mask-4" fill="white">
                        <use xlink:href="#path-3"></use>
                    </mask>
                    <g id="Clip-74"></g>
                    <path d="M0.922490066,7.49223841 C0.93202649,7.49859603 -1.64439735,0.311311258 -1.64439735,0.311311258 C-1.64439735,0.311311258 42.7566623,0.32402649 42.7826225,0.32402649 C42.7746755,0.349456954 40.5055364,7.49912583 40.5055364,7.49912583 L0.922490066,7.49223841 Z M42.7958675,0.305483444 L-1.65343038,0.305483444 C-1.6629404,0.317668874 0.913483444,7.50495364 0.913483444,7.50495364 L40.514543,7.51131126 C40.5240795,7.50442384 42.8048742,0.317668874 42.8048742,0.317668874 L42.8091126,0.305483444 L42.7958675,0.305483444 Z" id="Fill-73" fill="#000000" mask="url(#mask-4)"></path>
                </g>
            </g>
        </g>
        <rect id="Bounding-box" fill-opacity="0" fill="#FFFFFF" x="0" y="0" width="80" height="80"></rect>
    </g>
</svg>