<?xml version="1.0" encoding="UTF-8"?>
<svg width="80px" height="80px" viewBox="0 0 80 80" version="1.1" xmlns="http://www.w3.org/2000/svg" xmlns:xlink="http://www.w3.org/1999/xlink">
    <!-- Generator: Sketch 52.5 (67469) - http://www.bohemiancoding.com/sketch -->
    <title>Assets/Logos/Clubs/Reverse/Sydney</title>
    <desc>Created with Sketch.</desc>
    <g id="Assets/Logos/Clubs/Reverse/Sydney" stroke="none" stroke-width="1" fill="none" fill-rule="evenodd">
        <g id="Page-1" transform="translate(15.000000, 13.000000)">
            <polygon id="Fill-5" fill="#FFFFFF" points="2.232 8.32762914 19.2682914 8.32762914 24.9700132 19.4492185 30.5769007 8.34405298 47.6958411 8.34405298 24.9021987 56.0494834"></polygon>
            <g id="Group-36" transform="translate(0.894040, 0.245033)">
                <path d="M17.9956556,8.7029404 C18.3204238,9.33764238 24.079894,20.5720795 24.079894,20.5720795 C24.079894,20.5720795 29.741351,9.35989404 30.0645298,8.71936424 L45.8176424,8.71936424 C45.021351,10.386649 25.0573775,52.1689007 24.0099603,54.3622781 C22.9667815,52.1662517 3.11035762,10.368106 2.31936424,8.7029404 L17.9956556,8.7029404 Z M18.3744636,7.4621457 L0.35592053,7.4621457 L24.0067815,57.2465166 L47.7858543,7.47803974 L29.3010861,7.47803974 C29.3010861,7.47803974 24.9662517,16.0645298 24.071947,17.8356556 C23.165457,16.0682384 18.7538013,7.4621457 18.7538013,7.4621457 L18.3744636,7.4621457 Z" id="Fill-6" fill="#FFFFFF"></path>
                <path d="M18.3743576,8.09886093 L24.0760795,19.2040265 L29.6829669,8.09886093 L46.8019073,8.09886093 L33.714755,35.4329007 C32.7722384,30.5502517 34.9232318,27.9166093 34.9232318,27.9166093 C34.9232318,27.9166093 31.9272053,27.4768742 29.3883974,29.8742252 C28.928,29.0487947 27.1155497,24.5555497 19.9611126,23.7576689 C21.5086623,25.5711788 21.8207152,27.8980662 21.7015099,29.5107815 C20.4082649,28.3436291 18.5110464,27.4323709 16.8914437,27.3841589 C17.7136954,28.5195232 17.7375364,31.5415099 17.7136954,31.5176689 C15.9245563,29.8254834 13.5558146,29.3905166 13.5558146,29.3905166 C13.8085298,30.935947 14.2530331,32.6911788 13.8217748,34.2975364 C12.4172715,31.4578013 1.33806623,8.08243709 1.33806623,8.08243709 L18.3743576,8.09886093 Z" id="Fill-10" fill="#EE1E31"></path>
                <path d="M24.0821722,41.9696954 C21.7129007,44.6165828 20.6464106,46.5355232 22.101245,46.9699603 C24.4466755,47.6724768 24.7645563,38.298702 33.7150199,35.4086358 L24.008,55.8043974 L20.1325033,47.5633377 C20.335947,45.7630728 22.0387285,43.7058543 23.8050861,41.7847947 C26.800053,38.5265166 26.421245,34.9969801 24.2495894,33.1485033 C22.2781987,31.4700927 17.9820397,32.0740662 17.0840265,34.4899603 C17.2848212,34.8242649 17.5746225,34.0608212 17.8580662,34.210755 C18.3846887,34.4899603 17.0485298,35.336053 17.8580662,35.7593642 C18.1854834,35.9151258 18.2146225,36.0443974 18.4779338,36.1000265 C19.6546225,36.3479735 19.602702,34.882543 21.0315762,34.8412185 C21.7997881,34.8184371 22.7910464,35.2862517 23.0808477,36.6335364 C23.3510464,37.893404 22.8578013,39.3392318 20.9870728,40.8094305 C20.5001854,41.191947 19.282702,41.7985695 18.2299868,43.6571126 L18.0752848,43.2544636 C19.1836291,40.8316821 23.3595232,39.9739338 22.7242914,36.6780397 C22.4832318,35.4271788 21.3129007,34.9371126 20.5213775,35.264 C19.623894,35.6353907 19.778596,36.5339338 18.4779338,36.3479735 C17.5857483,37.1802914 16.6538278,38.2197616 15.6286623,38.9185695 C15.4649536,38.9408212 15.5899868,38.394596 15.597404,38.2685033 C15.9025695,37.2867815 16.2082649,36.4783046 16.5579338,35.511947 C16.8175364,35.8536689 16.7115762,36.4110199 16.6670728,37.0012185 C16.9340927,36.778702 17.3833642,35.9702252 17.3319735,35.8218808 C16.805351,35.357245 16.4450861,35.274596 16.5881325,34.7993642 C17.672106,31.2073113 22.9023046,31.3217483 24.5060132,32.9259868 C27.466543,35.8859868 26.4540927,39.3206887 24.0821722,41.9696954" id="Fill-12" fill="#EE1E31"></path>
                <polygon id="Fill-14" fill="#FFFFFF" points="19.4230993 0.332397351 19.4230993 1.32365563 18.4074702 1.32365563 18.4074702 2.36365563 19.2662781 2.36365563 19.2662781 3.30564238 18.3830993 3.30564238 18.3830993 4.41928477 19.3987285 4.41928477 19.3987285 5.38617219 17.3335629 5.38617219 17.3335629 0.332397351"></polygon>
                <path d="M9.70304636,4.49038411 L9.70304636,1.31687417 C10.2217219,1.30468874 10.6413245,1.9272053 10.6413245,2.93117881 C10.6413245,4.22707285 10.0050331,4.53223841 9.70304636,4.49038411 M8.76,0.348927152 L8.68370861,0.332503311 L8.67152318,5.38574834 C9.82754967,5.39581457 11.6315232,5.7264106 11.6569536,2.90521854 C11.6792053,0.440582781 10.106755,0.263099338 8.76,0.348927152" id="Fill-16" fill="#FFFFFF"></path>
                <polygon id="Fill-18" fill="#FFFFFF" points="6.02649007 1.96137748 6.62516556 0.332238411 7.71443709 0.332238411 6.55099338 2.9277351 6.52662252 5.38601325 5.53536424 5.38601325 5.53536424 2.9277351 4.33854305 0.332238411 5.43788079 0.332238411"></polygon>
                <polygon id="Fill-20" fill="#FFFFFF" points="14.9896689 3.06447682 14.9896689 0.386331126 16.0392053 0.386331126 16.0392053 5.41997351 15.0882119 5.41997351 13.9194702 2.62368212 13.9194702 5.41997351 12.9091391 5.41997351 12.9091391 0.386331126 13.8802649 0.386331126"></polygon>
                <path d="M3.33298013,0.518145695 C3.06013245,0.358145695 2.77350993,0.271788079 2.45456954,0.271788079 C1.60211921,0.271788079 1.11523179,0.95205298 1.11523179,1.74410596 C1.11523179,2.47682119 1.49562914,2.85509934 2.06834437,3.2413245 C2.34807947,3.4410596 2.64264901,3.62754967 2.64264901,4.01377483 C2.64264901,4.34701987 2.38304636,4.4794702 2.06357616,4.4794702 C1.77059603,4.4794702 1.56238411,4.41324503 1.32927152,4.25324503 L1.32927152,5.1989404 C1.55549669,5.36529801 1.90198675,5.45218543 2.18119205,5.45218543 C3.11364238,5.45218543 3.62649007,4.77933775 3.62649007,3.88715232 C3.62649007,2.52874172 2.11496689,2.48264901 2.11496689,1.65668874 C2.11496689,1.35046358 2.28715232,1.20264901 2.59390728,1.20264901 C2.86675497,1.20264901 3.13377483,1.31072848 3.33298013,1.48344371 L3.33298013,0.518145695 Z" id="Fill-22" fill="#FFFFFF"></path>
                <path d="M46.7223841,0.518145695 C46.4490066,0.358145695 46.1623841,0.271788079 45.8434437,0.271788079 C44.9904636,0.271788079 44.5046358,0.95205298 44.5046358,1.74410596 C44.5046358,2.47682119 44.8839735,2.85509934 45.4566887,3.2413245 C45.7369536,3.4410596 46.032053,3.62754967 46.032053,4.01377483 C46.032053,4.34701987 45.7719205,4.4794702 45.4524503,4.4794702 C45.1594702,4.4794702 44.9507285,4.41324503 44.7181457,4.25324503 L44.7181457,5.1989404 C44.9443709,5.36529801 45.2908609,5.45218543 45.5700662,5.45218543 C46.5025166,5.45218543 47.0153642,4.77933775 47.0153642,3.88715232 C47.0153642,2.52874172 45.5038411,2.48264901 45.5038411,1.65668874 C45.5038411,1.35046358 45.6765563,1.20264901 45.9827815,1.20264901 C46.2556291,1.20264901 46.5221192,1.31072848 46.7223841,1.48344371 L46.7223841,0.518145695 Z" id="Fill-24" fill="#FFFFFF"></path>
                <path d="M28.976106,0.518145695 C28.7032583,0.358145695 28.4171656,0.271788079 28.0976954,0.271788079 C27.245245,0.271788079 26.7583576,0.95205298 26.7583576,1.74410596 C26.7583576,2.47682119 27.138755,2.85509934 27.7114702,3.2413245 C27.9912053,3.4410596 28.2863046,3.62754967 28.2863046,4.01377483 C28.2863046,4.34701987 28.0261722,4.4794702 27.706702,4.4794702 C27.4137219,4.4794702 27.2055099,4.41324503 26.9723974,4.25324503 L26.9723974,5.1989404 C27.1991523,5.36529801 27.5445828,5.45218543 27.8243179,5.45218543 C28.7567682,5.45218543 29.2696159,4.77933775 29.2696159,3.88715232 C29.2696159,2.52874172 27.7575629,2.48264901 27.7575629,1.65668874 C27.7575629,1.35046358 27.9302781,1.20264901 28.2370331,1.20264901 C28.5098808,1.20264901 28.7763709,1.31072848 28.976106,1.48344371 L28.976106,0.518145695 Z" id="Fill-26" fill="#FFFFFF"></path>
                <path d="M37.1445828,3.73292715 L37.4089536,1.88815894 L37.7035232,3.73292715 L37.1445828,3.73292715 Z M37.9980927,0.386172185 L36.909351,0.386172185 L35.7411391,5.42034437 L36.7912053,5.42034437 L36.9877616,4.56630464 L37.9000795,4.56630464 L38.1162384,5.42034437 L39.1938543,5.42034437 L37.9980927,0.386172185 Z" id="Fill-28" fill="#FFFFFF"></path>
                <polygon id="Fill-30" fill="#FFFFFF" points="42.3049536 3.06447682 42.3049536 0.386331126 43.3544901 0.386331126 43.3544901 5.41997351 42.4034967 5.41997351 41.2352848 2.62368212 41.2352848 5.41997351 40.2244238 5.41997351 40.2244238 0.386331126 41.1960795 0.386331126"></polygon>
                <polygon id="Fill-32" fill="#FFFFFF" points="31.1987815 0.386225166 31.7381192 3.59576159 32.2763974 0.386225166 33.1611656 0.386225166 33.7783841 3.59576159 34.2112318 0.386225166 35.3089801 0.386225166 34.2583841 5.41986755 33.3661987 5.41986755 32.7484503 2.07364238 32.0522914 5.41986755 31.1399735 5.41986755 30.1487152 0.386225166"></polygon>
                <polygon id="Fill-34" fill="#FFFFFF" points="21.9448477 1.96137748 22.5435232 0.332238411 23.6327947 0.332238411 22.4698808 2.9277351 22.4449801 5.38601325 21.4542517 5.38601325 21.4542517 2.9277351 20.2569007 0.332238411 21.3562384 0.332238411"></polygon>
            </g>
        </g>
        <rect id="Bounding-box" fill-opacity="0" fill="#FFFFFF" x="0" y="0" width="80" height="80"></rect>
    </g>
</svg>