<?xml version="1.0" encoding="UTF-8"?>
<svg width="80px" height="80px" viewBox="0 0 80 80" version="1.1" xmlns="http://www.w3.org/2000/svg" xmlns:xlink="http://www.w3.org/1999/xlink">
    <!-- Generator: Sketch 52.5 (67469) - http://www.bohemiancoding.com/sketch -->
    <title>Assets/Logos/Clubs/Reverse/Western Bulldogs</title>
    <desc>Created with Sketch.</desc>
    <g id="Assets/Logos/Clubs/Reverse/Western-Bulldogs" stroke="none" stroke-width="1" fill="none" fill-rule="evenodd">
        <g id="Page-1" transform="translate(14.000000, 10.000000)">
            <g id="Group-22" transform="translate(0.834437, 0.596026)">
                <path d="M19.9927417,61.1997881 C14.0446623,57.8016424 9.11803974,52.368 6.12042384,45.895947 C2.83936424,38.8103841 1.89260927,30.6811126 3.3829404,22.386543 L3.48625166,21.813298 L4.01287417,21.5669404 C8.25764238,19.581245 13.237245,17.8964768 18.4144636,16.6938278 C24.0436026,15.3857483 29.7739338,14.6948874 34.9850596,14.6948874 C39.0141987,14.6948874 42.7768477,15.0975364 46.168106,15.893298 L47.1482384,16.122702 L47.0274437,17.1213775 C45.6250596,28.7695894 43.1053245,37.8048212 39.3267815,44.7436291 C35.0099603,52.6705166 29.0036026,58.0755497 20.965457,61.2681325 L20.4626755,61.4673377 L19.9927417,61.1997881 Z" id="Fill-3" fill="#FFFFFF"></path>
                <path d="M12.0385166,49.3263576 C13.7815629,52.346755 16.1508344,55.2256954 18.8136159,57.6188079 C19.7487152,58.4495364 20.7542781,59.2590728 21.8430199,60.04 C28.4136159,57.1515232 33.3423576,52.7154967 37.0350728,46.9533775 C32.2557351,46.925298 27.4610331,47.1822517 22.7288477,47.6988079 C19.1171921,48.0929801 15.5420927,48.6381457 12.0385166,49.3263576 M8.08566887,38.4961589 C8.18898013,39.1435762 8.35268874,39.7968212 8.48778808,40.4256954 C19.1097748,38.1290066 30.543947,36.984106 41.6962649,37.338543 C41.9357351,36.6794702 42.1646093,36.0060927 42.386596,35.3247682 C30.9232848,34.8638411 18.9667285,35.9637086 8.08566887,38.4961589 M4.35109934,22.538543 C1.23692715,39.8683444 9.20037086,54.0712583 20.5805033,60.5708609 C20.8904371,60.4468874 21.1961325,60.3192053 21.4991788,60.1899338 C10.7362649,54.0421192 3.38633113,40.6063576 6.33202649,24.2153642 C16.0342781,19.6765563 30.9248742,16.3536424 43.3216954,18.4172185 C34.1026225,17.4699338 19.5537483,19.8784106 9.88805298,23.6659603 C9.30792053,23.8810596 8.70288742,24.112053 8.08354967,24.3578808 C8.08354967,24.3578808 7.66553642,26.1162914 7.49229139,28.9470199 C7.71851656,28.8839735 7.94421192,28.8219868 8.17043709,28.76 L8.17043709,28.7605298 C19.968053,25.5499338 32.4019603,23.9849007 45.1050066,24.2678146 C45.5341457,21.8921854 45.8991788,19.4301987 46.2048742,16.8823841 C32.6303046,13.6988079 15.3095099,17.4121854 4.35109934,22.538543" id="Fill-5" fill="#0039A6"></path>
                <path d="M18.9020927,26.3296954 L18.9010331,26.3296954 C15.0414305,27.0322119 11.2342781,27.9063841 7.49229139,28.9469139 C7.33917881,31.4512848 7.39321854,34.7874437 8.08566887,38.496053 C13.1479205,37.3193642 18.3193113,36.4647947 23.5722914,35.9201589 C23.5722914,35.9201589 23.573351,35.9196291 23.5738808,35.9196291 C29.7831523,35.2759205 36.0851391,35.0714172 42.3881854,35.3251921 C43.5028874,31.8984371 44.3929536,28.2041325 45.1050066,24.2677086 C36.1958675,24.0695629 27.4191788,24.7810861 18.9020927,26.3296954" id="Fill-7" fill="#C60C30"></path>
                <g id="Group-13" transform="translate(13.774834, 23.841060)">
                    <path d="M18.408,21.9443179 C18.3979338,21.9591523 18.3883974,21.9755762 18.3788609,21.9914702 C18.1966093,22.2855099 17.8050861,22.7750464 17.3955497,23.2259073 C19.3457483,23.1464371 21.3017748,23.1098808 23.2646887,23.1210066 C25.1110464,20.2388874 26.648,17.0245828 27.9242914,13.5061722 C19.928,13.2518675 12.0297219,13.7408742 4.27025166,14.8645828 C4.27501987,14.872 4.27184106,14.8709404 4.27660927,14.8788874 C4.55952318,15.3371656 4.83025166,15.7276291 5.0061457,15.9882914 C5.37965563,16.546702 5.0898543,16.9345166 5.14177483,17.2063046 C5.19210596,17.4574305 5.04164238,18.218755 5.2493245,19.0351788 C5.02415894,19.3345166 4.53833113,19.7043179 4.29303311,20.2542517 C3.86177483,21.2200795 3.77859603,22.0237881 4.05356291,23.2439205 C3.98786755,23.669351 3.97780132,24.090543 4.02124503,24.4894834 C6.93674172,24.0545166 9.87607947,23.7233907 12.8360795,23.4950464 C12.8408477,23.4886887 12.8461457,23.4833907 12.8514437,23.4775629 C13.6127682,22.562596 13.7139603,22.0232583 14.0069404,20.7591523 C14.2236291,19.5941192 14.4318411,19.8304106 14.960053,19.1845828 C15.3457483,18.7125298 15.3923709,18.2690861 15.2620397,17.5061722 C15.2837616,17.504053 15.3049536,17.5035232 15.3266755,17.501404 C17.7743576,17.2815364 18.4901192,16.8762384 19.1581987,16.7395497 C20.5616424,16.4513377 20.4344901,17.3297483 20.4503841,17.5575629 C20.4233642,17.9469669 20.1489272,18.7162384 19.6297219,19.6757086 C19.6297219,19.6757086 19.2689272,20.6309404 18.408,21.9443179" id="Fill-9" fill="#BBC1DB"></path>
                    <path d="M29.0051391,4.65192053 C28.3725563,3.23682119 26.8170596,1.58013245 25.4888477,0.42781457 C17.0114967,0.616423841 8.68090066,1.62569536 0.608847682,3.39417219 C0.503417219,3.77880795 0.418119205,4.16450331 0.37202649,4.47443709 C0.412291391,4.58887417 0.496529801,4.77589404 0.594543046,4.9613245 C0.55215894,5.47788079 0.782092715,6.71019868 0.969112583,7.28344371 C0.863682119,7.51284768 0.853615894,7.71311258 0.903417219,7.92768212 C0.997721854,8.20847682 1.4962649,8.63443709 1.79401325,8.77801325 C1.79401325,8.77801325 1.89308609,11.0455629 3.70659603,12.0770861 C3.60646358,12.4055629 3.54341722,12.6593377 3.50580132,12.8855629 C11.7251391,11.6188079 20.1696424,11.144106 28.6152053,11.4837086 C29.0268609,10.2148344 29.4088477,8.90887417 29.762755,7.56741722 C29.7235497,7.50754967 29.6832848,7.44662252 29.6414305,7.38463576 C29.5116291,6.36370861 29.3447417,5.41112583 29.0051391,4.65192053 Z" id="Fill-11" fill="#9F0A2B"></path>
                </g>
                <path d="M23.9274702,15.6327417 C23.3685298,15.330755 22.6872053,15.0404238 21.7923709,14.9222781 C20.8281325,15.2491656 19.8660132,15.8176424 19.2419073,16.1885033 C18.8917086,16.9318146 18.2570066,18.6912848 18.2389934,19.0208212 C18.4413775,19.0208212 18.7809801,19.008106 19.192106,18.8804238 C19.0125033,19.0515497 18.8472053,19.2523444 18.645351,19.5368477 C17.9179338,19.8059868 16.903894,20.2049272 15.8808477,20.7590993 C15.6048212,20.9874437 15.3049536,21.3726093 15.1899868,21.7879735 C15.133298,21.984 15.1581987,22.1922119 15.3113113,22.3114172 C15.4093245,22.3930066 15.5629669,22.4682384 15.7076026,22.5047947 C15.7160795,22.5069139 15.7266755,22.5100927 15.7346225,22.5122119 C15.6244238,23.1283709 15.8352848,23.981351 16.0768742,24.3824106 C15.9979338,24.5010861 15.9105166,24.6923444 15.8209801,24.9228079 C15.5852185,25.5299603 15.3430993,26.4210861 15.2546225,27.0224106 C15.2954172,27.1373775 15.3780662,27.3243974 15.4776689,27.5098278 C15.434755,28.0263841 15.6646887,29.258702 15.8517086,29.8314172 C15.7457483,30.061351 15.7356821,30.2610861 15.7860132,30.4767152 C15.8792583,30.7569801 16.3788609,31.1829404 16.6760795,31.3259868 C16.6760795,31.3259868 16.7756821,33.5935364 18.5891921,34.6255894 C18.4281325,35.1516821 18.3629669,35.4875762 18.3444238,35.824 C18.3534305,35.8526093 18.3656159,35.8843974 18.3767417,35.9130066 C18.5393907,36.3696954 18.8387285,36.9053245 19.1401854,37.3932715 C19.4230993,37.8515497 19.7091921,38.2669139 19.8850861,38.528106 C20.2591258,39.0859868 20.1017748,39.5426755 20.0699868,39.8176424 C20.0371391,40.1032053 19.920053,40.7580397 20.1277351,41.5749934 C19.9030993,41.8738013 19.4172715,42.2441325 19.1719735,42.7935364 C18.7401854,43.759894 18.6575364,44.5636026 18.9325033,45.7832053 C18.6861457,47.3741987 19.2085298,48.9169801 20.488,49.3890331 C21.1889272,49.6470464 21.7446887,49.6698278 22.0254834,49.5712848 C22.7746225,49.661351 23.3997881,49.362543 23.8146225,49.0759205 C24.4381987,48.6775099 25.210649,48.5477086 26.0223046,47.5394967 C26.338596,47.1469139 26.9685298,46.9339338 27.7298543,46.0173775 C28.4917086,45.1018808 28.5929007,44.5630728 28.8858808,43.2989669 C29.1025695,42.1339338 29.3102517,42.370755 29.8389934,41.7238675 C30.2246887,41.2523444 30.2707815,40.8094305 30.1399205,40.0459868 C30.1621722,40.0438675 30.1833642,40.0433377 30.2061457,40.0412185 C32.653298,39.8218808 33.3695894,39.416053 34.0371391,39.2793642 C35.440053,38.9906225 35.3134305,39.8695629 35.3293245,40.0968477 C35.3017748,40.4867815 35.0273377,41.256053 34.5086623,42.2149934 C34.5086623,42.2149934 34.1478675,43.1712848 33.2869404,44.4836026 C33.2763444,44.4989669 33.2673377,44.5153907 33.2572715,44.5312848 C32.8530331,45.1818808 31.4230993,46.797245 31.040053,46.8131391 C29.5534305,46.874596 28.4286623,47.5156556 27.7245563,48.9900927 C26.8180662,49.258702 25.6662781,50.2250596 25.4824371,51.7408212 C25.4808477,51.7524768 25.3664106,52.6049272 25.8755497,53.2189669 C26.0207152,53.4096954 26.3242914,53.576053 26.5033642,53.7927417 C26.735947,54.0740662 27.1205828,54.1302252 27.3515762,54.213404 C27.7966093,54.3320795 28.2877351,54.2282384 28.8752848,54.0062517 C29.6005828,53.7106225 30.906543,54.6510199 32.653298,54.6377748 C34.5584636,54.6224106 36.0874702,54.5863841 36.4705166,54.9683709 C37.5131656,56.0078411 38.9568742,54.938702 38.9568742,54.938702 C39.7425695,54.3522119 39.9815099,53.4271788 40.0620397,53.0255894 C40.4138278,51.2518146 40.152106,51.1665166 40.0291921,49.8563179 C39.9041589,48.5455894 40.4673377,47.4573775 40.6925033,46.9895629 C41.8130331,44.6579073 44.2633642,42.944 45.4861457,38.9344636 C46.6458808,35.1304901 46.2246887,31.3392318 44.4323709,29.1617483 C44.3025695,28.1402914 44.2262781,27.9596291 43.8877351,27.199894 C43.0776689,25.3874437 40.7518411,23.1781722 39.3314437,22.1397616 C38.6893245,21.2152583 37.7007152,20.2790993 36.960053,19.7948609 C36.9330331,19.7143311 36.9081325,19.6369801 36.895947,19.5622781 L36.6384636,19.0377748 C36.4699868,18.7771126 36.2278675,18.5524768 35.8601854,18.2436026 C35.6005828,18.0470464 35.0522384,17.7069139 34.6358146,17.6618808 C34.7862781,17.4478411 34.898596,17.0759205 34.895947,16.8322119 C33.840053,15.6687682 32.0848212,15.0806887 30.9436291,14.0555232 C29.8278675,14.0512848 28.3936954,14.1487682 27.0167417,14.3728742 C26.5415099,14.6208212 26.1309139,14.8941987 25.6964768,15.3143311 C25.2615099,15.3471788 24.4058808,15.5098278 23.9274702,15.6327417" id="Fill-14" fill="#06357A"></path>
                <path d="M37.0364503,20.4301987 L37.0385695,20.4360265 C37.0422781,20.4413245 37.0422781,20.4402649 37.0364503,20.4301987" id="Fill-16" fill="#FFFFFF"></path>
                <path d="M24.5188344,28.5257219 C24.8965828,28.5622781 26.0626755,28.7175099 26.9691656,28.8785695 C26.6703576,28.6703576 26.2682384,28.0743311 26.0806887,27.7871788 C25.9069139,28.0028079 25.770755,28.2078411 25.5365828,28.4155232 C25.4184371,28.1569801 25.0375099,27.7188344 24.6232053,27.4957881 C24.5410861,27.7463841 24.3869139,28.0102252 24.258702,28.2311523 C23.8846623,28.1230728 23.3792318,27.8634702 23.1164503,27.6828079 C23.0290331,27.7050596 22.9336689,27.7612185 22.9024106,27.7903576 C23.2494305,27.9636026 23.8078411,28.2518146 24.2724768,28.7042649 L24.5188344,28.5257219 Z M24.6295629,26.7874437 C24.914596,26.968106 25.3527417,27.3267815 25.6356556,27.698702 C25.6780397,27.6356556 25.7511523,27.5641325 25.7877086,27.4571126 C25.5874437,27.2912848 25.1132715,26.7530066 24.9326093,26.4796291 C24.5665166,26.5363179 23.8608212,26.6629404 23.285457,26.8335364 C23.1270464,26.896053 22.9267815,27.0168477 22.8388344,27.0740662 C23.0470464,27.2536689 23.5349934,27.5418808 24.1553907,27.6870464 C24.3975099,27.3373775 24.5410861,27.0014834 24.6295629,26.7874437 Z M38.0473113,53.5916821 C37.7495629,53.4348609 37.3818808,53.7034702 37.4120795,54.0616159 C37.4263841,54.2650596 37.3585695,54.6221457 37.5010861,54.7397616 C37.5010861,54.7397616 37.7638675,54.9156556 38.2110199,54.3784371 C38.416053,54.1326093 38.3164503,53.7341987 38.0473113,53.5916821 Z M37.5715497,51.3824106 C37.1530066,51.1153907 36.754596,51.0242649 36.5024106,51.0470464 C36.5018808,50.9961854 36.5008212,50.9442649 36.4992318,50.8918146 C36.4764503,50.0489007 35.7437351,48.3408212 33.8777748,48.3567152 C33.0793642,48.3630728 32.8467815,49.0931391 32.7689007,49.6510199 C32.6571126,50.4478411 32.6348609,51.3691656 32.6655894,51.6006887 C32.7010861,51.8708874 32.6555232,52.2862517 32.922543,52.506649 C33.0502252,52.6120795 33.2494305,52.6878411 33.2706225,52.5299603 C33.2976424,52.2269139 33.3522119,51.8512848 33.5291656,51.6536689 C33.7061192,51.453404 33.946649,51.290755 34.2051921,51.290755 C34.2830728,51.290755 34.362543,51.3008212 34.442543,51.319894 C34.7773775,51.4004238 35.0841325,51.6483709 35.237245,51.954596 C35.3914172,52.261351 35.4030728,52.6671788 35.2700927,52.9765828 C35.2038675,53.130755 35.133404,53.2642649 35.0608212,53.3808212 C35.0618808,53.4242649 35.0724768,53.4512848 35.0941987,53.4571126 C35.4030728,53.5016159 35.8963179,53.2637351 36.090755,52.9580397 C36.3217483,52.5940662 36.4377748,52.1543311 36.4822781,51.6441325 C36.7810861,51.9990993 36.6724768,52.8499603 36.6226755,53.1339338 C36.5861192,53.3394967 36.5220132,53.7326093 36.6332715,53.9689007 C36.7249272,54.1665166 36.9368477,54.2226755 37.0369801,54.1628079 C37.0353907,54.1543311 37.0343311,54.1447947 37.0327417,54.1373775 C36.978702,53.8963179 37.0290331,53.6383046 37.1741987,53.4327417 C37.314596,53.2324768 37.5296954,53.1016159 37.7628079,53.0740662 C37.8846623,53.0597616 38.005457,53.0730066 38.1220132,53.1153907 C38.3784371,53.2065166 38.5352583,53.4226755 38.6295629,53.6923444 C38.6740662,53.8189669 38.6899603,53.949298 38.6804238,54.0759205 C38.7593642,54.1230728 38.824,54.037245 38.8732715,53.8708874 C39.2218808,52.7010861 38.2777748,51.8338013 37.5715497,51.3824106 Z M34.413404,51.8767152 C33.9047947,51.709298 33.6059868,52.264 33.6229404,52.7344636 C33.6393642,53.0141987 33.4364503,53.5810861 33.8210861,53.7241325 C33.8210861,53.7241325 34.3535364,53.8348609 34.8409536,52.9124768 C35.0412185,52.5336689 34.8669139,52.0245298 34.413404,51.8767152 Z M45.0353907,34.7609536 C45.0269139,33.9885033 45.0412185,33.7569801 44.7990993,32.7265166 C44.2571126,30.4118146 42.5983046,28.0775099 40.8753907,26.2883709 C41.8565828,26.7683709 42.5331391,27.2700927 43.2891656,28.3847947 C43.1381722,26.7969801 41.4020132,24.3975099 39.8512848,23.2801589 C40.2518146,24.0812185 40.3779073,24.9077086 40.4012185,25.6420132 C40.4144636,26.3222781 40.2904901,27.1609536 40.1765828,27.6589669 C39.9143311,28.650755 39.6393642,29.7527417 38.7959205,30.5606887 C38.1580397,31.0417483 37.4671788,31.6870464 36.8510199,32.085457 L35.8306225,32.8695629 C35.1842649,33.4120795 34.7037351,33.8634702 34.4817483,34.4197616 C35.1132715,33.8809536 36.3885033,32.671947 37.7183046,32.338702 C37.4359205,32.5914172 37.0470464,33.0184371 36.2046623,33.6796291 C36.5373775,33.7649272 36.7959205,33.9858543 37.0364503,34.3752583 C37.4486358,35.0438675 37.5524768,36.0123444 37.4046623,36.9511523 C38.0997616,36.6014834 39.1556556,34.9283709 39.322543,33.5842649 C39.4067815,32.911947 39.4899603,32.4759205 39.4899603,32.4759205 C39.4899603,32.4759205 39.5604238,32.7508874 39.6171126,33.5032053 C39.7304901,35.0067815 39.1593642,36.6655894 38.5251921,37.696053 C38.1983046,38.2274437 37.6118146,38.4430728 37.3564503,38.7943311 C37.0957881,39.1540662 37.1800265,39.4131391 37.1042649,40.0096954 C36.9802914,40.9686358 36.1018808,41.6939338 36.5898278,41.6600265 C36.9167152,41.6361854 37.6001589,41.6573775 37.8941987,41.9620132 C37.2886358,41.7755232 35.8253245,42.2131391 35.0947285,43.3500927 C34.888106,43.6706225 34.418702,44.4849272 34.418702,44.4849272 C34.418702,44.4849272 33.8576424,45.5238675 32.7959205,46.4716821 C32.0669139,47.1222781 32.2089007,47.1689007 32.3556556,47.208106 C32.3800265,47.2144636 32.4017483,47.2197616 32.4234702,47.226649 C33.3379073,46.7832053 34.021351,46.2338013 34.3757881,45.8115497 C34.5818808,45.5673113 34.7106225,45.4581722 34.7106225,45.4581722 C34.7106225,45.4581722 34.6465166,45.6277086 34.4759205,45.9016159 C34.1432053,46.4340662 33.8783046,46.9214834 33.0067815,47.613404 C35.479894,47.1296954 37.2939338,48.9527417 37.5508874,50.7111523 C38.0865166,50.8510199 38.5940662,51.0904901 38.8785695,51.538702 C39.4761854,50.3577748 39.1434702,48.9548609 39.0761854,47.869298 C39.0194967,46.9792318 39.2674437,45.6949934 39.9153907,44.3694305 C39.7490331,45.0851921 39.6446623,45.7829404 39.6218808,46.3832053 C40.0038675,45.159894 41.4242649,43.8184371 42.4335364,42.7344636 C43.530755,41.6303576 44.2767152,39.8634702 44.5230728,38.496053 C44.8356556,36.7641325 44.8849272,35.1371126 43.9079735,32.3975099 C44.509298,33.1588344 44.8520795,33.9349934 45.0353907,34.7609536 Z M27.6043974,44.2338013 C27.7580397,43.2494305 28.8653245,41.1779073 27.6049272,42.5251921 C26.8790993,43.3018808 26.1914172,43.5180397 25.3585695,44.0812185 C24.1930066,44.8674437 24.9320795,45.7744636 24.7328742,46.3678411 C24.6470464,46.6242649 24.7100927,46.490755 24.4022781,46.8886358 C23.8661192,47.5816159 22.9797616,47.7363179 23.3930066,47.9895629 C23.8179073,48.2459868 23.882543,47.9964503 24.253404,47.9196291 C24.4918146,47.8698278 24.7953907,47.6727417 24.8859868,47.4147285 C25.0390993,46.9792318 25.317245,46.2814834 26.1532715,46.0234702 C26.9914172,45.7659868 27.4518146,45.2176424 27.6043974,44.2338013 Z M27.0327417,52.4441325 C26.7763179,52.6083709 26.7100927,53.0147285 26.9352583,53.2420132 C27.4253245,53.7394967 27.6722119,53.5424106 27.6722119,53.5424106 C27.8046623,53.4131391 27.7082384,53.0634702 27.7055894,52.8594967 C27.704,52.4997616 27.3161854,52.2634702 27.0327417,52.4441325 Z M30.2004238,51.2181722 C29.7246623,51.2033377 29.386649,51.6229404 29.4459868,52.0473113 C29.5916821,53.0793642 30.1310199,53.157245 30.1310199,53.157245 C30.5394967,53.1535364 30.5421457,52.5506225 30.653404,52.2936689 C30.8287682,51.8571126 30.7349934,51.2340662 30.2004238,51.2181722 Z M30.5665166,47.8141987 C30.5665166,47.8141987 29.2065166,47.8449272 28.4965828,49.1699603 C28.4965828,49.1699603 28.4261192,49.3209536 28.3530066,49.5646623 C28.3111523,49.5726093 28.269298,49.5805563 28.2300927,49.5900927 C26.8250596,49.9418808 26.1469139,51.1583046 26.1273113,51.9100927 C26.1214834,52.3005563 26.1590993,52.7773775 26.3932715,52.9580397 C26.3943311,52.9575099 26.3948609,52.9564503 26.3959205,52.9559205 C26.3720795,52.829298 26.3741987,52.6963179 26.4059868,52.5633377 C26.4716821,52.2846623 26.6565828,52.0483709 26.9024106,51.930755 C27.0104901,51.8788344 27.1265166,51.8518146 27.2451921,51.8518146 C27.4809536,51.8518146 27.7103576,51.9577748 27.8740662,52.1421457 C27.959894,52.2380397 28.0224106,52.3508874 28.0594967,52.4716821 C28.1633377,52.4441325 28.2131391,52.2979073 28.1628079,52.101351 C28.0208212,51.5498278 27.9604238,51.0724768 28.1988344,50.3588344 C28.1463841,50.9956556 28.2014834,51.8571126 28.8494305,52.3916821 C28.8494305,52.3916821 29.0602914,52.519894 29.154596,52.4489007 C29.1032053,52.2963179 29.0608212,52.1209536 29.0327417,51.9175099 C28.9861192,51.5900927 29.0867815,51.2568477 29.3071788,51.0030728 C29.528106,50.7498278 29.8470464,50.6046623 30.1829404,50.6046623 C30.1956556,50.6046623 30.2073113,50.6051921 30.2200265,50.6051921 C30.5368477,50.6152583 30.8033377,50.7604238 30.9691656,51.0147285 C31.1853245,51.3437351 31.2118146,51.8364503 31.0385695,52.269298 C31.0168477,52.3196291 30.9967152,52.4043974 30.9765828,52.4870464 C30.976053,52.4896954 30.9749934,52.4928742 30.9739338,52.4955232 C31.1900927,52.5188344 31.4338013,52.4875762 31.6589669,52.3095629 C31.6589669,52.3095629 32.5967152,51.7326093 32.4139338,49.144 C32.4139338,49.144 32.2253245,47.5381722 30.5665166,47.8141987 Z M27.9270464,39.370755 C28.0859868,39.2420132 28.2915497,39.1710199 28.5055894,39.1710199 C28.5511523,39.1710199 28.5956556,39.1741987 28.6390993,39.1800265 C27.6330066,38.3837351 26.0298278,38.4356556 25.5784371,38.8229404 C25.5296954,38.8028079 25.4804238,38.7842649 25.4300927,38.7683709 C25.1122119,38.6671788 23.7638675,38.4520795 22.9447947,39.159894 C22.0828079,39.9058543 21.4973775,41.0941987 22.6014834,41.9477086 C23.3511523,42.5278411 24.0685033,42.9188344 24.8944636,42.2152583 C24.9500927,42.168106 24.6486358,41.9397616 24.4181722,41.6033377 C24.170755,41.3405563 24.0245298,41.0104901 24.0303576,40.7032053 C24.0361854,40.3996291 24.184,40.1347285 24.4473113,39.9577748 C24.6412185,39.8274437 24.8647947,39.7585695 25.0952583,39.7585695 C25.4189669,39.7585695 25.7214834,39.8926093 25.9349934,40.117245 C26.0001589,40.1670464 26.0616159,40.2263841 26.1204238,40.2979073 C26.8865166,41.226649 26.6783046,40.181351 26.4446623,39.6838675 C26.3243974,39.4290331 26.1686358,39.2298278 25.9906225,39.0777748 C26.2486358,39.1100927 26.5702252,39.3230728 26.7482384,39.5741987 C26.9352583,39.8380397 27.0783046,40.1808212 27.3230728,40.4192318 C27.5969801,40.6878411 27.719894,40.6194967 27.7575099,40.4462517 C27.704,40.3567152 27.6642649,40.2565828 27.6451921,40.1506225 C27.5911523,39.8496954 27.6965828,39.5577748 27.9270464,39.370755 Z M24.8059868,40.4356556 C24.3609536,40.733404 24.6136689,41.3098278 24.9956556,41.5869139 C25.2261192,41.7463841 25.5482384,42.2544636 25.8968477,42.0393642 C25.8968477,42.0393642 26.3122119,41.6875762 25.8857219,40.7355232 C25.7103576,40.3445298 25.2006887,40.1696954 24.8059868,40.4356556 Z M28.3964503,40.4462517 C28.5755232,40.5447947 28.8377748,40.7953907 29.0147285,40.7397616 C29.0147285,40.7397616 29.3055894,40.6152583 29.0989669,39.9477086 C29.0041325,39.6420132 28.6147285,39.5079735 28.349298,39.6568477 C28.0552583,39.8221457 28.0812185,40.2751258 28.3964503,40.4462517 Z M21.3389669,47.1847947 C21.3924768,47.1847947 21.4443974,47.1906225 21.4963179,47.2001589 C21.525457,47.1349934 21.4120795,47.048106 21.1630728,47.0338013 C20.5177748,46.9961854 19.9508874,46.5373775 19.6918146,45.7940662 C19.3643974,46.4504901 19.5752583,47.8073113 20.0806887,48.3689007 C20.4033377,48.728106 20.8753907,48.8669139 20.9341987,48.7900927 C20.6867815,48.6396291 20.5071788,48.3800265 20.4796291,48.0843974 C20.4584371,47.858702 20.5320795,47.6404238 20.6867815,47.4703576 C20.8520795,47.2891656 21.0899603,47.1847947 21.3389669,47.1847947 Z M36.3132715,37.3643974 C36.5257219,37.3002914 36.7127417,37.2377748 36.8647947,37.1789669 C36.8478411,35.8221457 36.3339338,34.986649 35.2949934,34.2915497 C34.2465166,35.2065166 33.5212185,35.8152583 32.6788344,36.2730066 C32.2369801,36.511947 31.7326093,36.7074437 31.0751258,36.8716821 C30.7148609,36.9649272 30.3858543,37.0353907 30.0658543,37.0841325 C30.7620132,36.8822781 31.4682384,36.4149934 31.9922119,35.9095629 C32.2046623,35.7034702 32.3874437,35.4926093 32.5251921,35.290755 C32.3106225,35.5116821 32.0409536,35.6727417 31.7315497,35.776053 C31.5646623,35.8311523 31.3845298,35.8714172 31.1943311,35.8926093 C31.3114172,35.8226755 31.4216159,35.7485033 31.5243974,35.6695629 C32.0255894,35.2828079 32.3434702,34.7853245 32.4531391,34.1204238 C32.010755,34.8600265 31.3601589,35.2743311 30.8218808,35.290755 C30.813404,35.296053 30.805457,35.301351 30.7969801,35.306649 C30.3312848,35.6303576 29.6632053,35.8126093 29.1800265,35.8311523 C27.8390993,35.8820132 27.402543,35.938702 27.402543,35.938702 C27.5567152,36.1410861 28.1988344,37.3018808 28.2878411,37.8014834 C28.9903576,38.0843974 29.605457,38.8128742 29.8979073,39.2102252 C31.5847947,39.0973775 33.3712848,38.6263841 34.810755,38.2210861 C33.9402914,38.0891656 33.1916821,38.4473113 32.1050596,38.3016159 C32.968106,38.2163179 33.7336689,37.9916821 34.0822781,37.8756556 C34.7381722,37.6520795 34.7879735,37.0263841 33.773404,36.2438675 C34.9935364,36.4229404 35.8629404,36.7683709 36.3132715,37.3643974 Z M17.4947285,24.3710199 C18.1718146,24.0330066 18.9771126,23.8390993 19.8385695,23.9445298 L19.9318146,24.1108874 C19.5127417,24.4176424 18.7922119,25.4030728 18.6936689,25.6467815 C18.4923444,25.7341987 17.8269139,25.8571126 17.6653245,25.8327417 C17.5646623,25.4767152 17.4322119,24.7259868 17.4947285,24.3710199 Z M30.0753907,18.6009536 C31.6690331,18.9961854 32.6920795,19.389298 33.3161854,19.7585695 C33.9164503,20.6327417 34.4149934,21.5275762 34.6889007,22.4224106 C33.4830728,20.8361854 32.1628079,19.525457 30.0753907,18.6009536 Z M26.3657219,18.4626755 C26.3381722,18.4700927 26.3085033,18.4780397 26.2804238,18.485457 L26.6226755,18.6602914 C24.645457,18.7689007 23.1577748,19.696053 23.1577748,19.696053 C23.8141987,19.1021457 24.4605563,18.7042649 25.079894,18.4658543 C25.079894,18.4658543 26.5956556,18.0732715 28.0669139,18.2258543 C27.3506225,18.2618808 26.9877086,18.3122119 26.3657219,18.4626755 Z M19.4523444,28.7810861 C19.4523444,28.7810861 19.3071788,28.8483709 19.1026755,28.9691656 C18.4817483,29.2769801 18.0838675,29.6430728 17.8327417,30.186649 C17.8179073,30.2194967 17.8020132,30.253404 17.7882384,30.2873113 C17.7882384,30.2873113 18.6184371,35.5636026 22.3000265,33.9026755 C23.1577748,33.693404 24.6947285,33.8338013 25.626649,33.2340662 C25.4931391,33.6234702 25.2679735,33.6478411 25.0205563,33.8443974 C25.621351,33.9710199 25.8184371,34.194596 26.2698278,33.8756556 C26.7932715,33.5079735 26.6931391,33.6541987 27.2282384,33.9270464 C27.7633377,34.1993642 28.7249272,34.7106225 29.5434702,34.6438675 C29.9604238,34.5606887 30.2820132,34.3222781 30.5214834,34.090755 C30.2459868,34.0388344 29.869298,33.8592318 29.6647947,33.6981722 C29.2091656,33.3500927 29.3008212,32.8436026 28.9718146,32.1617483 L28.6581722,31.8067815 C27.9249272,32.3805563 27.3204238,32.6401589 26.3694305,32.9130066 C26.7302252,32.437245 27.0465166,32.2168477 27.5138013,31.9185695 C27.7792318,31.7479735 28.1437351,31.4115497 28.4557881,31.1095629 L28.1702252,30.1251921 C27.9943311,29.9885033 27.8232053,29.8390993 27.6775099,29.6843974 C26.5749934,29.2891656 25.5636026,29.1122119 24.4732715,28.9357881 L24.0377748,29.365457 C23.6743311,28.8753907 22.9416159,28.245457 22.1336689,27.8194967 C21.8253245,27.7167152 21.4428079,27.5789669 21.0952583,27.5265166 C21.045457,27.1365828 20.7985695,26.3784371 20.5410861,25.9063841 C20.4022781,26.1824106 20.0817483,26.7757881 19.9212185,27.458702 C19.4131391,27.4851921 18.7853245,27.5747285 18.1967152,27.7474437 C18.0022781,27.794596 17.8412185,27.845457 17.7437351,27.8979073 C17.6896954,27.7379073 17.3802914,27.306649 17.0904901,26.9643974 C17.0051921,26.8499603 16.9214834,26.7408212 16.8436026,26.645457 L18.0192318,27.1514172 C18.519894,26.9882384 18.9643974,26.8928742 19.2806887,26.8393642 C19.445457,26.8149934 19.6112848,26.7927417 19.7702252,26.7736689 C20.005457,26.2438675 20.6221457,25.373404 20.6221457,25.373404 C21.146649,25.7712848 21.5233377,26.3392318 21.8173775,27.1667815 C22.1564503,26.7922119 22.6369801,26.4361854 23.1010861,26.2417483 C23.9296954,25.8793642 25.4878411,25.5349934 26.1633377,25.7469139 C26.3503576,26.7620132 27.1593642,27.7924768 27.6118146,28.7222781 C27.8645298,29.1217483 28.0939338,29.8634702 28.0939338,29.8634702 L27.8793642,27.0157881 L28.9008212,30.5861192 C28.9008212,30.5861192 30.328106,32.9850596 31.4163179,33.2367152 C31.7400265,33.1445298 32.0388344,33.0375099 32.2406887,32.9304901 C32.6608212,32.671947 33.2589669,32.0224106 33.6123444,31.3548609 C33.6594967,31.234596 33.7251921,30.9315497 33.7744636,30.6009536 C33.8115497,30.3885033 33.8385695,30.0626755 33.8401589,29.8714172 C34.0541987,30.346649 34.1633377,30.7773775 34.269298,31.4433377 C34.1691656,32.0144636 33.9164503,32.7095629 33.6123444,33.3601589 C34.186649,33.0724768 34.7259868,31.5943311 34.9771126,31.1074437 C35.2584371,30.5898278 35.8051921,29.5636026 36.0722119,28.4971126 C36.0780397,28.3726093 36.0557881,28.2173775 36.0096954,28.0446623 C35.7612185,27.1943311 35.3538013,26.0674437 35.0804238,25.2976424 C35.3659868,25.7018808 35.6033377,26.0579073 35.8179073,26.4261192 C36.1140662,26.9352583 36.3651921,27.4634702 36.6327417,28.1702252 C36.6459868,29.0915497 36.6258543,30.1071788 36.4404238,31.1074437 C36.4679735,31.0814834 37.8878411,29.9455894 38.9278411,28.2486358 C39.5143311,27.2918146 40.2115497,25.9005563 39.7389669,23.8941987 C39.5153907,22.9506225 38.104,21.4094305 37.3183046,20.8886358 C37.2759205,20.8610861 37.234596,20.8356556 37.1975099,20.8139338 L37.0385695,20.4361854 C36.9967152,20.3816159 36.3922119,19.5058543 35.7861192,19.0777748 C35.4857219,18.8658543 34.5988344,18.4123444 34.0605563,18.3212185 L33.5567152,18.3471788 C33.1302252,18.3455894 32.4494305,18.3826755 31.7988344,18.4557881 C30.1320795,17.5122119 28.741351,17.0089007 27.4608212,16.7122119 C27.2806887,16.808106 27.136053,16.8722119 26.9935364,16.9368477 C27.077245,16.5924768 27.2065166,16.3016159 27.477245,16.0700927 C27.477245,16.0700927 29.3214834,16.7312848 30.4409536,17.3373775 C30.8594967,17.3718146 32.5410861,17.3771126 33.3204238,17.1858543 C33.4322119,17.0904901 33.4767152,16.896053 33.4851921,16.7344636 C33.2971126,16.4255894 32.5908874,16.117245 31.5032053,15.4957881 C30.9220132,15.1482384 30.3567152,14.6963179 30.3567152,14.6963179 C30.3567152,14.6963179 29.9286358,14.656053 29.5079735,14.6682384 C29.1900927,14.677245 27.3967152,14.8234702 27.0565828,14.9522119 C26.9861192,14.978702 26.7455894,15.0740662 26.7153907,15.0820132 C26.3302252,15.216053 25.9461192,15.4671788 25.5016159,15.8703576 C25.3283709,15.9752583 25.1037351,16.085457 24.8118146,16.181351 C23.9524768,16.4647947 22.6788344,16.7906225 22.3053245,16.9458543 C21.7267815,17.1869139 20.7122119,17.7850596 20.7122119,17.7850596 L19.5063841,19.3114172 C19.2552583,19.626649 19.0343311,19.9318146 18.9061192,20.1670464 C18.0828079,20.4351258 16.9606887,20.9326093 16.4308874,21.2891656 C16.3000265,21.3824106 16.1140662,21.6409536 16.1977748,21.7421457 C16.2894305,21.8322119 16.4065166,21.9037351 16.511947,21.9344636 C16.7243974,21.9593642 16.8981722,21.9651921 17.0316821,21.9535364 C17.074596,21.9508874 17.1138013,21.946649 17.1503576,21.9408212 C17.2647947,22.1262517 17.4210861,22.3943311 17.7140662,22.4796291 C17.7140662,22.4796291 17.9773775,22.4923444 18.2793642,22.4738013 C18.3906225,22.4685033 18.5071788,22.4589669 18.6216159,22.4436026 C18.8843974,22.3085033 19.2865166,21.8862517 19.399894,21.7458543 C19.5583046,21.5487682 19.7628079,21.2261192 20.0504901,20.8033377 C20.3789669,20.3911523 21.0375099,19.845457 21.6621457,19.391947 C21.9164503,19.2451921 22.6253245,18.8563179 23.5604238,18.5188344 C23.0555232,18.7445298 21.5471788,20.0388344 21.0841325,20.6433377 C20.818702,21.0210861 20.7847947,21.3522119 20.7318146,21.6208212 C20.744,21.7018808 20.8743311,21.930755 21.1450596,22.1601589 C21.5694305,22.1447947 22.6406887,21.8078411 23.050755,21.7442649 C23.8417483,21.4703576 24.3975099,20.7318146 24.7773775,20.2279735 C25.2738013,20.2141987 27.0226755,20.1765828 27.8449272,19.9837351 C28.1373775,20.1151258 28.834596,20.6401589 29.4184371,21.2928742 C29.0597616,21.0470464 28.5071788,20.8181722 28.018702,20.7021457 C27.8226755,20.7339338 27.2017483,20.7800265 26.9532715,20.8441325 C27.0041325,21.5127417 26.7381722,21.9032053 26.3996291,22.2926093 C26.7535364,22.261351 27.368106,22.3122119 28.0928742,22.2989669 C29.2700927,22.5575099 30.1808212,23.6234702 30.1808212,23.6234702 C29.2891656,22.8197616 27.802543,22.7704901 27.802543,22.7704901 C26.7498278,22.6687682 25.0830728,22.8091656 23.9275762,22.968106 C24.194596,23.2303576 24.6327417,23.9810861 24.970755,24.6184371 C24.1850596,23.7675762 23.6722119,23.5402914 22.8096954,23.1630728 C21.9593642,22.8674437 20.9326093,22.8383046 20.4949934,22.8473113 C20.0700927,22.8594967 19.5498278,22.9447947 19.5498278,22.9447947 C17.5323444,23.5249272 16.3180397,24.7561854 16.0049272,25.856053 C16.0255894,26.1341987 16.2237351,26.3953907 16.4430728,26.5914172 C16.4557881,27.0311523 16.6189669,27.9450596 16.8388344,28.4499603 C16.8388344,28.4499603 16.7858543,28.4949934 16.7201589,28.570755 C16.6406887,28.6443974 16.5590993,28.7185695 16.519894,28.7922119 C16.4388344,28.9183046 16.4330066,29.1530066 16.4817483,29.3188344 C16.4955232,29.3670464 16.5341987,29.471947 16.5855894,29.5243974 C16.5855894,29.5243974 16.8043974,29.7882384 17.2716821,29.626649 C17.2716821,29.626649 17.8941987,29.2753907 18.5336689,29.0237351 C18.7773775,28.9405563 19.1175099,28.834596 19.4523444,28.7810861 Z M16.3938013,22.6221457 C16.2941987,23.0703576 16.5299603,23.5641325 16.7922119,23.7675762 C17.0247947,23.5964503 17.3802914,23.3940662 17.6584371,23.2563179 C17.5980397,23.2277086 17.5116821,23.1540662 17.4216159,23.0650596 C17.3877086,23.2489007 17.2780397,23.3908874 17.130755,23.4152583 C16.9246623,23.4491656 16.7222781,23.239894 16.6783046,22.9479735 C16.6634702,22.8414834 16.6708874,22.7397616 16.6984371,22.6496954 C16.5908874,22.6459868 16.4790993,22.6396291 16.3938013,22.6221457 Z M24.8759205,22.3424106 C24.650755,22.3551258 24.4462517,22.202543 24.3355232,21.9699603 C24.0727417,22.2036026 23.797245,22.4224106 23.5768477,22.5421457 C23.9365828,22.5167152 24.7339338,22.5098278 25.1238675,22.4753907 C25.9106225,22.3821457 26.1310199,21.938702 26.1400265,21.7670464 C26.1490331,21.5948609 26.1596291,21.3034702 25.9429404,20.9961854 C25.6510199,21.0343311 25.5429404,21.0306225 25.2202914,21.058702 C25.2155232,21.0661192 25.2075762,21.077245 25.1990993,21.0883709 C25.309298,21.2123444 25.3850596,21.3877086 25.3988344,21.5847947 C25.4263841,21.9832053 25.1922119,22.3228079 24.8759205,22.3424106 Z M23.3432053,44.7169801 C23.8269139,43.3304901 23.5524768,43.0751258 22.4605563,42.2878411 C21.4920795,41.5885033 20.5188344,42.1474437 19.9577748,43.2118146 C19.5302252,44.0234702 19.629298,44.8171126 19.9927417,45.5355232 C20.1882384,45.9206887 20.6422781,46.3424106 21.1853245,46.4287682 C21.7055894,46.5114172 22.4812185,46.5156556 21.7850596,46.0637351 C21.6467815,46.005457 21.5053245,45.9318146 21.3612185,45.8412185 C21.074596,45.6626755 20.8828079,45.3659868 20.8340662,45.0258543 C20.7853245,44.6873113 20.8886358,44.3455894 21.1180397,44.0886358 C21.304,43.8804238 21.5402914,43.7702252 21.802543,43.7702252 C22.2359205,43.7702252 22.6168477,44.0690331 22.8388344,44.3996291 C22.8817483,44.4504901 22.9220132,44.5055894 22.9612185,44.5649272 C23.2356556,44.9612185 23.3432053,44.7169801 23.3432053,44.7169801 Z M19.7479735,17.213404 C19.3236026,17.6563179 19.1704901,17.9010861 19.0094305,18.3037351 C19.6870464,18.0679735 20.1241325,17.802543 20.3943311,17.6118146 C20.2014834,17.4544636 19.9667815,17.2753907 19.7479735,17.213404 Z M21.6663841,48.658702 C22.3339338,48.4494305 22.2708874,48.1394967 22.2708874,48.1394967 C22.2157881,47.9630728 21.8602914,47.8894305 21.6785695,47.7983046 C21.3575099,47.6356556 20.9702252,47.8724768 21.0009536,48.2078411 C21.0300927,48.5108874 21.3622781,48.7551258 21.6663841,48.658702 Z M22.9988344,45.7930066 C23.2584371,45.477245 22.7990993,45.0883709 22.6724768,44.8388344 C22.4504901,44.4229404 21.9143311,44.0944636 21.557245,44.4939338 C21.2409536,44.8494305 21.3453245,45.3781722 21.7082384,45.6049272 C22.5930066,46.1569801 22.9988344,45.7930066 22.9988344,45.7930066 Z M24.9538013,36.6073113 C25.1291656,36.6216159 26.0579073,36.7175099 26.6089007,36.8621457 C26.3890331,36.4473113 26.0806887,35.9074437 24.650755,35.5418808 C24.3302252,35.4793642 24.1453245,35.5328742 23.8634702,35.4602914 C22.810755,35.1895629 22.1294305,35.3643974 22.1294305,35.3643974 C20.8711523,35.6176424 19.9116821,35.1789669 19.1678411,34.911947 C19.2229404,35.1943311 19.2833377,35.5434702 19.4205563,35.8242649 C20.1871788,36.6751258 20.6486358,37.4131391 20.9034702,37.5837351 C21.4041325,37.9318146 21.7071788,38.5744636 21.7559205,38.7911523 C21.4179073,38.4314172 21.1365828,38.2857219 20.6788344,38.0759205 C20.7079735,38.6740662 20.738702,39.0046623 20.8489007,39.4110199 C20.9246623,39.7898278 20.6083709,40.5177748 20.5532715,41.1074437 C20.8616159,40.8414834 21.1169801,40.7874437 21.1794967,40.4769801 C21.3442649,39.4348609 21.8364503,38.7328742 23.1349934,38.2364503 C23.9678411,37.9175099 24.9008212,37.9190993 25.3808212,38.0817483 C25.5588344,38.1908874 26.2311523,37.8608212 26.8605563,38.0144636 C26.8605563,38.0144636 26.4457219,37.448106 25.3718146,37.1074437 C24.7588344,36.9124768 23.5990993,36.7477086 22.8197616,36.7662517 C23.4131391,36.5861192 24.3842649,36.5612185 24.9538013,36.6073113 Z M20.8547285,17.2790993 C21.1699603,17.0687682 22.3392318,16.362543 23.1185695,16.0308874 C22.8467815,15.8724768 21.8687682,15.6711523 21.2579073,15.6330066 C20.8674437,15.7421457 20.1983046,16.0531391 19.7373775,16.3583046 C20.0541987,16.5384371 20.7047947,17.0465166 20.8547285,17.2790993 Z" id="Fill-18" fill="#FFFFFF"></path>
                <path d="M22.8150993,2.05917881 C22.4029139,1.9378543 22.0304636,1.96434437 22.0304636,1.68037086 C22.0304636,1.47056954 22.2270199,1.3757351 22.4972185,1.3757351 C22.8082119,1.3757351 23.1335099,1.4975894 23.4037086,1.65335099 L23.5801325,0.536529801 C23.2956291,0.374410596 22.8760265,0.191629139 22.3282119,0.191629139 C21.5022517,0.191629139 20.5618543,0.604344371 20.5618543,1.7344106 C20.5618543,2.55348344 21.0487417,2.99321854 21.5435762,3.16222517 C21.9827815,3.31109934 22.4362914,3.26394702 22.4362914,3.54845033 C22.4362914,3.7375894 22.2466225,3.87321854 21.9488742,3.87957616 C21.5764238,3.88646358 21.1774834,3.6967947 20.8394702,3.46686093 L20.5210596,4.60381457 C20.9411921,4.8544106 21.4683444,5.07109934 22.0574834,5.07109934 C22.984106,5.07109934 23.9049007,4.54288742 23.9049007,3.45308609 C23.9049007,2.57997351 23.3157616,2.20858278 22.8150993,2.05917881 Z M26.4521854,11.5230199 C26.3266225,11.5542781 26.2010596,11.5542781 26.0860927,11.5436821 L26.0860927,7.8154702 C26.1904636,7.80487417 26.2948344,7.79427815 26.4103311,7.80487417 C26.9761589,7.86792053 27.6150993,8.31772185 27.6150993,9.65864901 C27.6150993,10.9153377 27.018543,11.4181192 26.4521854,11.5230199 Z M26.0023841,5.97176159 C25.1743046,5.96169536 24.4516556,5.98235762 23.8550993,6.00354967 L23.8550993,13.3349404 C24.3372185,13.3661987 24.7345695,13.3868609 25.2161589,13.3868609 C28.4002649,13.3868609 29.8455629,12.1195762 29.8455629,9.68990728 C29.8455629,7.19772185 28.4527152,6.00354967 26.0023841,5.97176159 Z M20.9645033,6.00354967 L18.7335099,6.00354967 L18.7335099,13.3349404 L23.3109934,13.3349404 L23.3109934,11.5023576 L20.9645033,11.5023576 L20.9645033,6.00354967 Z M15.8429139,6.00354967 L13.6124503,6.00354967 L13.6124503,13.3349404 L18.189404,13.3349404 L18.189404,11.5023576 L15.8429139,11.5023576 L15.8429139,6.00354967 Z M41.4810596,10.7166623 L42.6021192,10.7166623 L42.6021192,11.4705695 C42.4135099,11.5961325 42.1417219,11.7216954 41.7745695,11.7216954 C40.8945695,11.7216954 40.1406623,10.9783841 40.1406623,9.71109934 C40.1406623,8.48566887 40.8744371,7.62686093 41.8270199,7.60566887 C42.3403974,7.59560265 42.7488742,7.82606623 43.0312583,8.12964238 L43.6908609,6.38023841 C43.1780132,6.08725828 42.4760265,5.8149404 41.6590728,5.8149404 C39.6172185,5.8149404 37.9096689,7.46950993 37.9096689,9.74235762 C37.9096689,12.0046093 39.5335099,13.5548079 41.6908609,13.5548079 C42.9056954,13.5548079 43.7438411,13.0726887 44.3716556,12.6223576 L44.3716556,9.06209272 L41.4810596,9.05096689 L41.4810596,10.7166623 Z M48.5507285,8.78924503 C47.9117881,8.60063576 47.3353642,8.64301987 47.3353642,8.20328477 C47.3353642,7.87851656 47.6394702,7.73176159 48.0580132,7.73176159 C48.5401325,7.73176159 49.0429139,7.91984106 49.4619868,8.16090066 L49.7343046,6.43268874 C49.2940397,6.18156291 48.6450331,5.89864901 47.7968212,5.89864901 C46.5189404,5.89864901 45.0625166,6.5375894 45.0625166,8.28646358 C45.0625166,9.55374834 45.8169536,10.234543 46.581457,10.4967947 C47.2627815,10.7267285 47.9642384,10.6536159 47.9642384,11.093351 C47.9642384,11.3863311 47.6712583,11.5961325 47.2098013,11.6067285 C46.6344371,11.6173245 46.0161589,11.3238146 45.4927152,10.9677881 L45,12.7272583 C45.6500662,13.1150728 46.4664901,13.4499073 47.3777483,13.4499073 C48.8124503,13.4499073 50.2370861,12.6329536 50.2370861,10.9471258 C50.2370861,9.59613245 49.3258278,9.01970861 48.5507285,8.78924503 Z M40.1390728,4.99586755 L40.1390728,0.259443709 L38.6980132,0.259443709 L38.6980132,2.72937748 L37.3782781,0.259443709 L36.045298,0.259443709 L36.045298,4.99586755 L37.4863576,4.99586755 L37.4863576,2.59427815 L38.8129801,4.99586755 L40.1390728,4.99586755 Z M15.3851656,4.99586755 L16.6498013,0.259443709 L15.2829139,0.259443709 L14.6270199,3.16911258 L13.8688742,0.259443709 L12.8060927,0.259443709 L12.0553642,3.16222517 L11.392053,0.259443709 L9.99125828,0.259443709 L11.3517881,4.99586755 L12.6301987,4.99586755 L13.3411921,2.11321854 L14.0649007,4.99586755 L15.3851656,4.99586755 Z M33.8778808,11.7529536 C33.1033113,11.7529536 32.589404,10.9259338 32.589404,9.73229139 C32.589404,8.50633113 33.1033113,7.71056954 33.8884768,7.71056954 C34.6736424,7.71056954 35.1764238,8.51692715 35.1764238,9.73229139 C35.1764238,10.9153377 34.6529801,11.7529536 33.8778808,11.7529536 Z M33.8778808,5.8567947 C31.9504636,5.8567947 30.3483444,7.36513907 30.3483444,9.74235762 C30.3483444,12.1095099 31.9403974,13.6173245 33.8990728,13.6173245 C35.9096689,13.6173245 37.4068874,12.0258013 37.4068874,9.72169536 C37.4068874,7.32328477 35.7629139,5.8567947 33.8778808,5.8567947 Z M31.5181457,3.81229139 L29.6908609,3.81229139 L29.6908609,3.14209272 L30.9835762,3.14209272 L30.9835762,2.09308609 L29.6908609,2.09308609 L29.6908609,1.44354967 L31.402649,1.44354967 L31.402649,0.259443709 L28.2498013,0.259443709 L28.2498013,4.99586755 L31.5181457,4.99586755 L31.5181457,3.81229139 Z M25.2580132,4.99586755 L26.6927152,4.99586755 L26.6927152,1.45043709 L27.9308609,1.45043709 L27.9308609,0.259443709 L24.026755,0.259443709 L24.026755,1.45043709 L25.2580132,1.45043709 L25.2580132,4.99586755 Z M20.1486093,3.81229139 L18.3223841,3.81229139 L18.3223841,3.14209272 L19.6145695,3.14209272 L19.6145695,2.09308609 L18.3223841,2.09308609 L18.3223841,1.44354967 L20.0336424,1.44354967 L20.0336424,0.259443709 L16.8802649,0.259443709 L16.8802649,4.99586755 L20.1486093,4.99586755 L20.1486093,3.81229139 Z M33.4264901,1.40964238 C33.4937748,1.40275497 33.5817219,1.40275497 33.6696689,1.42341722 C33.8593377,1.46368212 34.0829139,1.61308609 34.0829139,2.02580132 C34.0829139,2.35056954 33.9197351,2.57361589 33.6966887,2.64143046 C33.6023841,2.66845033 33.5139073,2.66845033 33.4264901,2.66156291 L33.4264901,1.40964238 Z M33.4264901,3.84619868 C33.5615894,3.86633113 33.6834437,3.85944371 33.7782781,3.85255629 L34.1162914,4.99586755 L35.6596026,4.99586755 L35.0503311,3.29096689 C35.3480795,2.99321854 35.5308609,2.56672848 35.5308609,2.02580132 C35.5308609,0.949245033 34.7928477,0.266331126 33.4874172,0.232423841 C33.0884768,0.218649007 32.4113907,0.232423841 31.9854305,0.259443709 L31.9854305,4.99586755 L33.4264901,4.99586755 L33.4264901,3.84619868 Z M10.5851656,10.5699073 C10.5851656,11.1876556 10.2291391,11.5542781 9.74807947,11.5542781 C9.26596026,11.5542781 8.90993377,11.1982517 8.90993377,10.5805033 L8.90993377,6.00354967 L6.6789404,6.00354967 L6.6789404,10.5068609 C6.6789404,12.706596 8.34463576,13.5548079 9.78940397,13.5548079 C11.3915232,13.5548079 12.8161589,12.5179868 12.8161589,10.4443444 L12.8161589,6.00354967 L10.5851656,6.00354967 L10.5851656,10.5699073 Z M3.04503311,11.6067285 C2.87708609,11.6173245 2.7202649,11.6067285 2.62649007,11.5961325 L2.62649007,10.2869934 C2.7202649,10.2663311 2.85642384,10.2557351 3.00264901,10.2663311 C3.4005298,10.2975894 3.70463576,10.517457 3.70463576,10.9471258 C3.70463576,11.408053 3.4005298,11.5749404 3.04503311,11.6067285 Z M2.62649007,7.76301987 C2.73086093,7.74182781 2.87708609,7.73176159 3.01324503,7.75242384 C3.26490066,7.78421192 3.62092715,7.87851656 3.62092715,8.30765563 C3.62092715,8.66368212 3.34860927,8.81043709 2.99258278,8.87348344 C2.89827815,8.88354967 2.78278146,8.8941457 2.62649007,8.86288742 L2.62649007,7.76301987 Z M4.77271523,9.39692715 C5.41165563,9.11401325 5.74701987,8.55931126 5.74701987,7.87851656 C5.74701987,7.04037086 5.23364238,5.95109934 2.66781457,5.95109934 C2.09192053,5.95109934 1.37986755,5.96169536 0.41615894,6.00354967 L0.41615894,13.3349404 C1.13880795,13.3767947 1.72529801,13.408053 2.58357616,13.408053 C4.77271523,13.408053 6.0818543,12.6748079 6.0818543,11.1876556 C6.0818543,10.1720265 5.46410596,9.58553642 4.77271523,9.39692715 Z" id="Fill-20" fill="#FFFFFF"></path>
            </g>
        </g>
        <rect id="Bounding-box" fill-opacity="0" fill="#FFFFFF" x="0" y="0" width="80" height="80"></rect>
    </g>
</svg>