<?xml version="1.0" encoding="UTF-8"?>
<svg width="80px" height="80px" viewBox="0 0 80 80" version="1.1" xmlns="http://www.w3.org/2000/svg" xmlns:xlink="http://www.w3.org/1999/xlink">
    <!-- Generator: Sketch 52.5 (67469) - http://www.bohemiancoding.com/sketch -->
    <title>Assets/Logos/Clubs/Reverse/West Coast</title>
    <desc>Created with Sketch.</desc>
    <g id="Assets/Logos/Clubs/Reverse/West-Coast" stroke="none" stroke-width="1" fill="none" fill-rule="evenodd">
        <g id="Group" transform="translate(8.000000, 14.000000)">
            <path d="M38.7338696,9.62000324 C37.9872535,9.39692585 37.9131464,8.77533392 37.9131464,8.77533392 C37.9131464,8.77533392 38.9637527,8.68811948 40.4705964,8.93211826 C40.4705964,8.93211826 39.3882299,9.22930272 38.7338696,9.62000324" id="Fill-1" fill="#FFFFFF"></path>
            <path d="M16.5071186,27.2888923 C16.5071186,27.2888923 22.9809002,19.1779495 33.9195065,20.0523625 C33.9195065,20.0523625 25.5481807,24.1448874 20.4138718,34.1163209 C20.4138718,34.1163209 17.1768549,31.0280223 16.5071186,27.2888923" id="Fill-3" fill="#F2A900"></path>
            <path d="M30.3106184,32.3304414 C30.3106184,32.3304414 32.3198273,26.4147314 37.3422195,21.6522181 C37.3422195,21.6522181 30.6826661,22.0615714 26.2924526,28.3866348 C26.2924526,28.3866348 27.0736016,30.6932802 30.3106184,32.3304414" id="Fill-5" fill="#F2A900"></path>
            <path d="M38.8923931,21.149752 C38.8923931,21.149752 43.5654234,19.9012748 48.7430876,19.6320696 C48.7430876,19.6320696 47.030811,18.7122849 42.8666997,18.8655403 C42.8666997,18.8655403 40.8363173,20.0656211 38.8923931,21.149752" id="Fill-7" fill="#F2A900"></path>
            <path d="M50.3411535,12.5464258 C49.931044,12.3856084 48.5088941,12.4156041 48.5088941,12.4156041 C49.9880106,11.4529684 51.5069534,11.7100746 51.5069534,11.7100746 C50.7109326,12.1040519 50.3411535,12.5464258 50.3411535,12.5464258 M56.5600975,13.9509311 C54.2305142,10.8212939 48.2875812,8.68025506 48.2875812,8.68025506 C49.0271394,8.40852915 49.6741899,8.19175338 49.6741899,8.19175338 C36.673189,-1.005841 15.9234625,0.66786962 15.9234625,0.66786962 C20.9854288,1.80190939 24.4324157,2.95661847 24.4324157,2.95661847 C20.6537115,2.93569709 19.991033,3.02618837 19.991033,3.02618837 C13.9636582,4.25399627 10.126475,8.8234279 10.126475,8.8234279 C17.472653,8.18167078 23.2645992,8.59808192 23.2645992,8.59808192 C17.4585374,9.25597118 15.408746,9.87252181 15.408746,9.87252181 C8.88051844,12.9741798 7.59448357,18.1087408 7.59448357,18.1087408 C12.8823,16.3437827 21.8500113,14.4938788 21.8500113,14.4938788 C15.6966041,16.5595503 14.223033,17.7296353 14.223033,17.7296353 C9.96893447,22.6912798 12.0439323,29.136326 12.0439323,29.136326 C25.1253419,16.8670694 34.282858,13.4301651 34.282858,13.4301651 C31.1015475,13.2811948 28.4692343,13.4858715 28.4692343,13.4858715 C30.9805564,12.1370724 35.064259,10.8999381 35.064259,10.8999381 C35.064259,10.8999381 35.9197671,12.4534138 38.849769,12.4627402 C41.2776576,12.481393 42.3333052,11.2727421 42.3333052,11.2727421 C41.6963374,11.4774187 40.9358577,11.5694224 40.1269816,11.5109433 C38.0068641,11.35794 36.3606286,10.2312101 36.4501116,8.99382374 C35.4733603,9.22723579 34.9480571,9.70943585 34.9480571,9.70943585 C31.5295536,7.68636335 29.4507748,6.89109874 29.4507748,6.89109874 C38.7426414,6.43057626 43.677315,8.72335815 43.677315,8.72335815 C41.3797439,6.77943401 40.2638528,6.20270963 40.2638528,6.20270963 C44.4123361,7.346832 47.027509,8.98727005 47.027509,8.98727005 C46.5710195,9.13573625 46.0686543,9.3046197 45.5307479,9.49316421 C45.5307479,9.49316421 47.4051021,10.3622838 48.1171853,11.1439369 C48.1171853,11.1439369 37.7313572,14.5231183 32.0782988,17.5040373 C32.0782988,17.5040373 47.7292575,16.3899106 50.1011878,19.4177136 C50.1011878,19.4177136 54.750776,19.769092 53.4846543,23.3600079 C53.4846543,23.3600079 59.7968623,18.136468 56.5600975,13.9509311" id="Fill-9" fill="#F2A900"></path>
            <path d="M17.8458351,49.1557703 L17.402453,47.2622591 L17.1937433,46.0858724 L16.6858326,47.2622591 L15.7322713,49.1557703 L17.8458351,49.1557703 Z M22.2388213,53.6591609 C21.5045564,53.787714 20.7385313,53.8797177 20.0400596,53.8797177 C19.6357476,53.8797177 19.2543734,53.8431683 18.9130776,53.787714 L18.4694435,51.8944549 L14.3335634,51.8944549 L13.37975,53.787714 C12.8761244,53.8431683 12.3588874,53.8613169 11.8625717,53.8613169 C11.2193022,53.8613169 10.620144,53.8061147 10.1618901,53.6591609 L16.1653187,41.9870459 C16.7291878,41.8947902 17.3200278,41.8766415 17.8712936,41.8766415 C18.4412122,41.8766415 18.9352593,41.8947902 19.474174,41.9870459 L22.2388213,53.6591609 Z" id="Fill-11" fill="#F2A900"></path>
            <path d="M43.0157708,52.3358709 C42.9514943,52.8137858 42.8476436,53.3098494 42.6729626,53.7880165 L34.7503123,53.7880165 L36.3410935,41.9868442 C36.9049626,41.8950926 37.4640425,41.8396384 38.0153083,41.8396384 C38.5668262,41.8396384 39.1107821,41.8950926 39.6496968,41.9868442 L38.4604548,50.8098702 L43.0742499,50.8098702 C43.1153364,51.3248387 43.0848366,51.8211544 43.0157708,52.3358709" id="Fill-13" fill="#F2A900"></path>
            <path d="M53.7826705,52.6664539 C54.0095289,51.5268687 54.7022031,50.4792872 55.5753558,50.0011202 C56.2892034,50.5710388 57.5666681,51.0489538 58.9820122,51.0489538 C60.0666473,51.0489538 60.4616329,50.8465457 60.5135583,50.4608865 C60.5755662,50.0011202 60.3797118,49.8173649 58.4453662,49.3029005 C56.4558183,48.7881841 54.8141199,48.0161095 55.1223952,45.5897332 C55.4336953,43.1452083 57.5802796,41.6746619 60.4848229,41.6746619 C62.6170395,41.6746619 63.9935656,42.3728816 64.5833974,42.9059987 C64.3711588,43.9351795 63.7442735,45.0379632 62.7324852,45.5897332 C62.1512236,45.130471 61.1235552,44.7072542 59.8183634,44.7072542 C58.899335,44.7072542 58.4100771,44.9278109 58.3606724,45.2955735 C58.3037057,45.7185383 58.4332671,45.8470914 60.5859009,46.3804606 C62.6487996,46.8946729 64.0084375,47.8507549 63.7863683,49.9093686 C63.4927128,52.6299045 61.4593056,54.0820501 58.4998122,54.0820501 C55.9814322,54.0820501 54.5020636,53.3283762 53.7826705,52.6664539" id="Fill-15" fill="#F2A900"></path>
            <path d="M52.7293672,50.8650977 L47.8398132,50.8650977 L48.0578493,49.2473454 L52.2486795,49.2473454 C52.4236125,48.7696825 52.5246905,48.2917676 52.588715,47.8141047 C52.6560163,47.317789 52.6834913,46.839622 52.6376155,46.3619591 L48.4467853,46.3619591 L48.6426397,44.9095614 L53.366335,44.9095614 C53.5435366,44.4132457 53.6448667,43.9353307 53.7114118,43.4390151 C53.7759404,42.9613522 53.8061882,42.4650365 53.7605645,41.9868694 L44.2662898,41.9868694 L45.5306471,43.4483415 L44.1372326,53.7880417 L52.3353898,53.7880417 C52.5123393,53.291726 52.6136694,52.813559 52.6804666,52.3174953 C52.7447431,51.8395804 52.775243,51.3432647 52.7293672,50.8650977" id="Fill-17" fill="#F2A900"></path>
            <path d="M9.22985512,50.8650977 L4.34004906,50.8650977 L4.55833722,49.2473454 L8.74941951,49.2473454 C8.92410045,48.7696825 9.02543052,48.2915155 9.08970706,47.8141047 C9.15675631,47.317789 9.18423138,46.839622 9.13835558,46.3619591 L4.94727329,46.3619591 L5.14312768,44.9095614 L9.86707506,44.9095614 C10.0445287,44.4129936 10.1458588,43.9353307 10.212656,43.4390151 C10.2769325,42.9613522 10.3071803,42.4650365 10.2610524,41.9868694 L0.766777723,41.9868694 L2.03138708,43.4483415 L0.637720519,53.7880417 L8.83587776,53.7880417 C9.01307935,53.291726 9.11440942,52.813559 9.1812066,52.3174953 C9.24548314,51.8395804 9.27573092,51.3430126 9.22985512,50.8650977" id="Fill-19" fill="#F2A900"></path>
            <path d="M28.8699922,46.7397287 C28.4487918,47.4684482 28.3177181,48.3554644 28.3260362,49.1582909 L30.179217,49.1582909 L29.8825367,50.9756785 C29.5833357,51.0122279 29.250106,51.0303766 28.8641947,51.0303766 C27.1730916,51.0303766 26.2704474,49.8174405 26.5305783,47.8873799 C26.7957505,45.9205179 27.9837321,44.7441312 29.7665868,44.7441312 C30.575463,44.7441312 31.3016618,44.9462873 31.8539359,45.3508513 C32.900005,44.8177342 33.720224,43.6413475 34.0267349,42.5935139 C33.203239,42.0235953 31.9391338,41.5824818 30.2480307,41.5824818 C26.2959059,41.5824818 23.4183336,44.2478155 22.9202534,47.9423301 C22.4196526,51.6557495 24.4200393,54.1373279 28.445515,54.1373279 C30.6694831,54.1373279 31.9103984,53.6591609 32.8914348,53.1996467 L33.7582858,46.7397287 L28.8699922,46.7397287 Z" id="Fill-21" fill="#F2A900"></path>
            <path d="M15.9561049,35.7840324 C15.8451963,35.7840324 15.7496637,35.7908381 15.669003,35.7984001 L15.6160694,35.8031893 L15.6054827,35.8551147 C15.357955,37.0488938 14.9569198,38.301152 14.495389,39.3300807 C14.3496956,38.4493661 14.2370226,37.3622104 14.1520767,36.0166882 L14.1485478,35.9619902 L14.0951101,35.9511514 C13.927739,35.9163664 13.7427234,35.899226 13.5448525,35.899226 C13.3386634,35.899226 13.1511272,35.9158623 12.9709008,35.9508993 L12.9222523,35.9602257 L12.9141862,36.0091263 C12.7589143,36.9357167 12.3523337,38.1640287 11.8159397,39.3341137 C11.6528537,38.2462018 11.5666475,36.9977246 11.5784946,35.8704906 L11.5792508,35.8084827 L11.517747,35.7989042 C11.420702,35.7842844 11.3019794,35.7767225 11.1741826,35.7767225 C10.9001881,35.7767225 10.5672104,35.8102471 10.305315,35.8644411 L10.2463318,35.8770443 L10.2483484,35.9370357 C10.3136332,37.7140929 10.5339378,39.2179118 10.9223698,40.5341945 L10.9354771,40.5783058 L10.9811009,40.5848595 C11.183761,40.6125867 11.3707931,40.6357766 11.6059696,40.6357766 C11.7819109,40.6357766 11.9981826,40.6171238 12.1995824,40.5846075 L12.2308384,40.579062 L12.2479788,40.5525952 C12.5312997,40.1129941 13.0319005,39.2468993 13.31749,38.2298176 C13.368155,38.9267769 13.449824,39.6859963 13.6618106,40.5314218 L13.6731535,40.5762893 L13.7187772,40.5843554 C13.9219415,40.6204007 14.1011596,40.6357766 14.3174313,40.6357766 C14.5359715,40.6357766 14.7366151,40.6183842 14.9130605,40.5841033 L14.9430562,40.5780538 L14.9596925,40.5528473 C15.8608243,39.1591807 16.3974704,37.5189947 16.842869,35.9541761 L16.8605135,35.8921682 L16.8005221,35.868222 C16.6780186,35.8200776 16.2537935,35.7840324 15.9561049,35.7840324 Z M20.8507002,35.8271355 L17.7916411,35.8271355 L17.1476154,40.5994793 L20.2661618,40.5994793 L20.2860749,40.5604092 C20.4317684,40.2690223 20.4723508,39.9793998 20.4267271,39.5612242 L20.4196693,39.4977038 L18.5191003,39.4977038 L18.626984,38.6883236 L20.2603643,38.6883236 L20.2800253,38.6484973 C20.4042933,38.3934077 20.4463881,38.0838721 20.4083263,37.7012376 L20.4020247,37.6372132 L18.76688,37.6372132 L18.8578754,36.929163 L20.7002174,36.929163 L20.7196264,36.8888326 C20.8786793,36.56014 20.9180015,36.2795919 20.8597745,35.8878831 L20.8507002,35.8271355 Z M23.6471076,35.7043799 C23.0146769,35.7043799 22.4775267,35.9012425 22.1347185,36.2584184 C21.856691,36.5480409 21.7188115,36.9258861 21.736456,37.3511196 C21.7757782,38.3104784 22.5314686,38.5663242 23.0832385,38.7526001 C23.4830134,38.887959 23.7287766,38.9822312 23.7375989,39.1972425 C23.7421361,39.3063866 23.7171816,39.3880556 23.6612232,39.4457785 C23.5719923,39.5387904 23.3975634,39.5844141 23.1283582,39.5844141 C22.6779183,39.5844141 22.2085735,39.4271257 21.9325625,39.1838831 L21.8945007,39.1501064 L21.8503894,39.1753129 C21.5390893,39.3497418 21.2960987,39.6968351 21.2159421,40.081234 L21.207624,40.120304 L21.2371156,40.1477791 C21.4637219,40.3595136 21.9983514,40.714925 23.0318173,40.714925 C23.6793719,40.714925 24.2031627,40.5258764 24.5469791,40.1676922 C24.8325686,39.8702557 24.9734729,39.4702288 24.954568,39.0112187 C24.9134814,38.0077485 24.1277953,37.7463572 23.5540957,37.55504 C23.2185974,37.4438794 22.9541813,37.3554047 22.9463673,37.1721535 C22.9435946,37.1013233 22.964516,37.0433484 23.0101397,36.9957081 C23.1018913,36.9004276 23.2864028,36.8497626 23.543761,36.8497626 C24.0806592,36.8497626 24.4443887,37.0718317 24.5754625,37.1678684 L24.6117598,37.1943352 L24.651334,37.1731618 C24.9515432,37.0128485 25.1952899,36.6566809 25.2729259,36.2657283 L25.2804879,36.2269103 L25.2515004,36.1991832 C25.1264762,36.0832333 24.6417555,35.7043799 23.6471076,35.7043799 Z M29.8345435,35.8271355 L26.1778387,35.8271355 L26.1596901,35.872003 C26.050798,36.1462496 26.0051743,36.4701529 26.0213065,36.8606014 L26.0238271,36.929163 L27.2511309,36.929163 L26.7548152,40.5851116 L26.820352,40.598219 C26.9899917,40.633256 27.1676974,40.6501443 27.3632997,40.6501443 C27.5594062,40.6501443 27.7424053,40.633256 27.9228837,40.5987231 L27.9732967,40.5886405 L28.4701165,36.929163 L29.6896062,36.929163 L29.7075028,36.8832872 C29.8194196,36.5944209 29.8622707,36.2705175 29.8385766,35.8939326 L29.8345435,35.8271355 Z M34.8876876,35.6612768 C34.154431,35.6612768 33.4867112,35.9362795 33.0075359,36.4353679 C32.4759311,36.9894065 32.2031969,37.7854273 32.2399984,38.6777369 C32.2916717,39.9347843 33.1181924,40.714925 34.3969173,40.714925 C35.0230464,40.714925 35.5412918,40.5548638 35.9370336,40.2382704 L35.9662731,40.2150804 L35.9637525,40.1780269 C35.9390501,39.7661529 35.7600841,39.4603982 35.4321477,39.2695851 L35.390557,39.2451348 L35.3522431,39.2748785 C35.134207,39.4435099 34.9484352,39.5627366 34.535553,39.5627366 C33.9510146,39.5627366 33.5857727,39.1727922 33.5590538,38.5201963 C33.5358638,37.9583438 33.6860945,37.4789164 33.9815145,37.1713973 C34.1967779,36.9468075 34.4748054,36.828337 34.7853493,36.828337 C35.1006824,36.828337 35.3073756,36.8984111 35.5223869,37.0786374 L35.5586842,37.1088852 L35.6007791,37.0874597 C35.9234221,36.9223572 36.2231272,36.5573673 36.3300027,36.1999394 L36.342858,36.1568363 L36.3095854,36.1265885 C36.0764255,35.914602 35.6406053,35.6612768 34.8876876,35.6612768 Z M39.2723557,35.6753924 C38.5612808,35.6753924 37.9449822,35.9254408 37.4912655,36.3985665 C36.9732722,36.9379853 36.7088562,37.7423242 36.7464138,38.6636212 C36.7988433,39.9378091 37.6172979,40.7295448 38.8829155,40.7295448 C39.6002921,40.7295448 40.2196154,40.4792444 40.6743404,40.0056145 C41.1905692,39.467456 41.4542291,38.6636212 41.4164193,37.741568 C41.3642419,36.4673802 40.5427626,35.6753924 39.2723557,35.6753924 Z M39.7018742,39.2741223 C39.5135818,39.4702288 39.2675665,39.5697944 38.9711382,39.5697944 C38.4186121,39.5697944 38.0866426,39.1924533 38.0594196,38.5350682 C38.0344652,37.9212902 38.1746133,37.4232101 38.4546573,37.1315711 C38.6432018,36.9347084 38.888713,36.8353949 39.1846371,36.8353949 C39.9025178,36.8353949 40.0766946,37.3977515 40.0961036,37.869869 C40.1213101,38.4844031 39.9811621,38.9824833 39.7018742,39.2741223 Z M44.9821287,35.8283958 C44.7958528,35.7910902 44.6310024,35.7840324 44.4404414,35.7840324 C44.2798761,35.7840324 44.0694019,35.7888216 43.8662376,35.8283958 L43.8314527,35.8349495 L41.5167411,40.516802 L41.5905961,40.5450333 C41.7390623,40.6002355 41.9351688,40.6287188 42.1743783,40.6287188 C42.3614105,40.6287188 42.5315542,40.6186362 42.6802725,40.5992272 L42.7185864,40.5941859 L43.1541544,39.6839798 L44.6370519,39.6839798 L44.8167742,40.5901529 L44.8649186,40.5987231 C45.0050666,40.6234255 45.1381569,40.6357766 45.2611645,40.6357766 C45.4749155,40.6357766 45.7055549,40.6080495 45.9868592,40.5475539 L46.0569333,40.5329342 L45.0282566,35.8374701 L44.9821287,35.8283958 Z M43.6340859,38.6830302 L44.1109926,37.6798121 L44.2012318,37.4756396 L44.2347564,37.6649403 L44.4364083,38.6830302 L43.6340859,38.6830302 Z M49.1316203,35.7043799 C48.4991896,35.7043799 47.9622915,35.9012425 47.6192312,36.2584184 C47.3414557,36.5480409 47.2035763,36.9258861 47.2209687,37.3511196 C47.2602909,38.3104784 48.0159813,38.5663242 48.5677512,38.7526001 C48.9677782,38.887959 49.2132893,38.9822312 49.2223637,39.1972425 C49.2266488,39.3063866 49.2016943,39.3880556 49.145988,39.4457785 C49.056505,39.5387904 48.8820761,39.5844141 48.6131229,39.5844141 C48.162683,39.5844141 47.6930862,39.4271257 47.4170752,39.1838831 L47.3790134,39.1501064 L47.3349021,39.1753129 C47.0243582,39.3497418 46.7811156,39.696583 46.7004548,40.0809819 L46.6921367,40.120304 L46.7216283,40.1477791 C46.9482346,40.3595136 47.4831162,40.714925 48.51633,40.714925 C49.1636326,40.714925 49.6876754,40.5258764 50.0314918,40.1676922 C50.3170813,39.8702557 50.4582376,39.4702288 50.4395848,39.0112187 C50.3982462,38.0077485 49.612308,37.7463572 49.0386084,37.55504 C48.7033621,37.4438794 48.438694,37.3554047 48.4311321,37.1721535 C48.4281073,37.1013233 48.4490287,37.0433484 48.4949045,36.9957081 C48.586404,36.9004276 48.7711676,36.8497626 49.0285258,36.8497626 C49.5654239,36.8497626 49.9289014,37.0718317 50.0602272,37.1678684 L50.0962725,37.1943352 L50.1360988,37.1731618 C50.4360559,37.0128485 50.6800547,36.6566809 50.7574386,36.2657283 L50.7652526,36.2269103 L50.7360131,36.1991832 C50.6109889,36.0832333 50.1265203,35.7043799 49.1316203,35.7043799 Z M55.3233413,35.8939326 L55.3188042,35.8271355 L51.6626035,35.8271355 L51.6444548,35.872003 C51.5353107,36.1467537 51.4899391,36.470405 51.5058192,36.8606014 L51.5085919,36.929163 L52.7361477,36.929163 L52.2393279,40.5851116 L52.3048647,40.598219 C52.4747564,40.633256 52.6524622,40.6501443 52.8480645,40.6501443 C53.0441709,40.6501443 53.226918,40.633256 53.4073964,40.5987231 L53.4578094,40.5886405 L53.9546292,36.929163 L55.174371,36.929163 L55.1920155,36.8832872 C55.3044365,36.5944209 55.3470354,36.2705175 55.3233413,35.8939326 Z" id="Fill-23" fill="#F2A900"></path>
        </g>
        <rect id="Bounding-box" fill-opacity="0" fill="#FFFFFF" x="0" y="0" width="80" height="80"></rect>
    </g>
</svg>